<svg width="283" height="54" xmlns="http://www.w3.org/2000/svg" xmlns:xlink="http://www.w3.org/1999/xlink"><svg width="172.13" height="6.38" viewBox="-1 -1 342.26 10.75" y="47.55" xmlns="http://www.w3.org/2000/svg"><path data-name="Cálculos de L’OREAL, basados en parte en datos reportados por N" d="M2.26 2.842l-.05-.205a2.788 2.788 0 01-.64.077 1.247 1.247 0 110-2.492 2.9 2.9 0 01.65.077L2.26.09A2.5 2.5 0 001.57 0a1.471 1.471 0 100 2.936 2.612 2.612 0 00.69-.094zm2.35.047V1.466a.715.715 0 00-.85-.7 2.872 2.872 0 00-.67.081l.03.206a3.722 3.722 0 01.63-.064.489.489 0 01.61.491v.239h-.7a.58.58 0 00-.68.59.6.6 0 00.7.612.8.8 0 00.68-.3v.26h.25zm-.25-.79a.6.6 0 01-.68.6.372.372 0 01-.45-.372.36.36 0 01.45-.384h.68v.154zM4.47.017h-.29l-.41.517h.21zm1.75 2.9v-.211h-.19a.281.281 0 01-.3-.346V.048h-.25v2.3a.5.5 0 00.54.573h.2zm2.25-.068l-.04-.21a1.682 1.682 0 01-.45.064.855.855 0 010-1.709 1.68 1.68 0 01.45.064l.04-.206a1.709 1.709 0 00-.52-.081 1.078 1.078 0 000 2.155 1.99 1.99 0 00.52-.079zm2.48.042V.806h-.24v1.055a.755.755 0 01-.7.83.446.446 0 01-.5-.526V.806h-.25v1.38a.66.66 0 00.71.736.838.838 0 00.74-.428v.393h.24zm1.7.026v-.211h-.18a.283.283 0 01-.31-.346V.048h-.25v2.3a.5.5 0 00.54.573h.2zm2.6-1.069a.975.975 0 10-.97 1.078.992.992 0 00.97-1.08zm-.25 0a.731.731 0 11-.72-.854.744.744 0 01.72.852zm2.47.526c0-.3-.15-.423-.73-.662-.4-.163-.49-.248-.49-.424 0-.205.14-.294.5-.294a2.6 2.6 0 01.59.076l.04-.2a2.122 2.122 0 00-.64-.1.607.607 0 00-.74.492.664.664 0 00.58.641c.54.218.64.269.64.462 0 .23-.22.337-.55.337a1.662 1.662 0 01-.67-.158l-.06.192a1.661 1.661 0 00.74.189.655.655 0 00.79-.553zm3.71.517V.045h-.25V1.19a.745.745 0 00-.68-.419 1.091 1.091 0 000 2.155.745.745 0 00.68-.419v.384h.25zm-.25-1.043a.694.694 0 11-.67-.854.74.74 0 01.67.852zm2.95.09v-.09a.953.953 0 00-.91-1.077.992.992 0 00-.97 1.077 1.02 1.02 0 001.08 1.078 2.332 2.332 0 00.68-.107l-.05-.2a2.339 2.339 0 01-.63.089.754.754 0 01-.82-.765h1.62zm-.25-.214h-1.37a.711.711 0 01.71-.73.678.678 0 01.66.728zm4.1 1.167v-.222h-1.5V.045h-.25v2.846h1.75zm1-2.445v-.4h-.32v.4h.18l-.15.453h.14zm3.54 1.026a1.345 1.345 0 10-1.34 1.466 1.379 1.379 0 001.34-1.468zm-.25 0A1.1 1.1 0 1130.93.224a1.135 1.135 0 011.09 1.246zm3.62 1.419l-.93-1.261a.788.788 0 00.63-.778.806.806 0 00-.86-.807h-1.29v2.846h.26V1.656h.99l.91 1.235h.29zM35.08.852a.552.552 0 01-.6.59h-1.03V.267h1.03a.58.58 0 01.6.583zm3.25 2.039v-.222h-1.64V1.526h1.53v-.22h-1.53V.267h1.64V.045h-1.9v2.846h1.9zm3.17 0L40.31.045h-.18l-1.18 2.846h.26l.31-.795h1.4l.32.795h.26zm-.66-1h-1.23l.61-1.53zm3.16 1v-.222h-1.5V.045h-.25v2.846H44zm1.02 0v-.4h-.32v.4h.18l-.15.453h.14zm4.03-1.043a.954.954 0 00-.91-1.077.76.76 0 00-.69.419V.045h-.25v2.846h.25v-.385a.76.76 0 00.69.419.954.954 0 00.91-1.079zm-.24 0a.7.7 0 11-.68-.854.742.742 0 01.68.852zm2.54 1.043V1.466a.706.706 0 00-.84-.7 2.893 2.893 0 00-.68.081l.03.206a3.928 3.928 0 01.64-.064.484.484 0 01.6.491v.239h-.7a.576.576 0 00-.67.59.6.6 0 00.7.612.781.781 0 00.67-.3v.26h.25zm-.25-.79a.6.6 0 01-.68.6.364.364 0 01-.44-.372.356.356 0 01.44-.384h.68v.154zm2.53.273c0-.3-.14-.423-.73-.662-.4-.163-.48-.248-.48-.424 0-.205.14-.294.5-.294a2.675 2.675 0 01.59.076l.03-.2a2.122 2.122 0 00-.64-.1.6.6 0 00-.73.492.653.653 0 00.57.641c.54.218.65.269.65.462 0 .23-.23.337-.56.337a1.579 1.579 0 01-.66-.158l-.07.192a1.7 1.7 0 00.74.189.655.655 0 00.79-.553zm2.28.517V1.466a.71.71 0 00-.85-.7 2.872 2.872 0 00-.67.081l.03.206a3.828 3.828 0 01.64-.064.484.484 0 01.6.491v.239h-.7a.576.576 0 00-.67.59.6.6 0 00.7.612.781.781 0 00.67-.3v.26h.25zm-.25-.79a.6.6 0 01-.68.6.372.372 0 01-.45-.372.364.364 0 01.45-.384h.68v.154zm2.85.79V.045h-.25V1.19a.745.745 0 00-.68-.419 1.091 1.091 0 000 2.155.745.745 0 00.68-.419v.384h.25zm-.25-1.043a.694.694 0 11-.67-.854.74.74 0 01.67.852zm3.02 0a.975.975 0 10-.97 1.078.992.992 0 00.97-1.08zm-.25 0a.731.731 0 11-.72-.854.744.744 0 01.72.852zm2.47.526c0-.3-.14-.423-.73-.662-.4-.163-.49-.248-.49-.424 0-.205.14-.294.5-.294a2.6 2.6 0 01.59.076l.04-.2a2.122 2.122 0 00-.64-.1.607.607 0 00-.74.492.664.664 0 00.58.641c.54.218.64.269.64.462 0 .23-.22.337-.55.337a1.662 1.662 0 01-.67-.158l-.06.192a1.661 1.661 0 00.74.189.655.655 0 00.79-.553zm3.73-.436v-.09a.954.954 0 00-.92-1.077.984.984 0 00-.96 1.077 1.02 1.02 0 001.08 1.078 2.438 2.438 0 00.68-.107l-.05-.2a2.393 2.393 0 01-.63.089.749.749 0 01-.82-.765h1.62zm-.26-.214h-1.36a.709.709 0 01.7-.73.667.667 0 01.66.728zm2.79 1.167V1.506a.67.67 0 00-.72-.74.817.817 0 00-.72.428V.806h-.26v2.081h.26V1.832a.748.748 0 01.69-.83.447.447 0 01.5.522v1.363h.25zm4-1.043a.954.954 0 00-.91-1.077.745.745 0 00-.68.419V.806h-.26v2.821h.26V2.506a.745.745 0 00.68.419.954.954 0 00.91-1.079zm-.24 0a.694.694 0 11-.68-.854.736.736 0 01.68.852zm2.54 1.043V1.466a.706.706 0 00-.84-.7 2.893 2.893 0 00-.68.081l.04.206a3.722 3.722 0 01.63-.064.493.493 0 01.61.491v.239h-.71a.576.576 0 00-.67.59.6.6 0 00.7.612.814.814 0 00.68-.3v.26h.24zm-.24-.79a.6.6 0 01-.68.6.368.368 0 01-.45-.372.356.356 0 01.44-.384h.69v.154zm2.16-1.086V.771a.94.94 0 00-.77.483V.806h-.25v2.081h.25V1.846a.816.816 0 01.77-.833zm1.54 1.868l-.03-.188a1.305 1.305 0 01-.24.025c-.17 0-.24-.081-.24-.363V1.032h.42V.806h-.42v-.59h-.25v.59h-.29v.222h.29V2.34c0 .432.17.582.48.582a.963.963 0 00.28-.041zm2.52-.945v-.09a.954.954 0 00-.92-1.077.984.984 0 00-.96 1.077 1.014 1.014 0 001.08 1.078 2.438 2.438 0 00.68-.107l-.05-.2a2.463 2.463 0 01-.64.089.76.76 0 01-.82-.765h1.63zm-.26-.214h-1.37a.717.717 0 01.71-.73.672.672 0 01.66.728zm4.01.214v-.09a.954.954 0 00-.92-1.077.984.984 0 00-.96 1.077 1.014 1.014 0 001.08 1.078 2.438 2.438 0 00.68-.107l-.05-.2a2.449 2.449 0 01-.63.089.763.763 0 01-.83-.765h1.63zm-.26-.214h-1.37a.717.717 0 01.71-.73.667.667 0 01.66.728zm2.78 1.167V1.506a.663.663 0 00-.71-.74.833.833 0 00-.73.428V.806h-.25v2.081h.25V1.832a.755.755 0 01.7-.83.447.447 0 01.5.522v1.363h.24zm3.86 0V.045h-.24V1.19a.771.771 0 00-.69-.419 1.091 1.091 0 000 2.155.771.771 0 00.69-.419v.384h.24zm-.24-1.043a.7.7 0 11-.68-.854.746.746 0 01.68.852zm2.69 1.043V1.466a.706.706 0 00-.84-.7 2.893 2.893 0 00-.68.081l.03.206a3.828 3.828 0 01.64-.064.484.484 0 01.6.491v.239h-.7a.576.576 0 00-.67.59.6.6 0 00.7.612.781.781 0 00.67-.3v.26h.25zm-.25-.79a.6.6 0 01-.68.6.364.364 0 01-.44-.372.356.356 0 01.44-.384h.68v.154zm1.99.782l-.03-.188a1.323 1.323 0 01-.25.025c-.16 0-.24-.081-.24-.363V1.032h.43V.806h-.43v-.59h-.25v.59h-.29v.222h.29V2.34a.465.465 0 00.48.582 1.024 1.024 0 00.29-.041zm2.58-1.035a.975.975 0 10-.97 1.078.992.992 0 00.97-1.08zm-.25 0a.731.731 0 11-.72-.854.744.744 0 01.72.852zm2.47.526c0-.3-.15-.423-.73-.662-.4-.163-.49-.248-.49-.424 0-.205.14-.294.5-.294a2.6 2.6 0 01.59.076l.04-.2a2.122 2.122 0 00-.64-.1.607.607 0 00-.74.492.664.664 0 00.58.641c.54.218.64.269.64.462 0 .23-.22.337-.55.337a1.662 1.662 0 01-.67-.158l-.07.192a1.74 1.74 0 00.75.189.655.655 0 00.79-.553zm3.02-1.359V.771a.909.909 0 00-.76.483V.806h-.25v2.081h.25V1.846a.814.814 0 01.76-.833zm2.43.923v-.09a.954.954 0 00-.92-1.077.99.99 0 00-.96 1.077 1.02 1.02 0 001.08 1.078 2.438 2.438 0 00.68-.107l-.05-.2a2.393 2.393 0 01-.63.089.754.754 0 01-.82-.765h1.62zm-.25-.214h-1.37a.709.709 0 01.7-.73.68.68 0 01.67.728zm2.94.124a.961.961 0 00-.92-1.077.745.745 0 00-.68.419V.806h-.26v2.821h.26V2.506a.745.745 0 00.68.419.962.962 0 00.92-1.079zm-.25 0a.694.694 0 11-.68-.854.736.736 0 01.68.852zm2.87 0a.975.975 0 10-.97 1.078.992.992 0 00.97-1.08zm-.25 0a.731.731 0 11-.72-.854.749.749 0 01.72.852zm2.1-.833V.771a.94.94 0 00-.77.483V.806h-.25v2.081h.25V1.846a.816.816 0 01.77-.833zm1.55 1.868l-.04-.188a1.305 1.305 0 01-.24.025c-.16 0-.24-.081-.24-.363V1.032h.43V.806h-.43v-.59h-.25v.59h-.29v.222h.29V2.34c0 .432.17.582.48.582a1.073 1.073 0 00.29-.041zm2.25.008V1.466a.706.706 0 00-.84-.7 2.893 2.893 0 00-.68.081l.03.206a3.928 3.928 0 01.64-.064.484.484 0 01.6.491v.239h-.7a.576.576 0 00-.67.59.6.6 0 00.7.612.781.781 0 00.67-.3v.26h.25zm-.25-.79a.6.6 0 01-.68.6.364.364 0 01-.44-.372.356.356 0 01.44-.384h.68v.154zm2.85.79V.045h-.25V1.19a.745.745 0 00-.68-.419 1.091 1.091 0 000 2.155.745.745 0 00.68-.419v.384h.25zm-.25-1.043a.694.694 0 11-.67-.854.74.74 0 01.67.852zm3.02 0a.975.975 0 10-.97 1.078.992.992 0 00.97-1.08zm-.24 0a.751.751 0 01-.73.855.869.869 0 010-1.709.75.75 0 01.73.852zm2.46.526c0-.3-.14-.423-.73-.662-.4-.163-.49-.248-.49-.424 0-.205.14-.294.5-.294a2.6 2.6 0 01.59.076l.04-.2a2.122 2.122 0 00-.64-.1.6.6 0 00-.73.492.653.653 0 00.57.641c.54.218.64.269.64.462 0 .23-.22.337-.55.337a1.579 1.579 0 01-.66-.158l-.07.192a1.661 1.661 0 00.74.189.655.655 0 00.79-.553zm3.86-.526a.954.954 0 00-.91-1.077.749.749 0 00-.69.419V.806h-.25v2.821h.25V2.506a.749.749 0 00.69.419.954.954 0 00.91-1.079zm-.25 0a.694.694 0 11-.67-.854.735.735 0 01.67.852zm2.87 0a.975.975 0 10-.97 1.078.992.992 0 00.97-1.08zm-.24 0a.751.751 0 01-.73.855.869.869 0 010-1.709.75.75 0 01.73.852zm2.09-.833V.771a.909.909 0 00-.76.483V.806h-.25v2.081h.25V1.846a.814.814 0 01.76-.833zm4.29 1.876V.045h-.25V2.49L135.71.045h-.25v2.846h.25V.442l1.82 2.449h.25zm1.3 0V.806h-.25v2.081h.25zm0-2.427V.045h-.25v.419h.25zm2.7 1.474v-.09a.953.953 0 00-.91-1.077.992.992 0 00-.97 1.077 1.02 1.02 0 001.08 1.078 2.384 2.384 0 00.68-.107l-.05-.2a2.339 2.339 0 01-.63.089.754.754 0 01-.82-.765h1.62zm-.25-.214h-1.37a.711.711 0 01.71-.73.678.678 0 01.66.728zm1.8 1.193v-.211h-.18a.283.283 0 01-.31-.346V.048h-.24v2.3a.492.492 0 00.53.573h.2zm2.2-.543c0-.3-.15-.423-.73-.662-.41-.163-.49-.248-.49-.424 0-.205.14-.294.5-.294a2.675 2.675 0 01.59.076l.04-.2a2.122 2.122 0 00-.64-.1.607.607 0 00-.74.492.654.654 0 00.58.641c.54.218.64.269.64.462 0 .23-.22.337-.55.337a1.662 1.662 0 01-.67-.158l-.07.192a1.74 1.74 0 00.75.189.655.655 0 00.79-.553zm2.53-.436v-.09a.954.954 0 00-.92-1.077.99.99 0 00-.96 1.077 1.02 1.02 0 001.08 1.078 2.438 2.438 0 00.68-.107l-.05-.2a2.393 2.393 0 01-.63.089.749.749 0 01-.82-.765h1.62zm-.26-.214h-1.36a.709.709 0 01.7-.73.667.667 0 01.66.728zm2.79 1.167V1.506a.67.67 0 00-.72-.74.817.817 0 00-.72.428V.806h-.26v2.081h.26V1.832a.748.748 0 01.69-.83.447.447 0 01.5.522v1.363h.25zm5.24 0V1.506a.663.663 0 00-.71-.74.861.861 0 00-.75.441.636.636 0 00-.66-.441.8.8 0 00-.71.428V.806h-.26v2.081h.26V1.832a.741.741 0 01.67-.83.436.436 0 01.49.522v1.363h.25v-1.06a.737.737 0 01.68-.825.433.433 0 01.48.522v1.363h.26zm2.68-.953v-.09a.954.954 0 00-.92-1.077.984.984 0 00-.96 1.077 1.014 1.014 0 001.08 1.078 2.438 2.438 0 00.68-.107l-.05-.2a2.449 2.449 0 01-.63.089.763.763 0 01-.83-.765h1.63zm-.26-.214h-1.37a.717.717 0 01.71-.73.667.667 0 01.66.728zm2.79 1.167V.045h-.24V1.19a.771.771 0 00-.69-.419 1.091 1.091 0 000 2.155.771.771 0 00.69-.419v.384h.24zm-.24-1.043a.7.7 0 11-.68-.854.746.746 0 01.68.852zm1.47 1.043V.806h-.24v2.081h.24zm0-2.427V.045h-.24v.419h.24zm2.45 2.427V1.466a.706.706 0 00-.84-.7 2.893 2.893 0 00-.68.081l.03.206a3.928 3.928 0 01.64-.064.484.484 0 01.6.491v.239h-.7a.576.576 0 00-.67.59.6.6 0 00.7.612.781.781 0 00.67-.3v.26h.25zm-.25-.79a.6.6 0 01-.68.6.364.364 0 01-.44-.372.356.356 0 01.44-.384h.68v.154zm2.84.79V1.506a.663.663 0 00-.71-.74.833.833 0 00-.73.428V.806h-.25v2.081h.25V1.832a.754.754 0 01.69-.83.443.443 0 01.5.522v1.363h.25zm1.8-.008l-.03-.188a1.305 1.305 0 01-.24.025c-.17 0-.24-.081-.24-.363V1.032h.43V.806h-.43v-.59h-.25v.59h-.29v.222h.29V2.34c0 .432.17.582.48.582a.963.963 0 00.28-.041zm2.52-.945v-.09a.954.954 0 00-.92-1.077.984.984 0 00-.96 1.077 1.014 1.014 0 001.08 1.078 2.438 2.438 0 00.68-.107l-.05-.2a2.463 2.463 0 01-.64.089.76.76 0 01-.82-.765h1.63zm-.26-.214H170a.717.717 0 01.71-.73.672.672 0 01.66.728zm4.01.214v-.09a.954.954 0 00-.92-1.077.984.984 0 00-.96 1.077 1.014 1.014 0 001.08 1.078 2.438 2.438 0 00.68-.107l-.05-.2a2.449 2.449 0 01-.63.089.749.749 0 01-.82-.765h1.62zm-.26-.214h-1.36a.7.7 0 01.7-.73.667.667 0 01.66.728zm1.81 1.193v-.211h-.19a.281.281 0 01-.3-.346V.048h-.25v2.3a.5.5 0 00.54.573h.2zm3.39-.543c0-.3-.15-.423-.73-.662-.4-.163-.49-.248-.49-.424 0-.205.14-.294.5-.294a2.6 2.6 0 01.59.076l.04-.2a2.122 2.122 0 00-.64-.1.607.607 0 00-.74.492.664.664 0 00.58.641c.54.218.64.269.64.462 0 .23-.22.337-.55.337a1.662 1.662 0 01-.67-.158l-.07.192a1.74 1.74 0 00.75.189.655.655 0 00.79-.553zm2.53-.436v-.09a.954.954 0 00-.92-1.077.99.99 0 00-.96 1.077 1.02 1.02 0 001.08 1.078 2.438 2.438 0 00.68-.107l-.05-.2a2.339 2.339 0 01-.63.089.754.754 0 01-.82-.765h1.62zm-.25-.214h-1.37a.709.709 0 01.7-.73.68.68 0 01.67.728zm2.1-.709V.771a.909.909 0 00-.76.483V.806h-.25v2.081h.25V1.846a.814.814 0 01.76-.833zm2.27-.2h-.25l-.7 1.816-.7-1.816h-.25l.83 2.081h.24zm.89 2.081V.806h-.25v2.081h.25zm0-2.427V.05h-.25v.419h.25zm2.42 2.385l-.04-.21a1.581 1.581 0 01-.45.064.855.855 0 010-1.709 1.625 1.625 0 01.45.064l.04-.206a1.618 1.618 0 00-.52-.081 1.078 1.078 0 000 2.155 1.93 1.93 0 00.52-.084zm1.08.042V.806h-.24v2.081h.24zm0-2.427V.05h-.24v.419h.24zm2.78 1.384a.975.975 0 10-.97 1.078.992.992 0 00.97-1.085zm-.25 0a.731.731 0 11-.72-.854.749.749 0 01.72.847zm4.79 1.043l-.93-1.261a.778.778 0 00.63-.778.806.806 0 00-.86-.807h-1.29v2.846h.26V1.661h.99l.91 1.235h.29zm-.55-2.039a.559.559 0 01-.61.59h-1.03V.272h1.03a.589.589 0 01.61.578zm3 1.086v-.09a.954.954 0 00-.92-1.077.984.984 0 00-.96 1.077 1.014 1.014 0 001.08 1.078 2.438 2.438 0 00.68-.107l-.05-.2a2.449 2.449 0 01-.63.089.749.749 0 01-.82-.765h1.62zm-.26-.214h-1.36a.7.7 0 01.7-.73.667.667 0 01.66.723zm1.93 1.159l-.03-.188a1.305 1.305 0 01-.24.025c-.17 0-.24-.081-.24-.363V1.037h.42V.806h-.42v-.59h-.26v.59h-.28v.222h.28V2.34a.467.467 0 00.49.582.963.963 0 00.28-.041zm2.26.008v-1.43a.71.71 0 00-.85-.7 2.872 2.872 0 00-.67.081l.03.206a3.828 3.828 0 01.64-.064.484.484 0 01.6.491v.239h-.7a.576.576 0 00-.67.59.6.6 0 00.7.612.794.794 0 00.67-.3v.26h.25zm-.25-.79a.6.6 0 01-.68.6.372.372 0 01-.45-.372.364.364 0 01.45-.384h.68v.154zm1.4.79V.806h-.25v2.081h.25zm0-2.427V.05h-.25v.419h.25zm1.69 2.453v-.216h-.18a.283.283 0 01-.31-.346V.048h-.24v2.3a.492.492 0 00.53.573h.2zm1.09-.026v-.4h-.32v.4h.18l-.15.453h.14zm4.03-1.043a.954.954 0 00-.91-1.077.749.749 0 00-.69.419V.806h-.25v2.821h.25V2.506a.749.749 0 00.69.419.954.954 0 00.91-1.079zm-.25 0a.694.694 0 11-.67-.854.735.735 0 01.67.847zm2.55 1.043v-1.43a.71.71 0 00-.85-.7 2.872 2.872 0 00-.67.081l.03.206a3.828 3.828 0 01.64-.064.484.484 0 01.6.491v.239h-.7a.576.576 0 00-.67.59.6.6 0 00.7.612.794.794 0 00.67-.3v.26h.25zm-.25-.79a.6.6 0 01-.68.6.372.372 0 01-.45-.372.364.364 0 01.45-.384h.68v.154zm2.16-1.086V.776a.909.909 0 00-.76.483V.806h-.25v2.081h.25V1.846a.814.814 0 01.76-.833zm2.18 1.876v-1.43a.715.715 0 00-.85-.7 2.958 2.958 0 00-.68.081l.04.206a3.722 3.722 0 01.63-.064.493.493 0 01.61.491v.239h-.7a.58.58 0 00-.68.59.6.6 0 00.7.612.814.814 0 00.68-.3v.26h.25zm-.25-.79a.6.6 0 01-.68.6.372.372 0 01-.45-.372.356.356 0 01.44-.384h.69v.154zm3.05.816v-.216h-.18a.277.277 0 01-.3-.346V.048h-.25v2.3a.492.492 0 00.53.573h.2zm2.28-.026v-1.43a.71.71 0 00-.85-.7 2.872 2.872 0 00-.67.081l.03.206a3.828 3.828 0 01.64-.064.484.484 0 01.6.491v.239h-.7a.576.576 0 00-.67.59.6.6 0 00.7.612.794.794 0 00.67-.3v.26h.25zm-.25-.79a.6.6 0 01-.68.6.372.372 0 01-.45-.372.364.364 0 01.45-.384h.68v.154zm3.78.748l-.04-.21a1.581 1.581 0 01-.45.064.855.855 0 010-1.709 1.625 1.625 0 01.45.064l.04-.206a1.618 1.618 0 00-.52-.081 1.078 1.078 0 000 2.155 1.93 1.93 0 00.52-.084zm2.3.042v-1.43a.706.706 0 00-.84-.7 2.893 2.893 0 00-.68.081l.04.206a3.722 3.722 0 01.63-.064.493.493 0 01.61.491v.239h-.71a.576.576 0 00-.67.59.6.6 0 00.7.612.814.814 0 00.68-.3v.26h.24zm-.24-.79a.6.6 0 01-.68.6.368.368 0 01-.45-.372.356.356 0 01.44-.384h.69v.154zm1.98.782l-.03-.188a1.323 1.323 0 01-.25.025c-.16 0-.24-.081-.24-.363V1.037h.43V.806h-.43v-.59h-.25v.59h-.28v.222h.28V2.34a.467.467 0 00.49.582.963.963 0 00.28-.041zm2.51-.945v-.09a.953.953 0 00-.91-1.077.992.992 0 00-.97 1.077 1.022 1.022 0 001.09 1.078 2.438 2.438 0 00.68-.107l-.06-.2a2.339 2.339 0 01-.63.089.754.754 0 01-.82-.765h1.62zm-.25-.214h-1.37a.711.711 0 01.71-.73.678.678 0 01.66.723zm2.77 1V.806h-.25v.38a.79.79 0 00-.71-.419 1.064 1.064 0 000 2.1.786.786 0 00.71-.415v.27a.635.635 0 01-.75.726 2.3 2.3 0 01-.62-.1l-.05.192a2.175 2.175 0 00.69.124.862.862 0 00.98-.937zm-.25-.906a.7.7 0 01-.69.825.848.848 0 010-1.654.706.706 0 01.69.827zm3 .025a.975.975 0 10-.97 1.078.992.992 0 00.97-1.08zm-.25 0a.731.731 0 11-.72-.854.749.749 0 01.72.852zm2.1-.833V.771a.94.94 0 00-.77.483V.806h-.25v2.081h.25V1.846a.816.816 0 01.77-.833zm.95 1.876V.806h-.25v2.081h.25zm.43-2.872h-.3l-.41.517h.22zm2.02 2.872V1.466a.71.71 0 00-.85-.7 2.872 2.872 0 00-.67.081l.03.206a3.828 3.828 0 01.64-.064.484.484 0 01.6.491v.239h-.7a.576.576 0 00-.67.59.6.6 0 00.7.612.781.781 0 00.67-.3v.26h.25zm-.25-.79a.6.6 0 01-.68.6.372.372 0 01-.45-.372.364.364 0 01.45-.384h.68v.154zm3.32-1.2v-.4h-.18l.16-.453h-.15l-.15.453v.4h.32zm-.65 0v-.4h-.18l.15-.453h-.15l-.15.453v.4h.33zm3.63 1.945l-.05-.205a2.727 2.727 0 01-.64.077 1.247 1.247 0 110-2.492 2.9 2.9 0 01.65.077l.04-.209a2.484 2.484 0 00-.68-.09 1.471 1.471 0 100 2.936 2.538 2.538 0 00.68-.098zm1.92-1.829V.773a.926.926 0 00-.77.483v-.45h-.25v2.081h.25V1.846a.816.816 0 01.77-.833zm2.42.923v-.09a.954.954 0 00-.92-1.077.99.99 0 00-.96 1.077 1.02 1.02 0 001.08 1.078 2.438 2.438 0 00.68-.107l-.05-.2a2.339 2.339 0 01-.63.089.754.754 0 01-.82-.765h1.62zm-.25-.214h-1.37a.709.709 0 01.7-.73.68.68 0 01.67.726zm4.17 1.167V1.506a.663.663 0 00-.71-.74.861.861 0 00-.75.441.628.628 0 00-.66-.441.8.8 0 00-.71.428V.806h-.25v2.081h.25V1.832a.741.741 0 01.67-.83.436.436 0 01.49.522v1.363h.25v-1.06a.737.737 0 01.68-.825.44.44 0 01.49.522v1.363h.25zm2.42 0V1.466a.706.706 0 00-.84-.7 2.958 2.958 0 00-.68.081l.04.206a3.722 3.722 0 01.63-.064.493.493 0 01.61.491v.239h-.7a.58.58 0 00-.68.59.6.6 0 00.7.612.814.814 0 00.68-.3v.26h.24zm-.24-.79a.6.6 0 01-.68.6.372.372 0 01-.45-.372.356.356 0 01.44-.384h.69v.154zm2.53.273c0-.3-.15-.423-.73-.662-.41-.163-.49-.248-.49-.424 0-.205.14-.294.5-.294a2.675 2.675 0 01.59.076l.04-.2a2.122 2.122 0 00-.64-.1.607.607 0 00-.74.492.654.654 0 00.58.641c.54.218.64.269.64.462 0 .23-.22.337-.55.337a1.662 1.662 0 01-.67-.158l-.07.192a1.7 1.7 0 00.75.189.655.655 0 00.79-.555zm3.98-2.107V.047h-1.91v2.846h.26V1.526h1.54v-.22h-1.54V.267h1.65zm2.28 2.624V1.466a.71.71 0 00-.85-.7 2.872 2.872 0 00-.67.081l.03.206a3.828 3.828 0 01.64-.064.484.484 0 01.6.491v.239h-.7a.576.576 0 00-.67.59.6.6 0 00.7.612.781.781 0 00.67-.3v.26h.25zm-.25-.79a.6.6 0 01-.68.6.372.372 0 01-.45-.372.364.364 0 01.45-.384h.68v.154zm2.59.748l-.04-.21a1.7 1.7 0 01-.46.064.855.855 0 010-1.709 1.751 1.751 0 01.46.064l.04-.206a1.709 1.709 0 00-.52-.081 1.078 1.078 0 000 2.155 1.99 1.99 0 00.52-.081zm1.08.042V.806h-.25v2.081h.25zm0-2.427V.047h-.25v.419h.25zm2.45 2.427V1.466a.715.715 0 00-.85-.7 2.872 2.872 0 00-.67.081l.03.206a3.722 3.722 0 01.63-.064.489.489 0 01.61.491v.239h-.7a.58.58 0 00-.68.59.6.6 0 00.7.612.8.8 0 00.68-.3v.26h.25zm-.25-.79a.6.6 0 01-.68.6.372.372 0 01-.45-.372.36.36 0 01.45-.384h.68v.154zm1.86.816v-.213h-.19a.281.281 0 01-.3-.346V.048h-.25v2.3a.5.5 0 00.54.573h.2zm2.53-.979v-.09a.954.954 0 00-.92-1.077.99.99 0 00-.96 1.077 1.02 1.02 0 001.08 1.078 2.438 2.438 0 00.68-.107l-.05-.2a2.339 2.339 0 01-.63.089.754.754 0 01-.82-.765h1.62zm-.25-.214h-1.37a.709.709 0 01.7-.73.68.68 0 01.67.726zm2.47.65c0-.3-.14-.423-.73-.662-.4-.163-.49-.248-.49-.424 0-.205.14-.294.5-.294a2.6 2.6 0 01.59.076l.04-.2a2.122 2.122 0 00-.64-.1.607.607 0 00-.74.492.664.664 0 00.58.641c.54.218.64.269.64.462 0 .23-.22.337-.55.337a1.662 1.662 0 01-.67-.158l-.06.192a1.661 1.661 0 00.74.189.655.655 0 00.79-.555zm1.73-1.928v-.4h-.32v.4h.17l-.15.453h.14zm-.66 0v-.4h-.32v.4h.17l-.15.453h.14zm4.22 1.928c0-.3-.14-.423-.73-.662-.4-.163-.49-.248-.49-.424 0-.205.14-.294.5-.294a2.6 2.6 0 01.59.076l.04-.2a2.122 2.122 0 00-.64-.1.607.607 0 00-.74.492.664.664 0 00.58.641c.54.218.64.269.64.462 0 .23-.22.337-.55.337a1.662 1.662 0 01-.67-.158l-.06.192a1.661 1.661 0 00.74.189.655.655 0 00.79-.555zm2.53-.436v-.09a.953.953 0 00-.91-1.077.992.992 0 00-.97 1.077 1.022 1.022 0 001.09 1.078 2.438 2.438 0 00.68-.107l-.06-.2a2.339 2.339 0 01-.63.089.754.754 0 01-.82-.765h1.62zm-.25-.214h-1.37a.711.711 0 01.71-.73.678.678 0 01.66.726zm2.77 1V.806h-.25v.38a.79.79 0 00-.71-.419 1.064 1.064 0 000 2.1.786.786 0 00.71-.415v.27a.635.635 0 01-.75.726 2.3 2.3 0 01-.62-.1l-.05.192a2.175 2.175 0 00.69.124.862.862 0 00.98-.937zm-.25-.906a.7.7 0 01-.69.825.848.848 0 010-1.654.706.706 0 01.69.83zm4.29 1.068V1.506a.658.658 0 00-.71-.74.873.873 0 00-.75.441.628.628 0 00-.66-.441.8.8 0 00-.71.428V.806h-.25v2.081h.25V1.832a.741.741 0 01.68-.83.433.433 0 01.48.522v1.363h.26v-1.06a.73.73 0 01.67-.825.436.436 0 01.49.522v1.363h.25zm2.68-.953v-.09a.954.954 0 00-.92-1.077.99.99 0 00-.96 1.077 1.02 1.02 0 001.08 1.078 2.438 2.438 0 00.68-.107l-.05-.2a2.339 2.339 0 01-.63.089.754.754 0 01-.82-.765h1.62zm-.25-.214h-1.37a.709.709 0 01.7-.73.68.68 0 01.67.731zm2.78 1.167V1.506a.666.666 0 00-.72-.74.817.817 0 00-.72.428V.806h-.25v2.081h.25V1.832a.748.748 0 01.69-.83.443.443 0 01.5.522v1.363h.25zm1.8-.008l-.03-.188a1.323 1.323 0 01-.25.025c-.16 0-.24-.081-.24-.363V1.029h.43V.806h-.43v-.59h-.25v.59h-.28v.222h.28V2.34a.467.467 0 00.49.582 1.012 1.012 0 00.28-.041zm2.58-1.035a.975.975 0 10-.97 1.078.992.992 0 00.97-1.077zm-.24 0a.735.735 0 11-.73-.854.751.751 0 01.73.855zm3.25-.949v-.4h-.18l.16-.453h-.15l-.15.453v.4h.32zm-.66 0v-.4h-.18l.16-.453h-.15l-.15.453v.4h.32zm3.79 1.915V1.632h-.23v1.017a3.347 3.347 0 01-.62.064 1.232 1.232 0 01-1.3-1.248 1.2 1.2 0 011.3-1.244 3.244 3.244 0 01.71.077l.04-.209a3.06 3.06 0 00-.74-.09 1.434 1.434 0 00-1.56 1.466 1.49 1.49 0 001.57 1.47 2.975 2.975 0 00.83-.123zm2.68-.876v-.09a.954.954 0 00-.92-1.077.99.99 0 00-.96 1.077 1.02 1.02 0 001.08 1.078 2.438 2.438 0 00.68-.107l-.05-.2a2.339 2.339 0 01-.63.089.754.754 0 01-.82-.765h1.62zm-.25-.214h-1.37a.709.709 0 01.7-.73.68.68 0 01.67.731zm1.8 1.193v-.208h-.18a.283.283 0 01-.31-.346V.048h-.25v2.3a.5.5 0 00.54.573h.2zm3.82-.026v-.222h-1.49V.042h-.26v2.846h1.75zm1 0V.806h-.25v2.081h.25zm0-2.427V.042h-.25v.419h.25zm4.06 2.427V1.506a.656.656 0 00-.7-.74.861.861 0 00-.75.441.648.648 0 00-.67-.441.8.8 0 00-.71.428V.806h-.25v2.081h.25V1.832a.741.741 0 01.68-.83.436.436 0 01.49.522v1.363h.25v-1.06a.736.736 0 01.67-.825.436.436 0 01.49.522v1.363h.25zm2.82-1.043a.961.961 0 00-.92-1.077.745.745 0 00-.68.419V.806h-.26v2.821h.26V2.506a.745.745 0 00.68.419.962.962 0 00.92-1.079zm-.25 0a.694.694 0 11-.68-.854.736.736 0 01.68.855zm1.33 1.043V.806h-.25v2.081h.25zm0-2.427V.042h-.25v.419h.25zm2.7 1.474v-.09a.954.954 0 00-.92-1.077.99.99 0 00-.96 1.077 1.02 1.02 0 001.08 1.078 2.438 2.438 0 00.68-.107l-.05-.2a2.393 2.393 0 01-.63.089.749.749 0 01-.82-.765h1.62zm-.26-.214h-1.36a.709.709 0 01.7-.73.667.667 0 01.66.731zm2.68 1.167v-.222h-1.41l1.38-1.637V.806h-1.59v.222h1.29l-1.38 1.637v.222h1.71zm2.35 0V1.466a.715.715 0 00-.85-.7 2.958 2.958 0 00-.68.081l.04.206a3.722 3.722 0 01.63-.064.493.493 0 01.61.491v.239h-.7a.58.58 0 00-.68.59.6.6 0 00.7.612.814.814 0 00.68-.3v.26h.25zm-.25-.79a.6.6 0 01-.68.6.372.372 0 01-.45-.372.356.356 0 01.44-.384h.69v.154zM339 .443v-.4h-.32v.4h.17l-.15.453h.14zm-.66 0v-.4h-.32v.4h.17l-.15.453h.15zm1.92 2.445v-.4h-.32v.4h.17l-.15.453h.14zM1.66 8.016V6.593a.706.706 0 00-.84-.7 2.958 2.958 0 00-.68.081l.04.205a3.828 3.828 0 01.63-.064.493.493 0 01.61.492v.239H.71a.576.576 0 00-.67.59.6.6 0 00.7.611.812.812 0 00.68-.295v.261h.24zm-.24-.791a.6.6 0 01-.68.6.368.368 0 01-.45-.372.356.356 0 01.44-.384h.69v.153zm1.85.817v-.214h-.18a.281.281 0 01-.3-.346V5.169h-.25v2.3a.492.492 0 00.53.573h.2zm3.48-.026V6.593a.71.71 0 00-.85-.7 2.872 2.872 0 00-.67.081l.03.205a3.934 3.934 0 01.63-.064.489.489 0 01.61.492v.239h-.7a.58.58 0 00-.68.59.6.6 0 00.71.611.791.791 0 00.67-.295v.261h.25zm-.25-.791a.6.6 0 01-.68.6.372.372 0 01-.45-.372.36.36 0 01.45-.384h.68v.153zm2.59.748l-.05-.209a1.581 1.581 0 01-.45.064.855.855 0 010-1.71 1.664 1.664 0 01.45.064l.05-.205a1.725 1.725 0 00-.53-.081 1.077 1.077 0 000 2.154 2 2 0 00.53-.076zm2.48.043v-2.08h-.25v1.055a.755.755 0 01-.7.83.443.443 0 01-.49-.526V5.936h-.25v1.38a.659.659 0 00.71.735.834.834 0 00.73-.427v.393h.25zm4.06 0v-1.38a.656.656 0 00-.7-.74.86.86 0 00-.75.44.649.649 0 00-.67-.44.8.8 0 00-.71.428v-.388h-.25v2.081h.25V6.961a.741.741 0 01.68-.829.436.436 0 01.49.522v1.363h.25v-1.06a.736.736 0 01.67-.825.436.436 0 01.49.522v1.363h.25zm2.61 0v-2.08H18v1.055a.755.755 0 01-.7.83.446.446 0 01-.5-.526V5.936h-.25v1.38a.659.659 0 00.71.735.839.839 0 00.74-.427v.393h.24zm1.7.026v-.214h-.18a.283.283 0 01-.31-.346V5.169h-.25v2.3a.5.5 0 00.54.573h.2zm2.28-.026V6.593a.715.715 0 00-.85-.7 2.872 2.872 0 00-.67.081l.03.205a3.828 3.828 0 01.63-.064.489.489 0 01.61.492v.239h-.7a.58.58 0 00-.68.59.6.6 0 00.7.611.8.8 0 00.68-.295v.261h.25zm-.25-.791a.6.6 0 01-.68.6.372.372 0 01-.45-.372.36.36 0 01.45-.384h.68v.153zm2.85.791V5.169h-.25v1.146a.749.749 0 00-.69-.419 1.09 1.09 0 000 2.154.749.749 0 00.69-.419v.385h.25zm-.25-1.043a.694.694 0 11-.68-.855.74.74 0 01.68.856zm3.02 0a.975.975 0 10-.97 1.077.992.992 0 00.97-1.076zm-.25 0a.731.731 0 11-.72-.855.749.749 0 01.72.856zm3.98 1.043V5.169h-.25v1.146a.745.745 0 00-.68-.419 1.09 1.09 0 000 2.154.745.745 0 00.68-.419v.385h.25zm-.25-1.043a.694.694 0 11-.67-.855.74.74 0 01.67.856zm2.95.09v-.09a.953.953 0 00-.91-1.077.992.992 0 00-.97 1.077 1.022 1.022 0 001.09 1.077 2.317 2.317 0 00.67-.106l-.05-.206a2.343 2.343 0 01-.63.09.754.754 0 01-.82-.765h1.62zm-.25-.214H32.4a.712.712 0 01.71-.731.679.679 0 01.66.732zm1.8 1.193v-.214h-.18a.283.283 0 01-.31-.346V5.169h-.24v2.3a.492.492 0 00.53.573h.2zm3.48-.026V6.593a.715.715 0 00-.85-.7 2.958 2.958 0 00-.68.081l.04.205a3.828 3.828 0 01.63-.064.493.493 0 01.61.492v.239h-.7a.58.58 0 00-.68.59.6.6 0 00.7.611.812.812 0 00.68-.295v.261h.25zm-.25-.791a.6.6 0 01-.68.6.372.372 0 01-.45-.372.356.356 0 01.44-.384h.69v.153zm2.83.791v-1.38a.663.663 0 00-.71-.74.833.833 0 00-.73.428v-.388h-.25v2.081h.25V6.961a.754.754 0 01.7-.829.447.447 0 01.5.522v1.363h.24zm-.23-2.714l-.17-.073a.275.275 0 01-.19.184 3.356 3.356 0 00-.43-.158.428.428 0 00-.37.286l.17.077a.278.278 0 01.19-.179 3.412 3.412 0 00.43.154.432.432 0 00.37-.287zm2.99 1.671a.975.975 0 10-.97 1.077 1 1 0 00.97-1.076zm-.25 0a.731.731 0 11-.72-.855.749.749 0 01.72.856zm4.09 1.043v-.222H46.6c0-.385.16-.534.94-1a1.045 1.045 0 00.65-.9.785.785 0 00-.97-.719 2.645 2.645 0 00-.83.133l.04.2a2.693 2.693 0 01.73-.115c.53 0 .78.158.78.5a.931.931 0 01-.66.782c-.72.432-.93.663-.93 1.142v.2h1.88zm2.87-1.4a1.094 1.094 0 10-1.03 1.449 1.2 1.2 0 001.03-1.45zm-.25 0c0 .693-.23 1.227-.78 1.227s-.79-.534-.79-1.227.23-1.222.79-1.222.78.529.78 1.221zm1.89 1.4v-2.8h-.24l-.81.163.04.192.77-.137V8.02h.24zm2.96-1.624a1.029 1.029 0 00-1.01-1.223.92.92 0 00-.92.919.87.87 0 00.91.881.9.9 0 00.78-.363 1.169 1.169 0 01-1.2 1.235 3.078 3.078 0 01-.34-.026l-.03.205a1.611 1.611 0 00.35.043 1.436 1.436 0 001.46-1.67zm-.26-.295a.7.7 0 01-.76.65.606.606 0 01-.66-.65.67.67 0 01.68-.705.683.683 0 01.74.706zm3.19 2.453a3.188 3.188 0 010-3.667l-.18-.124a3.273 3.273 0 000 3.915zm3.2-.534V5.169h-.25v2.445l-1.82-2.445h-.25v2.847h.25V5.567l1.82 2.449h.25zm2.84-1.043a.975.975 0 10-.97 1.077.992.992 0 00.97-1.076zm-.25 0a.731.731 0 11-.72-.855.744.744 0 01.72.856zm2.65-1.038h-.25l-.7 1.816-.71-1.816h-.25l.83 2.081h.25zm.89 2.081v-2.08h-.25v2.081h.25zm0-2.428v-.419h-.25v.419h.25zm2.7 1.475v-.09a.954.954 0 00-.92-1.077.99.99 0 00-.96 1.077 1.019 1.019 0 001.08 1.077 2.435 2.435 0 00.68-.106l-.05-.206a2.343 2.343 0 01-.63.09.754.754 0 01-.82-.765h1.62zm-.25-.214h-1.37a.71.71 0 01.7-.731.681.681 0 01.67.732zm4.17 1.167v-1.38a.663.663 0 00-.71-.74.86.86 0 00-.75.44.628.628 0 00-.66-.44.8.8 0 00-.71.428v-.388h-.26v2.081h.26V6.961a.74.74 0 01.67-.829.436.436 0 01.49.522v1.363h.25v-1.06a.736.736 0 01.68-.825.433.433 0 01.48.522v1.363h.26zm2.81-1.043a.955.955 0 00-.92-1.077.745.745 0 00-.68.419V5.169h-.25v2.847h.25v-.385a.745.745 0 00.68.419.961.961 0 00.92-1.076zm-.25 0a.694.694 0 11-.68-.855.736.736 0 01.68.856zm2.1-.833v-.244a.94.94 0 00-.77.483v-.443h-.25v2.081h.25V6.974a.816.816 0 01.77-.833zm2.43.923v-.09a.96.96 0 00-.92-1.077.992.992 0 00-.97 1.077 1.022 1.022 0 001.09 1.077 2.435 2.435 0 00.68-.106l-.06-.206a2.343 2.343 0 01-.63.09.754.754 0 01-.82-.765h1.63zm-.26-.214h-1.37a.712.712 0 01.71-.731.679.679 0 01.66.732zm4.1 1.167v-.222h-1.63c0-.385.16-.534.93-1a1.028 1.028 0 00.65-.9.78.78 0 00-.97-.719 2.744 2.744 0 00-.83.133l.05.2a2.693 2.693 0 01.73-.115c.52 0 .78.158.78.5a.949.949 0 01-.66.782c-.72.432-.93.663-.93 1.142v.2h1.88zm2.86-1.4a1.091 1.091 0 10-1.03 1.449 1.2 1.2 0 001.03-1.45zm-.24 0c0 .693-.23 1.227-.79 1.227s-.78-.534-.78-1.227.23-1.222.78-1.222.79.529.79 1.221zm1.89 1.4v-2.8h-.24l-.81.163.04.192.77-.137V8.02h.24zM93 7.225a.754.754 0 00-.52-.713.718.718 0 00.39-.612.883.883 0 00-1.74 0 .728.728 0 00.38.612.764.764 0 00-.53.713.907.907 0 001.02.838.888.888 0 001-.837zm-.25 0a.652.652 0 01-.75.616.67.67 0 01-.77-.616.65.65 0 01.77-.585.631.631 0 01.75.586zm-.13-1.319a.54.54 0 01-.62.526.528.528 0 11.62-.526zm3.9 2.116V6.599a.71.71 0 00-.85-.7 2.872 2.872 0 00-.67.081l.03.205a3.934 3.934 0 01.63-.064.489.489 0 01.61.492v.239h-.7a.58.58 0 00-.68.59.6.6 0 00.71.611.791.791 0 00.67-.295v.261h.25zm-.25-.791a.6.6 0 01-.68.6.372.372 0 01-.45-.372.36.36 0 01.45-.384h.68v.153zm4.9-.628a1.35 1.35 0 10-1.34 1.466 1.379 1.379 0 001.34-1.471zm-.26 0a1.1 1.1 0 11-1.08-1.248 1.127 1.127 0 011.08 1.243zm2.55 1.376l-.04-.209a1.63 1.63 0 01-.45.064.855.855 0 010-1.71 1.721 1.721 0 01.45.064l.04-.205a1.618 1.618 0 00-.52-.081 1.077 1.077 0 000 2.154 1.99 1.99 0 00.52-.082zm1.68.035l-.04-.188a1.305 1.305 0 01-.24.025c-.16 0-.24-.081-.24-.363V6.163h.43v-.227h-.43v-.59h-.25v.59h-.29v.222h.29V7.47c0 .432.17.581.48.581a1.017 1.017 0 00.29-.045zm2.44.008V5.936h-.25v1.055a.755.755 0 01-.7.83.443.443 0 01-.49-.526V5.936h-.26v1.38a.667.667 0 00.72.735.834.834 0 00.73-.427v.393h.25zm2.83-1.043a.954.954 0 00-.91-1.077.749.749 0 00-.69.419V5.175h-.25v2.847h.25v-.385a.749.749 0 00.69.419.954.954 0 00.91-1.082zm-.25 0a.694.694 0 11-.67-.855.736.736 0 01.67.85zm2.1-.833v-.244a.909.909 0 00-.76.483v-.449h-.26v2.081h.26V6.974a.808.808 0 01.76-.833zm2.43.923v-.09a.954.954 0 00-.92-1.077.984.984 0 00-.96 1.077 1.014 1.014 0 001.08 1.077 2.435 2.435 0 00.68-.106l-.05-.206a2.467 2.467 0 01-.64.09.76.76 0 01-.82-.765h1.63zm-.26-.214h-1.37a.718.718 0 01.71-.731.667.667 0 01.66.726zm4.1 1.167V7.8h-1.62c0-.385.15-.534.93-1a1.045 1.045 0 00.65-.9.785.785 0 00-.97-.719 2.693 2.693 0 00-.83.133l.04.2a2.767 2.767 0 01.74-.115c.52 0 .77.158.77.5a.931.931 0 01-.66.782c-.72.432-.93.663-.93 1.142v.2h1.88zm2.87-1.4a1.094 1.094 0 10-1.03 1.449 1.2 1.2 0 001.03-1.456zm-.25 0c0 .693-.23 1.227-.78 1.227s-.79-.534-.79-1.227.24-1.222.79-1.222.78.523.78 1.215zm1.9 1.4v-2.8h-.25l-.81.163.04.192.77-.137v2.586h.25zM126 6.398a1.029 1.029 0 00-1.01-1.223.92.92 0 00-.92.919.87.87 0 00.91.881.9.9 0 00.78-.363 1.169 1.169 0 01-1.2 1.235 3.258 3.258 0 01-.34-.026l-.02.205a1.452 1.452 0 00.34.043A1.436 1.436 0 00126 6.393zm-.26-.295a.691.691 0 01-.75.65.609.609 0 01-.67-.65.67.67 0 01.68-.705.683.683 0 01.74.7zm1.81.62a3.3 3.3 0 00-.66-1.958l-.18.124a3.188 3.188 0 010 3.667l.18.124a3.3 3.3 0 00.66-1.962zm4.05.256a.961.961 0 00-.92-1.077.745.745 0 00-.68.419v-.38h-.25v2.821h.25V7.637a.745.745 0 00.68.419.955.955 0 00.92-1.082zm-.25 0a.694.694 0 11-.68-.855.736.736 0 01.68.85zm2.55 1.043V6.599a.715.715 0 00-.85-.7 2.958 2.958 0 00-.68.081l.04.205a3.828 3.828 0 01.63-.064.493.493 0 01.61.492v.239h-.7a.58.58 0 00-.68.59.6.6 0 00.7.611.812.812 0 00.68-.295v.261h.25zm-.25-.791a.6.6 0 01-.68.6.372.372 0 01-.45-.372.356.356 0 01.44-.384h.69v.153zm2.16-1.085v-.244a.94.94 0 00-.77.483v-.449h-.25v2.081h.25V6.974a.816.816 0 01.77-.833zm2.17 1.876V6.599a.71.71 0 00-.85-.7 2.872 2.872 0 00-.67.081l.03.205a3.937 3.937 0 01.64-.064.485.485 0 01.6.492v.239h-.7a.576.576 0 00-.67.59.6.6 0 00.7.611.779.779 0 00.67-.295v.261h.25zm-.25-.791a.6.6 0 01-.68.6.372.372 0 01-.45-.372.364.364 0 01.45-.384h.68v.153zm4.07-.162v-.09a.96.96 0 00-.92-1.077.984.984 0 00-.96 1.077A1.014 1.014 0 00141 8.056a2.435 2.435 0 00.68-.106l-.05-.206a2.467 2.467 0 01-.64.09.76.76 0 01-.82-.765h1.63zm-.26-.214h-1.37a.718.718 0 01.71-.731.673.673 0 01.66.726zm1.8 1.193v-.214h-.18a.277.277 0 01-.3-.346V5.175h-.25v2.3a.492.492 0 00.53.573h.2zm5.09-.026v-1.38a.656.656 0 00-.7-.74.86.86 0 00-.75.44.649.649 0 00-.67-.44.8.8 0 00-.71.428v-.394h-.25v2.081h.25V6.961a.741.741 0 01.68-.829.436.436 0 01.49.522v1.363h.25v-1.06a.736.736 0 01.67-.825.436.436 0 01.49.522v1.363h.25zm2.69-.953v-.09a.96.96 0 00-.92-1.077.984.984 0 00-.96 1.077 1.014 1.014 0 001.08 1.077 2.435 2.435 0 00.68-.106l-.05-.206a2.467 2.467 0 01-.64.09.754.754 0 01-.82-.765h1.63zm-.26-.214h-1.37a.712.712 0 01.71-.731.673.673 0 01.66.726zm2.11-.709v-.244a.926.926 0 00-.77.483v-.449h-.25v2.081h.25V6.974a.816.816 0 01.77-.833zm2.14 1.833l-.04-.209a1.63 1.63 0 01-.45.064.855.855 0 010-1.71 1.721 1.721 0 01.45.064l.04-.205a1.662 1.662 0 00-.52-.081 1.077 1.077 0 000 2.154 1.99 1.99 0 00.52-.082zm2.3.043V6.599a.71.71 0 00-.85-.7 2.872 2.872 0 00-.67.081l.03.205a3.937 3.937 0 01.64-.064.485.485 0 01.6.492v.239h-.7a.576.576 0 00-.67.59.6.6 0 00.7.611.779.779 0 00.67-.295v.261h.25zm-.25-.791a.6.6 0 01-.68.6.372.372 0 01-.45-.372.364.364 0 01.45-.384h.68v.153zm2.85.791V5.175h-.25v1.146a.745.745 0 00-.68-.419 1.09 1.09 0 000 2.154.745.745 0 00.68-.419v.385h.25zm-.25-1.043a.694.694 0 11-.67-.855.74.74 0 01.67.85zm3.02 0a.975.975 0 10-.97 1.077.992.992 0 00.97-1.082zm-.25 0a.731.731 0 11-.72-.855.744.744 0 01.72.85zm3.98 1.043V5.175h-.25v1.146a.745.745 0 00-.68-.419 1.09 1.09 0 000 2.154.745.745 0 00.68-.419v.385h.25zm-.25-1.043a.694.694 0 11-.67-.855.74.74 0 01.67.85zm2.96.09v-.09a.954.954 0 00-.92-1.077.984.984 0 00-.96 1.077 1.014 1.014 0 001.08 1.077 2.435 2.435 0 00.68-.106l-.05-.206a2.467 2.467 0 01-.64.09.76.76 0 01-.82-.765h1.63zm-.26-.214h-1.37a.718.718 0 01.71-.731.673.673 0 01.66.726zm4.35 1.12l-.05-.2a2.869 2.869 0 01-.65.077 1.247 1.247 0 110-2.492 2.829 2.829 0 01.65.077l.05-.21a2.6 2.6 0 00-.69-.089 1.464 1.464 0 00-1.57 1.466 1.485 1.485 0 001.57 1.47 2.612 2.612 0 00.69-.104zm2.58.047v-1.38a.663.663 0 00-.71-.74.833.833 0 00-.73.428V5.175h-.25v2.847h.25V6.966a.754.754 0 01.7-.829.44.44 0 01.49.522v1.363h.25zm1.23 0V5.936h-.25v2.081h.25zm0-2.428v-.419h-.25v.419h.25zm1.7 2.454v-.214h-.19a.281.281 0 01-.3-.346V5.175h-.25v2.3a.5.5 0 00.54.573h.2zm2.53-.979v-.09a.954.954 0 00-.92-1.077.99.99 0 00-.96 1.077 1.019 1.019 0 001.08 1.077 2.435 2.435 0 00.68-.106l-.05-.206a2.343 2.343 0 01-.63.09.754.754 0 01-.82-.765h1.62zm-.25-.214h-1.37a.71.71 0 01.7-.731.681.681 0 01.67.726zm1.41 1.167v-.4h-.32v.4h.32zm3.03.534a3.188 3.188 0 010-3.667l-.17-.124a3.233 3.233 0 000 3.915zm3.12-1.957a1.511 1.511 0 00-1.67-1.424h-.57v2.847h.57a1.511 1.511 0 001.67-1.428zm-.26 0a1.267 1.267 0 01-1.37 1.2h-.35v-2.4h.35a1.267 1.267 0 011.37 1.195zm2.78.47v-.09a.96.96 0 00-.92-1.077.984.984 0 00-.96 1.077 1.014 1.014 0 001.08 1.077 2.435 2.435 0 00.68-.106l-.05-.206a2.467 2.467 0 01-.64.09.76.76 0 01-.82-.765h1.63zm-.26-.214h-1.37a.718.718 0 01.71-.731.673.673 0 01.66.726zm2.11-.709v-.244a.926.926 0 00-.77.483v-.449h-.25v2.081h.25V6.974a.816.816 0 01.77-.833zm2.42.923v-.09a.953.953 0 00-.91-1.077.992.992 0 00-.97 1.077 1.022 1.022 0 001.09 1.077 2.317 2.317 0 00.67-.106l-.05-.206a2.343 2.343 0 01-.63.09.754.754 0 01-.82-.765h1.62zm-.25-.214h-1.37a.712.712 0 01.71-.731.679.679 0 01.66.726zm2.53 1.124l-.05-.209a1.581 1.581 0 01-.45.064.855.855 0 010-1.71 1.664 1.664 0 01.45.064l.05-.205a1.709 1.709 0 00-.52-.081 1.077 1.077 0 000 2.154 1.99 1.99 0 00.52-.082zm2.52.043v-1.38a.663.663 0 00-.71-.74.833.833 0 00-.73.428V5.175h-.25v2.847h.25V6.966a.754.754 0 01.7-.829.44.44 0 01.49.522v1.363h.25zm2.77-1.043a.975.975 0 10-.97 1.077.992.992 0 00.97-1.082zm-.25 0a.731.731 0 11-.72-.855.744.744 0 01.72.85zm2.47.526c0-.3-.15-.423-.73-.663-.4-.162-.49-.247-.49-.423 0-.205.14-.3.5-.3a2.6 2.6 0 01.59.077l.04-.2a2.151 2.151 0 00-.64-.1.607.607 0 00-.74.492.665.665 0 00.58.641c.54.218.64.269.64.461 0 .231-.22.338-.55.338a1.662 1.662 0 01-.67-.158l-.06.192a1.661 1.661 0 00.74.188.655.655 0 00.79-.55zm3.02-1.359v-.244a.909.909 0 00-.76.483v-.449h-.25v2.081h.25V6.974a.814.814 0 01.76-.833zm2.43.923v-.09a.954.954 0 00-.92-1.077.99.99 0 00-.96 1.077 1.019 1.019 0 001.08 1.077 2.435 2.435 0 00.68-.106l-.05-.206a2.343 2.343 0 01-.63.09.754.754 0 01-.82-.765h1.62zm-.25-.214h-1.37a.71.71 0 01.7-.731.681.681 0 01.67.726zm2.47.65c0-.3-.15-.423-.73-.663-.4-.162-.49-.247-.49-.423 0-.205.14-.3.5-.3a2.6 2.6 0 01.59.077l.04-.2a2.151 2.151 0 00-.64-.1.607.607 0 00-.74.492.665.665 0 00.58.641c.54.218.64.269.64.461 0 .231-.22.338-.55.338a1.662 1.662 0 01-.67-.158l-.06.192a1.661 1.661 0 00.74.188.655.655 0 00.79-.55zm2.53-.436v-.09a.954.954 0 00-.92-1.077.99.99 0 00-.96 1.077 1.019 1.019 0 001.08 1.077 2.381 2.381 0 00.68-.106l-.05-.206a2.343 2.343 0 01-.63.09.754.754 0 01-.82-.765h1.62zm-.25-.214h-1.37a.71.71 0 01.7-.731.681.681 0 01.67.726zm2.1-.709v-.244a.909.909 0 00-.76.483v-.449h-.25v2.081h.25V6.974a.814.814 0 01.76-.833zm2.27-.205h-.24l-.71 1.816-.7-1.816h-.25l.83 2.081h.24zm2.11 2.081V6.599a.71.71 0 00-.85-.7 2.872 2.872 0 00-.67.081l.03.205a3.934 3.934 0 01.63-.064.489.489 0 01.61.492v.239h-.7a.572.572 0 00-.67.59.6.6 0 00.7.611.791.791 0 00.67-.295v.261h.25zm-.25-.791a.6.6 0 01-.68.6.372.372 0 01-.45-.372.364.364 0 01.45-.384h.68v.153zm2.85.791V5.175h-.25v1.146a.745.745 0 00-.68-.419 1.09 1.09 0 000 2.154.745.745 0 00.68-.419v.385h.25zm-.25-1.043a.694.694 0 11-.68-.855.74.74 0 01.68.85zm3.02 0a.975.975 0 10-.97 1.077.992.992 0 00.97-1.082zm-.25 0a.731.731 0 11-.72-.855.744.744 0 01.72.85zm2.47.526c0-.3-.15-.423-.73-.663-.4-.162-.49-.247-.49-.423 0-.205.14-.3.5-.3a2.6 2.6 0 01.59.077l.04-.2a2.151 2.151 0 00-.64-.1.607.607 0 00-.74.492.665.665 0 00.58.641c.54.218.64.269.64.461 0 .231-.22.338-.55.338a1.662 1.662 0 01-.67-.158l-.07.192a1.74 1.74 0 00.75.188.655.655 0 00.79-.55zm3.82.517V7.8h-1.63c0-.385.16-.534.94-1a1.045 1.045 0 00.65-.9.785.785 0 00-.97-.719 2.645 2.645 0 00-.83.133l.04.2a2.757 2.757 0 01.73-.115c.53 0 .78.158.78.5a.931.931 0 01-.66.782c-.72.432-.93.663-.93 1.142v.2h1.88zm2.87-1.4a1.094 1.094 0 10-1.03 1.449 1.2 1.2 0 001.03-1.456zm-.25 0c0 .693-.23 1.227-.78 1.227s-.79-.534-.79-1.227.23-1.222.79-1.222.78.523.78 1.215zm2.92 1.4V7.8h-1.63c0-.385.16-.534.93-1a1.028 1.028 0 00.65-.9.78.78 0 00-.97-.719 2.693 2.693 0 00-.83.133l.05.2a2.693 2.693 0 01.73-.115c.52 0 .77.158.77.5a.931.931 0 01-.66.782c-.72.432-.92.663-.92 1.142v.2h1.88zm2.86-1.4a1.091 1.091 0 10-1.03 1.449 1.2 1.2 0 001.03-1.456zm-.25 0c0 .693-.23 1.227-.78 1.227s-.79-.534-.79-1.227.24-1.222.79-1.222.78.523.78 1.215zm1.38 1.4v-.4h-.32v.4h.18l-.15.453h.14zm4.1-2.624v-.223h-2.22v.223h.98v2.624h.26V5.398h.98zm2.37 2.624v-1.38a.663.663 0 00-.71-.74.833.833 0 00-.73.428V5.175h-.25v2.847h.25V6.966a.754.754 0 01.69-.829.443.443 0 01.5.522v1.363h.25zm2.7-.953v-.09a.954.954 0 00-.92-1.077.99.99 0 00-.96 1.077 1.019 1.019 0 001.08 1.077 2.435 2.435 0 00.68-.106l-.05-.206a2.343 2.343 0 01-.63.09.754.754 0 01-.82-.765h1.62zm-.25-.214h-1.37a.71.71 0 01.7-.731.681.681 0 01.67.726zm4.67 1.167V5.175h-.25V7.62l-1.83-2.445h-.24v2.847h.24V5.573l1.83 2.449h.25zm1.3 0V5.936h-.25v2.081h.25zm0-2.428v-.419h-.25v.419h.25zm2.7 1.475v-.09a.954.954 0 00-.92-1.077.984.984 0 00-.96 1.077 1.019 1.019 0 001.08 1.077 2.435 2.435 0 00.68-.106l-.05-.206a2.4 2.4 0 01-.63.09.749.749 0 01-.82-.765h1.62zm-.26-.214h-1.36a.71.71 0 01.7-.731.667.667 0 01.66.726zm1.81 1.193v-.214h-.19a.281.281 0 01-.3-.346V5.175h-.25v2.3a.5.5 0 00.54.573h.2zm2.19-.543c0-.3-.14-.423-.73-.663-.4-.162-.48-.247-.48-.423 0-.205.14-.3.5-.3a2.675 2.675 0 01.59.077l.03-.2a2.151 2.151 0 00-.64-.1.6.6 0 00-.73.492.654.654 0 00.57.641c.54.218.65.269.65.461 0 .231-.23.338-.56.338a1.579 1.579 0 01-.66-.158l-.07.192a1.7 1.7 0 00.74.188.655.655 0 00.79-.55zm2.54-.436v-.09a.954.954 0 00-.92-1.077.984.984 0 00-.96 1.077 1.014 1.014 0 001.08 1.077 2.435 2.435 0 00.68-.106l-.05-.206a2.467 2.467 0 01-.64.09.76.76 0 01-.82-.765h1.63zm-.26-.214h-1.37a.718.718 0 01.71-.731.673.673 0 01.66.726zM269 8.022v-1.38a.663.663 0 00-.71-.74.833.833 0 00-.73.428v-.394h-.25v2.081h.25V6.961a.754.754 0 01.7-.829.447.447 0 01.5.522v1.363h.24zm4.22-.047l-.05-.2a2.727 2.727 0 01-.64.077 1.247 1.247 0 110-2.492 2.9 2.9 0 01.65.077l.04-.21a2.523 2.523 0 00-.68-.089 1.464 1.464 0 00-1.57 1.466 1.479 1.479 0 001.57 1.47 2.538 2.538 0 00.68-.104zm2.69-1a.975.975 0 10-.97 1.077.992.992 0 00.97-1.078zm-.25 0a.731.731 0 11-.72-.855.749.749 0 01.72.854zm4.16 1.043v-1.38a.656.656 0 00-.7-.74.86.86 0 00-.75.44.649.649 0 00-.67-.44.8.8 0 00-.71.428v-.39h-.25v2.081h.25V6.961a.741.741 0 01.68-.829.436.436 0 01.49.522v1.363h.25v-1.06a.736.736 0 01.67-.825.436.436 0 01.49.522v1.363h.25zm2.81-1.043a.954.954 0 00-.91-1.077.745.745 0 00-.68.419v-.38h-.26v2.821h.26V7.633a.745.745 0 00.68.419.954.954 0 00.91-1.078zm-.24 0a.694.694 0 11-.68-.855.736.736 0 01.68.854zm2.54 1.043V6.595a.706.706 0 00-.84-.7 2.893 2.893 0 00-.68.081l.04.205a3.828 3.828 0 01.63-.064.493.493 0 01.61.492v.239h-.71a.576.576 0 00-.67.59.6.6 0 00.7.611.812.812 0 00.68-.295v.261h.24zm-.24-.791a.6.6 0 01-.68.6.368.368 0 01-.45-.372.356.356 0 01.44-.384h.69v.153zm2.83.791v-1.38a.663.663 0 00-.71-.74.833.833 0 00-.73.428v-.39h-.25v2.081h.25V6.961a.754.754 0 01.69-.829.45.45 0 01.51.522v1.363h.24zm2.52-2.081h-.25l-.71 1.816-.7-1.816h-.25l.85 2.081-.3.74h.24zm1.32.782a3.294 3.294 0 00-.65-1.958l-.18.124a3.188 3.188 0 010 3.667l.18.124a3.291 3.291 0 00.65-1.958z" fill="#fff" fill-rule="evenodd"/></svg><svg width="192.66" height="27.69" viewBox="-1 -1 383.32 53.38" y="19.86" xmlns="http://www.w3.org/2000/svg"><path d="M36.58 50.55v-9.64H11.23V29.69h23.92v-9.64H11.23V10.4h25.35V.76H.02v49.79h36.56zM85.72 10.4V.76H47.37v49.79h11.21V29.69h24.45v-9.64H58.58V10.4h27.14zm47.35 0V.76H94.72v49.79h11.22V29.69h24.44v-9.64h-24.44V10.4h27.13zm47.36 40.15L161.59.76h-10.32l-18.92 49.79h10.99l3.89-10.24h18.39l3.82 10.24h10.99zm-17.57-18.69h-12.94l6.51-19.89zm62.58-29.68A43.411 43.411 0 00210.93.01c-16.52 0-27.73 11.44-27.73 25.65s11.36 25.72 27.73 25.72a42.458 42.458 0 0014.28-2.32l-2.24-9.12a37.494 37.494 0 01-10.47 1.49c-12.26 0-18.09-6.73-18.09-15.77s5.83-15.7 18.09-15.7a37.738 37.738 0 0110.47 1.49zm46.55 48.37v-9.64h-24V.76h-11.21v49.79h35.21zm52.99 0L306.14.76h-10.32L276.9 50.55h10.99l3.89-10.24h18.39l3.82 10.24h10.99zm-17.57-18.69h-12.94l6.51-19.89zm73.92 18.69l-14.36-19.51a15.456 15.456 0 009.2-14.28 15.964 15.964 0 00-16.38-16h-27.06v49.79h11.21V32.68h10.47l13.01 17.87h13.91zm-16.68-33.79a7.02 7.02 0 01-7.1 7.18h-13.61V9.81h13.61a6.828 6.828 0 017.1 6.95z" fill="#fff" fill-rule="evenodd"/></svg><svg width="282.08" height="19.86" viewBox="-1 -1 562.16 37.72" xmlns="http://www.w3.org/2000/svg"><path data-name="*Cálculos de L’OREAL, basados en parte en datos reportados por" d="M4.18 3.07L2.45 2.3l1.73-.77-.32-.58L2.27 2 2.42.1h-.66L1.91 2 .32.95 0 1.53l1.73.77L0 3.07l.32.58L1.91 2.6l-.15 1.9h.66l-.15-1.9 1.59 1.05zm6.79 4.24l-.13-.53a7.332 7.332 0 01-1.65.19 3.208 3.208 0 110-6.41 7.464 7.464 0 011.67.2l.11-.54a6.241 6.241 0 00-1.76-.23 3.764 3.764 0 00-4.04 3.77 3.82 3.82 0 004.04 3.79 6.8 6.8 0 001.76-.24zm5.39.12V3.76c0-1.05-.71-1.79-2.18-1.79a7.605 7.605 0 00-1.74.21l.09.53a9.809 9.809 0 011.63-.17c1.16 0 1.56.53 1.56 1.27v.61h-1.81a1.481 1.481 0 00-1.73 1.52 1.534 1.534 0 001.8 1.57 2.042 2.042 0 001.74-.76v.68h.64zm-.64-2.04a1.536 1.536 0 01-1.75 1.55.956.956 0 01-1.16-.96.932.932 0 011.15-.99h1.76v.4zM16 .03h-.75l-1.06 1.33h.55zm3.84 7.46v-.55h-.47a.721.721 0 01-.78-.89V.1h-.64v5.92a1.273 1.273 0 001.38 1.47h.51zm5.14-.17l-.11-.54a4.208 4.208 0 01-1.17.16 2.2 2.2 0 010-4.4 4.3 4.3 0 011.17.17l.11-.53a4.082 4.082 0 00-1.34-.21 2.77 2.77 0 000 5.54 5.1 5.1 0 001.34-.19zm5.73.11V2.07h-.64v2.72a1.937 1.937 0 01-1.79 2.13A1.145 1.145 0 0127 5.57v-3.5h-.65v3.55a1.7 1.7 0 001.84 1.89 2.133 2.133 0 001.88-1.1v1.02h.64zm3.71.06v-.55h-.48a.724.724 0 01-.78-.89V.1h-.63v5.92a1.27 1.27 0 001.37 1.47h.52zm6.04-2.75a2.513 2.513 0 10-2.5 2.77 2.562 2.562 0 002.5-2.77zm-.64 0a1.882 1.882 0 11-1.86-2.2 1.929 1.929 0 011.86 2.2zm5.69 1.35c0-.78-.38-1.08-1.89-1.7-1.03-.42-1.25-.64-1.25-1.09 0-.53.36-.76 1.29-.76a6.721 6.721 0 011.52.2l.1-.52a5.445 5.445 0 00-1.66-.25c-1.05 0-1.89.39-1.89 1.26 0 .73.27 1.16 1.49 1.65 1.38.57 1.65.7 1.65 1.19 0 .6-.57.87-1.42.87a4.066 4.066 0 01-1.72-.41l-.17.5a4.25 4.25 0 001.91.48c1.27 0 2.04-.57 2.04-1.42zm8.22 1.34V.1h-.63v2.95a1.921 1.921 0 00-1.76-1.08c-1.69 0-2.37 1.44-2.37 2.77s.69 2.77 2.37 2.77a1.93 1.93 0 001.76-1.07v.99h.63zm-.63-2.69c0 1.19-.6 2.2-1.74 2.2s-1.74-.99-1.74-2.2.59-2.2 1.74-2.2 1.74 1.01 1.74 2.2zm6.94.23v-.23c0-1.48-.81-2.77-2.37-2.77a2.539 2.539 0 00-2.47 2.77 2.611 2.611 0 002.78 2.77 6.072 6.072 0 001.75-.27l-.13-.53a6.014 6.014 0 01-1.63.23 1.942 1.942 0 01-2.11-1.97h4.18zm-.66-.55h-3.52a1.832 1.832 0 011.81-1.88 1.737 1.737 0 011.71 1.88zm9.24 3.01v-.58h-3.85V.1h-.66v7.33h4.51zm1.92-6.3V.1h-.82v1.03h.45l-.39 1.17h.36zm8.45 2.64a3.469 3.469 0 10-3.45 3.78 3.557 3.557 0 003.45-3.78zm-.66 0A2.822 2.822 0 1175.54.56a2.9 2.9 0 012.79 3.21zM87 7.43l-2.4-3.25a2.015 2.015 0 001.63-2A2.077 2.077 0 0084.01.1h-3.32v7.33h.66V4.25h2.56l2.34 3.18H87zm-1.43-5.25a1.439 1.439 0 01-1.56 1.52h-2.66V.67h2.66a1.5 1.5 0 011.56 1.51zm7.69 5.25v-.58h-4.22V3.92h3.94v-.58h-3.94V.67h4.22V.1h-4.89v7.33h4.89zm7.5 0L97.71.1h-.48l-3.04 7.33h.67l.82-2.05h3.59l.82 2.05h.67zm-1.71-2.59H95.9L97.47.9zm7.48 2.59v-.58h-3.85V.1h-.66v7.33h4.51zm1.98 0V6.39h-.82v1.04h.45l-.39 1.16h.37zm9.06-2.69c0-1.33-.67-2.77-2.36-2.77a1.911 1.911 0 00-1.76 1.08V.1h-.65v7.33h.65v-.99a1.919 1.919 0 001.76 1.07c1.67 0 2.36-1.44 2.36-2.77zm-.64 0c0 1.21-.6 2.2-1.74 2.2s-1.74-1.01-1.74-2.2.6-2.2 1.74-2.2 1.74.99 1.74 2.2zm5.89 2.69V3.76c0-1.05-.7-1.79-2.17-1.79a7.471 7.471 0 00-1.74.21l.09.53a9.807 9.807 0 011.62-.17c1.17 0 1.57.53 1.57 1.27v.61h-1.81a1.489 1.489 0 00-1.74 1.52 1.542 1.542 0 001.81 1.57 2.042 2.042 0 001.74-.76v.68h.63zm-.63-2.04a1.541 1.541 0 01-1.75 1.55.956.956 0 01-1.16-.96.928.928 0 011.15-.99h1.76v.4zm5.85.7c0-.78-.38-1.08-1.88-1.7-1.04-.42-1.26-.64-1.26-1.09 0-.53.37-.76 1.29-.76a6.646 6.646 0 011.52.2l.1-.52a5.429 5.429 0 00-1.65-.25c-1.06 0-1.9.39-1.9 1.26 0 .73.27 1.16 1.49 1.65 1.39.57 1.65.7 1.65 1.19 0 .6-.57.87-1.42.87a4.1 4.1 0 01-1.72-.41l-.17.5a4.25 4.25 0 001.91.48c1.27 0 2.04-.57 2.04-1.42zm5.2 1.34V3.76c0-1.05-.7-1.79-2.18-1.79a7.605 7.605 0 00-1.74.21l.09.53a9.914 9.914 0 011.63-.17c1.17 0 1.56.53 1.56 1.27v.61h-1.8a1.489 1.489 0 00-1.74 1.52 1.534 1.534 0 001.8 1.57 2.029 2.029 0 001.74-.76v.68h.64zm-.64-2.04a1.536 1.536 0 01-1.75 1.55.952.952 0 01-1.15-.96.924.924 0 011.14-.99h1.76v.4zm6.67 2.04V.1h-.64v2.95a1.911 1.911 0 00-1.76-1.08c-1.68 0-2.37 1.44-2.37 2.77s.7 2.77 2.37 2.77a1.919 1.919 0 001.76-1.07v.99h.64zm-.64-2.69c0 1.19-.59 2.2-1.74 2.2s-1.74-.99-1.74-2.2.6-2.2 1.74-2.2 1.74 1.01 1.74 2.2zm7.12 0a2.513 2.513 0 10-2.5 2.77 2.562 2.562 0 002.5-2.77zm-.64 0a1.882 1.882 0 11-1.86-2.2 1.929 1.929 0 011.86 2.2zm5.69 1.35c0-.78-.38-1.08-1.88-1.7-1.04-.42-1.26-.64-1.26-1.09 0-.53.36-.76 1.29-.76a6.721 6.721 0 011.52.2l.1-.52a5.429 5.429 0 00-1.65-.25c-1.06 0-1.9.39-1.9 1.26 0 .73.27 1.16 1.49 1.65 1.38.57 1.65.7 1.65 1.19 0 .6-.57.87-1.42.87a4.066 4.066 0 01-1.72-.41l-.17.5a4.25 4.25 0 001.91.48c1.27 0 2.04-.57 2.04-1.42zm8.28-1.12v-.23c0-1.48-.8-2.77-2.37-2.77a2.539 2.539 0 00-2.47 2.77 2.611 2.611 0 002.78 2.77 6.022 6.022 0 001.75-.27l-.13-.53a5.963 5.963 0 01-1.63.23 1.942 1.942 0 01-2.11-1.97h4.18zm-.66-.55h-3.52a1.832 1.832 0 011.81-1.88 1.737 1.737 0 011.71 1.88zm6.5 3.01V3.87a1.714 1.714 0 00-1.84-1.9 2.141 2.141 0 00-1.87 1.1v-1h-.65v5.36h.65V4.71A1.935 1.935 0 01163 2.57a1.142 1.142 0 011.28 1.35v3.51h.64zm9-2.69c0-1.33-.68-2.77-2.36-2.77a1.921 1.921 0 00-1.76 1.08v-.98h-.65v7.26h.65V6.44a1.93 1.93 0 001.76 1.07c1.69 0 2.36-1.44 2.36-2.77zm-.64 0c0 1.21-.59 2.2-1.74 2.2s-1.74-1.01-1.74-2.2.6-2.2 1.74-2.2 1.74.99 1.74 2.2zm5.9 2.69V3.76c0-1.05-.71-1.79-2.18-1.79a7.605 7.605 0 00-1.74.21l.09.53a9.809 9.809 0 011.63-.17c1.16 0 1.56.53 1.56 1.27v.61h-1.81a1.489 1.489 0 00-1.74 1.52 1.542 1.542 0 001.81 1.57 2.042 2.042 0 001.74-.76v.68h.64zm-.64-2.04a1.536 1.536 0 01-1.75 1.55.956.956 0 01-1.16-.96.928.928 0 011.15-.99h1.76v.4zm4.9-2.79v-.63a2.384 2.384 0 00-1.97 1.24V2.07h-.65v5.36h.65V4.74a2.092 2.092 0 011.97-2.14zm3.33 4.8l-.09-.48a3.786 3.786 0 01-.63.07c-.42 0-.62-.21-.62-.94V2.64h1.1v-.57h-1.1V.55h-.65v1.52h-.73v.57h.73v3.38c0 1.11.46 1.49 1.25 1.49a2.582 2.582 0 00.74-.11zm5.8-2.43v-.23c0-1.48-.8-2.77-2.36-2.77a2.546 2.546 0 00-2.48 2.77 2.619 2.619 0 002.79 2.77 6.123 6.123 0 001.75-.27l-.14-.53a5.9 5.9 0 01-1.62.23 1.945 1.945 0 01-2.12-1.97h4.18zm-.66-.55h-3.52a1.834 1.834 0 011.82-1.88 1.729 1.729 0 011.7 1.88zm9 .55v-.23c0-1.48-.8-2.77-2.36-2.77a2.541 2.541 0 00-2.48 2.77 2.616 2.616 0 002.78 2.77 6.022 6.022 0 001.75-.27l-.13-.53a5.963 5.963 0 01-1.63.23 1.942 1.942 0 01-2.11-1.97h4.18zm-.66-.55h-3.52a1.834 1.834 0 011.82-1.88 1.735 1.735 0 011.7 1.88zm6.5 3.01V3.87a1.707 1.707 0 00-1.83-1.9 2.145 2.145 0 00-1.88 1.1v-1h-.64v5.36h.64V4.71a1.941 1.941 0 011.79-2.14 1.142 1.142 0 011.28 1.35v3.51h.64zm8.62 0V.1h-.64v2.95a1.921 1.921 0 00-1.76-1.08c-1.69 0-2.37 1.44-2.37 2.77s.69 2.77 2.37 2.77a1.93 1.93 0 001.76-1.07v.99h.64zm-.64-2.69c0 1.19-.6 2.2-1.74 2.2s-1.74-.99-1.74-2.2.59-2.2 1.74-2.2 1.74 1.01 1.74 2.2zm6.28 2.69V3.76c0-1.05-.71-1.79-2.18-1.79a7.605 7.605 0 00-1.74.21l.09.53a9.809 9.809 0 011.63-.17c1.16 0 1.56.53 1.56 1.27v.61h-1.8a1.484 1.484 0 00-1.74 1.52 1.534 1.534 0 001.8 1.57 2.042 2.042 0 001.74-.76v.68h.64zm-.64-2.04a1.536 1.536 0 01-1.75 1.55.948.948 0 01-1.15-.96.924.924 0 011.14-.99h1.76v.4zm4.45 2.01l-.08-.48a3.786 3.786 0 01-.63.07c-.42 0-.62-.21-.62-.94V2.64h1.1v-.57h-1.1V.55h-.65v1.52h-.73v.57h.73v3.38c0 1.11.46 1.49 1.25 1.49a2.478 2.478 0 00.73-.11zm5.99-2.66a2.513 2.513 0 10-2.5 2.77 2.562 2.562 0 002.5-2.77zm-.64 0a1.882 1.882 0 11-1.86-2.2 1.923 1.923 0 011.86 2.2zm5.69 1.35c0-.78-.38-1.08-1.88-1.7-1.04-.42-1.26-.64-1.26-1.09 0-.53.36-.76 1.29-.76a6.646 6.646 0 011.52.2l.1-.52a5.429 5.429 0 00-1.65-.25c-1.06 0-1.9.39-1.9 1.26 0 .73.27 1.16 1.49 1.65 1.39.57 1.65.7 1.65 1.19 0 .6-.57.87-1.42.87a4.1 4.1 0 01-1.72-.41l-.17.5a4.25 4.25 0 001.91.48c1.27 0 2.04-.57 2.04-1.42zm6.47-3.49v-.63a2.357 2.357 0 00-1.97 1.24V2.07h-.65v5.36h.65V4.74a2.085 2.085 0 011.97-2.14zm5.58 2.37v-.23c0-1.48-.8-2.77-2.36-2.77a2.546 2.546 0 00-2.48 2.77 2.619 2.619 0 002.79 2.77 6.123 6.123 0 001.75-.27l-.14-.53a5.9 5.9 0 01-1.62.23 1.945 1.945 0 01-2.12-1.97h4.18zm-.66-.55h-3.52a1.834 1.834 0 011.82-1.88 1.729 1.729 0 011.7 1.88zm6.91.32c0-1.33-.68-2.77-2.35-2.77a1.911 1.911 0 00-1.76 1.08v-.98h-.65v7.26h.65V6.44a1.919 1.919 0 001.76 1.07c1.68 0 2.35-1.44 2.35-2.77zm-.64 0c0 1.21-.59 2.2-1.73 2.2s-1.74-1.01-1.74-2.2.59-2.2 1.74-2.2 1.73.99 1.73 2.2zm6.74 0a2.513 2.513 0 10-2.5 2.77 2.562 2.562 0 002.5-2.77zm-.64 0a1.882 1.882 0 11-1.86-2.2 1.929 1.929 0 011.86 2.2zm4.74-2.14v-.63a2.357 2.357 0 00-1.97 1.24V2.07h-.65v5.36h.65V4.74a2.092 2.092 0 011.97-2.14zm3.32 4.8l-.09-.48a3.786 3.786 0 01-.63.07c-.41 0-.61-.21-.61-.94V2.64h1.1v-.57h-1.1V.55h-.65v1.52h-.74v.57h.74v3.38c0 1.11.45 1.49 1.24 1.49a2.537 2.537 0 00.74-.11zm5.15.03V3.76c0-1.05-.71-1.79-2.18-1.79a7.605 7.605 0 00-1.74.21l.09.53a9.809 9.809 0 011.63-.17c1.16 0 1.56.53 1.56 1.27v.61h-1.8a1.484 1.484 0 00-1.74 1.52 1.534 1.534 0 001.8 1.57 2.042 2.042 0 001.74-.76v.68h.64zm-.64-2.04a1.536 1.536 0 01-1.75 1.55.956.956 0 01-1.16-.96.932.932 0 011.15-.99h1.76v.4zm6.67 2.04V.1h-.64v2.95a1.921 1.921 0 00-1.76-1.08c-1.69 0-2.37 1.44-2.37 2.77s.69 2.77 2.37 2.77a1.93 1.93 0 001.76-1.07v.99h.64zm-.64-2.69c0 1.19-.6 2.2-1.74 2.2s-1.74-.99-1.74-2.2.6-2.2 1.74-2.2 1.74 1.01 1.74 2.2zm7.12 0a2.513 2.513 0 10-2.5 2.77 2.562 2.562 0 002.5-2.77zm-.64 0a1.882 1.882 0 11-1.86-2.2 1.929 1.929 0 011.86 2.2zm5.68 1.35c0-.78-.37-1.08-1.88-1.7-1.03-.42-1.25-.64-1.25-1.09 0-.53.36-.76 1.29-.76a6.633 6.633 0 011.51.2l.1-.52a5.342 5.342 0 00-1.65-.25c-1.05 0-1.89.39-1.89 1.26 0 .73.26 1.16 1.48 1.65 1.39.57 1.66.7 1.66 1.19 0 .6-.58.87-1.42.87a4.066 4.066 0 01-1.72-.41l-.18.5a4.327 4.327 0 001.92.48c1.26 0 2.03-.57 2.03-1.42zM299 4.74c0-1.33-.69-2.77-2.36-2.77a1.911 1.911 0 00-1.76 1.08v-.98h-.65v7.26h.65V6.44a1.919 1.919 0 001.76 1.07c1.69 0 2.36-1.44 2.36-2.77zm-.64 0c0 1.21-.6 2.2-1.74 2.2s-1.74-1.01-1.74-2.2.6-2.2 1.74-2.2 1.74.99 1.74 2.2zm6.73 0a2.509 2.509 0 10-2.5 2.77 2.556 2.556 0 002.5-2.77zm-.64 0a1.882 1.882 0 11-1.86-2.2 1.923 1.923 0 011.86 2.2zm4.74-2.14v-.63a2.37 2.37 0 00-1.97 1.24V2.07h-.65v5.36h.65V4.74a2.092 2.092 0 011.97-2.14zm9.73 4.83V.1h-.65v6.29L313.57.1h-.64v7.33h.64V1.12l4.7 6.31h.65zm2.67 0V2.07h-.64v5.36h.64zm0-6.25V.1h-.64v1.08h.64zm6.3 3.79v-.23c0-1.48-.8-2.77-2.36-2.77a2.541 2.541 0 00-2.48 2.77 2.619 2.619 0 002.79 2.77 6.009 6.009 0 001.74-.27l-.13-.53a5.912 5.912 0 01-1.63.23 1.942 1.942 0 01-2.11-1.97h4.18zm-.66-.55h-3.52a1.834 1.834 0 011.82-1.88 1.735 1.735 0 011.7 1.88zm3.98 3.07v-.55h-.47a.721.721 0 01-.78-.89V.1h-.64v5.92a1.273 1.273 0 001.38 1.47h.51zm5-1.4c0-.78-.38-1.08-1.88-1.7-1.04-.42-1.26-.64-1.26-1.09 0-.53.37-.76 1.29-.76a6.646 6.646 0 011.52.2l.1-.52a5.429 5.429 0 00-1.65-.25c-1.06 0-1.9.39-1.9 1.26 0 .73.27 1.16 1.49 1.65 1.39.57 1.65.7 1.65 1.19 0 .6-.57.87-1.42.87a4.1 4.1 0 01-1.72-.41l-.17.5a4.25 4.25 0 001.91.48c1.27 0 2.04-.57 2.04-1.42zm5.86-1.12v-.23c0-1.48-.8-2.77-2.36-2.77a2.541 2.541 0 00-2.48 2.77 2.616 2.616 0 002.78 2.77 6.022 6.022 0 001.75-.27l-.13-.53a5.963 5.963 0 01-1.63.23 1.942 1.942 0 01-2.11-1.97h4.18zm-.66-.55h-3.52a1.834 1.834 0 011.82-1.88 1.735 1.735 0 011.7 1.88zm6.5 3.01V3.87a1.707 1.707 0 00-1.83-1.9 2.145 2.145 0 00-1.88 1.1v-1h-.64v5.36h.64V4.71a1.941 1.941 0 011.79-2.14 1.142 1.142 0 011.28 1.35v3.51h.64zm12.17 0V3.87a1.7 1.7 0 00-1.82-1.9 2.224 2.224 0 00-1.93 1.13 1.64 1.64 0 00-1.71-1.13 2.051 2.051 0 00-1.82 1.1v-1h-.65v5.36h.65V4.71a1.9 1.9 0 011.73-2.14 1.125 1.125 0 011.26 1.35v3.51h.65V4.7a1.892 1.892 0 011.74-2.13 1.122 1.122 0 011.25 1.35v3.51h.65zm6.25-2.46v-.23c0-1.48-.81-2.77-2.37-2.77a2.546 2.546 0 00-2.48 2.77 2.619 2.619 0 002.79 2.77 6.072 6.072 0 001.75-.27l-.13-.53a6.014 6.014 0 01-1.63.23 1.95 1.95 0 01-2.12-1.97h4.19zm-.66-.55h-3.53a1.846 1.846 0 011.82-1.88 1.737 1.737 0 011.71 1.88zm6.52 3.01V.1h-.64v2.95a1.911 1.911 0 00-1.76-1.08c-1.68 0-2.37 1.44-2.37 2.77s.7 2.77 2.37 2.77a1.919 1.919 0 001.76-1.07v.99h.64zm-.64-2.69c0 1.19-.59 2.2-1.74 2.2s-1.74-.99-1.74-2.2.6-2.2 1.74-2.2 1.74 1.01 1.74 2.2zm3.15 2.69V2.07h-.64v5.36h.64zm0-6.25V.1h-.64v1.08h.64zm5.64 6.25V3.76c0-1.05-.7-1.79-2.18-1.79a7.605 7.605 0 00-1.74.21l.09.53a9.914 9.914 0 011.63-.17c1.17 0 1.56.53 1.56 1.27v.61h-1.8a1.484 1.484 0 00-1.74 1.52 1.534 1.534 0 001.8 1.57 2.029 2.029 0 001.74-.76v.68h.64zm-.64-2.04a1.536 1.536 0 01-1.75 1.55.952.952 0 01-1.15-.96.924.924 0 011.14-.99h1.76v.4zm6.65 2.04V3.87a1.714 1.714 0 00-1.84-1.9 2.117 2.117 0 00-1.87 1.1v-1h-.65v5.36h.65V4.71a1.934 1.934 0 011.78-2.14 1.148 1.148 0 011.29 1.35v3.51h.64zm3.98-.03l-.09-.48a3.786 3.786 0 01-.63.07c-.42 0-.61-.21-.61-.94V2.64h1.1v-.57H389V.55h-.65v1.52h-.74v.57h.74v3.38c0 1.11.45 1.49 1.24 1.49a2.537 2.537 0 00.74-.11zm5.81-2.43v-.23c0-1.48-.81-2.77-2.37-2.77a2.546 2.546 0 00-2.48 2.77 2.619 2.619 0 002.79 2.77 6.072 6.072 0 001.75-.27l-.13-.53a6.014 6.014 0 01-1.63.23 1.945 1.945 0 01-2.12-1.97h4.19zm-.66-.55h-3.53a1.834 1.834 0 011.82-1.88 1.737 1.737 0 011.71 1.88zm8.99.55v-.23c0-1.48-.8-2.77-2.36-2.77a2.546 2.546 0 00-2.48 2.77 2.619 2.619 0 002.79 2.77 6.123 6.123 0 001.75-.27l-.14-.53a5.912 5.912 0 01-1.63.23 1.942 1.942 0 01-2.11-1.97h4.18zm-.66-.55h-3.52a1.834 1.834 0 011.82-1.88 1.729 1.729 0 011.7 1.88zm3.98 3.07v-.55h-.47a.721.721 0 01-.78-.89V.1h-.64v5.92a1.273 1.273 0 001.38 1.47h.51zm7.42-1.4c0-.78-.38-1.08-1.88-1.7-1.04-.42-1.26-.64-1.26-1.09 0-.53.37-.76 1.29-.76a6.646 6.646 0 011.52.2l.1-.52a5.429 5.429 0 00-1.65-.25c-1.06 0-1.9.39-1.9 1.26 0 .73.27 1.16 1.49 1.65 1.39.57 1.65.7 1.65 1.19 0 .6-.57.87-1.42.87a4.1 4.1 0 01-1.72-.41l-.17.5a4.284 4.284 0 001.91.48c1.27 0 2.04-.57 2.04-1.42zm5.86-1.12v-.23c0-1.48-.8-2.77-2.36-2.77a2.541 2.541 0 00-2.48 2.77 2.616 2.616 0 002.78 2.77 6.022 6.022 0 001.75-.27l-.13-.53a5.963 5.963 0 01-1.63.23 1.942 1.942 0 01-2.11-1.97h4.18zm-.66-.55h-3.52a1.834 1.834 0 011.82-1.88 1.735 1.735 0 011.7 1.88zm4.76-1.82v-.63a2.354 2.354 0 00-1.96 1.24V2.07h-.65v5.36h.65V4.74a2.084 2.084 0 011.96-2.14zm5.19-.53h-.64l-1.82 4.67-1.8-4.67h-.65l2.13 5.36h.64zm1.62 5.36V2.07h-.64v5.36h.64zm0-6.25V.1h-.64v1.08h.64zm5.58 6.14l-.11-.54a4.208 4.208 0 01-1.17.16 2.2 2.2 0 010-4.4 4.3 4.3 0 011.17.17l.11-.53a4.082 4.082 0 00-1.34-.21 2.77 2.77 0 000 5.54 5.1 5.1 0 001.34-.19zm2.12.11V2.07h-.64v5.36h.64zm0-6.25V.1h-.64v1.08h.64zm6.48 3.56a2.509 2.509 0 10-2.49 2.77 2.554 2.554 0 002.49-2.77zm-.64 0a1.878 1.878 0 11-1.85-2.2 1.922 1.922 0 011.85 2.2zm11.02 2.69l-2.4-3.25a2.025 2.025 0 001.63-2A2.086 2.086 0 00453.54.1h-3.31v7.33h.66V4.25h2.55l2.35 3.18h.75zm-1.43-5.25a1.442 1.442 0 01-1.57 1.52h-2.65V.67h2.65a1.5 1.5 0 011.57 1.51zm7.07 2.79v-.23c0-1.48-.8-2.77-2.37-2.77a2.539 2.539 0 00-2.47 2.77 2.611 2.611 0 002.78 2.77 6.072 6.072 0 001.75-.27l-.13-.53a5.963 5.963 0 01-1.63.23A1.942 1.942 0 01458 4.97h4.18zm-.66-.55H458a1.832 1.832 0 011.81-1.88 1.737 1.737 0 011.71 1.88zm4.31 2.98l-.09-.48a3.786 3.786 0 01-.63.07c-.41 0-.61-.21-.61-.94V2.64h1.1v-.57h-1.1V.55h-.65v1.52h-.74v.57h.74v3.38c0 1.11.45 1.49 1.24 1.49a2.537 2.537 0 00.74-.11zm5.15.03V3.76c0-1.05-.71-1.79-2.18-1.79a7.605 7.605 0 00-1.74.21l.09.53a9.809 9.809 0 011.63-.17c1.16 0 1.56.53 1.56 1.27v.61h-1.8a1.484 1.484 0 00-1.74 1.52 1.534 1.534 0 001.8 1.57 2.042 2.042 0 001.74-.76v.68h.64zm-.64-2.04a1.536 1.536 0 01-1.75 1.55.956.956 0 01-1.16-.96.932.932 0 011.15-.99h1.76v.4zm2.93 2.04V2.07h-.64v5.36h.64zm0-6.25V.1h-.64v1.08h.64zm3.7 6.31v-.55h-.47a.721.721 0 01-.78-.89V.1h-.64v5.92a1.273 1.273 0 001.38 1.47h.51zm2.15-.06V6.39h-.83v1.04h.45l-.38 1.16h.36zm9.05-2.69c0-1.33-.68-2.77-2.35-2.77a1.9 1.9 0 00-1.76 1.08v-.98h-.65v7.26h.65V6.44a1.909 1.909 0 001.76 1.07c1.68 0 2.35-1.44 2.35-2.77zm-.64 0c0 1.21-.59 2.2-1.74 2.2s-1.73-1.01-1.73-2.2.59-2.2 1.73-2.2 1.74.99 1.74 2.2zm5.9 2.69V3.76c0-1.05-.71-1.79-2.18-1.79a7.605 7.605 0 00-1.74.21l.09.53a9.809 9.809 0 011.63-.17c1.16 0 1.56.53 1.56 1.27v.61h-1.8a1.484 1.484 0 00-1.74 1.52 1.534 1.534 0 001.8 1.57 2.042 2.042 0 001.74-.76v.68h.64zm-.64-2.04a1.536 1.536 0 01-1.75 1.55.948.948 0 01-1.15-.96.924.924 0 011.14-.99h1.76v.4zm4.91-2.79v-.63a2.357 2.357 0 00-1.97 1.24V2.07h-.65v5.36h.65V4.74a2.092 2.092 0 011.97-2.14zm4.92 4.83V3.76c0-1.05-.7-1.79-2.17-1.79a7.471 7.471 0 00-1.74.21l.09.53a9.807 9.807 0 011.62-.17c1.17 0 1.57.53 1.57 1.27v.61h-1.81a1.489 1.489 0 00-1.74 1.52 1.542 1.542 0 001.81 1.57 2.042 2.042 0 001.74-.76v.68h.63zm-.63-2.04a1.541 1.541 0 01-1.75 1.55.956.956 0 01-1.16-.96.928.928 0 011.15-.99h1.76v.4zm6.54 2.1v-.55h-.47a.721.721 0 01-.78-.89V.1h-.64v5.92a1.27 1.27 0 001.37 1.47h.52zm5.2-.06V3.76c0-1.05-.7-1.79-2.17-1.79a7.471 7.471 0 00-1.74.21l.08.53a10.021 10.021 0 011.63-.17c1.17 0 1.57.53 1.57 1.27v.61h-1.81a1.489 1.489 0 00-1.74 1.52 1.542 1.542 0 001.81 1.57 2.042 2.042 0 001.74-.76v.68h.63zm-.63-2.04a1.541 1.541 0 01-1.75 1.55.956.956 0 01-1.16-.96.928.928 0 011.15-.99h1.76v.4zm8.41 1.93l-.11-.54a4.208 4.208 0 01-1.17.16 2.2 2.2 0 010-4.4 4.3 4.3 0 011.17.17l.11-.53a4.082 4.082 0 00-1.34-.21 2.77 2.77 0 000 5.54 5.1 5.1 0 001.34-.19zm5.26.11V3.76c0-1.05-.71-1.79-2.18-1.79a7.605 7.605 0 00-1.74.21l.09.53a9.809 9.809 0 011.63-.17c1.16 0 1.56.53 1.56 1.27v.61h-1.8a1.484 1.484 0 00-1.74 1.52 1.534 1.534 0 001.8 1.57 2.042 2.042 0 001.74-.76v.68h.64zm-.64-2.04a1.536 1.536 0 01-1.75 1.55.948.948 0 01-1.15-.96.924.924 0 011.14-.99h1.76v.4zm4.46 2.01l-.09-.48a3.786 3.786 0 01-.63.07c-.42 0-.62-.21-.62-.94V2.64h1.1v-.57h-1.1V.55h-.65v1.52h-.73v.57h.73v3.38c0 1.11.46 1.49 1.25 1.49a2.582 2.582 0 00.74-.11zm5.8-2.43v-.23c0-1.48-.8-2.77-2.36-2.77a2.546 2.546 0 00-2.48 2.77 2.619 2.619 0 002.79 2.77 6.123 6.123 0 001.75-.27l-.14-.53a5.9 5.9 0 01-1.62.23 1.945 1.945 0 01-2.12-1.97h4.18zm-.66-.55h-3.52a1.834 1.834 0 011.82-1.88 1.729 1.729 0 011.7 1.88zm6.47 2.59V2.07h-.64v.98a2.015 2.015 0 00-1.83-1.08c-1.62 0-2.29 1.29-2.29 2.71s.68 2.69 2.29 2.69a2.006 2.006 0 001.83-1.07V7a1.626 1.626 0 01-1.92 1.87 5.839 5.839 0 01-1.61-.27l-.13.5a5.585 5.585 0 001.79.32 2.217 2.217 0 002.51-2.41zm-.64-2.33c0 1.3-.63 2.12-1.78 2.12-1.21 0-1.69-.94-1.69-2.12s.48-2.14 1.69-2.14c1.15 0 1.78.83 1.78 2.14zm7.07.06a2.513 2.513 0 10-2.5 2.77 2.562 2.562 0 002.5-2.77zm-.64 0a1.882 1.882 0 11-1.86-2.2 1.929 1.929 0 011.86 2.2zm4.74-2.14v-.63a2.357 2.357 0 00-1.97 1.24V2.07h-.65v5.36h.65V4.74a2.092 2.092 0 011.97-2.14zm1.79 4.83V2.07h-.64v5.36h.64zm1.1-7.4h-.76l-1.05 1.33h.55zm4.54 7.4V3.76c0-1.05-.7-1.79-2.17-1.79a7.471 7.471 0 00-1.74.21l.08.53a10.021 10.021 0 011.63-.17c1.17 0 1.57.53 1.57 1.27v.61h-1.81a1.489 1.489 0 00-1.74 1.52 1.542 1.542 0 001.81 1.57 2.042 2.042 0 001.74-.76v.68h.63zm-.63-2.04a1.541 1.541 0 01-1.75 1.55.956.956 0 01-1.16-.96.928.928 0 011.15-.99h1.76v.4zM11.37 15.5v-1.04h-.46l.4-1.16h-.38l-.38 1.16v1.04h.82zm-1.69 0v-1.04h-.46l.39-1.16h-.37l-.39 1.16v1.04h.83zm8.7 5.01l-.13-.53a7.27 7.27 0 01-1.65.19 3.208 3.208 0 110-6.41 7.4 7.4 0 011.67.2l.11-.54a6.193 6.193 0 00-1.76-.23 3.77 3.77 0 00-4.04 3.77 3.82 3.82 0 004.04 3.79 6.738 6.738 0 001.76-.24zm4.27-4.71v-.63a2.357 2.357 0 00-1.97 1.24v-1.14h-.65v5.36h.65v-2.69a2.092 2.092 0 011.97-2.14zm5.59 2.37v-.23c0-1.48-.81-2.77-2.37-2.77a2.539 2.539 0 00-2.47 2.77 2.611 2.611 0 002.78 2.77 6.072 6.072 0 001.75-.27l-.13-.53a6.014 6.014 0 01-1.63.23 1.937 1.937 0 01-2.11-1.97h4.18zm-.66-.55h-3.52a1.832 1.832 0 011.81-1.88 1.737 1.737 0 011.71 1.88zm10.07 3.01v-3.56a1.692 1.692 0 00-1.81-1.9 2.24 2.24 0 00-1.94 1.13 1.628 1.628 0 00-1.7-1.13 2.055 2.055 0 00-1.83 1.1v-1h-.65v5.36h.65v-2.72a1.907 1.907 0 011.74-2.14 1.122 1.122 0 011.25 1.35v3.51h.65V17.9a1.9 1.9 0 011.74-2.13A1.122 1.122 0 0137 17.12v3.51h.65zm5.59 0v-3.67c0-1.05-.7-1.79-2.18-1.79a7.605 7.605 0 00-1.74.21l.09.53a9.914 9.914 0 011.63-.17c1.17 0 1.56.53 1.56 1.27v.61h-1.8a1.489 1.489 0 00-1.74 1.52 1.534 1.534 0 001.8 1.57 2.029 2.029 0 001.74-.76v.68h.64zm-.64-2.04a1.536 1.536 0 01-1.75 1.55.952.952 0 01-1.15-.96.924.924 0 011.14-.99h1.76v.4zm5.85.7c0-.78-.37-1.08-1.88-1.7-1.03-.42-1.25-.64-1.25-1.09 0-.53.36-.76 1.29-.76a6.633 6.633 0 011.51.2l.1-.52a5.342 5.342 0 00-1.65-.25c-1.05 0-1.89.39-1.89 1.26 0 .73.26 1.16 1.49 1.65 1.38.57 1.65.7 1.65 1.19 0 .6-.58.87-1.42.87a4.066 4.066 0 01-1.72-.41l-.18.5a4.327 4.327 0 001.92.48c1.26 0 2.03-.57 2.03-1.42zm8.95-5.42v-.57h-4.93v7.33h.67v-3.51h3.97v-.58h-3.97v-2.67h4.26zm5.2 6.76v-3.67c0-1.05-.7-1.79-2.18-1.79a7.605 7.605 0 00-1.74.21l.09.53a9.914 9.914 0 011.63-.17c1.17 0 1.56.53 1.56 1.27v.61h-1.8a1.484 1.484 0 00-1.74 1.52 1.534 1.534 0 001.8 1.57 2.029 2.029 0 001.74-.76v.68h.64zm-.64-2.04a1.536 1.536 0 01-1.75 1.55.952.952 0 01-1.15-.96.924.924 0 011.14-.99h1.76v.4zm6 1.93l-.11-.54a4.208 4.208 0 01-1.17.16 2.2 2.2 0 010-4.4 4.414 4.414 0 011.17.17l.11-.53a4.1 4.1 0 00-1.35-.21 2.77 2.77 0 000 5.54 5.176 5.176 0 001.35-.19zm2.12.11v-5.36h-.64v5.36h.64zm0-6.25V13.3h-.64v1.08h.64zm5.64 6.25v-3.67c0-1.05-.7-1.79-2.18-1.79a7.451 7.451 0 00-1.73.21l.08.53a9.914 9.914 0 011.63-.17c1.17 0 1.56.53 1.56 1.27v.61h-1.8a1.489 1.489 0 00-1.74 1.52 1.542 1.542 0 001.81 1.57 2.009 2.009 0 001.73-.76v.68h.64zm-.64-2.04a1.533 1.533 0 01-1.74 1.55.956.956 0 01-1.16-.96.924.924 0 011.14-.99h1.76v.4zm4.13 2.1v-.55h-.47a.727.727 0 01-.79-.89V13.3h-.63v5.92a1.27 1.27 0 001.37 1.47h.52zm5.86-2.52v-.23c0-1.48-.8-2.77-2.36-2.77a2.541 2.541 0 00-2.48 2.77 2.619 2.619 0 002.79 2.77 6.009 6.009 0 001.74-.27l-.13-.53a5.912 5.912 0 01-1.63.23 1.942 1.942 0 01-2.11-1.97h4.18zm-.66-.55h-3.52a1.834 1.834 0 011.82-1.88 1.735 1.735 0 011.7 1.88zm5.71 1.67c0-.78-.37-1.08-1.88-1.7-1.03-.42-1.25-.64-1.25-1.09 0-.53.36-.76 1.28-.76a6.646 6.646 0 011.52.2l.1-.52a5.385 5.385 0 00-1.65-.25c-1.06 0-1.89.39-1.89 1.26 0 .73.26 1.16 1.48 1.65 1.39.57 1.65.7 1.65 1.19 0 .6-.57.87-1.42.87a4.057 4.057 0 01-1.71-.41l-.18.5a4.327 4.327 0 001.92.48c1.26 0 2.03-.57 2.03-1.42zm3.79-4.96V13.3h-.83v1.03h.45l-.38 1.17h.36zm-1.7 0V13.3h-.82v1.03h.45l-.39 1.17h.36zm9.55 4.96c0-.78-.37-1.08-1.88-1.7-1.04-.42-1.26-.64-1.26-1.09 0-.53.37-.76 1.29-.76a6.646 6.646 0 011.52.2l.1-.52a5.429 5.429 0 00-1.65-.25c-1.06 0-1.89.39-1.89 1.26 0 .73.26 1.16 1.48 1.65 1.39.57 1.65.7 1.65 1.19 0 .6-.57.87-1.42.87a4.022 4.022 0 01-1.71-.41l-.18.5a4.284 4.284 0 001.91.48c1.27 0 2.04-.57 2.04-1.42zm5.86-1.12v-.23c0-1.48-.8-2.77-2.36-2.77a2.541 2.541 0 00-2.48 2.77 2.616 2.616 0 002.78 2.77 6.022 6.022 0 001.75-.27l-.13-.53a5.912 5.912 0 01-1.63.23 1.942 1.942 0 01-2.11-1.97h4.18zm-.66-.55h-3.52a1.834 1.834 0 011.82-1.88 1.735 1.735 0 011.7 1.88zm6.47 2.59v-4.94h-.64v.98a2.019 2.019 0 00-1.84-1.08c-1.61 0-2.28 1.29-2.28 2.71s.68 2.69 2.28 2.69a2.011 2.011 0 001.84-1.07v.7a1.629 1.629 0 01-1.92 1.87 5.839 5.839 0 01-1.61-.27l-.13.5a5.585 5.585 0 001.79.32 2.217 2.217 0 002.51-2.41zm-.64-2.33c0 1.3-.64 2.12-1.78 2.12-1.21 0-1.69-.94-1.69-2.12s.48-2.14 1.69-2.14c1.14 0 1.78.83 1.78 2.14zm10.39 2.75v-3.56a1.7 1.7 0 00-1.82-1.9 2.224 2.224 0 00-1.93 1.13 1.648 1.648 0 00-1.71-1.13 2.066 2.066 0 00-1.83 1.1v-1h-.65v5.36h.65v-2.72a1.907 1.907 0 011.74-2.14 1.129 1.129 0 011.26 1.35v3.51h.65V17.9a1.891 1.891 0 011.73-2.13 1.125 1.125 0 011.26 1.35v3.51h.65zm6.24-2.46v-.23c0-1.48-.8-2.77-2.36-2.77a2.546 2.546 0 00-2.48 2.77 2.619 2.619 0 002.79 2.77 6.123 6.123 0 001.75-.27l-.14-.53a5.9 5.9 0 01-1.62.23 1.945 1.945 0 01-2.12-1.97h4.18zm-.66-.55h-3.52a1.834 1.834 0 011.82-1.88 1.729 1.729 0 011.7 1.88zm6.51 3.01v-3.56a1.714 1.714 0 00-1.84-1.9 2.117 2.117 0 00-1.87 1.1v-1h-.65v5.36h.65v-2.72a1.934 1.934 0 011.78-2.14 1.148 1.148 0 011.29 1.35v3.51h.64zm3.98-.03l-.09-.48a3.786 3.786 0 01-.63.07c-.42 0-.62-.21-.62-.94v-3.41h1.11v-.57h-1.11v-1.52h-.64v1.52h-.74v.57h.74v3.38c0 1.11.45 1.49 1.24 1.49a2.582 2.582 0 00.74-.11zm5.98-2.66a2.509 2.509 0 10-2.5 2.77 2.556 2.556 0 002.5-2.77zm-.64 0a1.882 1.882 0 11-1.86-2.2 1.923 1.923 0 011.86 2.2zm7.06-2.44v-1.04h-.46l.4-1.16h-.38l-.38 1.16v1.04h.82zm-1.69 0v-1.04h-.46l.39-1.16h-.37l-.39 1.16v1.04h.83zm9.09 4.93v-3.04h-.6v2.62a8.456 8.456 0 01-1.58.16 3.163 3.163 0 01-3.35-3.21 3.085 3.085 0 013.35-3.2 7.917 7.917 0 011.82.2l.1-.54a7.546 7.546 0 00-1.9-.23 3.691 3.691 0 00-4.03 3.77 3.85 3.85 0 004.04 3.79 7.785 7.785 0 002.15-.32zm6.24-2.26v-.23c0-1.48-.8-2.77-2.36-2.77a2.546 2.546 0 00-2.48 2.77 2.619 2.619 0 002.79 2.77 6.123 6.123 0 001.75-.27l-.14-.53a5.9 5.9 0 01-1.62.23 1.945 1.945 0 01-2.12-1.97h4.18zm-.66-.55h-3.52a1.834 1.834 0 011.82-1.88 1.729 1.729 0 011.7 1.88zm3.99 3.07v-.55h-.48a.721.721 0 01-.78-.89V13.3h-.64v5.92a1.273 1.273 0 001.38 1.47h.52zm8.52-.06v-.58h-3.85V13.3h-.66v7.33h4.51zm1.9 0v-5.36h-.64v5.36h.64zm0-6.25V13.3h-.64v1.08h.64zm9.81 6.25v-3.56a1.7 1.7 0 00-1.82-1.9 2.253 2.253 0 00-1.94 1.13 1.628 1.628 0 00-1.7-1.13 2.066 2.066 0 00-1.83 1.1v-1h-.65v5.36h.65v-2.72a1.907 1.907 0 011.74-2.14 1.122 1.122 0 011.25 1.35v3.51h.65V17.9a1.9 1.9 0 011.74-2.13 1.129 1.129 0 011.26 1.35v3.51h.65zm6.57-2.69c0-1.33-.68-2.77-2.35-2.77a1.911 1.911 0 00-1.76 1.08v-.98h-.65v7.26h.65v-2.89a1.919 1.919 0 001.76 1.07c1.68 0 2.35-1.44 2.35-2.77zm-.64 0c0 1.21-.59 2.2-1.73 2.2s-1.74-1.01-1.74-2.2.59-2.2 1.74-2.2 1.73.99 1.73 2.2zm2.76 2.69v-5.36h-.63v5.36h.63zm0-6.25V13.3h-.63v1.08h.63zm6.31 3.79v-.23c0-1.48-.8-2.77-2.37-2.77a2.539 2.539 0 00-2.47 2.77 2.611 2.611 0 002.78 2.77 6.072 6.072 0 001.75-.27l-.13-.53a5.963 5.963 0 01-1.63.23 1.942 1.942 0 01-2.11-1.97h4.18zm-.66-.55h-3.52a1.832 1.832 0 011.81-1.88 1.737 1.737 0 011.71 1.88zm6.24 3.01v-.58h-3.65l3.56-4.21v-.57h-4.08v.57h3.31L205 20.05v.58h4.43zm5.36 0v-3.67c0-1.05-.7-1.79-2.18-1.79a7.451 7.451 0 00-1.73.21l.08.53a10.021 10.021 0 011.63-.17c1.17 0 1.57.53 1.57 1.27v.61h-1.81a1.489 1.489 0 00-1.74 1.52 1.542 1.542 0 001.81 1.57 2.042 2.042 0 001.74-.76v.68h.63zm-.63-2.04a1.541 1.541 0 01-1.75 1.55.956.956 0 01-1.16-.96.924.924 0 011.14-.99h1.77v.4zm4.64-4.26V13.3h-.83v1.03h.45l-.38 1.17h.36zm-1.7 0V13.3h-.82v1.03h.45l-.39 1.17h.37zm4.28 6.3v-1.04h-.82v1.04h.45l-.39 1.16h.37zm8.06 0v-3.67c0-1.05-.7-1.79-2.17-1.79a7.471 7.471 0 00-1.74.21l.09.53a9.807 9.807 0 011.62-.17c1.17 0 1.57.53 1.57 1.27v.61H227a1.489 1.489 0 00-1.74 1.52 1.542 1.542 0 001.81 1.57 2.042 2.042 0 001.74-.76v.68h.63zm-.63-2.04a1.536 1.536 0 01-1.75 1.55.956.956 0 01-1.16-.96.928.928 0 011.15-.99h1.76v.4zm4.12 2.1v-.55h-.47a.721.721 0 01-.78-.89V13.3h-.64v5.92a1.27 1.27 0 001.37 1.47h.52zm7.62-.06v-3.67c0-1.05-.7-1.79-2.17-1.79a7.471 7.471 0 00-1.74.21l.09.53a9.807 9.807 0 011.62-.17c1.17 0 1.57.53 1.57 1.27v.61h-1.81a1.489 1.489 0 00-1.74 1.52 1.542 1.542 0 001.81 1.57 2.042 2.042 0 001.74-.76v.68h.63zm-.63-2.04a1.536 1.536 0 01-1.75 1.55.956.956 0 01-1.16-.96.928.928 0 011.15-.99h1.76v.4zm5.99 1.93l-.11-.54a4.189 4.189 0 01-1.16.16 2.2 2.2 0 010-4.4 4.285 4.285 0 011.16.17l.11-.53a4.082 4.082 0 00-1.34-.21 2.77 2.77 0 000 5.54 5.043 5.043 0 001.34-.19zm5.73.11v-5.36H251v2.72a1.937 1.937 0 01-1.79 2.13 1.145 1.145 0 01-1.28-1.35v-3.5h-.64v3.55a1.7 1.7 0 001.83 1.89 2.133 2.133 0 001.88-1.1v1.02h.64zm9.8 0v-3.56a1.692 1.692 0 00-1.81-1.9 2.24 2.24 0 00-1.94 1.13 1.628 1.628 0 00-1.7-1.13 2.066 2.066 0 00-1.83 1.1v-1h-.65v5.36h.65v-2.72a1.907 1.907 0 011.74-2.14 1.122 1.122 0 011.25 1.35v3.51h.65V17.9a1.9 1.9 0 011.74-2.13 1.129 1.129 0 011.26 1.35v3.51h.64zm6.06 0v-5.36h-.63v2.72a1.944 1.944 0 01-1.8 2.13 1.139 1.139 0 01-1.27-1.35v-3.5h-.65v3.55a1.7 1.7 0 001.83 1.89 2.161 2.161 0 001.89-1.1v1.02h.63zm3.71.06v-.55h-.47a.721.721 0 01-.78-.89V13.3h-.64v5.92a1.27 1.27 0 001.37 1.47h.52zm5.2-.06v-3.67c0-1.05-.7-1.79-2.17-1.79a7.471 7.471 0 00-1.74.21l.09.53a9.807 9.807 0 011.62-.17c1.17 0 1.57.53 1.57 1.27v.61h-1.81a1.489 1.489 0 00-1.74 1.52 1.542 1.542 0 001.81 1.57 2.042 2.042 0 001.74-.76v.68h.63zm-.63-2.04a1.541 1.541 0 01-1.75 1.55.956.956 0 01-1.16-.96.928.928 0 011.15-.99h1.76v.4zm6.66 2.04V13.3h-.64v2.95a1.911 1.911 0 00-1.76-1.08c-1.68 0-2.36 1.44-2.36 2.77s.69 2.77 2.36 2.77a1.919 1.919 0 001.76-1.07v.99h.64zm-.64-2.69c0 1.19-.59 2.2-1.73 2.2s-1.74-.99-1.74-2.2.59-2.2 1.74-2.2 1.73 1.01 1.73 2.2zm7.12 0a2.509 2.509 0 10-2.5 2.77 2.556 2.556 0 002.5-2.77zm-.64 0a1.878 1.878 0 11-1.86-2.2 1.923 1.923 0 011.86 2.2zm8.92 2.69V13.3h-.63v2.95a1.921 1.921 0 00-1.76-1.08c-1.69 0-2.37 1.44-2.37 2.77s.69 2.77 2.37 2.77a1.93 1.93 0 001.76-1.07v.99h.63zm-.63-2.69c0 1.19-.6 2.2-1.74 2.2s-1.74-.99-1.74-2.2.59-2.2 1.74-2.2 1.74 1.01 1.74 2.2zm6.94.23v-.23c0-1.48-.81-2.77-2.37-2.77a2.539 2.539 0 00-2.47 2.77 2.611 2.611 0 002.78 2.77 6.072 6.072 0 001.75-.27l-.13-.53a6.014 6.014 0 01-1.63.23 1.937 1.937 0 01-2.11-1.97h4.18zm-.66-.55h-3.52a1.832 1.832 0 011.81-1.88 1.737 1.737 0 011.71 1.88zm3.98 3.07v-.55h-.48a.724.724 0 01-.78-.89V13.3h-.63v5.92a1.27 1.27 0 001.37 1.47h.52zm7.62-.06v-3.67c0-1.05-.7-1.79-2.18-1.79a7.605 7.605 0 00-1.74.21l.09.53a9.914 9.914 0 011.63-.17c1.17 0 1.56.53 1.56 1.27v.61h-1.8a1.489 1.489 0 00-1.74 1.52 1.534 1.534 0 001.8 1.57 2.029 2.029 0 001.74-.76v.68h.64zm-.64-2.04a1.536 1.536 0 01-1.75 1.55.952.952 0 01-1.15-.96.924.924 0 011.14-.99h1.76v.4zm6.65 2.04v-3.56a1.714 1.714 0 00-1.84-1.9 2.117 2.117 0 00-1.87 1.1v-1h-.65v5.36h.65v-2.72a1.934 1.934 0 011.78-2.14 1.148 1.148 0 011.29 1.35v3.51h.64zm-.61-6.99l-.44-.19a.679.679 0 01-.49.48 7.668 7.668 0 00-1.1-.41 1.109 1.109 0 00-.95.74l.43.19a.715.715 0 01.51-.46 6.954 6.954 0 001.1.4 1.11 1.11 0 00.94-.75zm7.03 4.3a2.509 2.509 0 10-2.5 2.77 2.556 2.556 0 002.5-2.77zm-.64 0a1.878 1.878 0 11-1.86-2.2 1.923 1.923 0 011.86 2.2zm9.22 2.69v-.58h-4.19c0-.99.41-1.37 2.4-2.58 1.18-.72 1.67-1.37 1.67-2.32 0-1.08-.76-1.85-2.5-1.85a6.89 6.89 0 00-2.13.34l.12.53a6.785 6.785 0 011.88-.3c1.34 0 1.99.41 1.99 1.3 0 .7-.34 1.21-1.69 2.01-1.86 1.11-2.39 1.71-2.39 2.94v.51h4.84zm6.71-3.61c0-2.08-.87-3.72-2.65-3.72s-2.66 1.64-2.66 3.72.88 3.73 2.66 3.73 2.65-1.65 2.65-3.73zm-.64 0c0 1.78-.59 3.15-2.01 3.15s-2.03-1.37-2.03-3.15.61-3.15 2.03-3.15 2.01 1.36 2.01 3.15zm4.23 3.61v-7.22h-.64l-2.07.42.1.49 1.97-.35v6.66h.64zm6.95-4.19c0-2.13-1.09-3.14-2.6-3.14a2.359 2.359 0 00-2.37 2.36 2.233 2.233 0 002.33 2.27 2.293 2.293 0 002.01-.94c-.19 1.95-1.19 3.18-3.09 3.18a8.607 8.607 0 01-.87-.06l-.07.53a4.521 4.521 0 00.9.11c2.41 0 3.76-1.62 3.76-4.31zm-.67-.75a1.792 1.792 0 01-1.95 1.67 1.564 1.564 0 01-1.72-1.67 1.726 1.726 0 011.76-1.82 1.765 1.765 0 011.91 1.82zm6.89 6.31a8.176 8.176 0 010-9.44l-.46-.32a8.36 8.36 0 000 10.08zm7.58-1.37V13.3h-.65v6.29l-4.69-6.29h-.64v7.33h.64v-6.31l4.69 6.31h.65zm6.65-2.69a2.513 2.513 0 10-2.5 2.77 2.562 2.562 0 002.5-2.77zm-.64 0a1.882 1.882 0 11-1.86-2.2 1.929 1.929 0 011.86 2.2zm6.15-2.67h-.64l-1.82 4.67-1.8-4.67h-.65l2.14 5.36h.63zm1.62 5.36v-5.36h-.63v5.36h.63zm0-6.25V13.3h-.63v1.08h.63zm6.31 3.79v-.23c0-1.48-.8-2.77-2.37-2.77a2.539 2.539 0 00-2.47 2.77 2.611 2.611 0 002.78 2.77 6.072 6.072 0 001.75-.27l-.13-.53a5.963 5.963 0 01-1.63.23 1.942 1.942 0 01-2.11-1.97h4.18zm-.66-.55h-3.52a1.832 1.832 0 011.81-1.88 1.737 1.737 0 011.71 1.88zm10.08 3.01v-3.56a1.7 1.7 0 00-1.82-1.9 2.253 2.253 0 00-1.94 1.13 1.628 1.628 0 00-1.7-1.13 2.066 2.066 0 00-1.83 1.1v-1h-.65v5.36h.65v-2.72a1.907 1.907 0 011.74-2.14 1.122 1.122 0 011.25 1.35v3.51h.65V17.9a1.9 1.9 0 011.74-2.13 1.129 1.129 0 011.26 1.35v3.51h.65zm6.57-2.69c0-1.33-.67-2.77-2.35-2.77a1.911 1.911 0 00-1.76 1.08V13.3h-.65v7.33h.65v-.99a1.919 1.919 0 001.76 1.07c1.67 0 2.35-1.44 2.35-2.77zm-.64 0c0 1.21-.59 2.2-1.73 2.2s-1.74-1.01-1.74-2.2.59-2.2 1.74-2.2 1.73.99 1.73 2.2zm4.75-2.14v-.63a2.357 2.357 0 00-1.97 1.24v-1.14h-.65v5.36h.65v-2.69a2.085 2.085 0 011.97-2.14zm5.58 2.37v-.23c0-1.48-.8-2.77-2.36-2.77a2.546 2.546 0 00-2.48 2.77 2.619 2.619 0 002.79 2.77 6.123 6.123 0 001.75-.27l-.14-.53a5.9 5.9 0 01-1.62.23 1.945 1.945 0 01-2.12-1.97h4.18zm-.66-.55h-3.52a1.834 1.834 0 011.82-1.88 1.729 1.729 0 011.7 1.88zm9.24 3.01v-.58h-4.19c0-.99.41-1.37 2.4-2.58 1.18-.72 1.67-1.37 1.67-2.32 0-1.08-.76-1.85-2.5-1.85a6.939 6.939 0 00-2.13.34l.12.53a6.785 6.785 0 011.88-.3c1.35 0 1.99.41 1.99 1.3 0 .7-.34 1.21-1.69 2.01-1.86 1.11-2.39 1.71-2.39 2.94v.51h4.84zm6.71-3.61c0-2.08-.87-3.72-2.65-3.72s-2.66 1.64-2.66 3.72.88 3.73 2.66 3.73 2.65-1.65 2.65-3.73zm-.63 0c0 1.78-.6 3.15-2.02 3.15s-2.02-1.37-2.02-3.15.6-3.15 2.02-3.15 2.02 1.36 2.02 3.15zm4.22 3.61v-7.22h-.64l-2.07.42.1.49 1.97-.35v6.66h.64zm7.01-2.04a1.965 1.965 0 00-1.34-1.84 1.847 1.847 0 001-1.57 2.28 2.28 0 00-4.49 0 1.836 1.836 0 00.99 1.57 1.971 1.971 0 00-1.36 1.84 2.645 2.645 0 005.2 0zm-.64 0a1.687 1.687 0 01-1.95 1.58 1.706 1.706 0 01-1.97-1.58c0-.87.71-1.51 1.97-1.51s1.95.64 1.95 1.51zm-.34-3.41a1.635 1.635 0 01-3.22 0 1.642 1.642 0 013.22 0zm8.71 5.45v-3.67c0-1.05-.71-1.79-2.18-1.79a7.605 7.605 0 00-1.74.21l.09.53a9.809 9.809 0 011.63-.17c1.16 0 1.56.53 1.56 1.27v.61h-1.8a1.484 1.484 0 00-1.74 1.52 1.534 1.534 0 001.8 1.57 2.042 2.042 0 001.74-.76v.68h.64zm-.64-2.04a1.536 1.536 0 01-1.75 1.55.948.948 0 01-1.15-.96.924.924 0 011.14-.99h1.76v.4zm11.29-1.62a3.469 3.469 0 10-3.46 3.78 3.558 3.558 0 003.46-3.78zm-.66 0a2.822 2.822 0 11-2.8-3.21 2.912 2.912 0 012.8 3.21zm5.9 3.55l-.11-.54a4.189 4.189 0 01-1.16.16 2.2 2.2 0 010-4.4 4.285 4.285 0 011.16.17l.11-.53a4.082 4.082 0 00-1.34-.21 2.77 2.77 0 000 5.54 5.043 5.043 0 001.34-.19zm3.65.08l-.08-.48a3.786 3.786 0 01-.63.07c-.42 0-.62-.21-.62-.94v-3.41h1.1v-.57h-1.1v-1.52h-.65v1.52h-.73v.57h.73v3.38c0 1.11.46 1.49 1.25 1.49a2.478 2.478 0 00.73-.11zm5.63.03v-5.36h-.64v2.72a1.938 1.938 0 01-1.8 2.13 1.139 1.139 0 01-1.27-1.35v-3.5h-.65v3.55a1.7 1.7 0 001.84 1.89 2.157 2.157 0 001.88-1.1v1.02h.64zm6.63-2.69c0-1.33-.67-2.77-2.36-2.77a1.921 1.921 0 00-1.76 1.08V13.3h-.65v7.33h.65v-.99a1.93 1.93 0 001.76 1.07c1.68 0 2.36-1.44 2.36-2.77zm-.64 0c0 1.21-.59 2.2-1.74 2.2s-1.74-1.01-1.74-2.2.6-2.2 1.74-2.2 1.74.99 1.74 2.2zm4.74-2.14v-.63a2.37 2.37 0 00-1.97 1.24v-1.14h-.65v5.36h.65v-2.69a2.092 2.092 0 011.97-2.14zm5.59 2.37v-.23c0-1.48-.8-2.77-2.37-2.77a2.539 2.539 0 00-2.47 2.77 2.611 2.611 0 002.78 2.77 6.022 6.022 0 001.75-.27l-.13-.53a5.963 5.963 0 01-1.63.23 1.942 1.942 0 01-2.11-1.97h4.18zm-.66-.55h-3.52a1.832 1.832 0 011.81-1.88 1.737 1.737 0 011.71 1.88zm9.24 3.01v-.58h-4.19c0-.99.4-1.37 2.4-2.58 1.17-.72 1.67-1.37 1.67-2.32 0-1.08-.76-1.85-2.5-1.85a6.841 6.841 0 00-2.13.34l.12.53a6.725 6.725 0 011.88-.3c1.34 0 1.99.41 1.99 1.3 0 .7-.34 1.21-1.69 2.01-1.86 1.11-2.39 1.71-2.39 2.94v.51h4.84zm6.71-3.61c0-2.08-.87-3.72-2.65-3.72s-2.66 1.64-2.66 3.72.88 3.73 2.66 3.73 2.65-1.65 2.65-3.73zm-.64 0c0 1.78-.59 3.15-2.01 3.15S498 18.8 498 17.02s.61-3.15 2.03-3.15 2.01 1.36 2.01 3.15zm4.22 3.61v-7.22h-.63l-2.07.42.1.49 1.97-.35v6.66h.63zm6.96-4.19c0-2.13-1.09-3.14-2.6-3.14a2.368 2.368 0 00-2.38 2.36 2.242 2.242 0 002.34 2.27 2.305 2.305 0 002.01-.94c-.19 1.95-1.19 3.18-3.09 3.18a8.607 8.607 0 01-.87-.06l-.07.53a4.513 4.513 0 00.89.11c2.41 0 3.77-1.62 3.77-4.31zm-.67-.75a1.8 1.8 0 01-1.95 1.67 1.564 1.564 0 01-1.72-1.67 1.726 1.726 0 011.76-1.82 1.765 1.765 0 011.91 1.82zm3.98 1.59a8.366 8.366 0 00-1.7-5.04l-.46.32a8.132 8.132 0 010 9.44l.46.32a8.366 8.366 0 001.7-5.04zm9.11.66c0-1.33-.69-2.77-2.36-2.77a1.911 1.911 0 00-1.76 1.08v-.98h-.65v7.26h.65v-2.89a1.919 1.919 0 001.76 1.07c1.68 0 2.36-1.44 2.36-2.77zm-.64 0c0 1.21-.6 2.2-1.74 2.2s-1.74-1.01-1.74-2.2.6-2.2 1.74-2.2 1.74.99 1.74 2.2zm5.89 2.69v-3.67c0-1.05-.7-1.79-2.17-1.79a7.471 7.471 0 00-1.74.21l.08.53a10.021 10.021 0 011.63-.17c1.17 0 1.57.53 1.57 1.27v.61h-1.81a1.489 1.489 0 00-1.74 1.52 1.542 1.542 0 001.81 1.57 2.042 2.042 0 001.74-.76v.68h.63zm-.63-2.04a1.541 1.541 0 01-1.75 1.55.956.956 0 01-1.16-.96.924.924 0 011.14-.99h1.77v.4zm4.9-2.79v-.63a2.37 2.37 0 00-1.97 1.24v-1.14h-.65v5.36h.65v-2.69a2.092 2.092 0 011.97-2.14zm4.93 4.83v-3.67c0-1.05-.7-1.79-2.18-1.79a7.605 7.605 0 00-1.74.21l.09.53a9.809 9.809 0 011.63-.17c1.17 0 1.56.53 1.56 1.27v.61h-1.8a1.484 1.484 0 00-1.74 1.52 1.534 1.534 0 001.8 1.57 2.029 2.029 0 001.74-.76v.68h.64zm-.64-2.04a1.536 1.536 0 01-1.75 1.55.952.952 0 01-1.15-.96.924.924 0 011.14-.99h1.76v.4zm9.14-.42v-.23c0-1.48-.8-2.77-2.36-2.77a2.541 2.541 0 00-2.48 2.77 2.616 2.616 0 002.78 2.77 6.022 6.022 0 001.75-.27l-.13-.53a5.912 5.912 0 01-1.63.23 1.942 1.942 0 01-2.11-1.97h4.18zm-.66-.55h-3.52a1.834 1.834 0 011.82-1.88 1.735 1.735 0 011.7 1.88zm3.98 3.07v-.55h-.47a.721.721 0 01-.78-.89V13.3h-.64v5.92a1.273 1.273 0 001.38 1.47h.51zM121.26 33.83v-3.56a1.7 1.7 0 00-1.82-1.9 2.253 2.253 0 00-1.94 1.13 1.628 1.628 0 00-1.7-1.13 2.066 2.066 0 00-1.83 1.1v-1h-.65v5.36h.65v-2.72a1.907 1.907 0 011.74-2.14 1.122 1.122 0 011.25 1.35v3.51h.65V31.1a1.9 1.9 0 011.74-2.13 1.129 1.129 0 011.26 1.35v3.51h.65zm6.24-2.46v-.23c0-1.48-.8-2.77-2.36-2.77a2.541 2.541 0 00-2.48 2.77 2.619 2.619 0 002.79 2.77 6.009 6.009 0 001.74-.27l-.13-.53a5.912 5.912 0 01-1.63.23 1.942 1.942 0 01-2.11-1.97h4.18zm-.66-.55h-3.52a1.834 1.834 0 011.82-1.88 1.735 1.735 0 011.7 1.88zm4.77-1.82v-.63a2.357 2.357 0 00-1.97 1.24v-1.14h-.65v5.36h.65v-2.69a2.092 2.092 0 011.97-2.14zm4.86 4.72l-.11-.54a4.208 4.208 0 01-1.17.16 2.2 2.2 0 010-4.4 4.414 4.414 0 011.17.17l.11-.53a4.082 4.082 0 00-1.34-.21 2.77 2.77 0 000 5.54 5.161 5.161 0 001.34-.19zm5.26.11v-3.67c0-1.05-.71-1.79-2.18-1.79a7.538 7.538 0 00-1.74.21l.09.53a9.807 9.807 0 011.62-.17c1.17 0 1.57.53 1.57 1.27v.61h-1.81a1.489 1.489 0 00-1.74 1.52 1.542 1.542 0 001.81 1.57 2.042 2.042 0 001.74-.76v.68h.64zm-.64-2.04a1.536 1.536 0 01-1.75 1.55.956.956 0 01-1.16-.96.928.928 0 011.15-.99h1.76v.4zm6.66 2.04V26.5h-.63v2.95a1.926 1.926 0 00-1.77-1.08c-1.68 0-2.36 1.44-2.36 2.77s.69 2.77 2.36 2.77a1.934 1.934 0 001.77-1.07v.99h.63zm-.63-2.69c0 1.19-.6 2.2-1.74 2.2s-1.74-.99-1.74-2.2.59-2.2 1.74-2.2 1.74 1.01 1.74 2.2zm7.11 0a2.509 2.509 0 10-2.5 2.77 2.556 2.556 0 002.5-2.77zm-.64 0a1.878 1.878 0 11-1.86-2.2 1.923 1.923 0 011.86 2.2zm8.93 2.69V26.5h-.64v2.95a1.921 1.921 0 00-1.76-1.08c-1.69 0-2.37 1.44-2.37 2.77s.69 2.77 2.37 2.77a1.93 1.93 0 001.76-1.07v.99h.64zm-.64-2.69c0 1.19-.6 2.2-1.74 2.2s-1.74-.99-1.74-2.2.59-2.2 1.74-2.2 1.74 1.01 1.74 2.2zm6.94.23v-.23c0-1.48-.81-2.77-2.37-2.77a2.539 2.539 0 00-2.47 2.77 2.611 2.611 0 002.78 2.77 6.072 6.072 0 001.75-.27l-.13-.53a5.963 5.963 0 01-1.63.23 1.942 1.942 0 01-2.11-1.97h4.18zm-.66-.55h-3.52a1.832 1.832 0 011.81-1.88 1.737 1.737 0 011.71 1.88zm9.87 2.89l-.14-.53a7.209 7.209 0 01-1.65.19 3.208 3.208 0 110-6.41 7.483 7.483 0 011.68.2l.11-.54a6.264 6.264 0 00-1.77-.23 3.761 3.761 0 00-4.03 3.77 3.817 3.817 0 004.03 3.79 6.814 6.814 0 001.77-.24zm5.99.12v-3.56a1.707 1.707 0 00-1.83-1.9 2.157 2.157 0 00-1.88 1.1V26.5h-.64v7.33h.64v-2.72a1.942 1.942 0 011.8-2.14 1.135 1.135 0 011.27 1.35v3.51h.64zm2.51 0v-5.36h-.64v5.36h.64zm0-6.25V26.5h-.64v1.08h.64zm3.7 6.31v-.55h-.47a.721.721 0 01-.78-.89V26.5h-.64v5.92a1.273 1.273 0 001.38 1.47h.51zm5.87-2.52v-.23c0-1.48-.81-2.77-2.37-2.77a2.539 2.539 0 00-2.47 2.77 2.611 2.611 0 002.78 2.77 6.072 6.072 0 001.75-.27l-.13-.53a5.963 5.963 0 01-1.63.23 1.942 1.942 0 01-2.11-1.97h4.18zm-.66-.55h-3.52a1.832 1.832 0 011.81-1.88 1.737 1.737 0 011.71 1.88zm2.97 3.01v-1.04h-.83v1.04h.83zm6.5 1.37a8.132 8.132 0 010-9.44l-.46-.32a8.321 8.321 0 000 10.08zm7.37-5.04c0-2.11-1.82-3.66-4.31-3.66h-1.47v7.33h1.47c2.49 0 4.31-1.56 4.31-3.67zm-.67 0a3.279 3.279 0 01-3.55 3.09h-.9v-6.18h.9a3.279 3.279 0 013.55 3.09zm6.48 1.21v-.23c0-1.48-.81-2.77-2.37-2.77a2.546 2.546 0 00-2.48 2.77 2.619 2.619 0 002.79 2.77 6.072 6.072 0 001.75-.27l-.13-.53a6.014 6.014 0 01-1.63.23 1.945 1.945 0 01-2.12-1.97h4.19zm-.66-.55h-3.53a1.84 1.84 0 011.82-1.88 1.737 1.737 0 011.71 1.88zm4.76-1.82v-.63a2.357 2.357 0 00-1.97 1.24v-1.14h-.65v5.36h.65v-2.69a2.092 2.092 0 011.97-2.14zm5.59 2.37v-.23c0-1.48-.81-2.77-2.37-2.77a2.539 2.539 0 00-2.47 2.77 2.611 2.611 0 002.78 2.77 6.072 6.072 0 001.75-.27l-.13-.53a6.014 6.014 0 01-1.63.23 1.937 1.937 0 01-2.11-1.97h4.18zm-.66-.55h-3.52a1.832 1.832 0 011.81-1.88 1.737 1.737 0 011.71 1.88zm5.85 2.9l-.11-.54a4.208 4.208 0 01-1.17.16 2.2 2.2 0 010-4.4 4.357 4.357 0 011.17.17l.11-.53a4.082 4.082 0 00-1.34-.21 2.77 2.77 0 000 5.54 5.161 5.161 0 001.34-.19zm5.83.11v-3.56a1.707 1.707 0 00-1.83-1.9 2.157 2.157 0 00-1.88 1.1V26.5h-.64v7.33h.64v-2.72a1.941 1.941 0 011.79-2.14 1.138 1.138 0 011.28 1.35v3.51h.64zm6.48-2.69a2.513 2.513 0 10-2.5 2.77 2.562 2.562 0 002.5-2.77zm-.64 0a1.882 1.882 0 11-1.86-2.2 1.929 1.929 0 011.86 2.2zm5.69 1.35c0-.78-.38-1.08-1.89-1.7-1.03-.42-1.25-.64-1.25-1.09 0-.53.36-.76 1.29-.76a6.721 6.721 0 011.52.2l.09-.52a5.342 5.342 0 00-1.65-.25c-1.05 0-1.89.39-1.89 1.26 0 .73.27 1.16 1.49 1.65 1.38.57 1.65.7 1.65 1.19 0 .6-.57.87-1.42.87a4.066 4.066 0 01-1.72-.41l-.17.5a4.25 4.25 0 001.91.48c1.27 0 2.04-.57 2.04-1.42zm6.46-3.49v-.63a2.384 2.384 0 00-1.97 1.24v-1.14h-.65v5.36h.65v-2.69a2.092 2.092 0 011.97-2.14zm5.59 2.37v-.23c0-1.48-.8-2.77-2.36-2.77a2.541 2.541 0 00-2.48 2.77 2.616 2.616 0 002.78 2.77 6.022 6.022 0 001.75-.27l-.13-.53a5.963 5.963 0 01-1.63.23 1.942 1.942 0 01-2.11-1.97h4.18zm-.66-.55h-3.52a1.834 1.834 0 011.82-1.88 1.735 1.735 0 011.7 1.88zm5.71 1.67c0-.78-.37-1.08-1.88-1.7-1.04-.42-1.26-.64-1.26-1.09 0-.53.37-.76 1.29-.76a6.646 6.646 0 011.52.2l.1-.52a5.385 5.385 0 00-1.65-.25c-1.06 0-1.89.39-1.89 1.26 0 .73.26 1.16 1.48 1.65 1.39.57 1.65.7 1.65 1.19 0 .6-.57.87-1.42.87a4.022 4.022 0 01-1.71-.41l-.18.5a4.318 4.318 0 001.91.48c1.27 0 2.04-.57 2.04-1.42zm5.86-1.12v-.23c0-1.48-.8-2.77-2.36-2.77a2.546 2.546 0 00-2.48 2.77 2.619 2.619 0 002.79 2.77 6.123 6.123 0 001.75-.27l-.14-.53a5.9 5.9 0 01-1.62.23 1.945 1.945 0 01-2.12-1.97h4.18zm-.66-.55h-3.52a1.834 1.834 0 011.82-1.88 1.729 1.729 0 011.7 1.88zM277.4 29v-.63a2.357 2.357 0 00-1.97 1.24v-1.14h-.65v5.36h.65v-2.69A2.092 2.092 0 01277.4 29zm5.18-.53h-.64l-1.82 4.67-1.8-4.67h-.65l2.13 5.36h.64zm4.76 5.36v-3.67c0-1.05-.7-1.79-2.18-1.79a7.605 7.605 0 00-1.74.21l.09.53a9.914 9.914 0 011.63-.17c1.17 0 1.56.53 1.56 1.27v.61h-1.8a1.489 1.489 0 00-1.74 1.52 1.534 1.534 0 001.8 1.57 2.029 2.029 0 001.74-.76v.68h.64zm-.64-2.04a1.536 1.536 0 01-1.75 1.55.952.952 0 01-1.15-.96.924.924 0 011.14-.99h1.76v.4zm6.67 2.04V26.5h-.64v2.95a1.911 1.911 0 00-1.76-1.08c-1.68 0-2.37 1.44-2.37 2.77s.7 2.77 2.37 2.77a1.919 1.919 0 001.76-1.07v.99h.64zm-.64-2.69c0 1.19-.59 2.2-1.74 2.2s-1.74-.99-1.74-2.2.6-2.2 1.74-2.2 1.74 1.01 1.74 2.2zm7.12 0a2.513 2.513 0 10-2.5 2.77 2.562 2.562 0 002.5-2.77zm-.64 0a1.882 1.882 0 11-1.86-2.2 1.929 1.929 0 011.86 2.2zm5.69 1.35c0-.78-.38-1.08-1.89-1.7-1.03-.42-1.25-.64-1.25-1.09 0-.53.36-.76 1.29-.76a6.721 6.721 0 011.52.2l.09-.52a5.342 5.342 0 00-1.65-.25c-1.05 0-1.89.39-1.89 1.26 0 .73.27 1.16 1.49 1.65 1.38.57 1.65.7 1.65 1.19 0 .6-.57.87-1.42.87a4.066 4.066 0 01-1.72-.41l-.17.5a4.25 4.25 0 001.91.48c1.27 0 2.04-.57 2.04-1.42zm8.52 1.34v-.58h-4.19c0-.99.41-1.37 2.4-2.58 1.17-.72 1.67-1.37 1.67-2.32 0-1.08-.76-1.85-2.5-1.85a6.89 6.89 0 00-2.13.34l.12.53a6.725 6.725 0 011.88-.3c1.34 0 1.99.41 1.99 1.3 0 .7-.34 1.21-1.69 2.01-1.86 1.11-2.39 1.71-2.39 2.94v.51h4.84zm6.71-3.61c0-2.08-.87-3.72-2.65-3.72s-2.66 1.64-2.66 3.72.88 3.73 2.66 3.73 2.65-1.65 2.65-3.73zm-.64 0c0 1.78-.59 3.15-2.01 3.15s-2.03-1.37-2.03-3.15.61-3.15 2.03-3.15 2.01 1.36 2.01 3.15zm6.86 3.61v-.58h-4.2c0-.99.41-1.37 2.4-2.58 1.18-.72 1.67-1.37 1.67-2.32 0-1.08-.75-1.85-2.49-1.85a6.955 6.955 0 00-2.14.34l.12.53a6.785 6.785 0 011.88-.3c1.35 0 2 .41 2 1.3 0 .7-.34 1.21-1.7 2.01-1.86 1.11-2.39 1.71-2.39 2.94v.51h4.85zm6.71-3.61c0-2.08-.87-3.72-2.66-3.72s-2.66 1.64-2.66 3.72.88 3.73 2.66 3.73 2.66-1.65 2.66-3.73zm-.64 0c0 1.78-.6 3.15-2.02 3.15s-2.02-1.37-2.02-3.15.6-3.15 2.02-3.15 2.02 1.36 2.02 3.15zm2.89 3.61v-1.04h-.83v1.04h.46l-.39 1.16h.36zm9.22-6.76v-.57h-5.7v.57h2.52v6.76h.66v-6.76h2.52zm5.44 6.76v-3.56a1.7 1.7 0 00-1.82-1.9 2.161 2.161 0 00-1.89 1.1V26.5h-.63v7.33h.63v-2.72a1.948 1.948 0 011.8-2.14 1.135 1.135 0 011.27 1.35v3.51h.64zm6.31-2.46v-.23c0-1.48-.81-2.77-2.37-2.77a2.546 2.546 0 00-2.48 2.77 2.619 2.619 0 002.79 2.77 6.072 6.072 0 001.75-.27l-.13-.53a6.014 6.014 0 01-1.63.23 1.945 1.945 0 01-2.12-1.97h4.19zm-.66-.55h-3.53a1.834 1.834 0 011.82-1.88 1.737 1.737 0 011.71 1.88zm10.71 3.01V26.5h-.65v6.29l-4.7-6.29h-.64v7.33h.64v-6.31l4.7 6.31h.65zm2.67 0v-5.36h-.64v5.36h.64zm0-6.25V26.5h-.64v1.08h.64zm6.31 3.79v-.23c0-1.48-.81-2.77-2.37-2.77a2.546 2.546 0 00-2.48 2.77 2.619 2.619 0 002.79 2.77 6.123 6.123 0 001.75-.27l-.13-.53a6.014 6.014 0 01-1.63.23 1.945 1.945 0 01-2.12-1.97h4.19zm-.66-.55h-3.53a1.834 1.834 0 011.82-1.88 1.742 1.742 0 011.71 1.88zm3.98 3.07v-.55h-.48a.724.724 0 01-.78-.89V26.5h-.64v5.92a1.273 1.273 0 001.38 1.47h.52zm4.99-1.4c0-.78-.37-1.08-1.88-1.7-1.03-.42-1.25-.64-1.25-1.09 0-.53.36-.76 1.28-.76a6.646 6.646 0 011.52.2l.1-.52a5.385 5.385 0 00-1.65-.25c-1.06 0-1.89.39-1.89 1.26 0 .73.26 1.16 1.48 1.65 1.39.57 1.65.7 1.65 1.19 0 .6-.57.87-1.42.87a4.057 4.057 0 01-1.71-.41l-.18.5a4.327 4.327 0 001.92.48c1.26 0 2.03-.57 2.03-1.42zm5.86-1.12v-.23c0-1.48-.8-2.77-2.36-2.77a2.546 2.546 0 00-2.48 2.77 2.619 2.619 0 002.79 2.77 6.123 6.123 0 001.75-.27l-.14-.53a5.9 5.9 0 01-1.62.23 1.945 1.945 0 01-2.12-1.97h4.18zm-.66-.55h-3.52a1.834 1.834 0 011.82-1.88 1.729 1.729 0 011.7 1.88zm6.51 3.01v-3.56a1.714 1.714 0 00-1.84-1.9 2.117 2.117 0 00-1.87 1.1v-1h-.65v5.36h.65v-2.72a1.934 1.934 0 011.78-2.14 1.148 1.148 0 011.29 1.35v3.51h.64zm9.53-.12l-.13-.53a7.27 7.27 0 01-1.65.19 3.208 3.208 0 110-6.41 7.4 7.4 0 011.67.2l.11-.54a6.193 6.193 0 00-1.76-.23 3.77 3.77 0 00-4.04 3.77 3.82 3.82 0 004.04 3.79 6.738 6.738 0 001.76-.24zm6.26-2.57a2.509 2.509 0 10-2.5 2.77 2.556 2.556 0 002.5-2.77zm-.64 0a1.882 1.882 0 11-1.86-2.2 1.923 1.923 0 011.86 2.2zm10.06 2.69v-3.56a1.7 1.7 0 00-1.82-1.9 2.224 2.224 0 00-1.93 1.13 1.648 1.648 0 00-1.71-1.13 2.066 2.066 0 00-1.83 1.1v-1h-.65v5.36h.65v-2.72a1.907 1.907 0 011.74-2.14 1.129 1.129 0 011.26 1.35v3.51h.65V31.1a1.891 1.891 0 011.73-2.13 1.125 1.125 0 011.26 1.35v3.51h.65zm6.57-2.69c0-1.33-.68-2.77-2.35-2.77a1.911 1.911 0 00-1.76 1.08v-.98h-.65v7.26h.65v-2.89a1.919 1.919 0 001.76 1.07c1.68 0 2.35-1.44 2.35-2.77zm-.63 0c0 1.21-.6 2.2-1.74 2.2s-1.74-1.01-1.74-2.2.59-2.2 1.74-2.2 1.74.99 1.74 2.2zm5.89 2.69v-3.67c0-1.05-.7-1.79-2.18-1.79a7.451 7.451 0 00-1.73.21l.08.53a9.914 9.914 0 011.63-.17c1.17 0 1.56.53 1.56 1.27v.61h-1.8a1.489 1.489 0 00-1.74 1.52 1.542 1.542 0 001.81 1.57 2.022 2.022 0 001.73-.76v.68h.64zm-.64-2.04a1.536 1.536 0 01-1.75 1.55.952.952 0 01-1.15-.96.924.924 0 011.14-.99h1.76v.4zm6.65 2.04v-3.56a1.714 1.714 0 00-1.84-1.9 2.141 2.141 0 00-1.87 1.1v-1h-.65v5.36h.65v-2.72a1.934 1.934 0 011.78-2.14 1.148 1.148 0 011.29 1.35v3.51h.64zm5.81-5.36h-.64l-1.82 4.67-1.8-4.67h-.65l2.19 5.36-.77 1.9h.61zm2.76 2.01a8.432 8.432 0 00-1.7-5.04l-.46.32a8.132 8.132 0 010 9.44l.46.32a8.432 8.432 0 001.7-5.04z" fill="#e9e9e9" fill-rule="evenodd"/></svg></svg>