<svg width="281" height="95" xmlns="http://www.w3.org/2000/svg" xmlns:xlink="http://www.w3.org/1999/xlink"><svg width="206.33" height="18.36" viewBox="-1 -1 410.66 34.72" y="58.44" xmlns="http://www.w3.org/2000/svg"><path data-name="Limpia y purifica" d="M19.52 32.2v-2.48H2.85V.48H-.01V32.2h19.53zm9.55 0V.48h-2.86V32.2h2.86zm39.22 0V.48h-2.76l-11.9 23.76L41.72.48h-2.76V32.2h2.76V5.72l11 22.29h1.81l11-22.29V32.2h2.76zm33.64-22.53c0-4.66-3.48-9.19-9.62-9.19H77.93V32.2h2.86V18.82h11.52c6.14 0 9.62-4.48 9.62-9.15zm-2.86 0c0 3.95-2.52 6.76-6.76 6.76H80.79V2.96h11.52a6.651 6.651 0 016.76 6.71zm12.26 22.53V.48h-2.85V32.2h2.85zm34.28 0L132.42.48h-2.1L117.18 32.2h2.91l3.52-8.86h15.57l3.53 8.86h2.9zm-7.38-11.19h-13.67l6.81-17.05zM185.98.48h-3.14L171.7 16.62 160.51.48h-3.15l12.86 18.81V32.2h2.91V19.29zm39.35 9.19c0-4.66-3.47-9.19-9.62-9.19h-14.38V32.2h2.86V18.82h11.52c6.15 0 9.62-4.48 9.62-9.15zm-2.85 0a6.353 6.353 0 01-6.77 6.76h-11.52V2.96h11.52a6.66 6.66 0 016.77 6.71zm33.69 11.43V.48h-2.86v20.81c0 5.33-4.05 8.95-9.62 8.95s-9.62-3.23-9.62-8.95V.48h-2.9V21.1c0 6 4.47 11.62 12.52 11.62s12.48-5.57 12.48-11.62zm36.31 11.1L282.1 18.15a8.742 8.742 0 007.05-8.67c0-4.66-3.47-9-9.62-9H265.2V32.2h2.86V18.43h11.04l10.15 13.77h3.23zm-6.19-22.72c0 3.95-2.52 6.57-6.76 6.57h-11.47V2.96h11.47a6.493 6.493 0 016.76 6.52zm15.56 22.72V.48h-2.86V32.2h2.86zm31.23-29.24V.48h-21.33V32.2h2.9V17.01h17.19v-2.48h-17.19V2.96h18.43zm9.91 29.24V.48h-2.86V32.2h2.86zm32.13-.53l-.57-2.28a30.858 30.858 0 01-7.15.85c-8.33 0-14.47-5.57-14.47-13.9s6.04-13.86 14.47-13.86a31.669 31.669 0 017.24.86l.48-2.33a27.7 27.7 0 00-7.62-1c-10.57 0-17.48 7.19-17.48 16.33s7.19 16.38 17.48 16.38a28.5 28.5 0 007.62-1.05zm33.53.53L395.46.48h-2.09L380.22 32.2h2.91l3.52-8.86h15.57l3.53 8.86h2.9zm-7.38-11.19H387.6l6.81-17.05z" fill="#fff" fill-rule="evenodd"/></svg><svg width="92.52" height="18.11" viewBox="-1 -1 183.03 34.22" y="76.8" xmlns="http://www.w3.org/2000/svg"><path data-name="tu piel" d="M27.95 6.23V-.01H0v6.24h10.43V31.7h7.14V6.23h10.38zm33.18 12.28V-.01h-7.14v18.52c0 4.57-3 7.34-7.14 7.34s-7.15-2.77-7.15-7.34V-.01h-7.14v18.52c0 7.34 5.67 13.72 14.29 13.72s14.28-6.38 14.28-13.72zm45.84-8.14A10.34 10.34 0 0096.25-.01H79.58V31.7h7.1V20.89h9.57a10.452 10.452 0 0010.72-10.52zm-7.34 0a4.67 4.67 0 01-4.57 4.76h-8.38l.05-9.43h8.33a4.591 4.591 0 014.57 4.67zm19.81 21.33V-.01h-7.14V31.7h7.14zm32.14 0v-6.14h-16.14v-7.14h15.24v-6.15h-15.24V6.13h16.14V-.01H128.3V31.7h23.28zm29.45 0v-6.14h-15.28V-.01h-7.14V31.7h22.42z" fill="#fff" fill-rule="evenodd"/></svg><svg width="212.92" height="30.41" viewBox="-1 -1 423.84 58.81" y="28.03" xmlns="http://www.w3.org/2000/svg"><path d="M40.44 55.89V45.22H12.4v-12.4h26.47V22.15H12.4V11.48h28.04V.81H-.01v55.08h40.45zm54.37-44.41V.81H52.38v55.08h12.4V32.82h27.05V22.15H64.78V11.48h30.03zm52.39 0V.81h-42.44v55.08h12.41V32.82h27.05V22.15h-27.05V11.48h30.03zm52.38 44.41L178.74.81h-11.41L146.4 55.89h12.16l4.3-11.33h20.35l4.21 11.33h12.16zm-19.43-20.67h-14.31l7.19-22.01zm69.23-32.84a47.931 47.931 0 00-16.05-2.4c-18.28 0-30.68 12.65-30.68 28.37s12.57 28.45 30.68 28.45a46.947 46.947 0 0015.8-2.56l-2.48-10.09a41.152 41.152 0 01-11.58 1.65c-13.57 0-20.02-7.44-20.02-17.45s6.45-17.37 20.02-17.37a41.924 41.924 0 0111.58 1.65zm51.5 53.51V45.22h-26.55V.81h-12.4v55.08h38.95zm58.62 0L338.66.81h-11.42l-20.92 55.08h12.16l4.3-11.33h20.34l4.22 11.33h12.16zm-19.44-20.67h-14.3l7.19-22.01zm81.78 20.67l-15.88-21.58a17.108 17.108 0 0010.18-15.8A17.659 17.659 0 00398.02.81h-29.94v55.08h12.41V36.13h11.58l14.39 19.76h15.38zM403.4 18.51a7.773 7.773 0 01-7.86 7.94h-15.05V10.81h15.05a7.573 7.573 0 017.86 7.7z" fill="#fff" fill-rule="evenodd"/></svg><svg width="280.05" height="8.84" viewBox="-1 -1 558.1 15.69" xmlns="http://www.w3.org/2000/svg"><path data-name="*QuintilesIMS - Pharmatrend international - Oily acne-prone ski" d="M2.44 2.35l-1-.45 1-.44-.18-.34-.93.61.09-1.1h-.38l.09 1.1-.93-.61-.18.34 1 .44-1 .45.18.34.93-.61-.09 1.1h.38l-.09-1.1.93.61zm5.06.4a2.014 2.014 0 10-2.2 2.19v1.13h.39V4.94A2.078 2.078 0 007.5 2.75zm-.38 0A1.634 1.634 0 115.5.9a1.7 1.7 0 011.62 1.85zm4.12 2.13V1.77h-.37v1.58a1.119 1.119 0 01-1.04 1.23.658.658 0 01-.74-.78V1.77h-.38v2.06a1 1 0 001.07 1.1 1.245 1.245 0 001.09-.64v.59h.37zm1.84 0V1.77h-.37v3.11h.37zm0-3.63V.63h-.37v.62h.37zm3.99 3.63V2.82A1 1 0 0016 1.71a1.241 1.241 0 00-1.08.64v-.58h-.38v3.11h.38V3.3a1.128 1.128 0 011.03-1.24.665.665 0 01.75.78v2.04h.37zm2.69-.02l-.05-.28a1.733 1.733 0 01-.37.04c-.24 0-.35-.12-.35-.54V2.1h.64v-.33h-.64V.89h-.38v.88h-.43v.33h.43v1.96a.7.7 0 00.72.87 1.268 1.268 0 00.43-.07zm1.55.02V1.77h-.37v3.11h.37zm0-3.63V.63h-.37v.62h.37zm2.53 3.67V4.6h-.27a.425.425 0 01-.46-.52V.63h-.37v3.43a.741.741 0 00.8.86h.3zm3.78-1.47v-.13a1.425 1.425 0 00-1.37-1.61 1.47 1.47 0 00-1.43 1.61 1.517 1.517 0 001.61 1.61 3.468 3.468 0 001.01-.16l-.07-.31a3.466 3.466 0 01-.95.14 1.125 1.125 0 01-1.22-1.15h2.42zm-.38-.31H25.2a1.062 1.062 0 011.05-1.1 1.01 1.01 0 01.99 1.1zm3.69.97c0-.46-.22-.64-1.09-.99-.6-.25-.73-.37-.73-.64 0-.3.21-.44.75-.44a4.064 4.064 0 01.88.12l.06-.3a3.173 3.173 0 00-.96-.15.9.9 0 00-1.1.74.977.977 0 00.86.95c.81.33.96.41.96.69 0 .35-.33.51-.82.51a2.451 2.451 0 01-1-.24l-.1.29a2.532 2.532 0 001.11.28.978.978 0 001.18-.82zm1.72.77V.63h-.38v4.25h.38zm5.62 0V.63h-.37l-1.59 3.18-1.6-3.18h-.37v4.25h.37V1.33l1.48 2.99h.24l1.47-2.99v3.55h.37zm4.7-1.02c0-.5-.18-.78-1.38-1.28-1.09-.45-1.37-.59-1.37-1.08 0-.44.34-.6 1.17-.6a6.251 6.251 0 011.4.18l.06-.31a6.209 6.209 0 00-1.47-.21c-.96 0-1.54.28-1.54.94 0 .6.32.91 1.5 1.36 1.06.41 1.25.63 1.25 1.01a1 1 0 01-1.2.75 4.84 4.84 0 01-1.59-.32l-.1.31a4.683 4.683 0 001.7.34c.98 0 1.57-.49 1.57-1.09zm4.39-.54v-.36h-1.55v.36h1.55zm6.37-1.46A1.225 1.225 0 0052.44.63h-1.93v4.25h.39v-1.8h1.54a1.223 1.223 0 001.29-1.22zm-.38 0a.855.855 0 01-.91.91H50.9V.96h1.54a.9.9 0 01.91.9zm3.98 3.02V2.82a.992.992 0 00-1.06-1.11 1.245 1.245 0 00-1.09.64V.63h-.37v4.25h.37V3.3a1.129 1.129 0 011.04-1.24.658.658 0 01.74.78v2.04h.37zm3.65 0V2.75a1.056 1.056 0 00-1.26-1.04 4.733 4.733 0 00-1.01.12l.05.31a6.273 6.273 0 01.95-.1.73.73 0 01.9.74v.36h-1.04a.862.862 0 00-1.01.88.9.9 0 001.05.91 1.163 1.163 0 001-.44v.39h.37zm-.37-1.18a.894.894 0 01-1.01.9.557.557 0 01-.67-.56.536.536 0 01.66-.57h1.02v.23zm3.23-1.62v-.37a1.375 1.375 0 00-1.14.72v-.66h-.38v3.11h.38V3.32a1.209 1.209 0 011.14-1.24zm5.65 2.8V2.82a.985.985 0 00-1.05-1.11 1.283 1.283 0 00-1.12.66.956.956 0 00-.99-.66 1.2 1.2 0 00-1.06.64v-.58h-.38v3.11h.38V3.3a1.109 1.109 0 011.01-1.24.649.649 0 01.72.78v2.04h.38V3.29a1.1 1.1 0 011.01-1.23.649.649 0 01.72.78v2.04h.38zm3.62 0V2.75a1.061 1.061 0 00-1.26-1.04 4.733 4.733 0 00-1.01.12l.05.31a6.273 6.273 0 01.95-.1.73.73 0 01.9.74v.36H71.7a.857.857 0 00-1.01.88.892.892 0 001.04.91 1.183 1.183 0 001.01-.44v.39h.37zm-.37-1.18a.894.894 0 01-1.01.9.557.557 0 01-.67-.56.536.536 0 01.66-.57h1.02v.23zm2.97 1.16l-.05-.28a1.733 1.733 0 01-.37.04c-.24 0-.36-.12-.36-.54V2.1h.64v-.33h-.64V.89h-.37v.88h-.43v.33h.43v1.96a.7.7 0 00.72.87 1.268 1.268 0 00.43-.07zm2.69-2.78v-.37a1.389 1.389 0 00-1.14.72v-.66h-.37v3.11h.37V3.32a1.216 1.216 0 011.14-1.24zm3.63 1.37v-.13a1.433 1.433 0 00-1.38-1.61 1.476 1.476 0 00-1.43 1.61 1.522 1.522 0 001.61 1.61 3.584 3.584 0 001.02-.16l-.08-.31a3.4 3.4 0 01-.94.14 1.139 1.139 0 01-1.23-1.15h2.43zm-.39-.31H79.6a1.074 1.074 0 011.05-1.1 1.01 1.01 0 01.99 1.1zm4.15 1.74V2.82a.992.992 0 00-1.06-1.11 1.229 1.229 0 00-1.08.64v-.58h-.38v3.11h.38V3.3a1.122 1.122 0 011.03-1.24.658.658 0 01.74.78v2.04h.37zm3.98 0V.63h-.37v1.71a1.115 1.115 0 00-1.02-.63 1.631 1.631 0 000 3.22 1.115 1.115 0 001.02-.63v.58h.37zm-.37-1.56a1.038 1.038 0 11-1.01-1.28 1.112 1.112 0 011.01 1.28zm3.99 1.56V1.77h-.37v3.11h.37zm0-3.63V.63h-.37v.62h.37zm3.99 3.63V2.82a.992.992 0 00-1.06-1.11 1.245 1.245 0 00-1.09.64v-.58h-.38v3.11h.38V3.3a1.128 1.128 0 011.03-1.24.665.665 0 01.75.78v2.04h.37zm2.69-.02l-.05-.28a1.586 1.586 0 01-.36.04c-.25 0-.36-.12-.36-.54V2.1h.64v-.33h-.64V.89h-.38v.88h-.42v.33h.42v1.96a.7.7 0 00.72.87 1.268 1.268 0 00.43-.07zm3.75-1.41v-.13a1.425 1.425 0 00-1.37-1.61 1.477 1.477 0 00-1.44 1.61 1.525 1.525 0 001.62 1.61 3.468 3.468 0 001.01-.16l-.07-.31a3.466 3.466 0 01-.95.14 1.125 1.125 0 01-1.22-1.15h2.42zm-.38-.31h-2.04a1.062 1.062 0 011.05-1.1 1.01 1.01 0 01.99 1.1zm3.14-1.06v-.37a1.375 1.375 0 00-1.14.72v-.66h-.38v3.11h.38V3.32a1.209 1.209 0 011.14-1.24zm3.58 2.8V2.82a1 1 0 00-1.07-1.11 1.241 1.241 0 00-1.08.64v-.58h-.38v3.11h.38V3.3a1.128 1.128 0 011.03-1.24.665.665 0 01.75.78v2.04h.37zm3.62 0V2.75a1.061 1.061 0 00-1.26-1.04 4.733 4.733 0 00-1.01.12l.05.31a6.149 6.149 0 01.95-.1.73.73 0 01.9.74v.36h-1.05a.853.853 0 00-1 .88.892.892 0 001.04.91 1.183 1.183 0 001.01-.44v.39h.37zm-.37-1.18a.894.894 0 01-1.01.9.557.557 0 01-.67-.56.532.532 0 01.66-.57h1.02v.23zm2.97 1.16l-.06-.28a1.586 1.586 0 01-.36.04c-.24 0-.36-.12-.36-.54V2.1h.64v-.33h-.64V.89h-.37v.88h-.43v.33h.43v1.96a.7.7 0 00.72.87 1.3 1.3 0 00.43-.07zm1.54.02V1.77h-.37v3.11h.37zm0-3.63V.63h-.37v.62h.37zm4.14 2.07a1.453 1.453 0 10-1.44 1.61 1.483 1.483 0 001.44-1.61zm-.37 0a1.091 1.091 0 11-1.07-1.28 1.117 1.117 0 011.07 1.28zm4.14 1.56V2.82a.992.992 0 00-1.06-1.11 1.257 1.257 0 00-1.09.64v-.58h-.37v3.11h.37V3.3a1.129 1.129 0 011.04-1.24.662.662 0 01.74.78v2.04h.37zm3.62 0V2.75a1.056 1.056 0 00-1.26-1.04 4.733 4.733 0 00-1.01.12l.05.31a6.273 6.273 0 01.95-.1.73.73 0 01.9.74v.36h-1.04a.862.862 0 00-1.01.88.9.9 0 001.05.91 1.163 1.163 0 001-.44v.39h.37zm-.37-1.18a.889.889 0 01-1.01.9.557.557 0 01-.67-.56.536.536 0 01.66-.57h1.02v.23zm2.78 1.22V4.6h-.28a.422.422 0 01-.45-.52V.63h-.37v3.43a.741.741 0 00.8.86h.3zm4.35-1.6v-.36h-1.55v.36h1.55zm6.88-.56a2.013 2.013 0 10-2 2.19 2.068 2.068 0 002-2.19zm-.38 0A1.64 1.64 0 11141.09.9a1.7 1.7 0 011.62 1.86zm2.02 2.12V1.77h-.37v3.11h.37zm0-3.63V.63h-.37v.62h.37zm2.53 3.67V4.6h-.27a.419.419 0 01-.45-.52V.63h-.37v3.43a.739.739 0 00.79.86h.3zm3.53-3.15h-.37l-1.05 2.71-1.05-2.71h-.37l1.26 3.11-.44 1.1h.36zm4.96 3.11V2.75a1.061 1.061 0 00-1.26-1.04 4.733 4.733 0 00-1.01.12l.05.31a6.149 6.149 0 01.95-.1.73.73 0 01.9.74v.36h-1.05a.853.853 0 00-1 .88.892.892 0 001.04.91 1.183 1.183 0 001.01-.44v.39h.37zm-.37-1.18a.894.894 0 01-1.01.9.557.557 0 01-.67-.56.532.532 0 01.66-.57h1.02v.23zm3.86 1.11l-.06-.31a2.542 2.542 0 01-.68.1 1.28 1.28 0 010-2.56 2.8 2.8 0 01.68.1l.06-.31a2.591 2.591 0 00-.78-.12 1.61 1.61 0 000 3.22 2.949 2.949 0 00.78-.12zm3.77.07V2.82a1 1 0 00-1.07-1.11 1.229 1.229 0 00-1.08.64v-.58h-.38v3.11h.38V3.3a1.122 1.122 0 011.03-1.24.665.665 0 01.75.78v2.04h.37zm4-1.43v-.13a1.425 1.425 0 00-1.37-1.61 1.47 1.47 0 00-1.43 1.61 1.517 1.517 0 001.61 1.61 3.468 3.468 0 001.01-.16l-.07-.31a3.466 3.466 0 01-.95.14 1.125 1.125 0 01-1.22-1.15h2.42zm-.38-.31h-2.04a1.062 1.062 0 011.05-1.1 1.01 1.01 0 01.99 1.1zm2.98.18v-.36h-1.55v.36h1.55zm4.04 0a1.434 1.434 0 00-1.36-1.61 1.119 1.119 0 00-1.03.63v-.57h-.37v4.21h.37V4.3a1.119 1.119 0 001.03.63 1.428 1.428 0 001.36-1.61zm-.37 0a1.1 1.1 0 01-1.01 1.28 1.316 1.316 0 010-2.56 1.1 1.1 0 011.01 1.28zm3.13-1.24v-.37a1.375 1.375 0 00-1.14.72v-.66h-.38v3.11h.38V3.32a1.209 1.209 0 011.14-1.24zm3.73 1.24a1.458 1.458 0 10-1.45 1.61 1.491 1.491 0 001.45-1.61zm-.37 0a1.124 1.124 0 01-1.08 1.28 1.3 1.3 0 010-2.56 1.124 1.124 0 011.08 1.28zm4.13 1.56V2.82a.992.992 0 00-1.06-1.11 1.257 1.257 0 00-1.09.64v-.58h-.37v3.11h.37V3.3a1.129 1.129 0 011.04-1.24.662.662 0 01.74.78v2.04h.37zm4.01-1.43v-.13a1.431 1.431 0 00-1.37-1.61 1.477 1.477 0 00-1.44 1.61 1.525 1.525 0 001.62 1.61 3.572 3.572 0 001.01-.16l-.08-.31a3.4 3.4 0 01-.94.14 1.139 1.139 0 01-1.23-1.15h2.43zm-.38-.31h-2.05a1.076 1.076 0 011.06-1.1 1.022 1.022 0 01.99 1.1zm5.47.97c0-.46-.21-.64-1.09-.99-.6-.25-.73-.37-.73-.64 0-.3.21-.44.75-.44a4.064 4.064 0 01.88.12l.06-.3a3.173 3.173 0 00-.96-.15.9.9 0 00-1.1.74.978.978 0 00.87.95c.8.33.95.41.95.69 0 .35-.33.51-.82.51a2.49 2.49 0 01-1-.24l-.1.29a2.532 2.532 0 001.11.28.973.973 0 001.18-.82zm3.68.77l-1.83-1.6 1.72-1.51h-.52l-1.46 1.3V.63h-.38v4.25h.38v-1.4l1.58 1.4h.51zm1.35 0V1.77h-.37v3.11h.37zm0-3.63V.63h-.37v.62h.37zm4 3.63V2.82a1 1 0 00-1.07-1.11 1.229 1.229 0 00-1.08.64v-.58h-.38v3.11h.38V3.3a1.122 1.122 0 011.03-1.24.665.665 0 01.75.78v2.04h.37zm3.58-.07l-.06-.31a2.542 2.542 0 01-.68.1 1.28 1.28 0 010-2.56 2.8 2.8 0 01.68.1l.06-.31a2.591 2.591 0 00-.78-.12 1.61 1.61 0 000 3.22 2.949 2.949 0 00.78-.12zm3.43.07V2.75a1.061 1.061 0 00-1.26-1.04 4.657 4.657 0 00-1.01.12l.05.31a6.159 6.159 0 01.94-.1.734.734 0 01.91.74v.36h-1.05a.853.853 0 00-1 .88.887.887 0 001.04.91 1.2 1.2 0 001.01-.44v.39h.37zm-.37-1.18a.894.894 0 01-1.01.9.553.553 0 01-.67-.56.532.532 0 01.66-.57h1.02v.23zm3.23-1.62v-.37a1.392 1.392 0 00-1.15.72v-.66h-.37v3.11h.37V3.32a1.217 1.217 0 011.15-1.24zm3.62 1.37v-.13a1.431 1.431 0 00-1.37-1.61 1.477 1.477 0 00-1.44 1.61 1.525 1.525 0 001.62 1.61 3.519 3.519 0 001.01-.16l-.08-.31a3.4 3.4 0 01-.94.14 1.139 1.139 0 01-1.23-1.15h2.43zm-.38-.31h-2.05a1.076 1.076 0 011.06-1.1 1.022 1.022 0 01.99 1.1zm8.01 1.74V2.82a.992.992 0 00-1.06-1.11 1.283 1.283 0 00-1.12.66.956.956 0 00-.99-.66 1.21 1.21 0 00-1.06.64v-.58h-.37v3.11h.37V3.3a1.109 1.109 0 011.01-1.24.652.652 0 01.73.78v2.04h.37V3.29a1.1 1.1 0 011.01-1.23.652.652 0 01.73.78v2.04h.38zm3.62 0V2.75a1.065 1.065 0 00-1.27-1.04 4.733 4.733 0 00-1.01.12l.06.31a6.159 6.159 0 01.94-.1.734.734 0 01.91.74v.36h-1.05a.862.862 0 00-1.01.88.9.9 0 001.05.91 1.2 1.2 0 001.01-.44v.39h.37zm-.37-1.18a.9.9 0 01-1.02.9.557.557 0 01-.67-.56.54.54 0 01.67-.57h1.02v.23zm3.22-1.62v-.37a1.375 1.375 0 00-1.14.72v-.66h-.38v3.11h.38V3.32a1.209 1.209 0 011.14-1.24zm3.52 2.8l-1.83-1.6 1.72-1.51h-.52l-1.46 1.3V.63h-.38v4.25h.38v-1.4l1.58 1.4h.51zm3.55-1.43v-.13a1.425 1.425 0 00-1.37-1.61 1.476 1.476 0 00-1.43 1.61 1.517 1.517 0 001.61 1.61 3.584 3.584 0 001.02-.16l-.08-.31a3.4 3.4 0 01-.94.14 1.128 1.128 0 01-1.23-1.15h2.42zm-.38-.31h-2.04a1.068 1.068 0 011.05-1.1 1.01 1.01 0 01.99 1.1zm2.88 1.72l-.05-.28a1.586 1.586 0 01-.36.04c-.24 0-.36-.12-.36-.54V2.1h.64v-.33h-.64V.89h-.37v.88h-.43v.33h.43v1.96a.7.7 0 00.72.87 1.252 1.252 0 00.42-.07zm4.25.81a4.734 4.734 0 010-5.47l-.27-.18a4.84 4.84 0 000 5.84zm3.78-2.22v-.13a1.425 1.425 0 00-1.37-1.61 1.477 1.477 0 00-1.44 1.61 1.525 1.525 0 001.62 1.61 3.468 3.468 0 001.01-.16l-.07-.31a3.466 3.466 0 01-.95.14 1.125 1.125 0 01-1.22-1.15h2.42zm-.38-.31h-2.04a1.062 1.062 0 011.05-1.1 1.01 1.01 0 01.99 1.1zm4.08 1.74l-1.22-1.57 1.19-1.54h-.42l-.97 1.28-.97-1.28h-.42l1.19 1.54-1.22 1.57h.41l1.01-1.3 1 1.3h.42zm3.23-.07l-.06-.31a2.434 2.434 0 01-.68.1 1.28 1.28 0 010-2.56 2.664 2.664 0 01.68.1l.06-.31a2.544 2.544 0 00-.78-.12 1.61 1.61 0 000 3.22 2.949 2.949 0 00.78-.12zm3.82-1.36v-.13a1.433 1.433 0 00-1.38-1.61 1.476 1.476 0 00-1.43 1.61 1.522 1.522 0 001.61 1.61 3.584 3.584 0 001.02-.16l-.08-.31a3.4 3.4 0 01-.94.14 1.139 1.139 0 01-1.23-1.15h2.43zm-.39-.31h-2.04a1.074 1.074 0 011.05-1.1 1.01 1.01 0 01.99 1.1zm4.39.18a1.428 1.428 0 00-1.36-1.61 1.129 1.129 0 00-1.03.63v-.57h-.37v4.21h.37V4.3a1.129 1.129 0 001.03.63 1.428 1.428 0 001.36-1.61zm-.37 0a1.1 1.1 0 01-1.01 1.28 1.316 1.316 0 010-2.56 1.1 1.1 0 011.01 1.28zm2.87 1.54l-.05-.28a1.713 1.713 0 01-.36.04c-.25 0-.36-.12-.36-.54V2.1h.64v-.33h-.64V.89h-.38v.88h-.43v.33h.43v1.96a.7.7 0 00.72.87 1.268 1.268 0 00.43-.07zm5.64-1.54a1.458 1.458 0 10-1.45 1.61 1.485 1.485 0 001.45-1.61zm-.37 0a1.091 1.091 0 11-1.08-1.28 1.124 1.124 0 011.08 1.28zm3.13-1.24v-.37a1.361 1.361 0 00-1.14.72v-.66h-.38v3.11h.38V3.32a1.209 1.209 0 011.14-1.24zm3.24 2.8V2.75a1.065 1.065 0 00-1.27-1.04 4.64 4.64 0 00-1 .12l.05.31a6.159 6.159 0 01.94-.1.734.734 0 01.91.74v.36h-1.05a.862.862 0 00-1.01.88.9.9 0 001.05.91 1.2 1.2 0 001.01-.44v.39h.37zm-.37-1.18a.9.9 0 01-1.02.9.557.557 0 01-.67-.56.54.54 0 01.67-.57h1.02v.23zm2.77 1.22V4.6h-.27a.425.425 0 01-.46-.52V.63h-.37v3.43a.741.741 0 00.8.86h.3zm6.72-3.15h-.36l-.82 2.55-.78-2.55h-.34l-.76 2.59-.82-2.59h-.37l1.01 3.11h.35l.77-2.58.76 2.58h.35zm3.13 3.11V2.75a1.065 1.065 0 00-1.27-1.04 4.64 4.64 0 00-1 .12l.05.31a6.159 6.159 0 01.94-.1.734.734 0 01.91.74v.36h-1.05a.862.862 0 00-1.01.88.9.9 0 001.05.91 1.2 1.2 0 001.01-.44v.39h.37zm-.37-1.18a.9.9 0 01-1.02.9.557.557 0 01-.67-.56.54.54 0 01.67-.57h1.02v.23zm4.02-1.93h-.37l-1.05 2.71-1.05-2.71h-.37l1.26 3.11-.44 1.1h.36zm1.98 1.17a4.864 4.864 0 00-.98-2.92l-.27.18a4.69 4.69 0 010 5.47l.27.19a4.864 4.864 0 00.98-2.92zm3.66 1.94V1.77h-.37v3.11h.37zm0-3.63V.63h-.37v.62h.37zm3.99 3.63V2.82a1 1 0 00-1.07-1.11 1.241 1.241 0 00-1.08.64v-.58h-.38v3.11h.38V3.3a1.128 1.128 0 011.03-1.24.665.665 0 01.75.78v2.04h.37zm5.98-1.56a1.435 1.435 0 00-1.37-1.61 1.115 1.115 0 00-1.02.63v-.57h-.37v4.21h.37V4.3a1.115 1.115 0 001.02.63 1.429 1.429 0 001.37-1.61zm-.37 0a1.1 1.1 0 01-1.01 1.28 1.316 1.316 0 010-2.56 1.1 1.1 0 011.01 1.28zm4.13 1.56V2.82a.992.992 0 00-1.06-1.11 1.257 1.257 0 00-1.09.64V.63h-.37v4.25h.37V3.3a1.135 1.135 0 011.04-1.24.658.658 0 01.74.78v2.04h.37zm3.66 0V2.75a1.065 1.065 0 00-1.27-1.04 4.733 4.733 0 00-1.01.12l.06.31a6.035 6.035 0 01.94-.1.734.734 0 01.91.74v.36h-1.05a.862.862 0 00-1.01.88.9.9 0 001.05.91 1.2 1.2 0 001.01-.44v.39h.37zm-.37-1.18a.9.9 0 01-1.02.9.557.557 0 01-.67-.56.536.536 0 01.66-.57h1.03v.23zm3.22-1.62v-.37a1.375 1.375 0 00-1.14.72v-.66h-.38v3.11h.38V3.32a1.209 1.209 0 011.14-1.24zm5.65 2.8V2.82a.985.985 0 00-1.05-1.11 1.283 1.283 0 00-1.12.66.956.956 0 00-.99-.66 1.2 1.2 0 00-1.06.64v-.58h-.38v3.11h.38V3.3a1.109 1.109 0 011.01-1.24.655.655 0 01.73.78v2.04h.37V3.29a1.1 1.1 0 011.01-1.23.652.652 0 01.73.78v2.04h.37zm3.62 0V2.75a1.056 1.056 0 00-1.26-1.04 4.733 4.733 0 00-1.01.12l.05.31a6.273 6.273 0 01.95-.1.73.73 0 01.9.74v.36h-1.04a.862.862 0 00-1.01.88.9.9 0 001.05.91 1.163 1.163 0 001-.44v.39h.37zm-.37-1.18a.894.894 0 01-1.01.9.557.557 0 01-.67-.56.536.536 0 01.66-.57h1.02v.23zm3.86 1.11l-.06-.31a2.434 2.434 0 01-.68.1 1.28 1.28 0 010-2.56 2.664 2.664 0 01.68.1l.06-.31a2.544 2.544 0 00-.78-.12 1.61 1.61 0 000 3.22 2.949 2.949 0 00.78-.12zm3.56-3.04h-.37l-1.05 2.71-1.05-2.71h-.38l1.27 3.11-.44 1.1h.35zm3.14 3.11V1.77h-.37v3.11h.37zm0-3.63V.63h-.37v.62h.37zm4 3.63V2.82a1 1 0 00-1.07-1.11 1.229 1.229 0 00-1.08.64v-.58h-.38v3.11h.38V3.3a1.122 1.122 0 011.03-1.24.665.665 0 01.75.78v2.04h.37zm6.14 0v-.33h-2.44V2.84h2.28v-.33h-2.28V.96h2.44V.63h-2.83v4.25h2.83zm3.83 0V1.77h-.37v1.58a1.119 1.119 0 01-1.04 1.23.662.662 0 01-.74-.78V1.77h-.37v2.06a.989.989 0 001.06 1.1 1.245 1.245 0 001.09-.64v.59h.37zm2.99-2.8v-.37a1.361 1.361 0 00-1.14.72v-.66h-.38v3.11h.38V3.32a1.209 1.209 0 011.14-1.24zm3.72 1.24a1.453 1.453 0 10-1.45 1.61 1.485 1.485 0 001.45-1.61zm-.37 0a1.091 1.091 0 11-1.08-1.28 1.118 1.118 0 011.08 1.28zm4.38 0a1.435 1.435 0 00-1.37-1.61 1.115 1.115 0 00-1.02.63v-.57h-.38v4.21h.38V4.3a1.115 1.115 0 001.02.63 1.429 1.429 0 001.37-1.61zm-.37 0a1.038 1.038 0 11-1.01-1.28 1.107 1.107 0 011.01 1.28zm4.18.13v-.13a1.431 1.431 0 00-1.37-1.61 1.477 1.477 0 00-1.44 1.61 1.525 1.525 0 001.62 1.61 3.519 3.519 0 001.01-.16l-.08-.31a3.4 3.4 0 01-.94.14 1.125 1.125 0 01-1.22-1.15h2.42zm-.38-.31h-2.04a1.062 1.062 0 011.05-1.1 1.016 1.016 0 01.99 1.1zm4.77.18v-.36h-1.55v.36h1.55zm5.37-1.55h-.37l-1.05 2.71-1.05-2.71h-.37l1.27 3.11-.45 1.1h.36zm3.56 1.68v-.13a1.431 1.431 0 00-1.37-1.61 1.477 1.477 0 00-1.44 1.61 1.525 1.525 0 001.62 1.61 3.519 3.519 0 001.01-.16l-.07-.31a3.52 3.52 0 01-.95.14 1.125 1.125 0 01-1.22-1.15h2.42zm-.38-.31h-2.04a1.062 1.062 0 011.05-1.1 1.016 1.016 0 01.99 1.1zm3.81 1.74V2.75a1.061 1.061 0 00-1.26-1.04 4.733 4.733 0 00-1.01.12l.05.31a6.149 6.149 0 01.95-.1.73.73 0 01.9.74v.36h-1.05a.853.853 0 00-1 .88.887.887 0 001.04.91 1.183 1.183 0 001.01-.44v.39h.37zm-.37-1.18a.894.894 0 01-1.01.9.557.557 0 01-.67-.56.532.532 0 01.66-.57h1.02v.23zm3.23-1.62v-.37a1.361 1.361 0 00-1.14.72v-.66h-.38v3.11h.38V3.32a1.209 1.209 0 011.14-1.24zm3.12 2.03c0-.46-.22-.64-1.1-.99-.59-.25-.72-.37-.72-.64 0-.3.21-.44.74-.44a3.979 3.979 0 01.88.12l.06-.3a3.173 3.173 0 00-.96-.15.892.892 0 00-1.09.74.967.967 0 00.86.95c.8.33.96.41.96.69 0 .35-.34.51-.83.51a2.4 2.4 0 01-.99-.24l-.1.29a2.5 2.5 0 001.11.28.978.978 0 001.18-.82zm5.7.77v-.33h-2.43c0-.58.24-.8 1.39-1.5a1.545 1.545 0 00.97-1.35c0-.63-.44-1.07-1.45-1.07a3.732 3.732 0 00-1.23.2l.07.3a4.214 4.214 0 011.09-.17c.78 0 1.15.24 1.15.75 0 .41-.2.7-.98 1.17-1.08.64-1.38.99-1.38 1.7v.3h2.8zm4.28-2.1c0-1.2-.51-2.15-1.54-2.15s-1.55.95-1.55 2.15.51 2.17 1.55 2.17 1.54-.96 1.54-2.17zm-.37 0c0 1.04-.35 1.84-1.17 1.84s-1.18-.8-1.18-1.84.35-1.82 1.18-1.82 1.17.79 1.17 1.82zm2.83 2.1V.69h-.37l-1.2.24.05.29 1.15-.2v3.86h.37zm4.43-1.4a1.192 1.192 0 00-1.3-1.24 1.87 1.87 0 00-1.02.29l.2-1.51h1.93V.69h-2.2l-.27 2.08.29.12a1.742 1.742 0 011.02-.32.87.87 0 01.98.94 1.063 1.063 0 01-1.16 1.11 3.074 3.074 0 01-1.23-.27l-.1.28a2.839 2.839 0 001.33.32 1.444 1.444 0 001.53-1.47zm1.79 1.4v-.6h-.48v.6h.26l-.22.67h.21zm5.96 0v-.33h-2.43c0-.58.24-.8 1.39-1.5a1.563 1.563 0 00.97-1.35c0-.63-.44-1.07-1.45-1.07a3.732 3.732 0 00-1.23.2l.07.3a4.147 4.147 0 011.09-.17c.78 0 1.15.24 1.15.75 0 .41-.2.7-.98 1.17-1.08.64-1.39.99-1.39 1.7v.3h2.81zm4.27-2.1c0-1.2-.5-2.15-1.53-2.15s-1.55.95-1.55 2.15.51 2.17 1.55 2.17 1.53-.96 1.53-2.17zm-.37 0c0 1.04-.34 1.84-1.16 1.84s-1.18-.8-1.18-1.84.35-1.82 1.18-1.82 1.16.79 1.16 1.82zm2.83 2.1V.69h-.37l-1.19.24.05.29 1.14-.2v3.86h.37zm4.35-1.34a1.27 1.27 0 00-1.35-1.28 1.331 1.331 0 00-1.17.55 1.755 1.755 0 011.79-1.85c.11 0 .32.02.5.04l.05-.31a2.306 2.306 0 00-.52-.06c-1.4 0-2.18.94-2.18 2.5 0 1.24.63 1.82 1.5 1.82a1.381 1.381 0 001.38-1.41zm-.37.03a1 1 0 01-1.02 1.05 1.023 1.023 0 01-1.11-1.05 1.039 1.039 0 011.13-.97.907.907 0 011 .97zm5.71 1.31V2.75a1.061 1.061 0 00-1.26-1.04 4.733 4.733 0 00-1.01.12l.05.31a6.149 6.149 0 01.95-.1.73.73 0 01.9.74v.36h-1.05a.853.853 0 00-1 .88.887.887 0 001.04.91 1.183 1.183 0 001.01-.44v.39h.37zm-.37-1.18a.894.894 0 01-1.01.9.557.557 0 01-.67-.56.532.532 0 01.66-.57h1.02v.23zm4.24 1.18V2.82a1 1 0 00-1.07-1.11 1.229 1.229 0 00-1.08.64v-.58h-.38v3.11h.38V3.3a1.122 1.122 0 011.03-1.24.665.665 0 01.75.78v2.04h.37zm3.97 0V.63h-.37v1.71a1.115 1.115 0 00-1.02-.63 1.631 1.631 0 000 3.22 1.115 1.115 0 001.02-.63v.58h.37zm-.37-1.56a1.038 1.038 0 11-1.01-1.28 1.112 1.112 0 011.01 1.28zm6.88-2.69h-.42l-1.5 2.16-1.49-2.16h-.43l1.73 2.52v1.73h.39V3.15zm3.75.33V.63h-3.31v.33h1.46v3.92h.39V.96h1.46zm4.46 1.79a2.26 2.26 0 00-2.5-2.12h-.85v4.25h.85a2.261 2.261 0 002.5-2.13zm-.39 0a1.9 1.9 0 01-2.05 1.8h-.52V.96h.52a1.9 1.9 0 012.05 1.79zm6.72 2.13L456.74.63h-.28l-1.76 4.25h.39l.47-1.19h2.09l.47 1.19h.39zm-.99-1.5h-1.83l.91-2.29zm4.77-.06a1.435 1.435 0 00-1.37-1.61 1.115 1.115 0 00-1.02.63v-.57h-.37v4.21h.37V4.3a1.115 1.115 0 001.02.63 1.429 1.429 0 001.37-1.61zm-.37 0a1.038 1.038 0 11-1.01-1.28 1.107 1.107 0 011.01 1.28zm3.13-1.24v-.37a1.361 1.361 0 00-1.14.72v-.66h-.38v3.11h.38V3.32a1.209 1.209 0 011.14-1.24zm1.42 2.8V1.77h-.37v3.11h.37zm0-3.63V.63h-.37v.62h.37zM469 4.92V4.6h-.27a.425.425 0 01-.46-.52V.63h-.37v3.43a.741.741 0 00.8.86h.3zm5.71-.04v-.33h-2.43c0-.58.23-.8 1.39-1.5a1.563 1.563 0 00.97-1.35c0-.63-.44-1.07-1.45-1.07a3.793 3.793 0 00-1.24.2l.07.3a4.283 4.283 0 011.09-.17c.78 0 1.16.24 1.16.75 0 .41-.2.7-.98 1.17-1.08.64-1.39.99-1.39 1.7v.3h2.81zm4.27-2.1c0-1.2-.5-2.15-1.54-2.15s-1.54.95-1.54 2.15.51 2.17 1.54 2.17 1.54-.96 1.54-2.17zm-.37 0c0 1.04-.34 1.84-1.17 1.84s-1.17-.8-1.17-1.84.35-1.82 1.17-1.82 1.17.79 1.17 1.82zm2.83 2.1V.69h-.37l-1.2.24.06.29 1.14-.2v3.86h.37zm4.12-3.86V.69h-2.68v.33h2.3l-1.84 3.86h.38zm4.25 2.3v-.36h-1.55v.36h1.55zm3.43 1.56V1.77h-.37v3.11h.37zm0-3.63V.63h-.37v.62h.37zm4 3.63V2.82a1 1 0 00-1.07-1.11 1.229 1.229 0 00-1.08.64v-.58h-.38v3.11h.38V3.3a1.122 1.122 0 011.03-1.24.665.665 0 01.75.78v2.04h.37zm5.55-3.11h-.37l-1.05 2.71-1.05-2.71h-.37l1.23 3.11h.37zm3.63 1.55a1.458 1.458 0 10-1.45 1.61 1.485 1.485 0 001.45-1.61zm-.37 0a1.091 1.091 0 11-1.08-1.28 1.124 1.124 0 011.08 1.28zm2.68 1.6V4.6h-.28a.422.422 0 01-.45-.52V.63h-.37v3.43a.741.741 0 00.8.86h.3zm3.67-.04V1.77h-.37v1.58a1.119 1.119 0 01-1.04 1.23.658.658 0 01-.74-.78V1.77h-.38v2.06a1 1 0 001.07 1.1 1.245 1.245 0 001.09-.64v.59h.37zm6.07 0V2.82a.992.992 0 00-1.06-1.11 1.283 1.283 0 00-1.12.66.956.956 0 00-.99-.66 1.21 1.21 0 00-1.06.64v-.58h-.37v3.11h.37V3.3a1.109 1.109 0 011.01-1.24.652.652 0 01.73.78v2.04h.37V3.29a1.1 1.1 0 011.01-1.23.652.652 0 01.73.78v2.04h.38zm4-1.43v-.13a1.431 1.431 0 00-1.37-1.61 1.477 1.477 0 00-1.44 1.61 1.525 1.525 0 001.62 1.61 3.519 3.519 0 001.01-.16l-.08-.31a3.4 3.4 0 01-.94.14 1.139 1.139 0 01-1.23-1.15h2.43zm-.38-.31h-2.05a1.076 1.076 0 011.06-1.1 1.016 1.016 0 01.99 1.1zm5.59 1.74V2.75a1.056 1.056 0 00-1.26-1.04 4.733 4.733 0 00-1.01.12l.05.31a6.273 6.273 0 01.95-.1.726.726 0 01.9.74v.36h-1.04a.862.862 0 00-1.01.88.9.9 0 001.05.91 1.163 1.163 0 001-.44v.39h.37zm-.37-1.18a.889.889 0 01-1.01.9.557.557 0 01-.67-.56.536.536 0 01.66-.57h1.02v.23zm4.24 1.18V2.82a1 1 0 00-1.07-1.11 1.241 1.241 0 00-1.08.64v-.58h-.38v3.11h.38V3.3a1.128 1.128 0 011.03-1.24.665.665 0 01.75.78v2.04h.37zm3.97 0V.63h-.37v1.71a1.115 1.115 0 00-1.02-.63 1.631 1.631 0 000 3.22 1.115 1.115 0 001.02-.63v.58h.37zm-.37-1.56a1.035 1.035 0 11-1.01-1.28 1.106 1.106 0 011.01 1.28zm5.96-1.55h-.37l-1.06 2.71-1.04-2.71h-.38l1.24 3.11h.37zm3.14 3.11V2.75a1.061 1.061 0 00-1.26-1.04 4.733 4.733 0 00-1.01.12l.05.31a6.149 6.149 0 01.95-.1.73.73 0 01.9.74v.36h-1.05a.853.853 0 00-1 .88.887.887 0 001.04.91 1.183 1.183 0 001.01-.44v.39h.37zm-.37-1.18a.894.894 0 01-1.01.9.557.557 0 01-.67-.56.532.532 0 01.66-.57h1.02v.23zm2.77 1.22V4.6h-.27a.419.419 0 01-.45-.52V.63h-.37v3.43a.739.739 0 00.79.86h.3zm3.68-.04V1.77h-.37v1.58a1.125 1.125 0 01-1.04 1.23.658.658 0 01-.74-.78V1.77h-.38v2.06a1 1 0 001.07 1.1 1.257 1.257 0 001.09-.64v.59h.37zm4.03-1.43v-.13a1.425 1.425 0 00-1.37-1.61 1.476 1.476 0 00-1.43 1.61 1.517 1.517 0 001.61 1.61 3.584 3.584 0 001.02-.16l-.08-.31a3.414 3.414 0 01-.95.14 1.125 1.125 0 01-1.22-1.15h2.42zm-.38-.31h-2.04a1.068 1.068 0 011.05-1.1 1.01 1.01 0 01.99 1.1zm2.1 1.74v-.6h-.47v.6h.47zM35.09 12.53V8.28h-.39v4.25h.39zm4.12 0v-2.06a1 1 0 00-1.07-1.11 1.229 1.229 0 00-1.08.64v-.58h-.38v3.11h.38v-1.58a1.112 1.112 0 011.03-1.23.658.658 0 01.75.77v2.04h.37zm3.58-.06l-.06-.32a2.487 2.487 0 01-.68.1 1.275 1.275 0 010-2.55 2.706 2.706 0 01.68.09l.06-.3a2.322 2.322 0 00-.78-.13 1.61 1.61 0 000 3.22 2.938 2.938 0 00.78-.11zm2.31.1v-.32h-.28a.422.422 0 01-.45-.52V8.28H44v3.43a.741.741 0 00.8.86h.3zm3.67-.04V9.42h-.37V11a1.129 1.129 0 01-1.04 1.24.669.669 0 01-.74-.79V9.42h-.37v2.06a.984.984 0 001.06 1.1 1.245 1.245 0 001.09-.64v.59h.37zm4.01 0V8.28h-.37v1.71a1.115 1.115 0 00-1.02-.63 1.629 1.629 0 000 3.22 1.115 1.115 0 001.02-.63v.58h.37zm-.37-1.56a1.112 1.112 0 01-1.01 1.28 1.31 1.31 0 111.01-1.28zm2.2 1.56V9.42h-.37v3.11h.37zm0-3.62v-.63h-.37v.63h.37zm3.99 3.62v-2.06a.992.992 0 00-1.06-1.11 1.257 1.257 0 00-1.09.64v-.58h-.37v3.11h.37v-1.58a1.119 1.119 0 011.04-1.23.655.655 0 01.74.77v2.04h.37zm3.95-.24V9.42h-.37v.57a1.2 1.2 0 00-1.07-.63 1.592 1.592 0 000 3.14 1.211 1.211 0 001.07-.62v.4a.945.945 0 01-1.12 1.08 3.615 3.615 0 01-.93-.15l-.08.29a3.393 3.393 0 001.04.18 1.285 1.285 0 001.46-1.39zm-.37-1.36a1.057 1.057 0 01-1.04 1.24 1.268 1.268 0 010-2.47 1.048 1.048 0 011.04 1.23zm6.54-2.32v-.33h-2.86v4.25h.39v-2.04h2.3v-.33h-2.3V8.61h2.47zm2.73 1.12v-.37a1.38 1.38 0 00-1.15.73v-.67h-.37v3.11h.37v-1.56a1.217 1.217 0 011.15-1.24zm3.24 2.8V10.4a1.065 1.065 0 00-1.27-1.04 4.171 4.171 0 00-1.01.13l.06.3a5.89 5.89 0 01.94-.09.729.729 0 01.91.73v.36h-1.05a.862.862 0 00-1.01.88.9.9 0 001.05.91 1.2 1.2 0 001.01-.44v.39h.37zm-.37-1.18a.9.9 0 01-1.02.9.553.553 0 01-.67-.56.54.54 0 01.67-.57h1.02v.23zm4.23 1.18v-2.06a1 1 0 00-1.07-1.11 1.241 1.241 0 00-1.08.64v-.58h-.38v3.11h.38v-1.58a1.118 1.118 0 011.03-1.23.658.658 0 01.75.77v2.04h.37zm3.58-.06l-.06-.32a2.434 2.434 0 01-.68.1 1.275 1.275 0 010-2.55 2.648 2.648 0 01.68.09l.06-.3a2.265 2.265 0 00-.77-.13 1.61 1.61 0 000 3.22 2.923 2.923 0 00.77-.11zm3.82-1.36v-.14a1.431 1.431 0 00-1.37-1.61 1.477 1.477 0 00-1.44 1.61 1.522 1.522 0 001.61 1.61 3.584 3.584 0 001.02-.16l-.08-.31a3.4 3.4 0 01-.94.14 1.137 1.137 0 01-1.23-1.14h2.43zm-.39-.32h-2.04a1.067 1.067 0 011.06-1.09 1 1 0 01.98 1.09zm2.04 1.74v-.6h-.47v.6h.26l-.23.68h.21zm3.77 0V8.28h-.39v4.25h.39zm2.85-.01l-.05-.28a2.616 2.616 0 01-.37.03c-.24 0-.36-.12-.36-.54V9.75h.64v-.33h-.64v-.88h-.37v.88h-.43v.33h.43v1.96c0 .65.26.87.72.87a1.557 1.557 0 00.43-.06zm3.36.01V10.4a1.056 1.056 0 00-1.26-1.04 4.171 4.171 0 00-1.01.13l.05.3a6.109 6.109 0 01.95-.09.724.724 0 01.9.73v.36h-1.04a.862.862 0 00-1.01.88.9.9 0 001.05.91 1.163 1.163 0 001-.44v.39h.37zm-.37-1.18a.894.894 0 01-1.01.9.553.553 0 01-.67-.56.536.536 0 01.66-.57h1.02v.23zm2.78 1.22v-.32h-.28a.422.422 0 01-.45-.52V8.28h-.37v3.43a.741.741 0 00.8.86h.3zm3.52-3.15h-.37l-1.05 2.71-1.04-2.71h-.38l1.27 3.11-.45 1.1h.36zm6 3.11l-.61-.81a3.378 3.378 0 00.56-1.32l-.28-.07a3.635 3.635 0 01-.48 1.13l-1.07-1.39a1.275 1.275 0 00.7-1.1.736.736 0 00-.81-.75.717.717 0 00-.83.74 1.763 1.763 0 00.48 1.02 1.716 1.716 0 00-1.04 1.5 1.141 1.141 0 001.2 1.12 1.817 1.817 0 001.34-.61s.24.32.41.54h.43zm-1.04-.79a1.527 1.527 0 01-1.11.53.794.794 0 01-.86-.8 1.361 1.361 0 01.85-1.23c.18.26.7.94 1.12 1.5zM108 8.97a.991.991 0 01-.55.86 1.591 1.591 0 01-.43-.87.439.439 0 01.49-.46.447.447 0 01.49.47zm7.67 2.54c0-.5-.19-.78-1.39-1.28-1.08-.45-1.36-.58-1.36-1.08 0-.44.34-.6 1.17-.6a6.093 6.093 0 011.39.18l.07-.3a5.749 5.749 0 00-1.48-.21c-.95 0-1.53.28-1.53.93 0 .6.32.91 1.49 1.36 1.07.41 1.26.63 1.26 1.01a1 1 0 01-1.2.75 4.552 4.552 0 01-1.59-.32l-.1.31a4.683 4.683 0 001.7.34c.98 0 1.57-.49 1.57-1.09zm4-.54a1.428 1.428 0 00-1.36-1.61 1.1 1.1 0 00-1.02.63v-.57h-.38v4.21h.38v-1.68a1.1 1.1 0 001.02.63 1.428 1.428 0 001.36-1.61zm-.37 0a1.033 1.033 0 11-1.01-1.27 1.1 1.1 0 011.01 1.27zm3.8 1.56V10.4a1.061 1.061 0 00-1.26-1.04 4.171 4.171 0 00-1.01.13l.05.3a6.109 6.109 0 01.95-.09.724.724 0 01.9.73v.36h-1.04a.862.862 0 00-1.01.88.892.892 0 001.04.91 1.183 1.183 0 001.01-.44v.39h.37zm-.37-1.18a.894.894 0 01-1.01.9.553.553 0 01-.67-.56.536.536 0 01.66-.57h1.02v.23zm2.08 1.18V9.42h-.37v3.11h.37zm0-3.62v-.63h-.37v.63h.37zm3.99 3.62v-2.06a.992.992 0 00-1.06-1.11 1.257 1.257 0 00-1.09.64v-.58h-.37v3.11h.37v-1.58a1.119 1.119 0 011.04-1.23.655.655 0 01.74.77v2.04h.37zm3.59 0V9.42h-.37v3.11h.37zm0-3.62v-.63h-.37v.63h.37zm3.99 3.62v-2.06a.992.992 0 00-1.06-1.11 1.257 1.257 0 00-1.09.64v-.58h-.37v3.11h.37v-1.58a1.119 1.119 0 011.04-1.23.651.651 0 01.74.77v2.04h.37zm5.99-1.56A1.435 1.435 0 00141 9.36a1.115 1.115 0 00-1.02.63v-.57h-.38v4.21h.38v-1.68a1.115 1.115 0 001.02.63 1.429 1.429 0 001.37-1.61zm-.37 0a1.037 1.037 0 11-1.01-1.27 1.107 1.107 0 011.01 1.27zm4.13 1.56v-2.06a.992.992 0 00-1.06-1.11 1.245 1.245 0 00-1.09.64V8.28h-.37v4.25h.37v-1.58a1.119 1.119 0 011.04-1.23.655.655 0 01.74.77v2.04h.37zm3.65 0V10.4a1.061 1.061 0 00-1.26-1.04 4.171 4.171 0 00-1.01.13l.05.3a6.109 6.109 0 01.95-.09.724.724 0 01.9.73v.36h-1.04a.857.857 0 00-1.01.88.892.892 0 001.04.91 1.183 1.183 0 001.01-.44v.39h.37zm-.37-1.18a.894.894 0 01-1.01.9.553.553 0 01-.67-.56.536.536 0 01.66-.57h1.02v.23zm3.23-1.62v-.37a1.35 1.35 0 00-1.14.73v-.67h-.38v3.11h.38v-1.56a1.209 1.209 0 011.14-1.24zm5.65 2.8v-2.06a.985.985 0 00-1.05-1.11 1.32 1.32 0 00-1.13.66.949.949 0 00-.99-.66 1.194 1.194 0 00-1.05.64v-.58h-.38v3.11h.38v-1.58a1.1 1.1 0 011-1.23.645.645 0 01.73.77v2.04h.38v-1.58a1.093 1.093 0 011.01-1.23.642.642 0 01.72.77v2.04h.38zm3.62 0V10.4a1.061 1.061 0 00-1.26-1.04 4.107 4.107 0 00-1.01.13l.05.3a6 6 0 01.94-.09.729.729 0 01.91.73v.36h-1.05a.853.853 0 00-1 .88.887.887 0 001.04.91 1.2 1.2 0 001.01-.44v.39h.37zm-.37-1.18a.894.894 0 01-1.01.9.549.549 0 01-.67-.56.532.532 0 01.66-.57h1.02v.23zm3.86 1.12l-.07-.32a2.42 2.42 0 01-.67.1 1.275 1.275 0 010-2.55 2.63 2.63 0 01.67.09l.07-.3a2.322 2.322 0 00-.78-.13 1.61 1.61 0 000 3.22 3 3 0 00.78-.11zm3.56-3.05h-.37l-1.06 2.71-1.04-2.71h-.38l1.27 3.11-.45 1.1h.36zm4.96 3.11V10.4a1.065 1.065 0 00-1.27-1.04 4.089 4.089 0 00-1 .13l.05.3a6 6 0 01.94-.09.729.729 0 01.91.73v.36h-1.05a.862.862 0 00-1.01.88.9.9 0 001.05.91 1.2 1.2 0 001.01-.44v.39h.37zm-.37-1.18a.9.9 0 01-1.02.9.553.553 0 01-.67-.56.54.54 0 01.67-.57h1.02v.23zm4.23 1.18v-2.06a.992.992 0 00-1.06-1.11 1.245 1.245 0 00-1.09.64v-.58h-.38v3.11h.38v-1.58a1.118 1.118 0 011.03-1.23.658.658 0 01.75.77v2.04h.37zm3.97 0V8.28h-.37v1.71a1.1 1.1 0 00-1.02-.63 1.631 1.631 0 000 3.22 1.1 1.1 0 001.02-.63v.58h.37zm-.37-1.56a1.035 1.035 0 11-2.01 0 1.033 1.033 0 112.01 0zm6.39 0a1.435 1.435 0 00-1.37-1.61 1.115 1.115 0 00-1.02.63v-.57H185v4.21h.38v-1.68a1.115 1.115 0 001.02.63 1.429 1.429 0 001.37-1.61zm-.37 0a1.037 1.037 0 11-1.01-1.27 1.107 1.107 0 011.01 1.27zm3.8 1.56V10.4a1.065 1.065 0 00-1.27-1.04 4.089 4.089 0 00-1 .13l.05.3a6 6 0 01.94-.09.729.729 0 01.91.73v.36h-1.05a.862.862 0 00-1.01.88.9.9 0 001.05.91 1.2 1.2 0 001.01-.44v.39h.37zm-.37-1.18a.9.9 0 01-1.02.9.553.553 0 01-.67-.56.54.54 0 01.67-.57h1.02v.23zm3.22-1.62v-.37a1.364 1.364 0 00-1.14.73v-.67h-.38v3.11h.38v-1.56a1.216 1.216 0 011.14-1.24zm3.24 2.8V10.4a1.061 1.061 0 00-1.26-1.04 4.171 4.171 0 00-1.01.13l.05.3a6.109 6.109 0 01.95-.09.724.724 0 01.9.73v.36h-1.04a.862.862 0 00-1.01.88.892.892 0 001.04.91 1.183 1.183 0 001.01-.44v.39h.37zm-.37-1.18a.894.894 0 01-1.01.9.553.553 0 01-.67-.56.536.536 0 01.66-.57h1.02v.23zm4.47-.38a1.428 1.428 0 00-1.36-1.61 1.115 1.115 0 00-1.02.63v-.57h-.38v4.21h.38v-1.68a1.115 1.115 0 001.02.63 1.428 1.428 0 001.36-1.61zm-.37 0a1.033 1.033 0 11-1-1.27 1.1 1.1 0 011 1.27zm4.14 1.56v-2.06a.992.992 0 00-1.06-1.11 1.245 1.245 0 00-1.09.64V8.28h-.37v4.25h.37v-1.58a1.119 1.119 0 011.04-1.23.655.655 0 01.74.77v2.04h.37zm3.65 0V10.4a1.061 1.061 0 00-1.26-1.04 4.107 4.107 0 00-1.01.13l.05.3a6 6 0 01.94-.09.729.729 0 01.91.73v.36h-1.05a.862.862 0 00-1.01.88.9.9 0 001.05.91 1.2 1.2 0 001.01-.44v.39h.37zm-.37-1.18a.9.9 0 01-1.02.9.553.553 0 01-.67-.56.54.54 0 01.67-.57h1.02v.23zm3.23-1.62v-.37a1.38 1.38 0 00-1.15.73v-.67h-.37v3.11h.37v-1.56a1.217 1.217 0 011.15-1.24zm5.65 2.8v-2.06a.987.987 0 00-1.06-1.11 1.316 1.316 0 00-1.12.66.949.949 0 00-.99-.66 1.21 1.21 0 00-1.06.64v-.58h-.37v3.11h.37v-1.58a1.1 1.1 0 011.01-1.23.645.645 0 01.73.77v2.04h.37v-1.58a1.1 1.1 0 011.01-1.23.645.645 0 01.73.77v2.04h.38zm3.62 0V10.4a1.065 1.065 0 00-1.27-1.04 4.089 4.089 0 00-1 .13l.05.3a6 6 0 01.94-.09.729.729 0 01.91.73v.36h-1.05a.862.862 0 00-1.01.88.9.9 0 001.05.91 1.2 1.2 0 001.01-.44v.39h.37zm-.37-1.18a.9.9 0 01-1.02.9.553.553 0 01-.67-.56.54.54 0 01.67-.57h1.02v.23zm3.85 1.12l-.06-.32a2.434 2.434 0 01-.68.1 1.275 1.275 0 010-2.55 2.648 2.648 0 01.68.09l.06-.3a2.225 2.225 0 00-.77-.13 1.61 1.61 0 000 3.22 2.865 2.865 0 00.77-.11zm3.56-3.05h-.37l-1.05 2.71-1.05-2.71h-.37l1.27 3.11-.45 1.1h.36zm1.44 3.11v-.6h-.48v.6h.27l-.23.68h.21zm0-2.44v-.6h-.48v.6h.48zm6.55 2.32v-1.76h-.35v1.52a4.45 4.45 0 01-.92.1 1.842 1.842 0 01-1.94-1.87 1.783 1.783 0 011.94-1.85 4.961 4.961 0 011.06.11l.06-.31a4.533 4.533 0 00-1.1-.13 2.135 2.135 0 00-2.34 2.18 2.228 2.228 0 002.34 2.2 4.472 4.472 0 001.25-.19zm4-1.3v-.14a1.425 1.425 0 00-1.37-1.61 1.477 1.477 0 00-1.44 1.61 1.525 1.525 0 001.62 1.61 3.468 3.468 0 001.01-.16l-.07-.31a3.466 3.466 0 01-.95.14 1.123 1.123 0 01-1.22-1.14h2.42zm-.38-.32h-2.04a1.053 1.053 0 011.05-1.09 1 1 0 01.99 1.09zm3.14-1.06v-.37a1.364 1.364 0 00-1.14.73v-.67h-.38v3.11h.38v-1.56a1.209 1.209 0 011.14-1.24zm5.65 2.8v-2.06a.985.985 0 00-1.05-1.11 1.3 1.3 0 00-1.12.66.956.956 0 00-.99-.66 1.2 1.2 0 00-1.06.64v-.58h-.38v3.11h.38v-1.58a1.1 1.1 0 011.01-1.23.642.642 0 01.72.77v2.04h.38v-1.58a1.093 1.093 0 011.01-1.23.645.645 0 01.73.77v2.04h.37zm3.62 0V10.4a1.061 1.061 0 00-1.26-1.04 4.171 4.171 0 00-1.01.13l.05.3a6.109 6.109 0 01.95-.09.724.724 0 01.9.73v.36h-1.04a.862.862 0 00-1.01.88.9.9 0 001.05.91 1.176 1.176 0 001-.44v.39h.37zm-.37-1.18a.894.894 0 01-1.01.9.553.553 0 01-.67-.56.536.536 0 01.66-.57h1.02v.23zm4.24 1.18v-2.06a1 1 0 00-1.07-1.11 1.229 1.229 0 00-1.08.64v-.58h-.38v3.11h.38v-1.58a1.112 1.112 0 011.03-1.23.658.658 0 01.75.77v2.04h.37zm3.75-3.11h-.37l-1.06 2.71-1.04-2.71h-.38l1.27 3.11-.45 1.1h.36zm3.14 3.11V9.42h-.37v3.11h.37zm0-3.62v-.63h-.37v.63h.37zm3.99 3.62v-2.06a.992.992 0 00-1.06-1.11 1.257 1.257 0 00-1.09.64v-.58h-.37v3.11h.37v-1.58a1.119 1.119 0 011.04-1.23.655.655 0 01.74.77v2.04h.37zm5.98-1.56a1.428 1.428 0 00-1.36-1.61 1.115 1.115 0 00-1.02.63v-.57h-.38v4.21h.38v-1.68a1.115 1.115 0 001.02.63 1.428 1.428 0 001.36-1.61zm-.37 0a1.033 1.033 0 11-1-1.27 1.1 1.1 0 011 1.27zm4.14 1.56v-2.06a.992.992 0 00-1.06-1.11 1.245 1.245 0 00-1.09.64V8.28h-.37v4.25h.37v-1.58a1.119 1.119 0 011.04-1.23.655.655 0 01.74.77v2.04h.37zm3.65 0V10.4a1.061 1.061 0 00-1.26-1.04 4.107 4.107 0 00-1.01.13l.05.3a6 6 0 01.94-.09.729.729 0 01.91.73v.36h-1.05a.862.862 0 00-1.01.88.9.9 0 001.05.91 1.2 1.2 0 001.01-.44v.39h.37zm-.37-1.18a.9.9 0 01-1.02.9.553.553 0 01-.67-.56.54.54 0 01.67-.57h1.02v.23zm3.23-1.62v-.37a1.38 1.38 0 00-1.15.73v-.67h-.37v3.11h.37v-1.56a1.217 1.217 0 011.15-1.24zm5.65 2.8v-2.06a.987.987 0 00-1.06-1.11 1.316 1.316 0 00-1.12.66.949.949 0 00-.99-.66 1.21 1.21 0 00-1.06.64v-.58h-.37v3.11h.37v-1.58a1.1 1.1 0 011.01-1.23.645.645 0 01.73.77v2.04h.37v-1.58a1.1 1.1 0 011.01-1.23.645.645 0 01.73.77v2.04h.38zm3.62 0V10.4a1.065 1.065 0 00-1.27-1.04 4.089 4.089 0 00-1 .13l.05.3a6 6 0 01.94-.09.729.729 0 01.91.73v.36h-1.05a.862.862 0 00-1.01.88.9.9 0 001.05.91 1.2 1.2 0 001.01-.44v.39h.37zm-.37-1.18a.9.9 0 01-1.02.9.553.553 0 01-.67-.56.54.54 0 01.67-.57h1.02v.23zm3.85 1.12l-.06-.32a2.434 2.434 0 01-.68.1 1.275 1.275 0 010-2.55 2.648 2.648 0 01.68.09l.06-.3a2.225 2.225 0 00-.77-.13 1.61 1.61 0 000 3.22 2.865 2.865 0 00.77-.11zm3.56-3.05h-.37l-1.05 2.71-1.05-2.71h-.37l1.27 3.11-.45 1.1h.36zm4.96 3.11V10.4a1.056 1.056 0 00-1.26-1.04 4.171 4.171 0 00-1.01.13l.05.3a6.109 6.109 0 01.95-.09.724.724 0 01.9.73v.36h-1.04a.862.862 0 00-1.01.88.9.9 0 001.05.91 1.163 1.163 0 001-.44v.39h.37zm-.37-1.18a.894.894 0 01-1.01.9.553.553 0 01-.67-.56.536.536 0 01.66-.57h1.02v.23zm4.24 1.18v-2.06a1 1 0 00-1.07-1.11A1.229 1.229 0 00306 10v-.58h-.38v3.11h.38v-1.58a1.118 1.118 0 011.03-1.23.658.658 0 01.75.77v2.04h.37zm3.97 0V8.28h-.37v1.71a1.115 1.115 0 00-1.02-.63 1.631 1.631 0 000 3.22 1.115 1.115 0 001.02-.63v.58h.37zm-.37-1.56a1.037 1.037 0 11-1.01-1.27 1.106 1.106 0 011.01 1.27zm6.19.14v-.14a1.425 1.425 0 00-1.37-1.61 1.47 1.47 0 00-1.43 1.61 1.517 1.517 0 001.61 1.61 3.468 3.468 0 001.01-.16l-.07-.31a3.466 3.466 0 01-.95.14 1.123 1.123 0 01-1.22-1.14h2.42zm-.38-.32h-2.04a1.053 1.053 0 011.05-1.09 1 1 0 01.99 1.09zm2.98.18v-.36h-1.55v.36h1.55zm2.8-1.24v-.37a1.38 1.38 0 00-1.15.73v-.67h-.37v3.11h.37v-1.56a1.217 1.217 0 011.15-1.24zm3.62 1.38v-.14a1.431 1.431 0 00-1.37-1.61 1.477 1.477 0 00-1.44 1.61 1.525 1.525 0 001.62 1.61 3.519 3.519 0 001.01-.16l-.08-.31a3.4 3.4 0 01-.94.14 1.137 1.137 0 01-1.23-1.14h2.43zm-.38-.32h-2.05a1.067 1.067 0 011.06-1.09 1.007 1.007 0 01.99 1.09zm2.88 1.73l-.05-.28a2.616 2.616 0 01-.37.03c-.24 0-.35-.12-.35-.54V9.75h.63v-.33h-.63v-.88h-.38v.88h-.43v.33h.43v1.96c0 .65.26.87.72.87a1.512 1.512 0 00.43-.06zm3.37.01V10.4a1.065 1.065 0 00-1.27-1.04 4.171 4.171 0 00-1.01.13l.05.3a6.109 6.109 0 01.95-.09.729.729 0 01.91.73v.36h-1.05a.862.862 0 00-1.01.88.9.9 0 001.05.91 1.2 1.2 0 001.01-.44v.39h.37zm-.37-1.18a.9.9 0 01-1.02.9.553.553 0 01-.67-.56.536.536 0 01.66-.57h1.03v.23zm2.07 1.18V9.42h-.37v3.11h.37zm0-3.62v-.63h-.37v.63h.37zm2.53 3.66v-.32h-.27a.419.419 0 01-.45-.52V8.28h-.37v3.43a.741.741 0 00.8.86h.29zm1.66-.04v-.6h-.48v.6h.27l-.22.68h.21zm0-2.44v-.6h-.48v.6h.48zm6.56 1.26a1.047 1.047 0 00-.8-1.05.994.994 0 00.67-.94 1.13 1.13 0 00-1.37-1.08h-1.71v4.25h1.92a1.2 1.2 0 001.29-1.18zm-.38 0a.835.835 0 01-.94.85h-1.51v-1.71h1.5a.836.836 0 01.95.86zm-.14-1.95a.837.837 0 01-.99.77h-1.32V8.61h1.34a.805.805 0 01.97.79zm4.3 1.71v-.14a1.431 1.431 0 00-1.37-1.61 1.477 1.477 0 00-1.44 1.61 1.525 1.525 0 001.62 1.61 3.519 3.519 0 001.01-.16l-.08-.31a3.4 3.4 0 01-.94.14 1.123 1.123 0 01-1.22-1.14h2.42zm-.38-.32h-2.04a1.053 1.053 0 011.05-1.09 1.007 1.007 0 01.99 1.09zm2.69 1.78v-.32h-.28a.422.422 0 01-.45-.52V8.28h-.37v3.43a.741.741 0 00.8.86h.3zm3.72-.28V9.42h-.37v.57a1.189 1.189 0 00-1.07-.63 1.592 1.592 0 000 3.14 1.2 1.2 0 001.07-.62v.4a.945.945 0 01-1.12 1.08 3.615 3.615 0 01-.93-.15l-.08.29a3.393 3.393 0 001.04.18 1.285 1.285 0 001.46-1.39zm-.37-1.36a1.057 1.057 0 01-1.04 1.24 1.268 1.268 0 010-2.47 1.048 1.048 0 011.04 1.23zm2.17 1.6V9.42h-.37v3.11h.37zm0-3.62v-.63h-.37v.63h.37zm3.93 3.62V9.42h-.37V11a1.129 1.129 0 01-1.04 1.24.665.665 0 01-.74-.79V9.42h-.38v2.06a.992.992 0 001.07 1.1 1.257 1.257 0 001.09-.64v.59h.37zm6.06 0v-2.06a.985.985 0 00-1.05-1.11 1.3 1.3 0 00-1.12.66.956.956 0 00-.99-.66 1.2 1.2 0 00-1.06.64v-.58h-.38v3.11h.38v-1.58a1.1 1.1 0 011.01-1.23.648.648 0 01.73.77v2.04h.37v-1.58a1.093 1.093 0 011.01-1.23.645.645 0 01.73.77v2.04h.37zm1.85 0v-.6h-.48v.6h.26l-.22.68h.21zm6.82 0V8.28h-.38v3.65l-2.72-3.65h-.37v4.25h.37V8.87l2.72 3.66h.38zm4.13-1.42v-.14a1.431 1.431 0 00-1.37-1.61 1.477 1.477 0 00-1.44 1.61 1.525 1.525 0 001.62 1.61 3.519 3.519 0 001.01-.16l-.08-.31a3.4 3.4 0 01-.94.14 1.123 1.123 0 01-1.22-1.14h2.42zm-.38-.32h-2.04a1.053 1.053 0 011.05-1.09 1.007 1.007 0 01.99 1.09zm2.88 1.73l-.05-.28a2.616 2.616 0 01-.37.03c-.24 0-.35-.12-.35-.54V9.75h.63v-.33h-.63v-.88h-.38v.88h-.43v.33h.43v1.96c0 .65.26.87.72.87a1.512 1.512 0 00.43-.06zm3.7.01v-2.06a.992.992 0 00-1.06-1.11 1.245 1.245 0 00-1.09.64V8.28h-.37v4.25h.37v-1.58a1.119 1.119 0 011.04-1.23.655.655 0 01.74.77v2.04h.37zm4.03-1.42v-.14a1.425 1.425 0 00-1.37-1.61 1.476 1.476 0 00-1.43 1.61 1.517 1.517 0 001.61 1.61 3.584 3.584 0 001.02-.16l-.08-.31a3.414 3.414 0 01-.95.14 1.123 1.123 0 01-1.22-1.14h2.42zm-.38-.32h-2.04a1.059 1.059 0 011.05-1.09 1 1 0 01.99 1.09zm3.14-1.06v-.37a1.377 1.377 0 00-1.14.73v-.67h-.37v3.11h.37v-1.56a1.216 1.216 0 011.14-1.24zm2.12 2.84v-.32h-.27a.425.425 0 01-.46-.52V8.28h-.37v3.43a.741.741 0 00.8.86h.3zm3.4-.04V10.4a1.061 1.061 0 00-1.26-1.04 4.171 4.171 0 00-1.01.13l.05.3a6 6 0 01.94-.09.729.729 0 01.91.73v.36h-1.05a.853.853 0 00-1 .88.887.887 0 001.04.91 1.183 1.183 0 001.01-.44v.39h.37zm-.37-1.18a.894.894 0 01-1.01.9.553.553 0 01-.67-.56.532.532 0 01.66-.57h1.02v.23zm4.24 1.18v-2.06a1 1 0 00-1.07-1.11 1.229 1.229 0 00-1.08.64v-.58h-.38v3.11h.38v-1.58a1.112 1.112 0 011.03-1.23.658.658 0 01.75.77v2.04h.37zm3.97 0V8.28h-.37v1.71a1.115 1.115 0 00-1.02-.63 1.631 1.631 0 000 3.22 1.115 1.115 0 001.02-.63v.58h.37zm-.37-1.56a1.038 1.038 0 11-2.02 0 1.037 1.037 0 112.02 0zm3.9.79c0-.46-.22-.63-1.09-.99-.6-.24-.73-.37-.73-.63 0-.31.21-.44.75-.44a4.155 4.155 0 01.88.11l.06-.3a3.173 3.173 0 00-.96-.15.9.9 0 00-1.1.74.982.982 0 00.86.96c.81.32.96.4.96.68 0 .35-.33.51-.82.51a2.451 2.451 0 01-1-.24l-.1.29a2.532 2.532 0 001.11.28.978.978 0 001.18-.82zm1.63.77v-.6h-.48v.6h.26l-.22.68h.21zm6.39-1.02c0-.5-.19-.78-1.39-1.28-1.08-.45-1.36-.58-1.36-1.08 0-.44.33-.6 1.16-.6a6.178 6.178 0 011.4.18l.06-.3a5.613 5.613 0 00-1.47-.21c-.96 0-1.54.28-1.54.93 0 .6.33.91 1.5 1.36 1.07.41 1.25.63 1.25 1.01a1 1 0 01-1.2.75 4.543 4.543 0 01-1.58-.32l-.1.31a4.6 4.6 0 001.7.34c.98 0 1.57-.49 1.57-1.09zm4.96-2.09h-.36l-.82 2.55-.78-2.55h-.34l-.76 2.59-.82-2.59h-.37l1.01 3.11h.35l.77-2.58.76 2.58h.35zm1.31 3.11V9.42h-.37v3.11h.37zm0-3.62v-.63h-.37v.63h.37zm2.72 3.61l-.05-.28a2.38 2.38 0 01-.36.03c-.24 0-.36-.12-.36-.54V9.75h.64v-.33h-.64v-.88h-.38v.88H425v.33h.42v1.96a.7.7 0 00.72.87 1.512 1.512 0 00.43-.06zm3.55.01v-.33h-2.11l2.06-2.45v-.33h-2.36v.33h1.92l-2.07 2.45v.33h2.56zm3.88-1.42v-.14a1.425 1.425 0 00-1.37-1.61 1.477 1.477 0 00-1.44 1.61 1.525 1.525 0 001.62 1.61 3.468 3.468 0 001.01-.16l-.07-.31a3.466 3.466 0 01-.95.14 1.123 1.123 0 01-1.22-1.14H434zm-.38-.32h-2.04a1.053 1.053 0 011.05-1.09 1 1 0 01.99 1.09zm3.14-1.06v-.37a1.364 1.364 0 00-1.14.73v-.67h-.38v3.11h.38v-1.56a1.209 1.209 0 011.14-1.24zm2.12 2.84v-.32h-.28a.422.422 0 01-.45-.52V8.28h-.37v3.43a.741.741 0 00.8.86h.3zm3.4-.04V10.4a1.065 1.065 0 00-1.27-1.04 4.089 4.089 0 00-1 .13l.05.3a6 6 0 01.94-.09.729.729 0 01.91.73v.36h-1.05a.862.862 0 00-1.01.88.9.9 0 001.05.91 1.2 1.2 0 001.01-.44v.39h.37zm-.37-1.18a.9.9 0 01-1.02.9.553.553 0 01-.67-.56.54.54 0 01.67-.57h1.02v.23zm4.23 1.18v-2.06a.992.992 0 00-1.06-1.11 1.257 1.257 0 00-1.09.64v-.58h-.37v3.11h.37v-1.58a1.119 1.119 0 011.04-1.23.655.655 0 01.74.77v2.04h.37zm3.97 0V8.28h-.37v1.71a1.1 1.1 0 00-1.02-.63 1.631 1.631 0 000 3.22 1.1 1.1 0 001.02-.63v.58h.37zm-.37-1.56a1.035 1.035 0 11-2.01 0 1.033 1.033 0 112.01 0zm6.85 1.56l-.62-.81a3.259 3.259 0 00.57-1.32l-.28-.07a3.635 3.635 0 01-.48 1.13l-1.07-1.39a1.275 1.275 0 00.7-1.1.736.736 0 00-.81-.75.717.717 0 00-.83.74 1.763 1.763 0 00.48 1.02 1.7 1.7 0 00-1.04 1.5 1.141 1.141 0 001.2 1.12 1.834 1.834 0 001.34-.61s.24.32.41.54h.43zm-1.04-.79a1.527 1.527 0 01-1.11.53.794.794 0 01-.86-.8 1.365 1.365 0 01.84-1.23c.19.26.71.94 1.13 1.5zm-.47-2.77a.991.991 0 01-.55.86 1.591 1.591 0 01-.43-.87.439.439 0 01.49-.46.447.447 0 01.49.47zm7.89 3.56l-1.77-4.25h-.28l-1.76 4.25h.39l.47-1.19h2.09l.47 1.19h.39zm-.99-1.5h-1.83l.91-2.28zm4.47 1.5V9.42h-.37V11a1.129 1.129 0 01-1.04 1.24.665.665 0 01-.74-.79V9.42h-.37v2.06a.984.984 0 001.06 1.1 1.245 1.245 0 001.09-.64v.59h.37zm3.53-.77c0-.46-.21-.63-1.09-.99-.6-.24-.72-.37-.72-.63 0-.31.21-.44.74-.44a4.074 4.074 0 01.88.11l.06-.3a3.173 3.173 0 00-.96-.15.892.892 0 00-1.09.74.982.982 0 00.86.96c.8.32.95.4.95.68 0 .35-.33.51-.82.51a2.4 2.4 0 01-.99-.24l-.11.29a2.532 2.532 0 001.11.28.973.973 0 001.18-.82zm2.47.76l-.05-.28a2.487 2.487 0 01-.36.03c-.25 0-.36-.12-.36-.54V9.75h.64v-.33h-.64v-.88h-.38v.88h-.42v.33h.42v1.96c0 .65.26.87.72.87a1.512 1.512 0 00.43-.06zm2.7-2.79v-.37a1.35 1.35 0 00-1.14.73v-.67h-.38v3.11h.38v-1.56a1.209 1.209 0 011.14-1.24zm1.42 2.8V9.42h-.37v3.11h.37zm0-3.62v-.63h-.37v.63h.37zm3.65 3.62V10.4a1.056 1.056 0 00-1.26-1.04 4.171 4.171 0 00-1.01.13l.05.3a6.109 6.109 0 01.95-.09.724.724 0 01.9.73v.36h-1.04a.862.862 0 00-1.01.88.9.9 0 001.05.91 1.163 1.163 0 001-.44v.39h.37zm-.37-1.18a.889.889 0 01-1.01.9.553.553 0 01-.67-.56.536.536 0 01.66-.57h1.02v.23zm3.87 1.18V9.42h-.37v3.11h.37zm0-3.62v-.63h-.37v.63h.37zm3.99 3.62v-2.06a.992.992 0 00-1.06-1.11 1.245 1.245 0 00-1.09.64v-.58h-.38v3.11h.38v-1.58a1.118 1.118 0 011.03-1.23.658.658 0 01.75.77v2.04h.37zm5.98-1.56a1.428 1.428 0 00-1.36-1.61 1.1 1.1 0 00-1.02.63v-.57h-.38v4.21h.38v-1.68a1.1 1.1 0 001.02.63 1.428 1.428 0 001.36-1.61zm-.37 0a1.033 1.033 0 11-1.01-1.27 1.1 1.1 0 011.01 1.27zm4.13 1.56v-2.06a.987.987 0 00-1.06-1.11 1.27 1.27 0 00-1.09.64V8.28h-.37v4.25h.37v-1.58a1.125 1.125 0 011.04-1.23.651.651 0 01.74.77v2.04h.37zm3.66 0V10.4a1.065 1.065 0 00-1.27-1.04 4.089 4.089 0 00-1 .13l.05.3a6 6 0 01.94-.09.729.729 0 01.91.73v.36h-1.05a.862.862 0 00-1.01.88.9.9 0 001.05.91 1.2 1.2 0 001.01-.44v.39h.37zm-.37-1.18a.9.9 0 01-1.02.9.553.553 0 01-.67-.56.54.54 0 01.67-.57h1.02v.23zm3.22-1.62v-.37a1.377 1.377 0 00-1.14.73v-.67h-.37v3.11h.37v-1.56a1.216 1.216 0 011.14-1.24zm5.65 2.8v-2.06a.985.985 0 00-1.05-1.11 1.3 1.3 0 00-1.12.66.956.956 0 00-.99-.66 1.2 1.2 0 00-1.06.64v-.58h-.37v3.11h.37v-1.58a1.1 1.1 0 011.01-1.23.645.645 0 01.73.77v2.04h.37v-1.58a1.093 1.093 0 011.01-1.23.645.645 0 01.73.77v2.04h.37zm3.63 0V10.4a1.065 1.065 0 00-1.27-1.04 4.171 4.171 0 00-1.01.13l.06.3a5.89 5.89 0 01.94-.09.729.729 0 01.91.73v.36h-1.05a.862.862 0 00-1.01.88.9.9 0 001.05.91 1.2 1.2 0 001.01-.44v.39h.37zm-.37-1.18a.9.9 0 01-1.02.9.553.553 0 01-.67-.56.536.536 0 01.66-.57h1.03v.23zm3.85 1.12l-.06-.32a2.434 2.434 0 01-.68.1 1.275 1.275 0 010-2.55 2.648 2.648 0 01.68.09l.06-.3a2.265 2.265 0 00-.77-.13 1.61 1.61 0 000 3.22 2.923 2.923 0 00.77-.11zm3.56-3.05h-.37l-1.05 2.71-1.05-2.71h-.37l1.27 3.11-.45 1.1h.36zm1.47 3.11v-.6h-.48v.6h.48z" fill="#e9e9e9" fill-rule="evenodd"/></svg><svg width="273.69" height="19.19" viewBox="-1 -1 545.37 36.38" y="8.84" xmlns="http://www.w3.org/2000/svg"><path data-name="Cálculos de L’OREAL, basados en parte en datos reportados por N" d="M5.563 7.03l-.127-.51a6.733 6.733 0 01-1.587.19 3.088 3.088 0 110-6.17 6.888 6.888 0 011.609.2l.105-.52A6.1 6.1 0 003.87-.01 3.626 3.626 0 00-.014 3.62 3.664 3.664 0 003.87 7.26a6.269 6.269 0 001.693-.23zm5.821.12V3.62c0-1.01-.677-1.72-2.095-1.72a7 7 0 00-1.672.2l.084.51a9.016 9.016 0 011.567-.16c1.121 0 1.5.51 1.5 1.22v.59H9.033a1.43 1.43 0 00-1.672 1.46 1.478 1.478 0 001.735 1.51 1.962 1.962 0 001.672-.73v.65h.614zm-.614-1.96a1.479 1.479 0 01-1.682 1.49.914.914 0 01-1.112-.92.891.891 0 011.1-.95h1.693v.38zm.276-5.15h-.731L9.299 1.32h.529zm4.328 7.17v-.53h-.455a.692.692 0 01-.751-.85V.1h-.614v5.69a1.224 1.224 0 001.323 1.42h.5zm5.577-.17l-.105-.52a3.91 3.91 0 01-1.122.16 2.115 2.115 0 010-4.23 4.013 4.013 0 011.122.16l.105-.51a4.041 4.041 0 00-1.291-.2 2.665 2.665 0 000 5.33 4.74 4.74 0 001.291-.19zm6.149.11V1.99h-.614v2.62a1.866 1.866 0 01-1.725 2.05 1.1 1.1 0 01-1.227-1.3V1.99h-.625v3.42a1.64 1.64 0 001.768 1.82 2.056 2.056 0 001.809-1.06v.98h.614zm4.2.06v-.53h-.455a.692.692 0 01-.752-.85V.1h-.614v5.69a1.224 1.224 0 001.323 1.42h.5zm6.445-2.64a2.415 2.415 0 10-2.4 2.66 2.462 2.462 0 002.402-2.66zm-.614 0a1.81 1.81 0 11-1.788-2.12 1.847 1.847 0 011.79 2.12zm6.106 1.3c0-.75-.359-1.05-1.809-1.64-1-.4-1.207-.62-1.207-1.05 0-.51.35-.73 1.239-.73a6.176 6.176 0 011.46.19l.1-.5a5.258 5.258 0 00-1.587-.24c-1.016 0-1.82.38-1.82 1.22 0 .69.253 1.11 1.428 1.58 1.334.54 1.588.67 1.588 1.15 0 .57-.551.83-1.366.83a4.061 4.061 0 01-1.65-.39l-.17.48a4.256 4.256 0 001.842.46c1.214 0 1.954-.55 1.954-1.36zm9.187 1.28V.1h-.614v2.84a1.848 1.848 0 00-1.694-1.04c-1.619 0-2.275 1.39-2.275 2.67a2.373 2.373 0 002.275 2.66A1.857 1.857 0 0051.81 6.2v.95h.614zm-.614-2.58c0 1.14-.572 2.11-1.672 2.11s-1.672-.95-1.672-2.11.571-2.12 1.672-2.12 1.674.97 1.674 2.12zm7.313.22v-.22c0-1.43-.773-2.67-2.276-2.67a2.446 2.446 0 00-2.381 2.67 2.517 2.517 0 002.678 2.66 5.924 5.924 0 001.682-.26l-.127-.51a5.86 5.86 0 01-1.566.22 1.865 1.865 0 01-2.032-1.89h4.022zm-.635-.53h-3.387a1.763 1.763 0 011.746-1.81 1.669 1.669 0 011.647 1.81zm10.16 2.89V6.6h-3.705V.1h-.635v7.05h4.34zm2.487-6.05v-1h-.794v1h.434l-.371 1.12h.35zm8.762 2.54a3.335 3.335 0 10-3.323 3.62 3.428 3.428 0 003.325-3.62zm-.635 0a2.715 2.715 0 11-2.688-3.1 2.795 2.795 0 012.69 3.1zm8.975 3.51L85.93 4.03a1.951 1.951 0 001.566-1.93 2 2 0 00-2.138-2h-3.185v7.05h.635V4.09h2.455l2.254 3.06h.72zM86.861 2.1a1.378 1.378 0 01-1.5 1.46h-2.55V.65h2.55a1.443 1.443 0 011.502 1.45zm8.033 5.05V6.6h-4.053V3.77h3.788v-.55h-3.788V.65h4.053V.1h-4.7v7.05h4.7zm7.853 0L99.815.1h-.465l-2.921 7.05h.645l.783-1.97h3.461l.783 1.97h.646zm-1.641-2.49h-3.037L99.582.87zm7.832 2.49V6.6h-3.7V.1h-.635v7.05h4.339zm2.54 0v-1h-.794v1h.434l-.37 1.12h.349zm9.98-2.58c0-1.28-.646-2.67-2.265-2.67a1.847 1.847 0 00-1.693 1.04V.1h-.625v7.05h.625V6.2a1.855 1.855 0 001.693 1.03c1.611 0 2.267-1.38 2.267-2.66zm-.614 0c0 1.16-.572 2.11-1.672 2.11s-1.672-.97-1.672-2.11.571-2.12 1.672-2.12 1.674.95 1.674 2.12zm6.307 2.58V3.62c0-1.01-.677-1.72-2.095-1.72a7.006 7.006 0 00-1.672.2l.085.51a9 9 0 011.566-.16c1.122 0 1.5.51 1.5 1.22v.59h-1.731a1.43 1.43 0 00-1.672 1.46 1.478 1.478 0 001.735 1.51 1.964 1.964 0 001.673-.73v.65h.613zm-.613-1.96a1.479 1.479 0 01-1.683 1.49.913.913 0 01-1.111-.92.891.891 0 011.1-.95h1.694v.38zm6.265.68c0-.75-.36-1.05-1.81-1.64-1-.4-1.206-.62-1.206-1.05 0-.51.349-.73 1.238-.73a6.176 6.176 0 011.46.19l.1-.5a5.264 5.264 0 00-1.588-.24c-1.016 0-1.82.38-1.82 1.22 0 .69.254 1.11 1.429 1.58 1.333.54 1.587.67 1.587 1.15 0 .57-.55.83-1.365.83a4.066 4.066 0 01-1.651-.39l-.169.48a4.252 4.252 0 001.841.46c1.215 0 1.956-.55 1.956-1.36zm5.641 1.28V3.62c0-1.01-.678-1.72-2.1-1.72a7.012 7.012 0 00-1.672.2l.085.51a9 9 0 011.566-.16c1.122 0 1.5.51 1.5 1.22v.59h-1.729a1.43 1.43 0 00-1.672 1.46 1.478 1.478 0 001.736 1.51 1.962 1.962 0 001.672-.73v.65h.614zm-.614-1.96a1.479 1.479 0 01-1.683 1.49.913.913 0 01-1.111-.92.891.891 0 011.1-.95h1.693v.38zm7.048 1.96V.1h-.613v2.84a1.849 1.849 0 00-1.694-1.04c-1.619 0-2.275 1.39-2.275 2.67a2.373 2.373 0 002.275 2.66 1.858 1.858 0 001.694-1.03v.95h.613zm-.613-2.58c0 1.14-.572 2.11-1.673 2.11s-1.672-.95-1.672-2.11.572-2.12 1.672-2.12 1.675.97 1.675 2.12zm7.482 0a2.415 2.415 0 10-2.4 2.66 2.463 2.463 0 002.402-2.66zm-.614 0a1.81 1.81 0 11-1.789-2.12 1.847 1.847 0 011.791 2.12zm6.106 1.3c0-.75-.359-1.05-1.809-1.64-1-.4-1.207-.62-1.207-1.05 0-.51.35-.73 1.238-.73a6.192 6.192 0 011.461.19l.095-.5a5.258 5.258 0 00-1.587-.24c-1.016 0-1.821.38-1.821 1.22 0 .69.254 1.11 1.429 1.58 1.334.54 1.588.67 1.588 1.15 0 .57-.551.83-1.366.83a4.07 4.07 0 01-1.651-.39l-.169.48a4.256 4.256 0 001.842.46c1.219 0 1.959-.55 1.959-1.36zm9.239-1.08v-.22c0-1.43-.772-2.67-2.275-2.67a2.446 2.446 0 00-2.381 2.67 2.516 2.516 0 002.677 2.66 5.931 5.931 0 001.683-.26l-.127-.51a5.86 5.86 0 01-1.566.22 1.865 1.865 0 01-2.032-1.89h4.021zm-.635-.53h-3.386a1.763 1.763 0 011.746-1.81 1.668 1.668 0 011.642 1.81zm6.89 2.89V3.73a1.647 1.647 0 00-1.767-1.83 2.039 2.039 0 00-1.8 1.06v-.97h-.622v5.16h.625V4.53a1.858 1.858 0 011.714-2.05 1.1 1.1 0 011.238 1.29v3.38h.614zm9.927-2.58c0-1.28-.656-2.67-2.265-2.67a1.848 1.848 0 00-1.693 1.04v-.95h-.624v6.99h.624V6.2a1.856 1.856 0 001.693 1.03c1.621 0 2.267-1.38 2.267-2.66zm-.614 0c0 1.16-.571 2.11-1.672 2.11s-1.672-.97-1.672-2.11.571-2.12 1.672-2.12 1.674.95 1.674 2.12zm6.308 2.58V3.62c0-1.01-.678-1.72-2.1-1.72a7.012 7.012 0 00-1.672.2l.085.51a9.006 9.006 0 011.566-.16c1.122 0 1.5.51 1.5 1.22v.59h-1.736a1.43 1.43 0 00-1.672 1.46 1.479 1.479 0 001.736 1.51 1.962 1.962 0 001.672-.73v.65h.614zm-.614-1.96a1.479 1.479 0 01-1.683 1.49.913.913 0 01-1.111-.92.891.891 0 011.1-.95h1.693v.38zm5.355-2.69v-.6a2.269 2.269 0 00-1.894 1.2V1.99h-.625v5.16h.625V4.57a2.021 2.021 0 011.893-2.07zm3.831 4.63l-.084-.47a3.537 3.537 0 01-.6.07c-.4 0-.592-.21-.592-.9V2.54h1.058v-.55h-1.058V.53h-.625v1.46h-.711v.55h.709v3.25c0 1.07.434 1.44 1.2 1.44a2.621 2.621 0 00.705-.1zm6.223-2.34v-.22c0-1.43-.773-2.67-2.275-2.67a2.447 2.447 0 00-2.382 2.67 2.517 2.517 0 002.678 2.66 5.936 5.936 0 001.683-.26l-.127-.51a5.872 5.872 0 01-1.567.22 1.865 1.865 0 01-2.032-1.89h4.022zm-.635-.53h-3.387a1.763 1.763 0 011.747-1.81 1.668 1.668 0 011.642 1.81zm9.927.53v-.22c0-1.43-.773-2.67-2.275-2.67a2.447 2.447 0 00-2.382 2.67 2.517 2.517 0 002.678 2.66 5.936 5.936 0 001.683-.26l-.127-.51a5.872 5.872 0 01-1.567.22 1.865 1.865 0 01-2.032-1.89h4.022zm-.635-.53h-3.387a1.763 1.763 0 011.747-1.81 1.668 1.668 0 011.642 1.81zm6.89 2.89V3.73a1.648 1.648 0 00-1.768-1.83 2.041 2.041 0 00-1.8 1.06v-.97h-.624v5.16h.624V4.53a1.858 1.858 0 011.715-2.05 1.1 1.1 0 011.238 1.29v3.38h.613zm9.556 0V.1h-.614v2.84a1.848 1.848 0 00-1.693-1.04c-1.619 0-2.275 1.39-2.275 2.67a2.372 2.372 0 002.275 2.66 1.856 1.856 0 001.693-1.03v.95h.614zm-.614-2.58c0 1.14-.571 2.11-1.672 2.11s-1.672-.95-1.672-2.11.572-2.12 1.672-2.12 1.674.97 1.674 2.12zm6.678 2.58V3.62c0-1.01-.677-1.72-2.1-1.72a7.006 7.006 0 00-1.672.2l.084.51a9.016 9.016 0 011.567-.16c1.121 0 1.5.51 1.5 1.22v.59h-1.735a1.43 1.43 0 00-1.672 1.46 1.478 1.478 0 001.735 1.51 1.961 1.961 0 001.672-.73v.65h.614zm-.614-1.96a1.479 1.479 0 01-1.682 1.49.913.913 0 01-1.111-.92.891.891 0 011.1-.95h1.693v.38zm4.922 1.94l-.085-.47a3.516 3.516 0 01-.6.07c-.4 0-.593-.21-.593-.9V2.54h1.058v-.55h-1.058V.53h-.624v1.46h-.709v.55h.709v3.25c0 1.07.434 1.44 1.2 1.44a2.631 2.631 0 00.704-.1zm6.392-2.56a2.415 2.415 0 10-2.4 2.66 2.462 2.462 0 002.402-2.66zm-.614 0a1.81 1.81 0 11-1.788-2.12 1.847 1.847 0 011.79 2.12zm6.107 1.3c0-.75-.36-1.05-1.81-1.64-1-.4-1.207-.62-1.207-1.05 0-.51.35-.73 1.239-.73a6.176 6.176 0 011.46.19l.095-.5a5.258 5.258 0 00-1.587-.24c-1.016 0-1.82.38-1.82 1.22 0 .69.254 1.11 1.428 1.58 1.334.54 1.588.67 1.588 1.15 0 .57-.551.83-1.366.83a4.061 4.061 0 01-1.65-.39l-.17.48a4.256 4.256 0 001.842.46c1.219 0 1.96-.55 1.96-1.36zm7.492-3.37v-.6a2.27 2.27 0 00-1.894 1.2V1.99h-.624v5.16h.624V4.57a2.021 2.021 0 011.896-2.07zm6.011 2.29v-.22c0-1.43-.772-2.67-2.275-2.67a2.446 2.446 0 00-2.381 2.67 2.516 2.516 0 002.677 2.66 5.931 5.931 0 001.683-.26l-.127-.51a5.86 5.86 0 01-1.566.22 1.865 1.865 0 01-2.032-1.89h4.021zm-.635-.53h-3.383a1.763 1.763 0 011.746-1.81 1.668 1.668 0 011.639 1.81zm7.282.31c0-1.28-.656-2.67-2.265-2.67a1.848 1.848 0 00-1.693 1.04v-.95h-.625v6.99h.625V6.2a1.856 1.856 0 001.693 1.03c1.621 0 2.267-1.38 2.267-2.66zm-.614 0c0 1.16-.572 2.11-1.672 2.11s-1.672-.97-1.672-2.11.571-2.12 1.672-2.12 1.674.95 1.674 2.12zm7.107 0a2.413 2.413 0 10-2.4 2.66 2.456 2.456 0 002.402-2.66zm-.61 0a1.811 1.811 0 11-1.79-2.12 1.848 1.848 0 011.792 2.12zm5.2-2.07v-.6a2.273 2.273 0 00-1.9 1.2V1.99h-.62v5.16h.62V4.57a2.024 2.024 0 011.902-2.07zm3.83 4.63l-.09-.47a3.462 3.462 0 01-.6.07c-.4 0-.59-.21-.59-.9V2.54h1.06v-.55h-1.06V.53h-.63v1.46h-.71v.55h.71v3.25c0 1.07.44 1.44 1.2 1.44a2.653 2.653 0 00.712-.1zm5.59.02V3.62c0-1.01-.68-1.72-2.1-1.72a7.007 7.007 0 00-1.67.2l.08.51a9.047 9.047 0 011.57-.16c1.12 0 1.5.51 1.5 1.22v.59h-1.73a1.436 1.436 0 00-1.68 1.46 1.481 1.481 0 001.74 1.51 1.952 1.952 0 001.67-.73v.65h.62zm-.62-1.96a1.475 1.475 0 01-1.68 1.49.912.912 0 01-1.11-.92.891.891 0 011.1-.95h1.69v.38zm7.05 1.96V.1h-.61v2.84a1.85 1.85 0 00-1.7-1.04c-1.62 0-2.27 1.39-2.27 2.67a2.374 2.374 0 002.27 2.66 1.858 1.858 0 001.7-1.03v.95h.612zm-.61-2.58c0 1.14-.57 2.11-1.68 2.11s-1.67-.95-1.67-2.11.57-2.12 1.67-2.12 1.682.97 1.682 2.12zm7.48 0a2.417 2.417 0 10-2.4 2.66 2.462 2.462 0 002.402-2.66zm-.61 0a1.811 1.811 0 11-1.79-2.12 1.848 1.848 0 011.792 2.12zm6.1 1.3c0-.75-.36-1.05-1.81-1.64-.99-.4-1.2-.62-1.2-1.05 0-.51.34-.73 1.23-.73a6.135 6.135 0 011.46.19l.1-.5a5.254 5.254 0 00-1.59-.24c-1.01 0-1.82.38-1.82 1.22 0 .69.26 1.11 1.43 1.58 1.33.54 1.59.67 1.59 1.15 0 .57-.55.83-1.37.83a4.077 4.077 0 01-1.65-.39l-.17.48a4.276 4.276 0 001.84.46c1.222 0 1.962-.55 1.962-1.36zm9.56-1.3c0-1.28-.66-2.67-2.27-2.67a1.845 1.845 0 00-1.69 1.04v-.95h-.62v6.99h.62V6.2a1.854 1.854 0 001.69 1.03c1.622 0 2.272-1.38 2.272-2.66zm-.62 0c0 1.16-.57 2.11-1.67 2.11s-1.67-.97-1.67-2.11.57-2.12 1.67-2.12 1.672.95 1.672 2.12zm7.12 0a2.417 2.417 0 10-2.41 2.66 2.464 2.464 0 002.412-2.66zm-.62 0a1.807 1.807 0 11-1.79-2.12 1.848 1.848 0 011.792 2.12zm5.2-2.07v-.6a2.287 2.287 0 00-1.9 1.2V1.99h-.62v5.16h.62V4.57a2.024 2.024 0 011.902-2.07zm10.62 4.65V.1h-.618v6.05L336.074.1h-.61v7.05h.61V1.08l4.52 6.07h.62zm3.21 0V1.99h-.61v5.16h.61zm0-6.01V.1h-.61v1.04h.61zm6.7 3.65v-.22c0-1.43-.77-2.67-2.28-2.67a2.447 2.447 0 00-2.38 2.67 2.519 2.519 0 002.68 2.66 5.885 5.885 0 001.68-.26l-.12-.51a5.909 5.909 0 01-1.57.22 1.858 1.858 0 01-2.03-1.89h4.02zm-.63-.53h-3.39a1.757 1.757 0 011.74-1.81 1.676 1.676 0 011.652 1.81zm4.46 2.95v-.53h-.45a.7.7 0 01-.76-.85V.1h-.61v5.69a1.223 1.223 0 001.32 1.42h.5zm5.44-1.34c0-.75-.36-1.05-1.81-1.64-.99-.4-1.21-.62-1.21-1.05 0-.51.35-.73 1.24-.73a6.135 6.135 0 011.46.19l.1-.5a5.254 5.254 0 00-1.59-.24c-1.01 0-1.82.38-1.82 1.22 0 .69.26 1.11 1.43 1.58 1.33.54 1.59.67 1.59 1.15 0 .57-.55.83-1.37.83a4.077 4.077 0 01-1.65-.39l-.17.48a4.276 4.276 0 001.84.46c1.222 0 1.962-.55 1.962-1.36zm6.28-1.08v-.22c0-1.43-.78-2.67-2.28-2.67a2.447 2.447 0 00-2.38 2.67 2.519 2.519 0 002.68 2.66 5.885 5.885 0 001.68-.26l-.13-.51a5.84 5.84 0 01-1.56.22 1.858 1.858 0 01-2.03-1.89h4.02zm-.64-.53h-3.38a1.757 1.757 0 011.74-1.81 1.663 1.663 0 011.642 1.81zm6.89 2.89V3.73a1.647 1.647 0 00-1.77-1.83 2.03 2.03 0 00-1.79 1.06v-.97h-.63v5.16h.63V4.53a1.853 1.853 0 011.71-2.05 1.1 1.1 0 011.24 1.29v3.38h.61zm12.98 0V3.73a1.637 1.637 0 00-1.75-1.83 2.14 2.14 0 00-1.86 1.09 1.577 1.577 0 00-1.64-1.09 1.971 1.971 0 00-1.76 1.06v-.97h-.62v5.16h.62V4.53a1.832 1.832 0 011.67-2.05 1.078 1.078 0 011.21 1.29v3.38h.62V4.52a1.823 1.823 0 011.68-2.04 1.076 1.076 0 011.2 1.29v3.38h.63zm6.64-2.36v-.22c0-1.43-.77-2.67-2.27-2.67a2.441 2.441 0 00-2.38 2.67 2.511 2.511 0 002.67 2.66 6 6 0 001.69-.26l-.13-.51a5.855 5.855 0 01-1.57.22 1.868 1.868 0 01-2.03-1.89h4.02zm-.63-.53h-3.39a1.765 1.765 0 011.75-1.81 1.674 1.674 0 011.642 1.81zm6.91 2.89V.1h-.62v2.84a1.835 1.835 0 00-1.69-1.04c-1.62 0-2.27 1.39-2.27 2.67s.66 2.66 2.27 2.66a1.843 1.843 0 001.69-1.03v.95h.62zm-.62-2.58c0 1.14-.57 2.11-1.67 2.11s-1.67-.95-1.67-2.11.57-2.12 1.67-2.12 1.672.97 1.672 2.12zm3.67 2.58V1.99h-.62v5.16h.62zm0-6.01V.1h-.62v1.04h.62zm6.06 6.01V3.62c0-1.01-.68-1.72-2.09-1.72a7.029 7.029 0 00-1.68.2l.09.51a8.945 8.945 0 011.56-.16c1.13 0 1.51.51 1.51 1.22v.59h-1.74a1.428 1.428 0 00-1.67 1.46 1.477 1.477 0 001.73 1.51 1.972 1.972 0 001.68-.73v.65h.61zm-.61-1.96a1.484 1.484 0 01-1.69 1.49.916.916 0 01-1.11-.92.891.891 0 011.1-.95h1.7v.38zm7.02 1.96V3.73a1.644 1.644 0 00-1.76-1.83 2.034 2.034 0 00-1.8 1.06v-.97h-.63v5.16h.63V4.53a1.853 1.853 0 011.71-2.05 1.1 1.1 0 011.24 1.29v3.38h.61zm4.47-.02l-.08-.47a3.682 3.682 0 01-.61.07c-.4 0-.59-.21-.59-.9V2.54h1.062v-.55h-1.06V.53h-.62v1.46h-.71v.55h.71v3.25c0 1.07.43 1.44 1.19 1.44a2.6 2.6 0 00.71-.1zm6.22-2.34v-.22c0-1.43-.77-2.67-2.27-2.67a2.441 2.441 0 00-2.38 2.67 2.511 2.511 0 002.67 2.66 6 6 0 001.69-.26l-.13-.51a5.855 5.855 0 01-1.57.22 1.868 1.868 0 01-2.03-1.89h4.02zm-.63-.53h-3.39a1.765 1.765 0 011.75-1.81 1.674 1.674 0 011.642 1.81zm9.92.53v-.22c0-1.43-.77-2.67-2.27-2.67a2.447 2.447 0 00-2.38 2.67 2.514 2.514 0 002.68 2.66 5.937 5.937 0 001.68-.26l-.13-.51a5.84 5.84 0 01-1.56.22 1.871 1.871 0 01-2.04-1.89h4.02zm-.63-.53h-3.39a1.765 1.765 0 011.75-1.81 1.668 1.668 0 011.642 1.81zm4.47 2.95v-.53h-.46a.69.69 0 01-.75-.85V.1h-.61v5.69a1.219 1.219 0 001.32 1.42h.5zm8.4-1.34c0-.75-.36-1.05-1.81-1.64-1-.4-1.21-.62-1.21-1.05 0-.51.35-.73 1.24-.73a6.135 6.135 0 011.46.19l.1-.5a5.3 5.3 0 00-1.59-.24c-1.02 0-1.82.38-1.82 1.22 0 .69.25 1.11 1.43 1.58 1.33.54 1.59.67 1.59 1.15 0 .57-.56.83-1.37.83a4.077 4.077 0 01-1.65-.39l-.17.48a4.276 4.276 0 001.84.46c1.222 0 1.962-.55 1.962-1.36zm6.27-1.08v-.22c0-1.43-.77-2.67-2.27-2.67a2.447 2.447 0 00-2.38 2.67 2.514 2.514 0 002.68 2.66 5.937 5.937 0 001.68-.26l-.13-.51a5.84 5.84 0 01-1.56.22 1.871 1.871 0 01-2.04-1.89h4.02zm-.63-.53h-3.39a1.765 1.765 0 011.75-1.81 1.668 1.668 0 011.642 1.81zm5.22-1.76v-.6a2.273 2.273 0 00-1.9 1.2V1.99h-.62v5.16h.62V4.57a2.024 2.024 0 011.902-2.07zm5.62-.51h-.62l-1.74 4.5-1.74-4.5h-.62l2.05 5.16h.61zm2.2 5.16V1.99h-.62v5.16h.62zm0-6.01V.1h-.62v1.04h.62zm6 5.9l-.11-.52a3.879 3.879 0 01-1.12.16 2.115 2.115 0 010-4.23 3.989 3.989 0 011.12.16l.11-.51a4.043 4.043 0 00-1.29-.2 2.665 2.665 0 000 5.33 4.738 4.738 0 001.292-.19zm2.68.11V1.99h-.62v5.16h.62zm0-6.01V.1h-.62v1.04h.62zm6.86 3.43a2.413 2.413 0 10-2.4 2.66 2.456 2.456 0 002.402-2.66zm-.61 0a1.811 1.811 0 11-1.79-2.12 1.848 1.848 0 011.792 2.12zm11.86 2.58l-2.3-3.12a1.951 1.951 0 001.56-1.93 2 2 0 00-2.13-2h-3.19v7.05h.64V4.09h2.45l2.26 3.06h.71zm-1.37-5.05a1.376 1.376 0 01-1.5 1.46h-2.55V.65h2.55a1.443 1.443 0 011.502 1.45zm7.44 2.69v-.22c0-1.43-.77-2.67-2.28-2.67a2.447 2.447 0 00-2.38 2.67 2.519 2.519 0 002.68 2.66 5.885 5.885 0 001.68-.26l-.12-.51a5.909 5.909 0 01-1.57.22 1.858 1.858 0 01-2.03-1.89h4.02zm-.64-.53h-3.38a1.757 1.757 0 011.74-1.81 1.663 1.663 0 011.642 1.81zm4.79 2.87l-.09-.47a3.462 3.462 0 01-.6.07c-.4 0-.59-.21-.59-.9V2.54h1.06v-.55h-1.06V.53h-.63v1.46h-.71v.55h.71v3.25c0 1.07.44 1.44 1.2 1.44a2.653 2.653 0 00.712-.1zm5.59.02V3.62c0-1.01-.68-1.72-2.1-1.72a7.007 7.007 0 00-1.67.2l.08.51a9.047 9.047 0 011.57-.16c1.12 0 1.5.51 1.5 1.22v.59h-1.73a1.436 1.436 0 00-1.68 1.46 1.481 1.481 0 001.74 1.51 1.965 1.965 0 001.67-.73v.65h.62zm-.62-1.96a1.475 1.475 0 01-1.68 1.49.912.912 0 01-1.11-.92.891.891 0 011.1-.95h1.69v.38zm3.45 1.96V1.99h-.61v5.16h.61zm0-6.01V.1h-.61v1.04h.61zm4.2 6.07v-.53h-.45a.69.69 0 01-.75-.85V.1h-.62v5.69a1.226 1.226 0 001.33 1.42h.49zm2.7-.06v-1h-.79v1h.43l-.37 1.12h.35zm9.98-2.58c0-1.28-.65-2.67-2.26-2.67a1.86 1.86 0 00-1.7 1.04v-.95h-.62v6.99h.622V6.2a1.869 1.869 0 001.7 1.03c1.62 0 2.26-1.38 2.26-2.66zm-.61 0c0 1.16-.57 2.11-1.67 2.11s-1.68-.97-1.68-2.11.58-2.12 1.68-2.12 1.672.95 1.672 2.12zm6.31 2.58V3.62c0-1.01-.68-1.72-2.1-1.72a7.007 7.007 0 00-1.67.2l.08.51a9.047 9.047 0 011.57-.16c1.12 0 1.5.51 1.5 1.22v.59h-1.73a1.436 1.436 0 00-1.68 1.46 1.481 1.481 0 001.74 1.51 1.965 1.965 0 001.67-.73v.65h.62zm-.62-1.96a1.475 1.475 0 01-1.68 1.49.912.912 0 01-1.11-.92.891.891 0 011.1-.95h1.69v.38zm5.36-2.69v-.6a2.273 2.273 0 00-1.9 1.2V1.99h-.62v5.16h.62V4.57a2.024 2.024 0 011.902-2.07zm5.37 4.65V3.62c0-1.01-.67-1.72-2.09-1.72a6.946 6.946 0 00-1.67.2l.08.51a9.047 9.047 0 011.57-.16c1.12 0 1.5.51 1.5 1.22v.59h-1.74a1.428 1.428 0 00-1.67 1.46 1.481 1.481 0 001.74 1.51 1.965 1.965 0 001.67-.73v.65h.61zm-.61-1.96a1.48 1.48 0 01-1.68 1.49.912.912 0 01-1.11-.92.888.888 0 011.1-.95h1.69v.38zM4.641 19.91v-.53h-.455a.692.692 0 01-.752-.85V12.8h-.613v5.69a1.223 1.223 0 001.322 1.42h.5zm5.641-.06v-3.53c0-1.01-.678-1.72-2.1-1.72a7.006 7.006 0 00-1.672.2l.085.51a9 9 0 011.566-.16c1.122 0 1.5.51 1.5 1.22v.59H7.934a1.43 1.43 0 00-1.672 1.46 1.478 1.478 0 001.736 1.51 1.962 1.962 0 001.672-.73v.65h.614zm-.614-1.96a1.479 1.479 0 01-1.683 1.49.913.913 0 01-1.111-.92.891.891 0 011.1-.95h1.693v.38zm9.366 1.85l-.106-.52a3.906 3.906 0 01-1.122.16 2.115 2.115 0 010-4.23 4 4 0 011.122.16l.106-.51a4.045 4.045 0 00-1.291-.2 2.665 2.665 0 000 5.33 4.745 4.745 0 001.293-.19zm5.694.11v-3.53c0-1.01-.678-1.72-2.1-1.72a7.006 7.006 0 00-1.672.2l.085.51a9 9 0 011.566-.16c1.122 0 1.5.51 1.5 1.22v.59h-1.736a1.43 1.43 0 00-1.672 1.46 1.478 1.478 0 001.736 1.51 1.962 1.962 0 001.672-.73v.65h.614zm-.614-1.96a1.479 1.479 0 01-1.683 1.49.913.913 0 01-1.111-.92.891.891 0 011.1-.95h1.694v.38zm4.921 1.94l-.085-.47a3.516 3.516 0 01-.6.07c-.4 0-.593-.21-.593-.9v-3.29h1.059v-.55h-1.059v-1.46h-.624v1.46h-.709v.55h.709v3.25c0 1.07.434 1.44 1.2 1.44a2.626 2.626 0 00.704-.1zm6.223-2.34v-.22c0-1.43-.773-2.67-2.276-2.67a2.446 2.446 0 00-2.381 2.67 2.517 2.517 0 002.678 2.66 5.924 5.924 0 001.682-.26l-.127-.51a5.86 5.86 0 01-1.566.22 1.865 1.865 0 01-2.032-1.89h4.022zm-.635-.53h-3.387a1.763 1.763 0 011.746-1.81 1.669 1.669 0 011.643 1.81zm6.858 2.49v-4.76h-.614v.95A1.958 1.958 0 0039.1 14.6c-1.556 0-2.2 1.24-2.2 2.6s.656 2.6 2.2 2.6a1.95 1.95 0 001.767-1.03v.67a1.563 1.563 0 01-1.852 1.79 5.724 5.724 0 01-1.545-.25l-.127.48a5.44 5.44 0 001.725.3 2.126 2.126 0 002.415-2.31zm-.614-2.25c0 1.26-.614 2.05-1.715 2.05-1.164 0-1.629-.9-1.629-2.05s.465-2.05 1.629-2.05c1.103 0 1.717.79 1.717 2.05zm7.429.07a2.415 2.415 0 10-2.4 2.66 2.462 2.462 0 002.398-2.66zm-.613 0a1.81 1.81 0 11-1.789-2.12 1.847 1.847 0 011.791 2.12zm5.2-2.07v-.6a2.272 2.272 0 00-1.895 1.2v-1.11h-.624v5.16h.624v-2.58a2.021 2.021 0 011.893-2.07zm2.36 4.65v-5.16h-.614v5.16h.614zm1.058-7.11h-.73l-1.016 1.28h.529zm5.006 7.11v-3.53c0-1.01-.677-1.72-2.1-1.72a7.014 7.014 0 00-1.673.2l.085.51a9.015 9.015 0 011.566-.16c1.122 0 1.5.51 1.5 1.22v.59H58.95a1.431 1.431 0 00-1.673 1.46 1.479 1.479 0 001.736 1.51 1.962 1.962 0 001.672-.73v.65h.614zm-.614-1.96a1.479 1.479 0 01-1.683 1.49.913.913 0 01-1.111-.92.891.891 0 011.1-.95h1.695v.38zm8.223-2.97v-1h-.444l.381-1.12h-.359l-.371 1.12v1h.794zm-1.63 0v-1h-.444l.381-1.12h-.36l-.37 1.12v1h.793zm9.007 4.81l-.127-.51a6.746 6.746 0 01-1.588.19 3.088 3.088 0 110-6.17 6.888 6.888 0 011.609.2l.106-.52a6.116 6.116 0 00-1.699-.23 3.626 3.626 0 00-3.884 3.63 3.664 3.664 0 003.884 3.64 6.282 6.282 0 001.7-.23zm4.741-4.53v-.6a2.272 2.272 0 00-1.895 1.2v-1.11h-.624v5.16h.624v-2.58a2.021 2.021 0 011.893-2.07zm6.011 2.29v-.22c0-1.43-.773-2.67-2.275-2.67a2.447 2.447 0 00-2.382 2.67 2.517 2.517 0 002.678 2.66 5.936 5.936 0 001.683-.26l-.127-.51a5.872 5.872 0 01-1.567.22 1.865 1.865 0 01-2.032-1.89h4.022zm-.635-.53h-3.387a1.763 1.763 0 011.747-1.81 1.668 1.668 0 011.638 1.81zm10.329 2.89v-3.42a1.632 1.632 0 00-1.746-1.83 2.141 2.141 0 00-1.863 1.09 1.565 1.565 0 00-1.64-1.09 1.975 1.975 0 00-1.757 1.06v-.97h-.624v5.16h.624v-2.62a1.83 1.83 0 011.672-2.05 1.077 1.077 0 011.207 1.29v3.38h.624v-2.63a1.82 1.82 0 011.672-2.04 1.077 1.077 0 011.207 1.29v3.38h.624zm6.011 0v-3.53c0-1.01-.677-1.72-2.1-1.72a7.006 7.006 0 00-1.672.2l.085.51a9 9 0 011.566-.16c1.122 0 1.5.51 1.5 1.22v.59h-1.736a1.43 1.43 0 00-1.672 1.46 1.478 1.478 0 001.736 1.51 1.963 1.963 0 001.672-.73v.65h.613zm-.613-1.96a1.479 1.479 0 01-1.683 1.49.913.913 0 01-1.111-.92.891.891 0 011.1-.95h1.694v.38zm6.265.68c0-.75-.36-1.05-1.81-1.64-1-.4-1.206-.62-1.206-1.05 0-.51.349-.73 1.238-.73a6.176 6.176 0 011.46.19l.1-.5a5.264 5.264 0 00-1.588-.24c-1.016 0-1.82.38-1.82 1.22 0 .69.254 1.11 1.429 1.58 1.333.54 1.587.67 1.587 1.15 0 .57-.55.83-1.365.83a4.066 4.066 0 01-1.651-.39l-.169.48a4.252 4.252 0 001.841.46c1.211 0 1.952-.55 1.952-1.36zm9.874-5.22v-.55h-4.741v7.05h.645v-3.38h3.821v-.55h-3.821v-2.57h4.1zm5.641 6.5v-3.53c0-1.01-.678-1.72-2.1-1.72a7.012 7.012 0 00-1.672.2l.085.51a9 9 0 011.566-.16c1.122 0 1.5.51 1.5 1.22v.59h-1.736a1.43 1.43 0 00-1.672 1.46 1.478 1.478 0 001.736 1.51 1.962 1.962 0 001.672-.73v.65h.614zm-.614-1.96a1.479 1.479 0 01-1.683 1.49.913.913 0 01-1.111-.92.891.891 0 011.1-.95h1.693v.38zm6.4 1.85l-.106-.52a3.906 3.906 0 01-1.122.16 2.115 2.115 0 010-4.23 4 4 0 011.122.16l.106-.51a4.045 4.045 0 00-1.291-.2 2.665 2.665 0 000 5.33 4.745 4.745 0 001.292-.19zm2.677.11v-5.16h-.614v5.16h.614zm0-6.01V12.8h-.614v1.04h.614zm6.064 6.01v-3.53c0-1.01-.677-1.72-2.1-1.72a7.006 7.006 0 00-1.672.2l.084.51a9.016 9.016 0 011.567-.16c1.122 0 1.5.51 1.5 1.22v.59h-1.729a1.43 1.43 0 00-1.672 1.46 1.478 1.478 0 001.735 1.51 1.964 1.964 0 001.673-.73v.65h.613zm-.613-1.96a1.479 1.479 0 01-1.683 1.49.913.913 0 01-1.111-.92.891.891 0 011.1-.95h1.694v.38zm4.6 2.02v-.53h-.455a.692.692 0 01-.751-.85V12.8h-.614v5.69a1.224 1.224 0 001.323 1.42h.5zm6.276-2.42v-.22c0-1.43-.772-2.67-2.275-2.67a2.446 2.446 0 00-2.381 2.67 2.516 2.516 0 002.677 2.66 5.936 5.936 0 001.683-.26l-.127-.51a5.867 5.867 0 01-1.567.22 1.864 1.864 0 01-2.031-1.89h4.021zm-.635-.53h-3.378a1.761 1.761 0 011.746-1.81 1.668 1.668 0 011.636 1.81zm6.128 1.61c0-.75-.36-1.05-1.81-1.64-1-.4-1.206-.62-1.206-1.05 0-.51.349-.73 1.238-.73a6.176 6.176 0 011.46.19l.1-.5a5.264 5.264 0 00-1.588-.24c-1.016 0-1.82.38-1.82 1.22 0 .69.254 1.11 1.429 1.58 1.333.54 1.587.67 1.587 1.15 0 .57-.55.83-1.365.83a4.066 4.066 0 01-1.651-.39l-.17.48a4.26 4.26 0 001.842.46c1.217 0 1.958-.55 1.958-1.36zm4.275-4.77v-1h-.793v1h.434l-.371 1.12h.349zm-1.629 0v-1h-.794v1h.442l-.371 1.12h.35zm10.456 4.77c0-.75-.36-1.05-1.81-1.64-1-.4-1.207-.62-1.207-1.05 0-.51.35-.73 1.239-.73a6.176 6.176 0 011.46.19l.1-.5a5.258 5.258 0 00-1.587-.24c-1.016 0-1.82.38-1.82 1.22 0 .69.254 1.11 1.428 1.58 1.334.54 1.588.67 1.588 1.15 0 .57-.551.83-1.365.83a4.066 4.066 0 01-1.651-.39l-.17.48a4.26 4.26 0 001.842.46c1.216 0 1.957-.55 1.957-1.36zm6.275-1.08v-.22c0-1.43-.772-2.67-2.275-2.67a2.446 2.446 0 00-2.381 2.67 2.516 2.516 0 002.677 2.66 5.931 5.931 0 001.683-.26l-.127-.51a5.86 5.86 0 01-1.566.22 1.865 1.865 0 01-2.032-1.89h4.021zm-.635-.53h-3.386a1.763 1.763 0 011.746-1.81 1.668 1.668 0 011.644 1.81zm6.858 2.49v-4.76h-.606v.95a1.96 1.96 0 00-1.768-1.04c-1.556 0-2.2 1.24-2.2 2.6s.656 2.6 2.2 2.6a1.951 1.951 0 001.768-1.03v.67a1.563 1.563 0 01-1.852 1.79 5.731 5.731 0 01-1.546-.25l-.127.48a5.444 5.444 0 001.725.3 2.125 2.125 0 002.41-2.31zm-.613-2.25c0 1.26-.614 2.05-1.715 2.05-1.164 0-1.63-.9-1.63-2.05s.466-2.05 1.63-2.05c1.105 0 1.722.79 1.722 2.05zm10.625 2.65v-3.42a1.632 1.632 0 00-1.746-1.83 2.141 2.141 0 00-1.863 1.09 1.566 1.566 0 00-1.64-1.09 1.975 1.975 0 00-1.757 1.06v-.97h-.624v5.16h.624v-2.62a1.83 1.83 0 011.672-2.05 1.078 1.078 0 011.207 1.29v3.38h.624v-2.63a1.82 1.82 0 011.672-2.04 1.078 1.078 0 011.207 1.29v3.38h.624zm6.646-2.36v-.22c0-1.43-.772-2.67-2.275-2.67a2.446 2.446 0 00-2.381 2.67 2.516 2.516 0 002.677 2.66 5.931 5.931 0 001.683-.26l-.127-.51a5.86 5.86 0 01-1.566.22 1.865 1.865 0 01-2.032-1.89h4.021zm-.635-.53h-3.386a1.763 1.763 0 011.746-1.81 1.668 1.668 0 011.644 1.81zm6.89 2.89v-3.42a1.647 1.647 0 00-1.767-1.83 2.039 2.039 0 00-1.8 1.06v-.97h-.625v5.16h.625v-2.62a1.858 1.858 0 011.714-2.05 1.1 1.1 0 011.238 1.29v3.38h.614zm4.466-.02l-.085-.47a3.516 3.516 0 01-.6.07c-.4 0-.592-.21-.592-.9v-3.29h1.058v-.55h-1.058v-1.46h-.625v1.46h-.709v.55h.709v3.25c0 1.07.434 1.44 1.2 1.44a2.621 2.621 0 00.706-.1zm6.392-2.56a2.415 2.415 0 10-2.4 2.66 2.462 2.462 0 002.404-2.66zm-.614 0a1.81 1.81 0 11-1.788-2.12 1.847 1.847 0 011.792 2.12zm8.065-2.35v-1h-.445l.381-1.12h-.36l-.37 1.12v1h.794zm-1.63 0v-1h-.445l.381-1.12h-.359l-.371 1.12v1h.796zm9.376 4.74v-2.92h-.571v2.52a8.659 8.659 0 01-1.524.15 3.037 3.037 0 01-3.217-3.09 2.968 2.968 0 013.217-3.08 7.993 7.993 0 011.757.2l.095-.52a7.457 7.457 0 00-1.831-.23 3.555 3.555 0 00-3.873 3.63 3.689 3.689 0 003.884 3.64 7.483 7.483 0 002.067-.3zm6.647-2.17v-.22c0-1.43-.773-2.67-2.276-2.67a2.446 2.446 0 00-2.381 2.67 2.517 2.517 0 002.678 2.66 5.924 5.924 0 001.682-.26l-.127-.51a5.86 5.86 0 01-1.566.22 1.865 1.865 0 01-2.032-1.89h4.022zm-.635-.53h-3.386a1.763 1.763 0 011.746-1.81 1.669 1.669 0 011.644 1.81zm4.466 2.95v-.53h-.452a.692.692 0 01-.752-.85V12.8h-.613v5.69a1.224 1.224 0 001.323 1.42h.5zm9.472-.06v-.55h-3.7v-6.5h-.635v7.05h4.339zm2.466 0v-5.16h-.61v5.16h.614zm0-6.01V12.8h-.61v1.04h.614zm10.064 6.01v-3.42a1.632 1.632 0 00-1.746-1.83 2.141 2.141 0 00-1.863 1.09 1.565 1.565 0 00-1.64-1.09 1.975 1.975 0 00-1.757 1.06v-.97h-.624v5.16h.624v-2.62a1.83 1.83 0 011.672-2.05 1.077 1.077 0 011.207 1.29v3.38h.624v-2.63a1.82 1.82 0 011.672-2.04 1.077 1.077 0 011.207 1.29v3.38h.624zm6.964-2.58c0-1.28-.656-2.67-2.265-2.67a1.848 1.848 0 00-1.693 1.04v-.95h-.625v6.99h.625V18.9a1.856 1.856 0 001.693 1.03c1.623 0 2.269-1.38 2.269-2.66zm-.614 0c0 1.16-.571 2.11-1.672 2.11s-1.672-.97-1.672-2.11.571-2.12 1.672-2.12 1.676.95 1.676 2.12zm3.292 2.58v-5.16h-.614v5.16h.618zm0-6.01V12.8h-.614v1.04h.618zm6.7 3.65v-.22c0-1.43-.77-2.67-2.28-2.67a2.447 2.447 0 00-2.38 2.67 2.519 2.519 0 002.68 2.66 5.885 5.885 0 001.68-.26l-.12-.51a5.909 5.909 0 01-1.57.22 1.858 1.858 0 01-2.03-1.89h4.024zm-.64-.53h-3.38a1.757 1.757 0 011.74-1.81 1.663 1.663 0 011.644 1.81zm6.64 2.89v-.55h-3.5l3.41-4.06v-.55h-3.92v.55h3.18l-3.43 4.06v.55h4.264zm5.8 0v-3.53c0-1.01-.68-1.72-2.1-1.72a7.007 7.007 0 00-1.67.2l.09.51a8.945 8.945 0 011.56-.16c1.12 0 1.51.51 1.51 1.22v.59h-1.74a1.428 1.428 0 00-1.67 1.46 1.473 1.473 0 001.73 1.51 1.972 1.972 0 001.68-.73v.65h.61zm-.61-1.96a1.484 1.484 0 01-1.69 1.49.912.912 0 01-1.11-.92.891.891 0 011.1-.95h1.7v.38zm5.1-4.09v-1h-.8v1h.44l-.37 1.12h.35zm-1.63 0v-1h-.8v1h.44l-.37 1.12h.35zm4.75 6.05v-1h-.8v1h.44l-.37 1.12h.35zm9.03 0v-3.53c0-1.01-.68-1.72-2.1-1.72a7.007 7.007 0 00-1.67.2l.08.51a9.047 9.047 0 011.57-.16c1.12 0 1.5.51 1.5 1.22v.59h-1.73a1.436 1.436 0 00-1.68 1.46 1.481 1.481 0 001.74 1.51 1.965 1.965 0 001.67-.73v.65h.62zm-.62-1.96a1.475 1.475 0 01-1.68 1.49.912.912 0 01-1.11-.92.891.891 0 011.1-.95h1.69v.38zm4.61 2.02v-.53h-.46a.69.69 0 01-.75-.85V12.8h-.61v5.69a1.219 1.219 0 001.32 1.42h.5zm8.6-.06v-3.53c0-1.01-.68-1.72-2.1-1.72a7.007 7.007 0 00-1.67.2l.09.51a8.945 8.945 0 011.56-.16c1.12 0 1.51.51 1.51 1.22v.59h-1.74a1.428 1.428 0 00-1.67 1.46 1.477 1.477 0 001.73 1.51 1.972 1.972 0 001.68-.73v.65h.61zm-.61-1.96a1.484 1.484 0 01-1.69 1.49.912.912 0 01-1.11-.92.891.891 0 011.1-.95h1.7v.38zm6.4 1.85l-.11-.52a3.879 3.879 0 01-1.12.16 2.115 2.115 0 010-4.23 3.989 3.989 0 011.12.16l.11-.51a4.043 4.043 0 00-1.29-.2 2.665 2.665 0 000 5.33 4.738 4.738 0 001.294-.19zm6.15.11v-5.16h-.62v2.62a1.86 1.86 0 01-1.72 2.05 1.1 1.1 0 01-1.23-1.3v-3.37h-.62v3.42a1.636 1.636 0 001.76 1.82 2.05 2.05 0 001.81-1.06v.98h.62zm10.06 0v-3.42a1.629 1.629 0 00-1.74-1.83 2.144 2.144 0 00-1.87 1.09 1.562 1.562 0 00-1.64-1.09 1.967 1.967 0 00-1.75 1.06v-.97h-.63v5.16h.63v-2.62a1.826 1.826 0 011.67-2.05 1.072 1.072 0 011.2 1.29v3.38h.63v-2.63a1.817 1.817 0 011.67-2.04 1.078 1.078 0 011.21 1.29v3.38h.62zm6.47 0v-5.16h-.62v2.62a1.86 1.86 0 01-1.72 2.05 1.1 1.1 0 01-1.23-1.3v-3.37h-.62v3.42a1.636 1.636 0 001.76 1.82 2.05 2.05 0 001.81-1.06v.98h.62zm4.2.06v-.53h-.46a.694.694 0 01-.75-.85V12.8h-.61v5.69a1.223 1.223 0 001.32 1.42h.5zm5.64-.06v-3.53c0-1.01-.68-1.72-2.09-1.72a7.029 7.029 0 00-1.68.2l.09.51a8.945 8.945 0 011.56-.16c1.13 0 1.51.51 1.51 1.22v.59h-1.74a1.428 1.428 0 00-1.67 1.46 1.477 1.477 0 001.73 1.51 1.972 1.972 0 001.68-.73v.65h.61zm-.61-1.96a1.484 1.484 0 01-1.69 1.49.916.916 0 01-1.11-.92.891.891 0 011.1-.95h1.7v.38zm7.05 1.96V12.8h-.62v2.84a1.845 1.845 0 00-1.69-1.04c-1.62 0-2.28 1.39-2.28 2.67a2.376 2.376 0 002.28 2.66 1.854 1.854 0 001.69-1.03v.95h.62zm-.62-2.58c0 1.14-.57 2.11-1.67 2.11s-1.67-.95-1.67-2.11.57-2.12 1.67-2.12 1.674.97 1.674 2.12zm7.48 0a2.413 2.413 0 10-2.4 2.66 2.462 2.462 0 002.404-2.66zm-.61 0a1.811 1.811 0 11-1.79-2.12 1.848 1.848 0 011.794 2.12zm9.85 2.58V12.8h-.61v2.84a1.845 1.845 0 00-1.69-1.04c-1.62 0-2.28 1.39-2.28 2.67a2.376 2.376 0 002.28 2.66 1.854 1.854 0 001.69-1.03v.95h.61zm-.61-2.58c0 1.14-.57 2.11-1.67 2.11s-1.68-.95-1.68-2.11.58-2.12 1.68-2.12 1.674.97 1.674 2.12zm7.31.22v-.22c0-1.43-.77-2.67-2.27-2.67a2.441 2.441 0 00-2.38 2.67 2.511 2.511 0 002.67 2.66 6 6 0 001.69-.26l-.13-.51a5.855 5.855 0 01-1.57.22 1.868 1.868 0 01-2.03-1.89h4.02zm-.63-.53h-3.39a1.765 1.765 0 011.75-1.81 1.674 1.674 0 011.644 1.81zm4.46 2.95v-.53h-.45a.69.69 0 01-.75-.85V12.8h-.62v5.69a1.226 1.226 0 001.33 1.42h.49zm8.61-.06v-3.53c0-1.01-.68-1.72-2.1-1.72a7.007 7.007 0 00-1.67.2l.08.51a9.047 9.047 0 011.57-.16c1.12 0 1.5.51 1.5 1.22v.59h-1.73a1.428 1.428 0 00-1.67 1.46 1.473 1.473 0 001.73 1.51 1.952 1.952 0 001.67-.73v.65h.62zm-.62-1.96a1.475 1.475 0 01-1.68 1.49.912.912 0 01-1.11-.92.891.891 0 011.1-.95h1.69v.38zm7.03 1.96v-3.42a1.647 1.647 0 00-1.77-1.83 2.045 2.045 0 00-1.8 1.06v-.97h-.62v5.16h.62v-2.62a1.86 1.86 0 011.72-2.05 1.1 1.1 0 011.24 1.29v3.38h.61zm-.58-6.72l-.42-.18a.659.659 0 01-.48.45 7.174 7.174 0 00-1.06-.39 1.068 1.068 0 00-.91.71l.41.19a.7.7 0 01.49-.44 7.3 7.3 0 001.06.38 1.079 1.079 0 00.914-.72zm7.4 4.14a2.417 2.417 0 10-2.41 2.66 2.464 2.464 0 002.414-2.66zm-.62 0a1.807 1.807 0 11-1.79-2.12 1.848 1.848 0 011.794 2.12zm10.14 2.58v-.55h-4.03c0-.95.39-1.32 2.31-2.49 1.13-.69 1.6-1.31 1.6-2.23 0-1.04-.73-1.78-2.4-1.78a6.671 6.671 0 00-2.05.33l.12.51a6.582 6.582 0 011.8-.29c1.3 0 1.92.39 1.92 1.25 0 .68-.33 1.16-1.63 1.94-1.79 1.06-2.3 1.64-2.3 2.82v.49h4.66zm7.09-3.47c0-2-.83-3.58-2.55-3.58s-2.56 1.58-2.56 3.58.85 3.58 2.56 3.58 2.554-1.58 2.554-3.58zm-.61 0c0 1.71-.57 3.03-1.94 3.03s-1.95-1.32-1.95-3.03.59-3.03 1.95-3.03 1.944 1.31 1.944 3.03zm4.7 3.47v-6.94h-.62l-1.99.4.1.47 1.89-.33v6.4h.62zm7.32-4.02c0-2.06-1.05-3.03-2.5-3.03a2.278 2.278 0 00-2.28 2.28 2.144 2.144 0 002.24 2.18 2.246 2.246 0 001.94-.9c-.18 1.87-1.15 3.05-2.98 3.05a7.971 7.971 0 01-.83-.06l-.07.51a4.2 4.2 0 00.86.1c2.324 0 3.624-1.55 3.624-4.13zm-.65-.73a1.723 1.723 0 01-1.87 1.61 1.5 1.5 0 01-1.65-1.61 1.658 1.658 0 011.69-1.75 1.693 1.693 0 011.834 1.75zm7.91 6.07a7.832 7.832 0 010-9.08l-.44-.31a8.03 8.03 0 000 9.7zm7.93-1.32V12.8h-.63v6.05l-4.52-6.05h-.61v7.05h.61v-6.07l4.52 6.07h.63zm7.02-2.58a2.413 2.413 0 10-2.4 2.66 2.462 2.462 0 002.404-2.66zm-.61 0a1.811 1.811 0 11-1.79-2.12 1.848 1.848 0 011.794 2.12zm6.55-2.58h-.61l-1.75 4.5-1.73-4.5h-.63l2.05 5.16h.62zm2.2 5.16v-5.16h-.61v5.16h.61zm0-6.01V12.8h-.61v1.04h.61zm6.7 3.65v-.22c0-1.43-.77-2.67-2.27-2.67a2.441 2.441 0 00-2.38 2.67 2.511 2.511 0 002.67 2.66 6 6 0 001.69-.26l-.13-.51a5.909 5.909 0 01-1.57.22 1.868 1.868 0 01-2.03-1.89h4.02zm-.63-.53h-3.39a1.765 1.765 0 011.75-1.81 1.674 1.674 0 011.644 1.81zm10.33 2.89v-3.42a1.637 1.637 0 00-1.75-1.83 2.14 2.14 0 00-1.86 1.09 1.577 1.577 0 00-1.64-1.09 1.971 1.971 0 00-1.76 1.06v-.97h-.62v5.16h.62v-2.62a1.826 1.826 0 011.67-2.05 1.078 1.078 0 011.21 1.29v3.38h.62v-2.63a1.823 1.823 0 011.67-2.04 1.078 1.078 0 011.21 1.29v3.38h.63zm6.96-2.58c0-1.28-.65-2.67-2.27-2.67a1.845 1.845 0 00-1.69 1.04V12.8h-.62v7.05h.62v-.95a1.854 1.854 0 001.69 1.03c1.614 0 2.274-1.38 2.274-2.66zm-.61 0c0 1.16-.58 2.11-1.68 2.11s-1.67-.97-1.67-2.11.57-2.12 1.67-2.12 1.684.95 1.684 2.12zm5.19-2.07v-.6a2.27 2.27 0 00-1.89 1.2v-1.11h-.63v5.16h.63v-2.58a2.016 2.016 0 011.894-2.07zm6.01 2.29v-.22c0-1.43-.77-2.67-2.27-2.67a2.447 2.447 0 00-2.38 2.67 2.511 2.511 0 002.67 2.66 6 6 0 001.69-.26l-.13-.51a5.855 5.855 0 01-1.57.22 1.868 1.868 0 01-2.03-1.89h4.02zm-.63-.53h-3.39a1.765 1.765 0 011.75-1.81 1.674 1.674 0 011.644 1.81zm10.16 2.89v-.55h-4.03c0-.95.39-1.32 2.3-2.49 1.14-.69 1.61-1.31 1.61-2.23 0-1.04-.73-1.78-2.4-1.78a6.671 6.671 0 00-2.05.33l.11.51a6.718 6.718 0 011.81-.29c1.29 0 1.92.39 1.92 1.25 0 .68-.33 1.16-1.63 1.94-1.79 1.06-2.3 1.64-2.3 2.82v.49h4.66zm7.09-3.47c0-2-.84-3.58-2.55-3.58s-2.56 1.58-2.56 3.58.84 3.58 2.56 3.58 2.554-1.58 2.554-3.58zm-.62 0c0 1.71-.57 3.03-1.93 3.03s-1.95-1.32-1.95-3.03.58-3.03 1.95-3.03 1.934 1.31 1.934 3.03zm4.7 3.47v-6.94h-.61l-1.99.4.1.47 1.89-.33v6.4h.61zm7.38-1.96a1.894 1.894 0 00-1.28-1.77 1.789 1.789 0 00.95-1.51 2.194 2.194 0 00-4.32 0 1.779 1.779 0 00.96 1.51 1.886 1.886 0 00-1.3 1.77 2.539 2.539 0 004.994 0zm-.61 0a1.929 1.929 0 01-3.77 0c0-.84.68-1.45 1.89-1.45s1.884.61 1.884 1.45zm-.33-3.28a1.575 1.575 0 11-1.55-1.27 1.346 1.346 0 011.554 1.27zm9.65 5.24v-3.53c0-1.01-.68-1.72-2.1-1.72a7.007 7.007 0 00-1.67.2l.09.51a8.945 8.945 0 011.56-.16c1.13 0 1.51.51 1.51 1.22v.59h-1.74a1.428 1.428 0 00-1.67 1.46 1.477 1.477 0 001.73 1.51 1.972 1.972 0 001.68-.73v.65h.61zm-.61-1.96a1.484 1.484 0 01-1.69 1.49.912.912 0 01-1.11-.92.891.891 0 011.1-.95h1.7v.38zM41.484 29.04a3.335 3.335 0 10-3.323 3.62 3.428 3.428 0 003.327-3.62zm-.635 0a2.715 2.715 0 11-2.688-3.1 2.8 2.8 0 012.692 3.1zm6.318 3.4l-.106-.52a3.9 3.9 0 01-1.121.16 2.115 2.115 0 010-4.23 4 4 0 011.121.16l.106-.51a4.041 4.041 0 00-1.291-.2 2.665 2.665 0 000 5.33 4.74 4.74 0 001.295-.19zm4.149.09l-.085-.47a3.516 3.516 0 01-.6.07c-.4 0-.593-.21-.593-.9v-3.29h1.056v-.55h-1.059v-1.46h-.624v1.46h-.709v.55h.709v3.25c0 1.07.434 1.44 1.2 1.44a2.626 2.626 0 00.709-.1zm6.043.02v-5.16h-.614v2.62a1.866 1.866 0 01-1.725 2.05 1.1 1.1 0 01-1.228-1.3v-3.37h-.624v3.42a1.64 1.64 0 001.767 1.82 2.057 2.057 0 001.81-1.06v.98h.614zm7.016-2.58c0-1.28-.645-2.67-2.264-2.67a1.849 1.849 0 00-1.694 1.04V25.5h-.623v7.05h.624v-.95a1.858 1.858 0 001.694 1.03c1.611 0 2.267-1.38 2.267-2.66zm-.613 0c0 1.16-.572 2.11-1.672 2.11s-1.673-.97-1.673-2.11.572-2.12 1.673-2.12 1.676.95 1.676 2.12zm5.2-2.07v-.6a2.269 2.269 0 00-1.894 1.2v-1.11h-.625v5.16h.625v-2.58a2.021 2.021 0 011.894-2.07zm6.011 2.29v-.22c0-1.43-.772-2.67-2.275-2.67a2.446 2.446 0 00-2.381 2.67 2.516 2.516 0 002.677 2.66 5.931 5.931 0 001.683-.26l-.127-.51a5.865 5.865 0 01-1.566.22 1.864 1.864 0 01-2.032-1.89h4.021zm-.635-.53h-3.386a1.761 1.761 0 011.746-1.81 1.668 1.668 0 011.64 1.81zm10.16 2.89V32h-4.032c0-.95.391-1.32 2.307-2.49 1.132-.69 1.609-1.31 1.609-2.23 0-1.04-.731-1.78-2.4-1.78a6.711 6.711 0 00-2.053.33l.116.51a6.63 6.63 0 011.81-.29c1.291 0 1.916.39 1.916 1.25 0 .68-.328 1.16-1.63 1.94-1.789 1.06-2.3 1.64-2.3 2.82v.49h4.653zm7.091-3.47c0-2-.836-3.58-2.551-3.58s-2.561 1.58-2.561 3.58.847 3.58 2.561 3.58 2.556-1.58 2.556-3.58zm-.614 0c0 1.71-.572 3.03-1.937 3.03s-1.947-1.32-1.947-3.03.582-3.03 1.947-3.03 1.937 1.31 1.937 3.03zm4.7 3.47v-6.94h-.614l-1.99.4.1.47 1.894-.33v6.4h.614zm7.323-4.02c0-2.06-1.047-3.03-2.5-3.03a2.281 2.281 0 00-2.286 2.28 2.149 2.149 0 002.243 2.18 2.229 2.229 0 001.937-.9c-.18 1.87-1.143 3.05-2.974 3.05a8.046 8.046 0 01-.836-.06l-.063.51a4.08 4.08 0 00.857.1c2.318 0 3.618-1.55 3.618-4.13zm-.645-.73a1.728 1.728 0 01-1.873 1.61 1.505 1.505 0 01-1.651-1.61 1.661 1.661 0 011.693-1.75 1.7 1.7 0 011.83 1.75zm4.466 1.53a8.1 8.1 0 00-1.63-4.85l-.444.31a7.837 7.837 0 010 9.08l.444.31a8.1 8.1 0 001.629-4.85zm10.032.64c0-1.28-.656-2.67-2.264-2.67a1.849 1.849 0 00-1.694 1.04v-.95h-.624v6.99h.625V31.6a1.858 1.858 0 001.694 1.03c1.617 0 2.262-1.38 2.262-2.66zm-.613 0c0 1.16-.572 2.11-1.672 2.11s-1.673-.97-1.673-2.11.572-2.12 1.673-2.12 1.671.95 1.671 2.12zm6.307 2.58v-3.53c0-1.01-.677-1.72-2.1-1.72a7 7 0 00-1.672.2l.084.51a9.016 9.016 0 011.567-.16c1.121 0 1.5.51 1.5 1.22v.59h-1.73a1.43 1.43 0 00-1.672 1.46 1.478 1.478 0 001.735 1.51 1.961 1.961 0 001.672-.73v.65h.614zm-.614-1.96a1.479 1.479 0 01-1.682 1.49.913.913 0 01-1.111-.92.891.891 0 011.1-.95h1.693v.38zm5.356-2.69v-.6a2.27 2.27 0 00-1.895 1.2v-1.11h-.624v5.16h.626v-2.58a2.021 2.021 0 011.892-2.07zm5.376 4.65v-3.53c0-1.01-.678-1.72-2.1-1.72a7.012 7.012 0 00-1.672.2l.085.51a9 9 0 011.566-.16c1.122 0 1.5.51 1.5 1.22v.59h-1.736a1.43 1.43 0 00-1.672 1.46 1.478 1.478 0 001.736 1.51 1.962 1.962 0 001.672-.73v.65h.614zm-.614-1.96a1.479 1.479 0 01-1.683 1.49.913.913 0 01-1.111-.92.891.891 0 011.1-.95h1.693v.38zm10.064-.4v-.22c0-1.43-.772-2.67-2.275-2.67a2.446 2.446 0 00-2.381 2.67 2.516 2.516 0 002.677 2.66 5.931 5.931 0 001.683-.26l-.127-.51a5.86 5.86 0 01-1.566.22 1.865 1.865 0 01-2.032-1.89h4.021zm-.635-.53h-3.384a1.763 1.763 0 011.746-1.81 1.668 1.668 0 011.637 1.81zm4.467 2.95v-.53h-.451a.692.692 0 01-.752-.85V25.5h-.614v5.69a1.224 1.224 0 001.323 1.42h.5zm12.6-.06v-3.42a1.632 1.632 0 00-1.746-1.83 2.141 2.141 0 00-1.863 1.09 1.566 1.566 0 00-1.64-1.09 1.973 1.973 0 00-1.757 1.06v-.97h-.624v5.16h.624v-2.62a1.83 1.83 0 011.672-2.05 1.078 1.078 0 011.207 1.29v3.38h.624v-2.63a1.82 1.82 0 011.672-2.04 1.078 1.078 0 011.207 1.29v3.38h.624zm6.646-2.36v-.22c0-1.43-.772-2.67-2.275-2.67a2.446 2.446 0 00-2.381 2.67 2.516 2.516 0 002.677 2.66 5.931 5.931 0 001.683-.26l-.127-.51a5.865 5.865 0 01-1.566.22 1.865 1.865 0 01-2.032-1.89h4.024zm-.635-.53h-3.386a1.763 1.763 0 011.746-1.81 1.668 1.668 0 011.643 1.81zm5.218-1.76v-.6a2.272 2.272 0 00-1.895 1.2v-1.11h-.624v5.16h.624v-2.58a2.021 2.021 0 011.898-2.07zm5.312 4.54l-.105-.52a3.91 3.91 0 01-1.122.16 2.115 2.115 0 010-4.23 4.013 4.013 0 011.122.16l.105-.51a4.041 4.041 0 00-1.291-.2 2.665 2.665 0 000 5.33 4.74 4.74 0 001.299-.19zm5.694.11v-3.53c0-1.01-.677-1.72-2.095-1.72a7 7 0 00-1.672.2l.084.51a9.016 9.016 0 011.567-.16c1.121 0 1.5.51 1.5 1.22v.59h-1.73a1.43 1.43 0 00-1.672 1.46 1.478 1.478 0 001.735 1.51 1.962 1.962 0 001.672-.73v.65h.614zm-.614-1.96a1.479 1.479 0 01-1.682 1.49.914.914 0 01-1.112-.92.891.891 0 011.1-.95h1.693v.38zm7.049 1.96V25.5h-.611v2.84a1.848 1.848 0 00-1.693-1.04c-1.62 0-2.276 1.39-2.276 2.67a2.373 2.373 0 002.276 2.66 1.856 1.856 0 001.693-1.03v.95h.614zm-.614-2.58c0 1.14-.572 2.11-1.672 2.11s-1.672-.95-1.672-2.11.571-2.12 1.672-2.12 1.675.97 1.675 2.12zm7.482 0a2.415 2.415 0 10-2.4 2.66 2.462 2.462 0 002.403-2.66zm-.614 0a1.81 1.81 0 11-1.788-2.12 1.847 1.847 0 011.791 2.12zm9.853 2.58V25.5h-.614v2.84a1.848 1.848 0 00-1.693-1.04c-1.619 0-2.275 1.39-2.275 2.67a2.372 2.372 0 002.275 2.66 1.856 1.856 0 001.693-1.03v.95h.614zm-.614-2.58c0 1.14-.571 2.11-1.672 2.11s-1.672-.95-1.672-2.11.572-2.12 1.672-2.12 1.675.97 1.675 2.12zm7.313.22v-.22c0-1.43-.772-2.67-2.275-2.67a2.446 2.446 0 00-2.381 2.67 2.516 2.516 0 002.677 2.66 5.931 5.931 0 001.683-.26l-.127-.51a5.86 5.86 0 01-1.566.22A1.865 1.865 0 01206 30.19h4.021zm-.635-.53H206a1.763 1.763 0 011.746-1.81 1.668 1.668 0 011.648 1.81zm10.763 2.77l-.127-.51a6.733 6.733 0 01-1.587.19 3.088 3.088 0 110-6.17 6.873 6.873 0 011.608.2l.106-.52a6.1 6.1 0 00-1.693-.23 3.626 3.626 0 00-3.884 3.63 3.664 3.664 0 003.884 3.64 6.269 6.269 0 001.696-.23zm6.4.12v-3.42a1.639 1.639 0 00-1.757-1.83 2.056 2.056 0 00-1.809 1.06V25.5h-.614v7.05h.625v-2.62a1.865 1.865 0 011.725-2.05 1.091 1.091 0 011.227 1.29v3.38h.614zm3.048 0v-5.16h-.603v5.16h.614zm0-6.01V25.5h-.603v1.04h.614zm4.2 6.07v-.53h-.455a.692.692 0 01-.752-.85V25.5h-.606v5.69a1.224 1.224 0 001.323 1.42h.5zm6.275-2.42v-.22c0-1.43-.772-2.67-2.275-2.67a2.446 2.446 0 00-2.381 2.67 2.516 2.516 0 002.677 2.66 5.931 5.931 0 001.683-.26l-.127-.51a5.86 5.86 0 01-1.566.22 1.865 1.865 0 01-2.032-1.89h4.021zm-.635-.53h-3.386a1.763 1.763 0 011.746-1.81 1.668 1.668 0 011.648 1.81zm3.493 2.89v-1h-.786v1h.794zm7.524 1.32a7.837 7.837 0 010-9.08l-.444-.31a8.03 8.03 0 000 9.7zm7.726-4.85c0-2.03-1.746-3.52-4.148-3.52h-1.408v7.05h1.408c2.41 0 4.156-1.49 4.156-3.53zm-.645 0a3.155 3.155 0 01-3.408 2.98h-.868v-5.95h.868a3.154 3.154 0 013.416 2.97zm6.868 1.17v-.22c0-1.43-.773-2.67-2.275-2.67a2.446 2.446 0 00-2.381 2.67 2.516 2.516 0 002.677 2.66 5.936 5.936 0 001.683-.26l-.127-.51a5.872 5.872 0 01-1.567.22 1.864 1.864 0 01-2.031-1.89h4.021zm-.635-.53h-3.374a1.761 1.761 0 011.746-1.81 1.668 1.668 0 011.636 1.81zm5.218-1.76v-.6a2.27 2.27 0 00-1.895 1.2v-1.11h-.624v5.16h.624v-2.58a2.021 2.021 0 011.903-2.07zm6.01 2.29v-.22c0-1.43-.77-2.67-2.27-2.67a2.447 2.447 0 00-2.386 2.67 2.516 2.516 0 002.676 2.66 5.885 5.885 0 001.68-.26l-.12-.51a5.909 5.909 0 01-1.57.22 1.864 1.864 0 01-2.031-1.89h4.021zm-.63-.53h-3.391a1.764 1.764 0 011.751-1.81 1.674 1.674 0 011.648 1.81zm6.26 2.78l-.1-.52a3.991 3.991 0 01-1.13.16 2.115 2.115 0 010-4.23 4.057 4.057 0 011.13.16l.1-.51a4.043 4.043 0 00-1.29-.2 2.665 2.665 0 000 5.33 4.738 4.738 0 001.298-.19zm6.25.11v-3.42a1.644 1.644 0 00-1.76-1.83 2.05 2.05 0 00-1.81 1.06V25.5h-.62v7.05h.62v-2.62a1.866 1.866 0 011.72-2.05 1.092 1.092 0 011.23 1.29v3.38h.62zm6.86-2.58a2.413 2.413 0 10-2.4 2.66 2.462 2.462 0 002.408-2.66zm-.61 0a1.811 1.811 0 11-1.79-2.12 1.848 1.848 0 011.798 2.12zm6.11 1.3c0-.75-.36-1.05-1.81-1.64-1-.4-1.21-.62-1.21-1.05 0-.51.35-.73 1.24-.73a6.2 6.2 0 011.46.19l.09-.5a5.237 5.237 0 00-1.58-.24c-1.02 0-1.82.38-1.82 1.22 0 .69.25 1.11 1.42 1.58 1.34.54 1.59.67 1.59 1.15 0 .57-.55.83-1.36.83a4.038 4.038 0 01-1.65-.39l-.17.48a4.2 4.2 0 001.84.46c1.228 0 1.968-.55 1.968-1.36zm7.49-3.37v-.6a2.287 2.287 0 00-1.9 1.2v-1.11h-.62v5.16h.62v-2.58a2.024 2.024 0 011.908-2.07zm6.01 2.29v-.22c0-1.43-.77-2.67-2.28-2.67a2.447 2.447 0 00-2.38 2.67 2.519 2.519 0 002.68 2.66 5.885 5.885 0 001.68-.26l-.12-.51a5.909 5.909 0 01-1.57.22 1.858 1.858 0 01-2.03-1.89h4.02zm-.63-.53h-3.39a1.757 1.757 0 011.74-1.81 1.676 1.676 0 011.658 1.81zm6.12 1.61c0-.75-.36-1.05-1.81-1.64-.99-.4-1.2-.62-1.2-1.05 0-.51.35-.73 1.23-.73a6.289 6.289 0 011.47.19l.09-.5a5.254 5.254 0 00-1.59-.24c-1.01 0-1.82.38-1.82 1.22 0 .69.26 1.11 1.43 1.58 1.33.54 1.59.67 1.59 1.15 0 .57-.55.83-1.37.83a4.077 4.077 0 01-1.65-.39l-.17.48a4.276 4.276 0 001.84.46c1.228 0 1.968-.55 1.968-1.36zm6.28-1.08v-.22c0-1.43-.77-2.67-2.28-2.67a2.447 2.447 0 00-2.38 2.67 2.519 2.519 0 002.68 2.66 5.885 5.885 0 001.68-.26l-.12-.51a5.909 5.909 0 01-1.57.22 1.858 1.858 0 01-2.03-1.89h4.02zm-.64-.53h-3.38a1.757 1.757 0 011.74-1.81 1.663 1.663 0 011.648 1.81zm5.22-1.76v-.6a2.257 2.257 0 00-1.89 1.2v-1.11h-.63v5.16h.63v-2.58a2.016 2.016 0 011.898-2.07zm5.62-.51h-.61l-1.75 4.5-1.73-4.5h-.63l2.05 5.16h.62zm5.22 5.16v-3.53c0-1.01-.68-1.72-2.1-1.72a7.007 7.007 0 00-1.67.2l.09.51a8.945 8.945 0 011.56-.16c1.12 0 1.5.51 1.5 1.22v.59h-1.73a1.428 1.428 0 00-1.67 1.46 1.473 1.473 0 001.73 1.51 1.952 1.952 0 001.67-.73v.65h.62zm-.62-1.96a1.475 1.475 0 01-1.68 1.49.912.912 0 01-1.11-.92.891.891 0 011.1-.95h1.69v.38zm7.05 1.96V25.5h-.61v2.84a1.845 1.845 0 00-1.69-1.04c-1.62 0-2.28 1.39-2.28 2.67a2.376 2.376 0 002.28 2.66 1.854 1.854 0 001.69-1.03v.95h.61zm-.61-2.58c0 1.14-.57 2.11-1.67 2.11s-1.68-.95-1.68-2.11.58-2.12 1.68-2.12 1.678.97 1.678 2.12zm7.48 0a2.413 2.413 0 10-2.4 2.66 2.462 2.462 0 002.408-2.66zm-.61 0a1.811 1.811 0 11-1.79-2.12 1.848 1.848 0 011.798 2.12zm6.1 1.3c0-.75-.36-1.05-1.81-1.64-.99-.4-1.2-.62-1.2-1.05 0-.51.35-.73 1.24-.73a6.274 6.274 0 011.46.19l.09-.5a5.254 5.254 0 00-1.59-.24c-1.01 0-1.82.38-1.82 1.22 0 .69.26 1.11 1.43 1.58 1.34.54 1.59.67 1.59 1.15 0 .57-.55.83-1.37.83a4.077 4.077 0 01-1.65-.39l-.17.48a4.284 4.284 0 001.85.46c1.218 0 1.958-.55 1.958-1.36zm9.48 1.28V32h-4.04c0-.95.4-1.32 2.31-2.49 1.13-.69 1.61-1.31 1.61-2.23 0-1.04-.73-1.78-2.4-1.78a6.787 6.787 0 00-2.06.33l.12.51a6.593 6.593 0 011.81-.29c1.29 0 1.92.39 1.92 1.25 0 .68-.33 1.16-1.63 1.94-1.79 1.06-2.3 1.64-2.3 2.82v.49h4.66zm7.09-3.47c0-2-.84-3.58-2.55-3.58s-2.57 1.58-2.57 3.58.85 3.58 2.57 3.58 2.558-1.58 2.558-3.58zm-.62 0c0 1.71-.57 3.03-1.93 3.03s-1.95-1.32-1.95-3.03.58-3.03 1.95-3.03 1.938 1.31 1.938 3.03zm7.23 3.47V32h-4.03c0-.95.39-1.32 2.31-2.49 1.13-.69 1.6-1.31 1.6-2.23 0-1.04-.73-1.78-2.4-1.78a6.671 6.671 0 00-2.05.33l.12.51a6.593 6.593 0 011.81-.29c1.29 0 1.91.39 1.91 1.25 0 .68-.33 1.16-1.63 1.94-1.79 1.06-2.3 1.64-2.3 2.82v.49h4.66zm7.09-3.47c0-2-.83-3.58-2.55-3.58s-2.56 1.58-2.56 3.58.85 3.58 2.56 3.58 2.558-1.58 2.558-3.58zm-.61 0c0 1.71-.57 3.03-1.94 3.03s-1.95-1.32-1.95-3.03.59-3.03 1.95-3.03 1.948 1.31 1.948 3.03zm3.42 3.47v-1h-.8v1h.44l-.37 1.12h.35zm10.13-6.5v-.55h-5.48v.55h2.43v6.5h.63v-6.5h2.42zm5.88 6.5v-3.42a1.639 1.639 0 00-1.76-1.83 2.061 2.061 0 00-1.81 1.06V25.5h-.61v7.05h.61v-2.62a1.867 1.867 0 011.73-2.05 1.089 1.089 0 011.22 1.29v3.38h.62zm6.7-2.36v-.22c0-1.43-.78-2.67-2.28-2.67a2.447 2.447 0 00-2.38 2.67 2.519 2.519 0 002.68 2.66 5.885 5.885 0 001.68-.26l-.13-.51a5.84 5.84 0 01-1.56.22 1.858 1.858 0 01-2.03-1.89h4.02zm-.64-.53h-3.38a1.757 1.757 0 011.74-1.81 1.663 1.663 0 011.648 1.81zm11.58 2.89V25.5h-.62v6.05l-4.52-6.05h-.62v7.05h.62v-6.07l4.52 6.07h.62zm3.21 0v-5.16h-.62v5.16h.62zm0-6.01V25.5h-.62v1.04h.62zm6.7 3.65v-.22c0-1.43-.78-2.67-2.28-2.67a2.447 2.447 0 00-2.38 2.67 2.514 2.514 0 002.68 2.66 5.937 5.937 0 001.68-.26l-.13-.51a5.84 5.84 0 01-1.56.22 1.871 1.871 0 01-2.04-1.89h4.03zm-.64-.53h-3.39a1.771 1.771 0 011.75-1.81 1.663 1.663 0 011.648 1.81zm4.47 2.95v-.53h-.46a.69.69 0 01-.75-.85V25.5h-.61v5.69a1.223 1.223 0 001.32 1.42h.5zm5.44-1.34c0-.75-.36-1.05-1.81-1.64-1-.4-1.21-.62-1.21-1.05 0-.51.35-.73 1.24-.73a6.135 6.135 0 011.46.19l.09-.5a5.237 5.237 0 00-1.58-.24c-1.02 0-1.82.38-1.82 1.22 0 .69.25 1.11 1.43 1.58 1.33.54 1.58.67 1.58 1.15 0 .57-.55.83-1.36.83a4.077 4.077 0 01-1.65-.39l-.17.48a4.24 4.24 0 001.84.46c1.228 0 1.968-.55 1.968-1.36zm6.27-1.08v-.22c0-1.43-.77-2.67-2.27-2.67a2.441 2.441 0 00-2.38 2.67 2.511 2.511 0 002.67 2.66 6 6 0 001.69-.26l-.13-.51a5.855 5.855 0 01-1.57.22 1.868 1.868 0 01-2.03-1.89h4.02zm-.63-.53h-3.39a1.765 1.765 0 011.75-1.81 1.674 1.674 0 011.648 1.81zm6.89 2.89v-3.42a1.651 1.651 0 00-1.77-1.83 2.045 2.045 0 00-1.8 1.06v-.97h-.62v5.16h.628v-2.62a1.86 1.86 0 011.72-2.05 1.1 1.1 0 011.23 1.29v3.38h.62zm10.44-.12l-.12-.51a6.846 6.846 0 01-1.59.19 3.088 3.088 0 110-6.17 6.889 6.889 0 011.61.2l.1-.52a6.056 6.056 0 00-1.69-.23 3.643 3.643 0 100 7.27 6.269 6.269 0 001.698-.23zm6.66-2.46a2.413 2.413 0 10-2.4 2.66 2.462 2.462 0 002.408-2.66zm-.61 0a1.811 1.811 0 11-1.79-2.12 1.848 1.848 0 011.798 2.12zm10.3 2.58v-3.42a1.629 1.629 0 00-1.74-1.83 2.128 2.128 0 00-1.86 1.09 1.582 1.582 0 00-1.65-1.09 1.967 1.967 0 00-1.75 1.06v-.97h-.63v5.16h.63v-2.62a1.826 1.826 0 011.67-2.05 1.078 1.078 0 011.21 1.29v3.38h.62v-2.63a1.823 1.823 0 011.67-2.04 1.078 1.078 0 011.21 1.29v3.38h.62zm6.97-2.58c0-1.28-.66-2.67-2.27-2.67a1.845 1.845 0 00-1.69 1.04v-.95h-.62v6.99h.62V31.6a1.854 1.854 0 001.69 1.03c1.628 0 2.278-1.38 2.278-2.66zm-.62 0c0 1.16-.57 2.11-1.67 2.11s-1.67-.97-1.67-2.11.57-2.12 1.67-2.12 1.678.95 1.678 2.12zm6.31 2.58v-3.53c0-1.01-.68-1.72-2.09-1.72a7.091 7.091 0 00-1.68.2l.09.51a8.945 8.945 0 011.56-.16c1.13 0 1.51.51 1.51 1.22v.59h-1.74a1.428 1.428 0 00-1.67 1.46 1.481 1.481 0 001.74 1.51 1.965 1.965 0 001.67-.73v.65h.61zm-.61-1.96a1.484 1.484 0 01-1.69 1.49.916.916 0 01-1.11-.92.891.891 0 011.1-.95h1.7v.38zm7.02 1.96v-3.42a1.644 1.644 0 00-1.76-1.83 2.034 2.034 0 00-1.8 1.06v-.97h-.63v5.16h.63v-2.62a1.86 1.86 0 011.71-2.05 1.1 1.1 0 011.24 1.29v3.38h.61zm6.23-5.16h-.62l-1.74 4.5-1.74-4.5h-.62l2.1 5.16-.74 1.83h.6z" fill="#10a5d8" fill-rule="evenodd"/></svg></svg>