<svg width="283" height="58" xmlns="http://www.w3.org/2000/svg" xmlns:xlink="http://www.w3.org/1999/xlink"><svg width="66.25" height="12.38" viewBox="-1 -1 130.5 22.75" x="209" y="41.03" xmlns="http://www.w3.org/2000/svg"><path d="M18.01 20.412L9.65.304H8.32L-.01 20.412h1.84l2.23-5.616h9.87l2.24 5.616h1.84zm-4.68-7.1H4.67L8.98 2.503zm21.83 6.763l-.36-1.449a19.631 19.631 0 01-4.53.543c-5.29 0-9.18-3.532-9.18-8.816s3.83-8.786 9.18-8.786a20.069 20.069 0 014.59.543l.3-1.479a17.624 17.624 0 00-4.83-.634c-6.71 0-11.08 4.559-11.08 10.356s4.56 10.386 11.08 10.386a18.107 18.107 0 004.83-.66zm18.28.332v-1.57H41.88v-8.062h10.81V9.212H41.88V1.876h11.56V.306h-13.4v20.106h13.4zM73.76 6.126a5.8 5.8 0 00-6.1-5.827h-9.11v20.113h1.81v-8.484h7.3a5.775 5.775 0 006.1-5.798zm-1.81 0a4.025 4.025 0 01-4.29 4.287h-7.3V1.869h7.3a4.219 4.219 0 014.29 4.261zM90.6 1.869V.299H74.96v1.57h6.91v18.543h1.82V1.873h6.91zm17.09 18.538L99.33.299H98l-8.33 20.113h1.84l2.24-5.616h9.87l2.23 5.616h1.84zm-4.68-7.095h-8.66l4.32-10.809zm25.51 7.095l-6.59-8.907A5.542 5.542 0 00126.4 6a5.706 5.706 0 00-6.1-5.706h-9.08v20.118h1.81v-8.726h7l6.43 8.726h2.06zm-3.93-14.4a3.934 3.934 0 01-4.29 4.167h-7.27v-8.3h7.27a4.118 4.118 0 014.29 4.138z" fill="#41c2f0" fill-rule="evenodd"/></svg><svg width="79.93" height="12.38" viewBox="-1 -1 157.85 22.75" x="129.07" y="41.03" xmlns="http://www.w3.org/2000/svg"><path d="M17.29 20.412l-6.58-8.907a5.542 5.542 0 004.47-5.5A5.706 5.706 0 009.08.299H-.01v20.113H1.8v-8.726h7.01l6.43 8.726h2.05zm-3.92-14.4a3.934 3.934 0 01-4.29 4.167H1.8v-8.3h7.28a4.124 4.124 0 014.29 4.133zm20.91 14.4v-1.57H22.71V10.78h10.81V9.212H22.71V1.876h11.57V.306H20.87v20.106h13.41zm19.2-.332l-.37-1.449a19.613 19.613 0 01-4.52.543c-5.29 0-9.18-3.532-9.18-8.816s3.83-8.786 9.18-8.786a20.069 20.069 0 014.59.543l.3-1.479a17.624 17.624 0 00-4.83-.634c-6.71 0-11.08 4.559-11.08 10.356s4.55 10.386 11.08 10.386a18.107 18.107 0 004.83-.665zm19.97.332V.303h-1.84v8.909H60.17V.306h-1.81v20.106h1.81v-9.6h11.44v9.6h1.84zm21.72 0L86.81.304h-1.33l-8.34 20.108h1.85l2.23-5.616h9.87l2.24 5.616h1.84zm-4.68-7.1h-8.67l4.32-10.809zm24.04 7.095v-1.57h-13.95L114.5 1.869V.299H98.86v1.57h13.46L98.43 18.837v1.57h16.1zm20.5 0L126.67.299h-1.33L117 20.407h1.85l2.23-5.616h9.87l2.24 5.616h1.84zm-4.68-7.095h-8.67L126 2.503zm25.5 7.095l-6.58-8.907a5.542 5.542 0 004.47-5.5 5.712 5.712 0 00-6.1-5.706h-9.09v20.118h1.81v-8.726h7.01l6.43 8.726h2.05zm-3.92-14.4a3.934 3.934 0 01-4.29 4.167h-7.28v-8.3h7.28a4.124 4.124 0 014.29 4.138z" fill="#41c2f0" fill-rule="evenodd"/></svg><svg width="129.07" height="30.11" viewBox="-1 -1 256.15 58.22" y="27.28" xmlns="http://www.w3.org/2000/svg"><path data-name="¿Buscas TRATAR la piel grasa?" d="M15.43 20.619l-.76-3.62a23.509 23.509 0 01-5.91.857c-2.86 0-4.19-.73-4.19-2.445 0-2.381 1.91-3.493 4.57-5.62L7.21 6.965C2.35 9.727 0 12.68 0 15.602c0 3.969 2.92 6.223 8.22 6.223a26.334 26.334 0 007.21-1.206zM10.32 5.282V.328H5.36v4.954h4.96zm24.76 10.1a5.25 5.25 0 00-4.03-5.017 4.735 4.735 0 003.3-4.54c0-3.3-2.44-5.494-6.48-5.494H17.36v21.148h11.53a6.112 6.112 0 006.19-6.1zm-4.76-.254c0 1.525-.92 2.572-2.89 2.572H22v-5.144h5.43c1.97-.003 2.89 1.045 2.89 2.569zm-.73-8.668c0 1.524-.92 2.54-2.89 2.54H22V4.078h4.7c1.97-.003 2.89.854 2.89 2.379zm26.6 6.223V.328h-4.76V12.68a4.767 4.767 0 11-9.53 0V.328h-4.76V12.68a9.533 9.533 0 0019.05 0zm20.1 2.8c0-3.906-2.16-4.605-6.64-6.351-4.25-1.651-5.59-2.032-5.59-3.366 0-1.238 1.05-1.651 4.03-1.651a28.282 28.282 0 016.9.857l.73-3.874A30.6 30.6 0 0068.03.012c-6 0-8.73 1.968-8.73 5.874 0 3.715 2.38 4.922 7.14 6.7 3.88 1.461 5.08 1.715 5.08 3.017 0 1.587-1.58 2.191-4.28 2.191a26.105 26.105 0 01-7.81-1.4l-.99 3.652a24.642 24.642 0 008.86 1.778c5.21.001 8.99-2.38 8.99-6.349zM95 .94a18.411 18.411 0 00-6.16-.921c-7.02 0-11.78 4.858-11.78 10.891s4.83 10.923 11.78 10.923a18.009 18.009 0 006.07-.984l-.96-3.874a15.746 15.746 0 01-4.44.635c-5.21 0-7.69-2.858-7.69-6.7s2.48-6.668 7.69-6.668a15.984 15.984 0 014.44.635zm20.62 20.544l-8-21.148h-4.38L95.2 21.484h4.67l1.65-4.35h7.81l1.62 4.35h4.67zm-7.46-7.938h-5.5l2.77-8.447zm25.41 1.937c0-3.906-2.16-4.605-6.63-6.351-4.26-1.651-5.59-2.032-5.59-3.366 0-1.238 1.04-1.651 4.03-1.651a28.2 28.2 0 016.89.857l.73-3.874a30.522 30.522 0 00-7.68-1.079c-6.01 0-8.74 1.968-8.74 5.874 0 3.715 2.39 4.922 7.15 6.7 3.87 1.461 5.08 1.715 5.08 3.017 0 1.587-1.59 2.191-4.29 2.191a26.215 26.215 0 01-7.81-1.4l-.98 3.652a24.559 24.559 0 008.86 1.778c5.2-.006 8.98-2.387 8.98-6.356zm23.56-10.987V.336h-18.64v4.16h6.95v16.988h4.76V4.488h6.93zm21.63 16.988l-6.09-8.288a6.563 6.563 0 003.9-6.065 6.778 6.778 0 00-6.95-6.8h-11.5v21.148h4.77V13.89h4.44l5.53 7.589h5.9zm-7.08-14.353a2.978 2.978 0 01-3.01 3.049h-5.78v-6h5.78a2.9 2.9 0 013.01 2.943zm27.42 14.353L191.09.336h-4.38l-8.03 21.148h4.67l1.65-4.35h7.81l1.62 4.35h4.67zm-7.47-7.938h-5.49l2.76-8.447zm22.78-9.05V.336h-18.64v4.16h6.96v16.988h4.76V4.488h6.92zm17.88 16.988L224.28.336h-4.38l-8.03 21.148h4.67l1.65-4.35H226l1.62 4.35h4.67zm-7.47-7.938h-5.49l2.76-8.447zm29.32 7.938l-6.09-8.288a6.563 6.563 0 003.9-6.065 6.778 6.778 0 00-6.95-6.8h-11.5v21.148h4.77V13.89h4.44l5.53 7.589h5.9zm-7.08-14.353a2.978 2.978 0 01-3.01 3.049h-5.78v-6h5.78a2.9 2.9 0 013.01 2.943zM16.22 55.872v-4.1H6.03V34.724H1.27v21.148h14.95zm21.93 0l-8.01-21.148h-4.38l-8.03 21.148h4.67l1.65-4.35h7.81l1.62 4.35h4.67zm-7.47-7.938h-5.49l2.76-8.447zm35.85-6.288a6.9 6.9 0 00-7.15-6.922H48.27v21.148H53v-7.208h6.38a6.976 6.976 0 007.15-7.018zm-4.89 0a3.121 3.121 0 01-3.05 3.176H53l.03-6.288h5.56a3.066 3.066 0 013.05 3.112zm13.55 14.226V34.724h-4.76v21.148h4.76zm21.61 0v-4.1H86.03v-4.76h10.16v-4.1H86.03v-4.1H96.8v-4.1H81.27v21.16H96.8zm19.42 0v-4.1h-10.19V34.724h-4.76v21.148h14.95zm27.58-.635V44.98h-4.45v6.8a18.933 18.933 0 01-3.11.222c-4.35 0-6.8-2.826-6.8-6.668 0-4.287 2.54-6.7 7.75-6.7a25.514 25.514 0 014.89.444l.64-4a26.937 26.937 0 00-6.13-.667c-6.8 0-11.91 4.446-11.91 10.924 0 6.033 4.51 10.891 11.97 10.891a31.355 31.355 0 007.15-.989zm25.11.635l-6.1-8.288a6.556 6.556 0 003.91-6.065 6.78 6.78 0 00-6.96-6.795h-11.49v21.148h4.76v-7.589h4.45l5.52 7.589h5.91zm-7.08-14.353a2.987 2.987 0 01-3.02 3.049h-5.78v-6h5.78a2.907 2.907 0 013.02 2.951zm29.32 14.353l-8.01-21.148h-4.38l-8.03 21.148h4.67l1.65-4.35h7.81l1.62 4.35h4.67zm-7.47-7.938h-5.49l2.76-8.447zM211 49.87c0-3.905-2.16-4.6-6.63-6.35-4.26-1.651-5.59-2.032-5.59-3.366 0-1.238 1.04-1.651 4.03-1.651a28.2 28.2 0 016.89.857l.73-3.874a30.522 30.522 0 00-7.68-1.08c-6.01 0-8.74 1.969-8.74 5.875 0 3.715 2.39 4.922 7.15 6.7 3.87 1.461 5.08 1.715 5.08 3.016 0 1.588-1.59 2.191-4.29 2.191a26.213 26.213 0 01-7.81-1.4l-.98 3.652a24.559 24.559 0 008.86 1.778c5.2.003 8.98-2.378 8.98-6.348zm22.15 6l-8.01-21.148h-4.38l-8.03 21.148h4.67l1.65-4.35h7.81l1.62 4.35h4.67zm-7.47-7.938h-5.49l2.76-8.447zm23.59-7.3c0-3.969-2.92-6.224-8.22-6.224a26.337 26.337 0 00-7.21 1.207l.76 3.62a23.509 23.509 0 015.91-.857c2.86 0 4.19.73 4.19 2.445 0 2.381-1.91 3.493-4.57 5.62l1.93 2.826c4.86-2.764 7.21-5.717 7.21-8.639zm-5.37 15.242V50.92h-4.95v4.954h4.95z" fill="#41c2f0" fill-rule="evenodd"/></svg><svg width="174.91" height="7.42" viewBox="-1 -1 347.81 12.84" y="19.86" xmlns="http://www.w3.org/2000/svg"><path data-name="Cálculos de L’OREAL, basados en parte en datos reportados por N" d="M2.79 3.506l-.06-.254a3.444 3.444 0 01-.79.1 1.543 1.543 0 110-3.084 3.479 3.479 0 01.8.1l.05-.259a3.005 3.005 0 00-.84-.112A1.808 1.808 0 00.01 1.812a1.829 1.829 0 001.94 1.82 3.167 3.167 0 00.84-.126zm2.6.059V1.806A.88.88 0 004.34.944a3.619 3.619 0 00-.84.1l.05.254a4.662 4.662 0 01.78-.079.6.6 0 01.75.608v.3h-.87a.71.71 0 00-.83.73.739.739 0 00.86.757.981.981 0 00.84-.365v.323h.31zm-.31-.979a.738.738 0 01-.84.746.461.461 0 01-.56-.46.448.448 0 01.55-.477h.85v.191zM5.22.01h-.37l-.51.64h.27zm1.84 3.586v-.264h-.22a.349.349 0 01-.38-.429V.041h-.31v2.846a.616.616 0 00.67.709h.24zm2.48-.084l-.06-.26a1.927 1.927 0 01-.56.08 1.058 1.058 0 010-2.116 2.041 2.041 0 01.56.079l.06-.254a2.081 2.081 0 00-.65-.1 1.333 1.333 0 000 2.666 2.517 2.517 0 00.65-.092zm2.75.053V.988h-.3v1.307a.937.937 0 01-.87 1.026.546.546 0 01-.61-.65V.988h-.31v1.709a.818.818 0 00.88.91 1.044 1.044 0 00.91-.529v.487h.3zm1.79.031v-.264h-.23a.349.349 0 01-.38-.429V.041h-.3v2.846a.61.61 0 00.66.709h.25zm2.9-1.322a1.207 1.207 0 10-1.2 1.333 1.23 1.23 0 001.2-1.33zm-.31 0a.9.9 0 11-.89-1.058.924.924 0 01.89 1.061zm2.74.651c0-.376-.18-.524-.91-.82-.49-.2-.6-.307-.6-.524 0-.254.18-.365.62-.365a3.21 3.21 0 01.73.1l.05-.249a2.683 2.683 0 00-.8-.121.739.739 0 00-.9.608.806.806 0 00.71.794c.67.269.79.333.79.571 0 .286-.27.418-.68.418a1.963 1.963 0 01-.82-.2l-.09.238a2.094 2.094 0 00.92.233.811.811 0 00.98-.68zm3.96.64V.041h-.31v1.418a.921.921 0 00-.85-.518 1.351 1.351 0 000 2.666.923.923 0 00.85-.518v.476h.31zm-.31-1.291a.859.859 0 11-.84-1.058.914.914 0 01.84 1.061zm3.34.111v-.111A1.185 1.185 0 0025.26.941a1.222 1.222 0 00-1.19 1.333 1.258 1.258 0 001.34 1.333 2.923 2.923 0 00.84-.132l-.06-.254a2.966 2.966 0 01-.78.111.935.935 0 01-1.02-.947h2.01zm-.32-.265h-1.69a.878.878 0 01.87-.9.834.834 0 01.82.903zm4.45 1.445V3.29h-1.85V.041h-.32v3.524h2.17zm.92-3.026v-.5h-.39v.5h.21l-.18.56h.17zm4.07 1.269a1.671 1.671 0 10-1.66 1.815 1.715 1.715 0 001.66-1.812zm-.32 0A1.358 1.358 0 1133.86.264a1.4 1.4 0 011.34 1.547zm4.17 1.757l-1.15-1.561a.971.971 0 00.78-.963 1 1 0 00-1.07-1h-1.59v3.524h.32V2.036h1.22l1.13 1.529h.36zm-.69-2.524a.689.689 0 01-.75.73h-1.27V.316h1.27a.722.722 0 01.75.728zm3.7 2.524V3.29h-2.03V1.877h1.9v-.271h-1.9V.32h2.03V.045h-2.35v3.524h2.35zm3.61 0L44.52.041h-.23l-1.46 3.524h.32l.39-.984h1.73l.4.984h.32zm-.82-1.244h-1.52l.76-1.893zm3.6 1.244V3.29h-1.85V.041h-.32v3.524h2.17zm.95 0v-.5h-.4v.5h.22l-.18.56h.17zm4.35-1.291A1.18 1.18 0 0052.94.941a.917.917 0 00-.84.518V.041h-.32v3.524h.32v-.476a.919.919 0 00.84.518 1.18 1.18 0 001.13-1.33zm-.3 0a.859.859 0 11-.84-1.058.914.914 0 01.84 1.061zm2.83 1.291V1.806a.872.872 0 00-1.04-.862 3.619 3.619 0 00-.84.1l.04.254a4.769 4.769 0 01.79-.079.6.6 0 01.75.608v.3h-.87a.718.718 0 00-.84.73.743.743 0 00.87.757 1.007 1.007 0 00.84-.365v.323h.3zm-.3-.979a.743.743 0 01-.84.746.461.461 0 01-.56-.46.444.444 0 01.55-.477h.85v.191zm2.81.339c0-.376-.18-.524-.9-.82-.5-.2-.61-.307-.61-.524 0-.254.18-.365.62-.365a3.137 3.137 0 01.73.1l.05-.249a2.622 2.622 0 00-.79-.121.744.744 0 00-.91.608.806.806 0 00.71.794c.67.269.8.333.8.571 0 .286-.28.418-.69.418a2 2 0 01-.82-.2l-.09.238a2.13 2.13 0 00.92.233.811.811 0 00.98-.68zm2.51.64V1.806a.88.88 0 00-1.05-.862 3.619 3.619 0 00-.84.1l.04.254a4.769 4.769 0 01.79-.079.6.6 0 01.75.608v.3h-.87a.718.718 0 00-.84.73.743.743 0 00.87.757 1.007 1.007 0 00.84-.365v.323h.31zm-.31-.979a.738.738 0 01-.84.746.461.461 0 01-.56-.46.448.448 0 01.55-.477h.85v.191zm3.2.979V.041h-.3v1.418a.932.932 0 00-.85-.518 1.349 1.349 0 000 2.666.934.934 0 00.85-.518v.476h.3zm-.3-1.291a.92.92 0 01-.84 1.058 1.089 1.089 0 010-2.116.919.919 0 01.84 1.061zm3.42 0a1.207 1.207 0 10-1.2 1.333 1.23 1.23 0 001.2-1.33zm-.31 0a.9.9 0 11-.89-1.058.924.924 0 01.89 1.061zm2.74.651c0-.376-.18-.524-.9-.82-.5-.2-.61-.307-.61-.524 0-.254.18-.365.62-.365a3.137 3.137 0 01.73.1l.05-.249a2.668 2.668 0 00-.79-.121.744.744 0 00-.91.608.806.806 0 00.71.794c.67.269.79.333.79.571 0 .286-.27.418-.68.418a2 2 0 01-.82-.2l-.09.238a2.13 2.13 0 00.92.233.811.811 0 00.98-.68zm3.99-.54v-.111A1.185 1.185 0 0072.91.941a1.222 1.222 0 00-1.19 1.333 1.258 1.258 0 001.34 1.333 3.03 3.03 0 00.84-.132l-.07-.254a2.966 2.966 0 01-.78.111.94.94 0 01-1.02-.947h2.02zm-.32-.265h-1.7a.893.893 0 01.88-.9.834.834 0 01.82.903zm3.12 1.445V1.856a.822.822 0 00-.88-.915 1.026 1.026 0 00-.9.529V.988h-.31v2.577h.31V2.258a.93.93 0 01.86-1.026.549.549 0 01.62.645v1.688h.3zm4.33-1.291A1.18 1.18 0 0080.05.941a.943.943 0 00-.85.518V.988h-.31V4.48h.31V3.089a.944.944 0 00.85.518 1.18 1.18 0 001.13-1.33zm-.3 0a.862.862 0 11-.84-1.058.914.914 0 01.84 1.061zm2.83 1.291V1.806a.876.876 0 00-1.04-.862 3.619 3.619 0 00-.84.1l.04.254a4.662 4.662 0 01.78-.079.609.609 0 01.76.608v.3h-.87a.718.718 0 00-.84.73.743.743 0 00.87.757 1.007 1.007 0 00.84-.365v.323h.3zm-.3-.979a.747.747 0 01-.85.746.457.457 0 01-.55-.46.444.444 0 01.55-.477h.85v.191zm2.36-1.344v-.3a1.133 1.133 0 00-.95.6v-.55h-.31v2.577h.31V2.278a1.009 1.009 0 01.95-1.033zm1.59 2.312l-.04-.233a1.616 1.616 0 01-.3.032c-.2 0-.3-.1-.3-.45v-1.64h.53V.988h-.53v-.73h-.31v.73h-.35v.275h.35v1.624a.576.576 0 00.6.72 1.217 1.217 0 00.35-.05zm2.8-1.169v-.111A1.185 1.185 0 0089.02.941a1.222 1.222 0 00-1.19 1.333 1.258 1.258 0 001.34 1.333 2.976 2.976 0 00.84-.132l-.06-.254a3.036 3.036 0 01-.79.111.932.932 0 01-1.01-.947h2.01zm-.32-.265h-1.69a.878.878 0 01.87-.9.834.834 0 01.82.903zm4.33.265v-.111A1.185 1.185 0 0093.03.941a1.222 1.222 0 00-1.19 1.333 1.258 1.258 0 001.34 1.333 2.976 2.976 0 00.84-.132l-.06-.254a2.98 2.98 0 01-.79.111.932.932 0 01-1.01-.947h2.01zm-.32-.265h-1.69a.878.878 0 01.87-.9.834.834 0 01.82.903zm3.13 1.445V1.856a.822.822 0 00-.88-.915 1.014 1.014 0 00-.9.529V.988h-.32v2.577h.32V2.258a.924.924 0 01.85-1.026.549.549 0 01.62.645v1.688h.31zm4.14 0V.041h-.3v1.418a.943.943 0 00-.85-.518 1.349 1.349 0 000 2.666.944.944 0 00.85-.518v.476h.3zm-.3-1.291a.862.862 0 11-.84-1.058.92.92 0 01.84 1.061zm3.02 1.291V1.806a.88.88 0 00-1.05-.862 3.619 3.619 0 00-.84.1l.05.254a4.662 4.662 0 01.78-.079.6.6 0 01.75.608v.3h-.87a.71.71 0 00-.83.73.735.735 0 00.86.757.994.994 0 00.84-.365v.323h.31zm-.31-.979a.738.738 0 01-.84.746.461.461 0 01-.56-.46.448.448 0 01.55-.477h.85v.191zm2.14.968l-.04-.233a1.616 1.616 0 01-.3.032c-.2 0-.3-.1-.3-.45v-1.64h.53V.988h-.53v-.73h-.31v.73h-.35v.275h.35v1.624a.576.576 0 00.6.72 1.217 1.217 0 00.35-.05zm2.88-1.28a1.207 1.207 0 10-1.2 1.333 1.23 1.23 0 001.2-1.33zm-.31 0a.9.9 0 11-.89-1.058.924.924 0 01.89 1.061zm2.74.651c0-.376-.18-.524-.9-.82-.5-.2-.61-.307-.61-.524 0-.254.18-.365.62-.365a3.137 3.137 0 01.73.1l.05-.249a2.668 2.668 0 00-.79-.121.744.744 0 00-.91.608.806.806 0 00.71.794c.67.269.79.333.79.571 0 .286-.27.418-.68.418a2 2 0 01-.82-.2l-.09.238a2.094 2.094 0 00.92.233.811.811 0 00.98-.68zm3.11-1.683v-.3a1.147 1.147 0 00-.95.6v-.55h-.31v2.577h.31V2.278a1.009 1.009 0 01.95-1.033zm2.69 1.143v-.111a1.185 1.185 0 00-1.14-1.333 1.222 1.222 0 00-1.19 1.333 1.258 1.258 0 001.34 1.333 2.923 2.923 0 00.84-.132l-.06-.254a2.98 2.98 0 01-.79.111.932.932 0 01-1.01-.947h2.01zm-.32-.265h-1.69a.878.878 0 01.87-.9.834.834 0 01.82.903zm3.33.154a1.187 1.187 0 00-1.14-1.333.917.917 0 00-.84.518V.988h-.32V4.48h.32V3.089a.919.919 0 00.84.518 1.187 1.187 0 001.14-1.33zm-.31 0a.859.859 0 11-.84-1.058.914.914 0 01.84 1.061zm3.24 0a1.211 1.211 0 10-1.2 1.333 1.23 1.23 0 001.2-1.33zm-.31 0a.9.9 0 11-.89-1.058.924.924 0 01.89 1.061zm2.28-1.032v-.3a1.147 1.147 0 00-.95.6v-.55h-.31v2.577h.31V2.278a1.009 1.009 0 01.95-1.033zm1.6 2.312l-.04-.233a1.718 1.718 0 01-.31.032c-.2 0-.29-.1-.29-.45v-1.64h.53V.988h-.53v-.73h-.31v.73h-.36v.275h.36v1.624c0 .535.21.72.59.72a1.278 1.278 0 00.36-.05zm2.47.011V1.806a.872.872 0 00-1.04-.862 3.619 3.619 0 00-.84.1l.04.254a4.769 4.769 0 01.79-.079.6.6 0 01.75.608v.3h-.87a.718.718 0 00-.84.73.743.743 0 00.87.757 1.007 1.007 0 00.84-.365v.323h.3zm-.3-.979a.738.738 0 01-.84.746.461.461 0 01-.56-.46.448.448 0 01.55-.477h.85v.191zm3.2.979V.041h-.3v1.418a.932.932 0 00-.85-.518 1.349 1.349 0 000 2.666.934.934 0 00.85-.518v.476h.3zm-.3-1.291a.92.92 0 01-.84 1.058 1.089 1.089 0 010-2.116.919.919 0 01.84 1.061zm3.42 0a1.207 1.207 0 10-1.2 1.333 1.23 1.23 0 001.2-1.33zm-.31 0a.9.9 0 11-.89-1.058.924.924 0 01.89 1.061zm2.74.651c0-.376-.18-.524-.9-.82-.5-.2-.61-.307-.61-.524 0-.254.18-.365.62-.365a3.137 3.137 0 01.73.1l.05-.249a2.668 2.668 0 00-.79-.121.744.744 0 00-.91.608.806.806 0 00.71.794c.67.269.79.333.79.571 0 .286-.27.418-.68.418a2 2 0 01-.82-.2l-.09.238a2.094 2.094 0 00.92.233.811.811 0 00.98-.68zm4.14-.651a1.18 1.18 0 00-1.13-1.333.943.943 0 00-.85.518V.988h-.31V4.48h.31V3.089a.944.944 0 00.85.518 1.18 1.18 0 001.13-1.33zm-.3 0a.862.862 0 11-.84-1.058.914.914 0 01.84 1.061zm3.24 0a1.211 1.211 0 10-1.21 1.333 1.232 1.232 0 001.21-1.33zm-.31 0a.931.931 0 01-.9 1.058 1.076 1.076 0 010-2.116.93.93 0 01.9 1.061zm2.28-1.032v-.3a1.147 1.147 0 00-.95.6v-.55H145v2.577h.31V2.278a1.009 1.009 0 01.95-1.033zm4.68 2.323V.041h-.32v3.026L148.37.041h-.31v3.524h.31V.536l2.25 3.032h.32zm1.28 0V.988h-.3v2.577h.3zm0-3V.046h-.3v.519h.3zm3.03 1.825v-.111a1.178 1.178 0 00-1.13-1.333 1.222 1.222 0 00-1.19 1.333 1.258 1.258 0 001.34 1.333 3.03 3.03 0 00.84-.132l-.07-.254a2.966 2.966 0 01-.78.111.94.94 0 01-1.02-.947h2.01zm-.31-.265h-1.7a.886.886 0 01.88-.9.84.84 0 01.82.898zm1.91 1.476v-.264h-.22a.349.349 0 01-.38-.429V.046h-.31v2.846a.614.614 0 00.66.709h.25zm2.4-.671c0-.376-.17-.524-.9-.82-.5-.2-.6-.307-.6-.524 0-.254.17-.365.62-.365a3.286 3.286 0 01.73.1l.04-.249a2.577 2.577 0 00-.79-.121.744.744 0 00-.91.608.816.816 0 00.71.794c.67.269.8.333.8.571 0 .286-.28.418-.68.418a2.008 2.008 0 01-.83-.2l-.08.238a2.059 2.059 0 00.92.233.806.806 0 00.97-.685zm2.83-.54v-.111a1.185 1.185 0 00-1.14-1.333 1.222 1.222 0 00-1.19 1.333 1.258 1.258 0 001.34 1.333 3.03 3.03 0 00.84-.132l-.07-.254a2.966 2.966 0 01-.78.111.94.94 0 01-1.02-.947h2.02zm-.32-.265h-1.7a.893.893 0 01.88-.9.834.834 0 01.82.898zm3.13 1.445V1.861a.829.829 0 00-.89-.915 1.026 1.026 0 00-.9.529V.993h-.31V3.57h.31V2.263a.93.93 0 01.86-1.026.549.549 0 01.62.645V3.57h.31zm5.85 0V1.861a.817.817 0 00-.88-.915 1.08 1.08 0 00-.93.545.775.775 0 00-.82-.545 1.006 1.006 0 00-.88.529V.993h-.31V3.57h.31V2.263a.917.917 0 01.84-1.026.536.536 0 01.6.645V3.57h.32V2.256a.905.905 0 01.83-1.021.536.536 0 01.6.645v1.688h.32zm3-1.18v-.111a1.178 1.178 0 00-1.13-1.333 1.216 1.216 0 00-1.19 1.333 1.256 1.256 0 001.33 1.333 2.923 2.923 0 00.84-.132l-.06-.254a2.966 2.966 0 01-.78.111.94.94 0 01-1.02-.947h2.01zm-.31-.265h-1.7a.886.886 0 01.88-.9.84.84 0 01.82.898zm3.13 1.445V.046h-.3v1.418a.932.932 0 00-.85-.518 1.349 1.349 0 000 2.666.934.934 0 00.85-.518v.476h.3zm-.3-1.291a.92.92 0 01-.84 1.058 1.089 1.089 0 010-2.116.919.919 0 01.84 1.056zm1.51 1.291V.993h-.31V3.57h.31zm0-3V.051h-.31V.57h.31zm2.71 3V1.806a.872.872 0 00-1.04-.862 3.619 3.619 0 00-.84.1l.04.254a4.769 4.769 0 01.79-.079.6.6 0 01.75.608v.3h-.87a.718.718 0 00-.84.73.743.743 0 00.87.757 1.007 1.007 0 00.84-.365v.323h.3zm-.3-.979a.738.738 0 01-.84.746.461.461 0 01-.56-.46.448.448 0 01.55-.477h.85v.191zm3.19.979V1.861a.822.822 0 00-.88-.915 1.026 1.026 0 00-.9.529V.993h-.31V3.57h.31V2.263a.93.93 0 01.86-1.026.549.549 0 01.62.645V3.57h.3zm1.92-.011l-.04-.233a1.616 1.616 0 01-.3.032c-.21 0-.3-.1-.3-.45v-1.64h.53V.993h-.53v-.73h-.31v.73h-.36v.275h.36v1.624c0 .535.21.72.6.72a1.265 1.265 0 00.35-.055zm2.79-1.169v-.111a1.178 1.178 0 00-1.13-1.333 1.216 1.216 0 00-1.19 1.333 1.256 1.256 0 001.33 1.333 3.041 3.041 0 00.85-.132l-.07-.254a2.966 2.966 0 01-.78.111.94.94 0 01-1.02-.947h2.01zm-.31-.265h-1.7a.886.886 0 01.88-.9.84.84 0 01.82.898zm4.32.265v-.111a1.178 1.178 0 00-1.13-1.333 1.222 1.222 0 00-1.19 1.333 1.258 1.258 0 001.34 1.333 3.03 3.03 0 00.84-.132l-.07-.254a2.966 2.966 0 01-.78.111.94.94 0 01-1.02-.947h2.01zm-.31-.265h-1.7a.886.886 0 01.88-.9.84.84 0 01.82.898zm1.91 1.476v-.264h-.22a.349.349 0 01-.38-.429V.046h-.31v2.846a.614.614 0 00.66.709h.25zm3.57-.671c0-.376-.18-.524-.91-.82-.49-.2-.6-.307-.6-.524 0-.254.18-.365.62-.365a3.21 3.21 0 01.73.1l.05-.249a2.683 2.683 0 00-.8-.121.749.749 0 00-.91.608.817.817 0 00.72.794c.67.269.79.333.79.571 0 .286-.27.418-.68.418a2.046 2.046 0 01-.83-.2l-.08.238a2.094 2.094 0 00.92.233.811.811 0 00.98-.685zm2.82-.54v-.111a1.185 1.185 0 00-1.14-1.333 1.222 1.222 0 00-1.19 1.333 1.258 1.258 0 001.34 1.333 2.976 2.976 0 00.84-.132l-.06-.254a2.98 2.98 0 01-.79.111.932.932 0 01-1.01-.947h2.01zm-.32-.265h-1.69a.878.878 0 01.87-.9.834.834 0 01.82.898zm2.29-.878v-.3a1.13 1.13 0 00-.94.6v-.55h-.32v2.577h.32V2.283a1 1 0 01.94-1.038zm2.5-.254h-.31l-.87 2.249-.87-2.249h-.31l1.02 2.577h.31zm.78 2.577V.993h-.31V3.57h.31zm0-3V.051h-.31V.57h.31zm2.68 2.952l-.05-.26a2.024 2.024 0 01-.56.08 1.058 1.058 0 010-2.116 2.1 2.1 0 01.56.079l.05-.254a2.019 2.019 0 00-.64-.1 1.333 1.333 0 000 2.666 2.383 2.383 0 00.64-.102zm1.02.053V.998h-.3v2.577h.3zm0-3V.056h-.3v.519h.3zm3.12 1.714a1.207 1.207 0 10-1.2 1.333 1.23 1.23 0 001.2-1.345zm-.31 0a.9.9 0 11-.89-1.058.924.924 0 01.89 1.046zm5.3 1.291l-1.15-1.561a.971.971 0 00.78-.963 1 1 0 00-1.07-1h-1.59V3.58h.32V2.051h1.22l1.13 1.529h.36zm-.69-2.524a.689.689 0 01-.75.73h-1.27V.331h1.27a.722.722 0 01.75.713zm3.4 1.344v-.111a1.178 1.178 0 00-1.13-1.333 1.222 1.222 0 00-1.19 1.333 1.256 1.256 0 001.33 1.333 3.041 3.041 0 00.85-.132l-.07-.254a2.966 2.966 0 01-.78.111.94.94 0 01-1.02-.947h2.01zm-.31-.265h-1.7a.886.886 0 01.88-.9.84.84 0 01.82.888zm2.07 1.434l-.04-.233a1.616 1.616 0 01-.3.032c-.2 0-.3-.1-.3-.45v-1.64h.53v-.275h-.53v-.73h-.31v.73h-.36v.275h.36v1.624a.576.576 0 00.6.72 1.217 1.217 0 00.35-.065zm2.48.011V1.806a.88.88 0 00-1.05-.862 3.619 3.619 0 00-.84.1l.05.254a4.662 4.662 0 01.78-.079.6.6 0 01.75.608v.3h-.87a.71.71 0 00-.83.73.739.739 0 00.86.757.981.981 0 00.84-.365v.323h.31zm-.31-.979a.738.738 0 01-.84.746.461.461 0 01-.56-.46.448.448 0 01.55-.477h.85v.191zm1.41.979V1.003h-.31V3.58h.31zm0-3V.061h-.31V.58h.31zm1.78 3.036v-.264h-.23a.346.346 0 01-.37-.429V.061h-.31v2.846a.614.614 0 00.66.709h.25zm1.03-.031v-.5h-.39v.5h.21l-.18.56h.17zm4.36-1.291a1.186 1.186 0 00-1.13-1.333.921.921 0 00-.85.518v-.471h-.31V4.5h.31V3.109a.923.923 0 00.85.518 1.186 1.186 0 001.13-1.35zm-.31 0a.859.859 0 11-.83-1.058.907.907 0 01.83 1.041zm2.84 1.291V1.806a.88.88 0 00-1.05-.862 3.619 3.619 0 00-.84.1l.05.254a4.662 4.662 0 01.78-.079.6.6 0 01.75.608v.3h-.87a.71.71 0 00-.83.73.739.739 0 00.86.757.981.981 0 00.84-.365v.323h.31zm-.31-.979a.738.738 0 01-.84.746.461.461 0 01-.56-.46.448.448 0 01.55-.477h.85v.191zm2.36-1.344v-.3a1.147 1.147 0 00-.95.6v-.55h-.31v2.577h.31V2.298a1.009 1.009 0 01.95-1.053zm2.37 2.323V1.806a.88.88 0 00-1.05-.862 3.6 3.6 0 00-.83.1l.04.254a4.662 4.662 0 01.78-.079.6.6 0 01.75.608v.3h-.86a.718.718 0 00-.84.73.743.743 0 00.87.757.974.974 0 00.83-.365v.323h.31zm-.31-.979a.738.738 0 01-.84.746.453.453 0 01-.55-.46.444.444 0 01.55-.477h.84v.191zm3.15 1.01v-.264h-.22a.349.349 0 01-.38-.429V.061h-.31v2.846a.614.614 0 00.66.709h.25zm2.51-.031V1.806a.88.88 0 00-1.05-.862 3.619 3.619 0 00-.84.1l.04.254a4.769 4.769 0 01.79-.079.6.6 0 01.75.608v.3h-.87a.71.71 0 00-.83.73.735.735 0 00.86.757.994.994 0 00.84-.365v.323h.31zm-.31-.979a.738.738 0 01-.84.746.461.461 0 01-.56-.46.448.448 0 01.55-.477h.85v.191zm4.05.926l-.06-.26a1.927 1.927 0 01-.56.08 1.058 1.058 0 010-2.116 2.041 2.041 0 01.56.079l.06-.254a2.081 2.081 0 00-.65-.1 1.333 1.333 0 000 2.666 2.517 2.517 0 00.65-.112zm2.53.053V1.806a.88.88 0 00-1.05-.862 3.619 3.619 0 00-.84.1l.04.254a4.871 4.871 0 01.79-.079.6.6 0 01.75.608v.3h-.87a.71.71 0 00-.83.73.735.735 0 00.86.757.994.994 0 00.84-.365v.323h.31zm-.31-.979a.738.738 0 01-.84.746.461.461 0 01-.56-.46.448.448 0 01.55-.477h.85v.191zm2.14.968l-.04-.233a1.616 1.616 0 01-.3.032c-.2 0-.3-.1-.3-.45v-1.64h.53v-.275h-.53v-.73h-.31v.73h-.35v.275h.35v1.624a.576.576 0 00.6.72 1.217 1.217 0 00.35-.07zm2.8-1.169v-.111a1.185 1.185 0 00-1.14-1.333 1.222 1.222 0 00-1.19 1.333 1.258 1.258 0 001.34 1.333 2.976 2.976 0 00.84-.132l-.07-.254a2.966 2.966 0 01-.78.111.927.927 0 01-1.01-.947h2.01zm-.32-.265h-1.69a.878.878 0 01.87-.9.834.834 0 01.82.883zm3.11 1.244V1.008h-.31v.471a.966.966 0 00-.88-.518 1.316 1.316 0 000 2.6.962.962 0 00.88-.513v.333a.78.78 0 01-.92.9 3.042 3.042 0 01-.78-.127l-.06.238a2.736 2.736 0 00.86.153 1.068 1.068 0 001.21-1.178zm-.31-1.122a.865.865 0 01-.85 1.021 1.049 1.049 0 010-2.047.869.869 0 01.85 1.009zm3.4.032a1.207 1.207 0 10-1.2 1.333 1.23 1.23 0 001.2-1.35zm-.31 0a.9.9 0 11-.89-1.058.924.924 0 01.89 1.041zm2.28-1.032v-.3a1.13 1.13 0 00-.94.6v-.55h-.31v2.577h.31V2.298a1.008 1.008 0 01.94-1.053zm.87 2.323V1.008h-.31v2.577h.31zm.53-3.555h-.37l-.51.64h.27zm2.18 3.555V1.806a.88.88 0 00-1.05-.862 3.6 3.6 0 00-.83.1l.04.254a4.662 4.662 0 01.78-.079.6.6 0 01.75.608v.3h-.86a.718.718 0 00-.84.73.743.743 0 00.87.757.974.974 0 00.83-.365v.323h.31zm-.31-.979a.738.738 0 01-.84.746.453.453 0 01-.55-.46.444.444 0 01.55-.477h.84v.191zm3.48-1.487v-.5h-.22l.19-.561h-.18l-.19.561v.5h.4zm-.81 0v-.5h-.23l.19-.561h-.18l-.18.561v.5h.4zm4.18 2.407l-.06-.254a3.461 3.461 0 01-.8.1 1.543 1.543 0 110-3.084 3.5 3.5 0 01.81.1l.05-.259a3.078 3.078 0 00-.85-.112 1.813 1.813 0 00-1.94 1.815 1.834 1.834 0 001.94 1.82 3.184 3.184 0 00.85-.146zm2.05-2.264v-.3a1.13 1.13 0 00-.94.6v-.55h-.31v2.577h.31V2.298a1.008 1.008 0 01.94-1.053zm2.69 1.143v-.111a1.178 1.178 0 00-1.13-1.333 1.224 1.224 0 00-1.2 1.333 1.264 1.264 0 001.34 1.333 2.923 2.923 0 00.84-.132l-.06-.254a2.966 2.966 0 01-.78.111.94.94 0 01-1.02-.947h2.01zm-.31-.265h-1.7a.886.886 0 01.88-.9.84.84 0 01.82.883zm4.84 1.445V1.876a.815.815 0 00-.87-.915 1.068 1.068 0 00-.93.545.79.79 0 00-.82-.545.983.983 0 00-.88.529v-.482h-.31v2.577h.31V2.278a.917.917 0 01.84-1.026.54.54 0 01.6.645v1.688h.31V2.256a.912.912 0 01.84-1.021.536.536 0 01.6.645v1.688h.31zm2.69 0V1.806a.88.88 0 00-1.05-.862 3.6 3.6 0 00-.83.1l.04.254a4.662 4.662 0 01.78-.079.6.6 0 01.75.608v.3h-.86a.718.718 0 00-.84.73.743.743 0 00.87.757.974.974 0 00.83-.365v.323h.31zm-.31-.979a.738.738 0 01-.84.746.453.453 0 01-.55-.46.444.444 0 01.55-.477h.84v.191zm2.82.339c0-.376-.18-.524-.91-.82-.49-.2-.6-.307-.6-.524 0-.254.18-.365.62-.365a3.21 3.21 0 01.73.1l.05-.249a2.683 2.683 0 00-.8-.121.749.749 0 00-.91.608.817.817 0 00.72.794c.66.269.79.333.79.571 0 .286-.27.418-.68.418a2.046 2.046 0 01-.83-.2l-.08.238a2.094 2.094 0 00.92.233.811.811 0 00.98-.7zm4.3-2.609V.061h-2.37v3.524h.32V1.897h1.91v-.291h-1.91V.32h2.05zm2.5 3.249V1.806a.876.876 0 00-1.04-.862 3.619 3.619 0 00-.84.1l.04.254a4.769 4.769 0 01.79-.079.6.6 0 01.75.608v.3h-.87a.718.718 0 00-.84.73.743.743 0 00.87.757 1.007 1.007 0 00.84-.365v.323h.3zm-.3-.979a.743.743 0 01-.84.746.461.461 0 01-.56-.46.444.444 0 01.55-.477h.85v.191zm2.88.926l-.05-.26a2.024 2.024 0 01-.56.08 1.058 1.058 0 010-2.116 2.1 2.1 0 01.56.079l.05-.254a2.064 2.064 0 00-.64-.1 1.333 1.333 0 000 2.666 2.383 2.383 0 00.64-.112zm1.02.053V1.008h-.3v2.577h.3zm0-3V.066h-.3v.519h.3zm2.72 3V1.806a.88.88 0 00-1.05-.862 3.619 3.619 0 00-.84.1l.05.254a4.662 4.662 0 01.78-.079.6.6 0 01.75.608v.3h-.87a.71.71 0 00-.83.73.735.735 0 00.86.757.994.994 0 00.84-.365v.323h.31zm-.31-.979a.738.738 0 01-.84.746.461.461 0 01-.56-.46.448.448 0 01.55-.477h.85v.191zm1.98 1.01v-.264h-.22a.349.349 0 01-.38-.429V.061h-.31v2.846a.616.616 0 00.67.709h.24zm2.82-1.211v-.111a1.178 1.178 0 00-1.13-1.333 1.222 1.222 0 00-1.19 1.333 1.256 1.256 0 001.33 1.333 3.041 3.041 0 00.85-.132l-.07-.254a2.966 2.966 0 01-.78.111.94.94 0 01-1.02-.947h2.01zm-.31-.265h-1.7a.886.886 0 01.88-.9.84.84 0 01.82.883zm2.74.805c0-.376-.18-.524-.9-.82-.5-.2-.6-.307-.6-.524 0-.254.17-.365.61-.365a3.137 3.137 0 01.73.1l.05-.249a2.577 2.577 0 00-.79-.121.744.744 0 00-.91.608.816.816 0 00.71.794c.67.269.8.333.8.571 0 .286-.28.418-.69.418a2 2 0 01-.82-.2l-.09.238a2.13 2.13 0 00.92.233.811.811 0 00.98-.7zm1.82-2.386v-.5h-.39v.5h.21l-.18.56h.17zm-.81 0v-.5h-.4v.5h.22l-.19.56h.18zm4.59 2.386c0-.376-.18-.524-.9-.82-.5-.2-.61-.307-.61-.524 0-.254.18-.365.62-.365a3.137 3.137 0 01.73.1l.05-.249a2.622 2.622 0 00-.79-.121.744.744 0 00-.91.608.806.806 0 00.71.794c.67.269.79.333.79.571 0 .286-.27.418-.68.418a2 2 0 01-.82-.2l-.09.238a2.13 2.13 0 00.92.233.811.811 0 00.98-.7zm2.82-.54v-.111a1.18 1.18 0 00-1.14-1.333 1.222 1.222 0 00-1.19 1.333 1.264 1.264 0 001.34 1.333 2.923 2.923 0 00.84-.132l-.06-.254a2.966 2.966 0 01-.78.111.935.935 0 01-1.02-.947h2.01zm-.32-.265h-1.69a.878.878 0 01.87-.9.828.828 0 01.82.883zm3.12 1.244V1.008h-.31v.471a.988.988 0 00-.88-.518 1.316 1.316 0 000 2.6.983.983 0 00.88-.513v.333a.783.783 0 01-.93.9 2.9 2.9 0 01-.77-.127l-.06.238a2.736 2.736 0 00.86.153 1.068 1.068 0 001.21-1.178zm-.31-1.122a.871.871 0 01-.86 1.021 1.052 1.052 0 010-2.047.876.876 0 01.86 1.009zm4.99 1.323V1.876a.815.815 0 00-.87-.915 1.068 1.068 0 00-.93.545.79.79 0 00-.82-.545.994.994 0 00-.88.529v-.482h-.31v2.577h.31V2.278a.917.917 0 01.84-1.026.536.536 0 01.6.645v1.688h.31V2.256a.912.912 0 01.84-1.021.536.536 0 01.6.645v1.688h.31zm3.01-1.18v-.111a1.185 1.185 0 00-1.14-1.333 1.222 1.222 0 00-1.19 1.333 1.258 1.258 0 001.34 1.333 2.923 2.923 0 00.84-.132l-.06-.254a2.966 2.966 0 01-.78.111.935.935 0 01-1.02-.947h2.01zm-.32-.265h-1.69a.878.878 0 01.87-.9.834.834 0 01.82.883zm3.13 1.445V1.876a.822.822 0 00-.88-.915 1.014 1.014 0 00-.9.529v-.482h-.32v2.577h.32V2.278a.93.93 0 01.85-1.026.549.549 0 01.62.645v1.688h.31zm1.92-.011l-.05-.233a1.616 1.616 0 01-.3.032c-.2 0-.29-.1-.29-.45v-1.64h.52v-.275h-.52v-.73h-.32v.73h-.35v.275h.35v1.624a.576.576 0 00.6.72 1.327 1.327 0 00.36-.07zm2.87-1.28a1.207 1.207 0 10-1.2 1.333 1.23 1.23 0 001.2-1.35zm-.3 0a.908.908 0 11-.9-1.058.931.931 0 01.9 1.041zm3.39-1.175v-.5h-.22l.19-.561h-.18l-.18.561v.5h.39zm-.81 0v-.5h-.22l.19-.561h-.18l-.19.561v.5h.4zm4.37 2.37v-1.46h-.29v1.259a4.013 4.013 0 01-.76.08 1.522 1.522 0 01-1.61-1.545 1.486 1.486 0 011.61-1.539 4 4 0 01.88.1l.05-.259a3.787 3.787 0 00-.92-.112 1.774 1.774 0 00-1.93 1.815 1.846 1.846 0 001.94 1.82 3.721 3.721 0 001.03-.176zm3.01-1.084v-.111a1.185 1.185 0 00-1.14-1.333 1.222 1.222 0 00-1.19 1.333 1.258 1.258 0 001.34 1.333 3.03 3.03 0 00.84-.132l-.07-.254a2.966 2.966 0 01-.78.111.927.927 0 01-1.01-.947h2.01zm-.32-.265h-1.69a.878.878 0 01.87-.9.834.834 0 01.82.883zm1.91 1.476v-.264h-.22a.349.349 0 01-.38-.429V.061h-.31v2.846a.616.616 0 00.67.709h.24zM2.49 9.935V9.66H.64V6.411H.32v3.524h2.17zm.92 0V7.358H3.1v2.577h.31zm0-3v-.519H3.1v.519h.31zm4.71 3V8.206a.815.815 0 00-.87-.915 1.068 1.068 0 00-.93.545.79.79 0 00-.82-.545.994.994 0 00-.88.529v-.482h-.31v2.577h.31V8.608a.917.917 0 01.84-1.026.54.54 0 01.6.645v1.688h.31V8.606a.912.912 0 01.84-1.021.536.536 0 01.6.645v1.688h.31zm3.17-1.291a1.187 1.187 0 00-1.14-1.333.917.917 0 00-.84.518v-.471H9v3.492h.31V9.458a.918.918 0 00.84.519 1.187 1.187 0 001.14-1.35zm-.31 0a.859.859 0 11-.84-1.058.914.914 0 01.84 1.041zm1.33 1.291V7.358H12v2.577h.31zm0-3v-.519H12v.519h.31zm3.03 1.825v-.111a1.185 1.185 0 00-1.14-1.333 1.222 1.222 0 00-1.19 1.333 1.264 1.264 0 001.34 1.333 2.923 2.923 0 00.84-.132l-.06-.254a2.966 2.966 0 01-.78.111.935.935 0 01-1.02-.947h2.01zm-.32-.265h-1.69a.878.878 0 01.87-.9.828.828 0 01.82.878zm3 1.445v-.275h-1.75l1.71-2.027v-.275h-1.96v.275h1.59L15.9 9.665v.275h2.12zm2.59 0V8.156a.88.88 0 00-1.05-.862 3.619 3.619 0 00-.84.1l.04.254a4.769 4.769 0 01.79-.079.6.6 0 01.75.608v.3h-.87a.71.71 0 00-.83.73.735.735 0 00.86.757.994.994 0 00.84-.365v.323h.31zm-.31-.979a.738.738 0 01-.84.746.461.461 0 01-.56-.46.448.448 0 01.55-.477h.85v.191zm2.23-2.047v-.5h-.39v.5h.21l-.18.56h.17zm-.81 0v-.5h-.4v.5h.22l-.19.56h.18zm2.06 3.026v-.5h-.4v.5h.22l-.19.56h.18zm3.87 0V8.156a.872.872 0 00-1.04-.862 3.619 3.619 0 00-.84.1l.04.254a4.769 4.769 0 01.79-.079.6.6 0 01.75.608v.3h-.87a.718.718 0 00-.84.73.743.743 0 00.87.757 1.007 1.007 0 00.84-.365v.323h.3zm-.3-.979a.743.743 0 01-.84.746.461.461 0 01-.56-.46.444.444 0 01.55-.477h.85v.191zm1.98 1.01v-.264h-.23a.346.346 0 01-.37-.429V6.416h-.31v2.846a.614.614 0 00.66.709h.25zM33 9.94V8.156a.88.88 0 00-1.05-.862 3.534 3.534 0 00-.83.1l.04.254a4.662 4.662 0 01.78-.079.6.6 0 01.75.608v.3h-.87a.71.71 0 00-.83.73.743.743 0 00.87.757.974.974 0 00.83-.365v.323H33zm-.31-.979a.738.738 0 01-.84.746.461.461 0 01-.56-.46.452.452 0 01.56-.477h.84v.191zm2.89.926l-.06-.26a1.927 1.927 0 01-.56.08 1.058 1.058 0 010-2.116 2.041 2.041 0 01.56.079l.06-.254a2.081 2.081 0 00-.65-.1 1.333 1.333 0 000 2.666 2.517 2.517 0 00.65-.117zm2.75.053V7.363h-.3V8.67a.937.937 0 01-.87 1.026.546.546 0 01-.61-.65V7.363h-.31v1.709a.818.818 0 00.88.91 1.044 1.044 0 00.91-.529v.487h.3zm4.72 0V8.206a.817.817 0 00-.88-.915 1.08 1.08 0 00-.93.545.775.775 0 00-.82-.545 1.006 1.006 0 00-.88.529v-.482h-.31v2.577h.31V8.608a.917.917 0 01.84-1.026.536.536 0 01.6.645v1.688h.32V8.606a.905.905 0 01.83-1.021.536.536 0 01.6.645v1.688h.32zm2.91 0V7.363h-.3V8.67a.937.937 0 01-.87 1.026.55.55 0 01-.61-.65V7.363h-.31v1.709a.818.818 0 00.88.91 1.044 1.044 0 00.91-.529v.487h.3zm1.79.031v-.264h-.23a.349.349 0 01-.38-.429V6.416h-.3v2.846a.61.61 0 00.66.709h.25zm2.5-.031V8.156a.88.88 0 00-1.05-.862 3.534 3.534 0 00-.83.1l.04.254a4.662 4.662 0 01.78-.079.6.6 0 01.75.608v.3h-.87a.71.71 0 00-.83.73.743.743 0 00.87.757.974.974 0 00.83-.365v.323h.31zm-.31-.979a.738.738 0 01-.84.746.453.453 0 01-.55-.46.444.444 0 01.55-.477h.84v.191zm3.21.979V6.416h-.31v1.418a.917.917 0 00-.84-.518 1.349 1.349 0 000 2.666.918.918 0 00.84-.519v.477h.31zm-.31-1.291a.859.859 0 11-.83-1.058.913.913 0 01.83 1.036zm3.43 0a1.211 1.211 0 10-1.21 1.333 1.232 1.232 0 001.21-1.355zm-.31 0a.931.931 0 01-.9 1.058 1.076 1.076 0 010-2.116.93.93 0 01.9 1.036zm4.29 1.291V6.416h-.31v1.418a.917.917 0 00-.84-.518 1.349 1.349 0 000 2.666.918.918 0 00.84-.519v.477h.31zm-.31-1.291a.859.859 0 11-.83-1.058.913.913 0 01.83 1.036zm3.34.111v-.111a1.18 1.18 0 00-1.14-1.333 1.222 1.222 0 00-1.19 1.333 1.264 1.264 0 001.34 1.333 2.923 2.923 0 00.84-.132l-.06-.254a2.966 2.966 0 01-.78.111.935.935 0 01-1.02-.947h2.01zm-.32-.265h-1.69a.878.878 0 01.87-.9.828.828 0 01.82.878zm1.92 1.476v-.264h-.23a.346.346 0 01-.37-.429V6.416h-.31v2.846a.61.61 0 00.66.709h.25zm3.67-.031V8.156a.88.88 0 00-1.05-.862 3.619 3.619 0 00-.84.1l.05.254a4.662 4.662 0 01.78-.079.6.6 0 01.75.608v.3h-.87a.71.71 0 00-.83.73.739.739 0 00.86.757.981.981 0 00.84-.365v.323h.31zm-.31-.979a.738.738 0 01-.84.746.461.461 0 01-.56-.46.448.448 0 01.55-.477h.85v.191zm3.2.979V8.206a.829.829 0 00-.89-.915 1.038 1.038 0 00-.9.529v-.482h-.31v2.577h.31V8.608a.93.93 0 01.86-1.026.549.549 0 01.62.645v1.688h.31zm-.29-3.36l-.22-.09a.3.3 0 01-.23.228 4.355 4.355 0 00-.53-.2.539.539 0 00-.46.355l.21.1a.335.335 0 01.24-.222 3.441 3.441 0 00.53.19.544.544 0 00.46-.383zm3.38 2.069a1.211 1.211 0 10-1.2 1.333 1.23 1.23 0 001.2-1.355zm-.31 0a.9.9 0 11-.89-1.058.924.924 0 01.89 1.036zm4.43 1.291v-.275h-2.01c0-.477.19-.662 1.15-1.244a1.279 1.279 0 00.81-1.116.975.975 0 00-1.21-.889 3.353 3.353 0 00-1.02.164l.06.254a3.3 3.3 0 01.9-.143c.65 0 .96.2.96.625a1.17 1.17 0 01-.82.968c-.89.534-1.14.82-1.14 1.412v.244h2.32zm3.23-1.736c0-1-.42-1.788-1.27-1.788s-1.28.789-1.28 1.788.42 1.794 1.28 1.794 1.27-.816 1.27-1.816zm-.31 0c0 .857-.28 1.519-.96 1.519s-.98-.662-.98-1.519.29-1.513.98-1.513.96.634.96 1.491zm2.04 1.736V6.469h-.31l-.99.2.04.238.95-.169v3.2h.31zm3.34-2.011a1.273 1.273 0 00-1.25-1.513 1.139 1.139 0 00-1.14 1.138 1.074 1.074 0 001.12 1.09 1.111 1.111 0 00.97-.45 1.451 1.451 0 01-1.49 1.529 3.581 3.581 0 01-.41-.032l-.04.254a1.976 1.976 0 00.43.053 1.782 1.782 0 001.81-2.092zm-.32-.365a.865.865 0 01-.94.8.746.746 0 01-.82-.8.823.823 0 01.84-.873.85.85 0 01.92.851zm3.32 3.037a3.893 3.893 0 010-4.539l-.23-.153a4.028 4.028 0 000 4.845zm3.64-.661V6.416h-.31v3.026l-2.26-3.026h-.31V9.94h.31V6.886l2.26 3.032h.31zm3.2-1.291a1.207 1.207 0 10-1.2 1.333 1.23 1.23 0 001.2-1.355zm-.31 0a.9.9 0 11-.89-1.058.924.924 0 01.89 1.036zm2.96-1.286h-.31l-.87 2.249-.87-2.249h-.31l1.03 2.577h.3zm.78 2.577V7.363h-.3V9.94h.3zm0-3v-.519h-.3v.519h.3zm3.03 1.825v-.111a1.178 1.178 0 00-1.13-1.333 1.222 1.222 0 00-1.19 1.333 1.258 1.258 0 001.34 1.333 3.03 3.03 0 00.84-.132l-.07-.254a2.966 2.966 0 01-.78.111.94.94 0 01-1.02-.947h2.01zm-.31-.265h-1.7a.886.886 0 01.88-.9.84.84 0 01.82.873zm4.84 1.445V8.206a.815.815 0 00-.87-.915 1.068 1.068 0 00-.93.545.79.79 0 00-.82-.545.994.994 0 00-.88.529v-.482h-.31v2.577h.31V8.608a.917.917 0 01.84-1.026.536.536 0 01.6.645v1.688h.31V8.606a.912.912 0 01.84-1.021.536.536 0 01.6.645v1.688h.31zm3.17-1.291a1.18 1.18 0 00-1.13-1.333.921.921 0 00-.85.518V6.421h-.31v3.524h.31v-.477a.922.922 0 00.85.519 1.186 1.186 0 001.13-1.36zm-.31 0a.907.907 0 01-.83 1.058 1.086 1.086 0 010-2.116.907.907 0 01.83 1.031zm2.28-1.032v-.3a1.13 1.13 0 00-.94.6v-.55h-.32v2.577h.32V8.658a1 1 0 01.94-1.063zm2.69 1.143v-.111a1.185 1.185 0 00-1.14-1.333 1.222 1.222 0 00-1.19 1.333 1.264 1.264 0 001.34 1.333 2.923 2.923 0 00.84-.132l-.06-.254a2.966 2.966 0 01-.78.111.935.935 0 01-1.02-.947h2.01zm-.32-.265h-1.69a.878.878 0 01.87-.9.828.828 0 01.82.873zm4.45 1.445V9.67h-2.02c0-.477.2-.662 1.16-1.244a1.284 1.284 0 00.8-1.116.97.97 0 00-1.2-.889 3.369 3.369 0 00-1.03.164l.06.254a3.361 3.361 0 01.9-.143c.65 0 .96.2.96.625a1.153 1.153 0 01-.81.968c-.9.534-1.15.82-1.15 1.412v.244h2.33zm3.23-1.736c0-1-.42-1.788-1.28-1.788s-1.28.789-1.28 1.788.42 1.794 1.28 1.794 1.28-.821 1.28-1.821zm-.31 0c0 .857-.29 1.519-.97 1.519s-.97-.662-.97-1.519.29-1.513.97-1.513.97.629.97 1.486zm2.03 1.736V6.474h-.31l-.99.2.05.238.94-.169v3.2h.31zm3.37-.979a.943.943 0 00-.64-.884.9.9 0 00.48-.756 1.1 1.1 0 00-2.16 0 .887.887 0 00.47.756.952.952 0 00-.65.884 1.116 1.116 0 001.26 1.037 1.1 1.1 0 001.24-1.064zm-.31 0a.808.808 0 01-.93.762.827.827 0 01-.95-.762.8.8 0 01.95-.725.781.781 0 01.93.698zm-.16-1.64a.784.784 0 11-.77-.635.669.669 0 01.77.608zm4.19 2.619V8.156a.88.88 0 00-1.05-.862 3.6 3.6 0 00-.83.1l.04.254a4.662 4.662 0 01.78-.079.6.6 0 01.75.608v.3h-.86a.718.718 0 00-.84.73.743.743 0 00.87.757.974.974 0 00.83-.365v.323h.31zm-.31-.979a.738.738 0 01-.84.746.453.453 0 01-.55-.46.444.444 0 01.55-.477h.84v.191zm5.43-.778a1.667 1.667 0 10-1.66 1.815 1.709 1.709 0 001.66-1.842zm-.31 0a1.358 1.358 0 11-1.35-1.544 1.4 1.4 0 011.35 1.517zm2.84 1.7l-.06-.26a1.927 1.927 0 01-.56.08 1.058 1.058 0 010-2.116 2.041 2.041 0 01.56.079l.06-.254a2.081 2.081 0 00-.65-.1 1.333 1.333 0 000 2.666 2.517 2.517 0 00.65-.118zm1.75.042l-.04-.233a1.616 1.616 0 01-.3.032c-.2 0-.3-.1-.3-.45v-1.64h.53v-.275h-.53v-.73h-.31v.73h-.35v.275h.35v1.624a.576.576 0 00.6.72 1.217 1.217 0 00.35-.077zm2.71.011V7.364h-.31v1.307a.93.93 0 01-.86 1.026.546.546 0 01-.61-.65V7.364h-.32v1.709a.821.821 0 00.89.91 1.028 1.028 0 00.9-.529v.487h.31zm3.19-1.291a1.18 1.18 0 00-1.13-1.333.921.921 0 00-.85.518V6.417h-.31v3.524h.31v-.477a.922.922 0 00.85.519 1.186 1.186 0 001.13-1.356zm-.31 0a.907.907 0 01-.83 1.058 1.086 1.086 0 010-2.116.907.907 0 01.83 1.035zm2.28-1.032v-.3a1.13 1.13 0 00-.94.6v-.55h-.32v2.577h.32V8.654a1 1 0 01.94-1.059zm2.69 1.143V8.65a1.185 1.185 0 00-1.14-1.333 1.222 1.222 0 00-1.19 1.333 1.264 1.264 0 001.34 1.333 2.923 2.923 0 00.84-.132l-.06-.254a2.966 2.966 0 01-.78.111.935.935 0 01-1.02-.947h2.01zm-.32-.265h-1.69a.878.878 0 01.87-.9.828.828 0 01.82.877zm4.45 1.445v-.275h-2.02c0-.477.2-.662 1.16-1.244a1.284 1.284 0 00.8-1.116.97.97 0 00-1.2-.889 3.369 3.369 0 00-1.03.164l.06.254a3.371 3.371 0 01.91-.143c.64 0 .95.2.95.625a1.153 1.153 0 01-.81.968c-.9.534-1.15.82-1.15 1.412v.244h2.33zm3.23-1.736c0-1-.42-1.788-1.28-1.788s-1.28.789-1.28 1.788.42 1.794 1.28 1.794 1.28-.817 1.28-1.817zm-.31 0c0 .857-.29 1.519-.97 1.519s-.97-.662-.97-1.519.29-1.513.97-1.513.97.633.97 1.49zm2.03 1.736V6.47h-.31l-.99.2.05.238.94-.169v3.2h.31zm3.35-2.011a1.278 1.278 0 00-1.25-1.513 1.141 1.141 0 00-1.15 1.138 1.076 1.076 0 001.13 1.09 1.1 1.1 0 00.96-.45 1.449 1.449 0 01-1.48 1.529 3.9 3.9 0 01-.42-.032l-.03.254a1.834 1.834 0 00.43.053 1.787 1.787 0 001.81-2.093zm-.33-.365a.861.861 0 01-.93.8.753.753 0 01-.83-.8.831.831 0 01.85-.873.841.841 0 01.91.85zm1.92.767a4.039 4.039 0 00-.82-2.422l-.22.153a3.893 3.893 0 010 4.539l.22.153a4.039 4.039 0 00.82-2.449zm4.38.318a1.186 1.186 0 00-1.13-1.333.932.932 0 00-.85.518v-.471h-.31v3.492h.31V9.464a.933.933 0 00.85.519 1.18 1.18 0 001.13-1.356zm-.31 0a.907.907 0 01-.83 1.058 1.086 1.086 0 010-2.116.907.907 0 01.83 1.035zm2.84 1.291V8.156a.88.88 0 00-1.05-.862 3.534 3.534 0 00-.83.1l.04.254a4.662 4.662 0 01.78-.079.6.6 0 01.75.608v.3h-.87a.71.71 0 00-.83.73.743.743 0 00.87.757.974.974 0 00.83-.365v.323h.31zm-.31-.979a.738.738 0 01-.84.746.453.453 0 01-.55-.46.444.444 0 01.55-.477h.84v.191zm2.36-1.344v-.3a1.13 1.13 0 00-.94.6v-.55h-.32v2.577h.32V8.654a1 1 0 01.94-1.059zm2.37 2.323V8.156a.876.876 0 00-1.04-.862 3.619 3.619 0 00-.84.1l.04.254a4.662 4.662 0 01.78-.079.609.609 0 01.76.608v.3h-.87a.718.718 0 00-.84.73.743.743 0 00.87.757 1.007 1.007 0 00.84-.365v.323h.3zm-.3-.979a.747.747 0 01-.85.746.457.457 0 01-.55-.46.444.444 0 01.55-.477h.85v.191zm4.39-.2v-.111a1.178 1.178 0 00-1.13-1.333 1.216 1.216 0 00-1.19 1.333 1.256 1.256 0 001.33 1.333 2.923 2.923 0 00.84-.132l-.06-.254a2.966 2.966 0 01-.78.111.94.94 0 01-1.02-.947h2.01zm-.31-.265h-1.7a.886.886 0 01.88-.9.84.84 0 01.82.876zm1.91 1.476v-.264h-.23a.346.346 0 01-.37-.429V6.418h-.31v2.846a.614.614 0 00.66.709h.25zm5.67-.031V8.206a.817.817 0 00-.88-.915 1.08 1.08 0 00-.93.545.775.775 0 00-.82-.545.979.979 0 00-.87.529v-.482h-.32v2.577h.32V8.608a.91.91 0 01.83-1.026.536.536 0 01.6.645v1.688h.32V8.606a.905.905 0 01.83-1.021.543.543 0 01.61.645v1.688h.31zm3-1.18v-.111a1.178 1.178 0 00-1.13-1.333 1.222 1.222 0 00-1.19 1.333 1.256 1.256 0 001.33 1.333 3.041 3.041 0 00.85-.132l-.07-.254a2.966 2.966 0 01-.78.111.94.94 0 01-1.02-.947h2.01zm-.31-.265h-1.7a.886.886 0 01.88-.9.84.84 0 01.82.876zm2.29-.878v-.3a1.133 1.133 0 00-.95.6v-.55h-.31v2.577h.31V8.655a1.009 1.009 0 01.95-1.06zm2.34 2.27l-.06-.26a1.927 1.927 0 01-.56.08 1.058 1.058 0 010-2.116 2.041 2.041 0 01.56.079l.06-.254a2.081 2.081 0 00-.65-.1 1.333 1.333 0 000 2.666 2.517 2.517 0 00.65-.119zm2.53.053V8.156a.88.88 0 00-1.05-.862 3.619 3.619 0 00-.84.1l.04.254a4.871 4.871 0 01.79-.079.6.6 0 01.75.608v.3h-.87a.71.71 0 00-.83.73.735.735 0 00.86.757.994.994 0 00.84-.365v.323h.31zm-.31-.979a.738.738 0 01-.84.746.461.461 0 01-.56-.46.448.448 0 01.55-.477h.85v.191zm3.21.979V6.418h-.31v1.418a.932.932 0 00-.85-.518 1.351 1.351 0 000 2.666.933.933 0 00.85-.519v.477h.31zm-.31-1.291a.92.92 0 01-.84 1.058 1.089 1.089 0 010-2.116.919.919 0 01.84 1.034zm3.42 0a1.207 1.207 0 10-1.2 1.333 1.23 1.23 0 001.2-1.357zm-.3 0a.908.908 0 11-.9-1.058.931.931 0 01.9 1.034zm4.29 1.291V6.418h-.31v1.418a.921.921 0 00-.85-.518 1.351 1.351 0 000 2.666.922.922 0 00.85-.519v.477h.31zm-.31-1.291a.92.92 0 01-.84 1.058 1.089 1.089 0 010-2.116.919.919 0 01.84 1.034zm3.34.111v-.111a1.185 1.185 0 00-1.14-1.333A1.222 1.222 0 00209 8.651a1.258 1.258 0 001.34 1.333 2.976 2.976 0 00.84-.132l-.06-.254a2.98 2.98 0 01-.79.111.932.932 0 01-1.01-.947h2.01zm-.32-.265h-1.69a.878.878 0 01.87-.9.834.834 0 01.82.876zm4.75 1.386l-.07-.254a3.381 3.381 0 01-.79.1 1.516 1.516 0 01-1.61-1.545 1.5 1.5 0 011.61-1.539 3.416 3.416 0 01.8.1l.06-.259a3.13 3.13 0 00-.85-.112 1.813 1.813 0 00-1.94 1.815 1.834 1.834 0 001.94 1.82 3.184 3.184 0 00.85-.15zm2.88.059V8.206a.817.817 0 00-.88-.915 1.026 1.026 0 00-.9.529V6.391h-.31v3.524h.31V8.608a.93.93 0 01.86-1.026.549.549 0 01.62.645v1.688h.3zm1.21 0V7.365h-.31v2.577h.31zm0-3v-.519h-.31v.519h.31zm1.78 3.036v-.264h-.23a.346.346 0 01-.37-.429V6.423h-.31v2.846a.614.614 0 00.66.709h.25zm2.82-1.211v-.111a1.18 1.18 0 00-1.14-1.333 1.222 1.222 0 00-1.19 1.333 1.264 1.264 0 001.34 1.333 2.923 2.923 0 00.84-.132l-.06-.254a2.966 2.966 0 01-.78.111.935.935 0 01-1.02-.947h2.01zm-.32-.265h-1.69a.878.878 0 01.87-.9.828.828 0 01.82.871zm1.43 1.445v-.5h-.39v.5h.39zm3.13.661a3.937 3.937 0 010-4.539l-.22-.153a3.988 3.988 0 000 4.845zm3.55-2.423a1.882 1.882 0 00-2.08-1.762h-.7v3.524h.7a1.882 1.882 0 002.08-1.791zm-.33 0a1.575 1.575 0 01-1.7 1.487h-.43V6.698h.43a1.575 1.575 0 011.7 1.458zm3.12.582v-.111a1.185 1.185 0 00-1.14-1.333 1.222 1.222 0 00-1.19 1.333 1.258 1.258 0 001.34 1.333 2.923 2.923 0 00.84-.132l-.06-.254a2.966 2.966 0 01-.78.111.935.935 0 01-1.02-.947h2.01zm-.32-.265h-1.69a.878.878 0 01.87-.9.828.828 0 01.82.871zm2.29-.878v-.3a1.13 1.13 0 00-.94.6v-.55h-.32v2.577h.32V8.66a1 1 0 01.94-1.065zm2.69 1.143v-.111a1.18 1.18 0 00-1.14-1.333 1.222 1.222 0 00-1.19 1.333 1.264 1.264 0 001.34 1.333 2.923 2.923 0 00.84-.132l-.06-.254a2.966 2.966 0 01-.78.111.935.935 0 01-1.02-.947h2.01zm-.32-.265h-1.69a.878.878 0 01.87-.9.828.828 0 01.82.871zm2.82 1.392l-.05-.26a2.024 2.024 0 01-.56.08 1.058 1.058 0 010-2.116 2.1 2.1 0 01.56.079l.05-.254a2.081 2.081 0 00-.65-.1 1.333 1.333 0 000 2.666 2.517 2.517 0 00.65-.124zm2.8.053V8.206a.815.815 0 00-.87-.915 1.042 1.042 0 00-.91.529V6.391h-.31v3.524h.31V8.608a.93.93 0 01.86-1.026.549.549 0 01.62.645v1.688h.3zm3.12-1.291a1.207 1.207 0 10-1.2 1.333 1.23 1.23 0 001.2-1.362zm-.31 0a.9.9 0 11-.89-1.058.924.924 0 01.89 1.029zm2.74.651c0-.376-.18-.524-.91-.82-.49-.2-.6-.307-.6-.524 0-.254.18-.365.62-.365a3.21 3.21 0 01.73.1l.05-.249a2.683 2.683 0 00-.8-.121.749.749 0 00-.91.608.817.817 0 00.72.794c.67.269.79.333.79.571 0 .286-.27.418-.68.418a2.046 2.046 0 01-.83-.2l-.08.238a2.094 2.094 0 00.92.233.811.811 0 00.98-.712zm3.11-1.683v-.3a1.147 1.147 0 00-.95.6v-.55h-.31v2.577h.31V8.66a1.009 1.009 0 01.95-1.065zm2.69 1.143v-.111a1.185 1.185 0 00-1.14-1.333 1.222 1.222 0 00-1.19 1.333 1.258 1.258 0 001.34 1.333 2.976 2.976 0 00.84-.132l-.06-.254a2.98 2.98 0 01-.79.111.932.932 0 01-1.01-.947h2.01zm-.32-.265h-1.69a.878.878 0 01.87-.9.834.834 0 01.82.871zm2.75.8c0-.376-.18-.524-.91-.82-.49-.2-.6-.307-.6-.524 0-.254.17-.365.62-.365a3.21 3.21 0 01.73.1l.05-.249a2.683 2.683 0 00-.8-.121.749.749 0 00-.91.608.817.817 0 00.72.794c.66.269.79.333.79.571 0 .286-.27.418-.68.418a2.046 2.046 0 01-.83-.2l-.08.238a2.094 2.094 0 00.92.233.811.811 0 00.98-.707zm2.82-.54v-.111a1.185 1.185 0 00-1.14-1.333 1.222 1.222 0 00-1.19 1.333 1.258 1.258 0 001.34 1.333 2.976 2.976 0 00.84-.132l-.06-.254a3.036 3.036 0 01-.79.111.932.932 0 01-1.01-.947h2.01zm-.32-.265h-1.69a.878.878 0 01.87-.9.834.834 0 01.82.876zm2.29-.878v-.3a1.13 1.13 0 00-.94.6v-.55h-.32v2.577h.32V8.655a1 1 0 01.94-1.06zm2.49-.254h-.3l-.88 2.249-.86-2.249h-.32l1.03 2.577h.31zm2.3 2.577V8.156a.88.88 0 00-1.05-.862 3.619 3.619 0 00-.84.1l.04.254a4.769 4.769 0 01.79-.079.6.6 0 01.75.608v.3h-.87a.71.71 0 00-.83.73.735.735 0 00.86.757.994.994 0 00.84-.365v.323h.31zm-.31-.979a.738.738 0 01-.84.746.461.461 0 01-.56-.46.448.448 0 01.55-.477h.85v.191zm3.21.979V6.418h-.31v1.418a.932.932 0 00-.85-.518 1.349 1.349 0 000 2.666.933.933 0 00.85-.519v.477h.31zm-.31-1.291a.92.92 0 01-.84 1.058 1.089 1.089 0 010-2.116.919.919 0 01.84 1.034zm3.42 0a1.207 1.207 0 10-1.2 1.333 1.23 1.23 0 001.2-1.357zm-.3 0a.908.908 0 11-.9-1.058.931.931 0 01.9 1.034zm2.73.651c0-.376-.18-.524-.9-.82-.5-.2-.61-.307-.61-.524 0-.254.18-.365.62-.365a3.137 3.137 0 01.73.1l.05-.249a2.668 2.668 0 00-.79-.121.744.744 0 00-.91.608.806.806 0 00.71.794c.67.269.79.333.79.571 0 .286-.27.418-.68.418a2 2 0 01-.82-.2l-.09.238a2.13 2.13 0 00.92.233.811.811 0 00.98-.707zm4.1.64v-.275h-2.01c0-.477.19-.662 1.15-1.244a1.267 1.267 0 00.8-1.116.966.966 0 00-1.2-.889 3.3 3.3 0 00-1.02.164l.05.254a3.435 3.435 0 01.91-.143c.64 0 .96.2.96.625a1.17 1.17 0 01-.82.968c-.89.534-1.15.82-1.15 1.412v.244h2.33zm3.23-1.736c0-1-.42-1.788-1.28-1.788s-1.28.789-1.28 1.788.43 1.794 1.28 1.794 1.28-.818 1.28-1.818zm-.31 0c0 .857-.28 1.519-.97 1.519s-.97-.662-.97-1.519.29-1.513.97-1.513.97.632.97 1.489zm3.3 1.736v-.275h-2.02c0-.477.2-.662 1.16-1.244a1.284 1.284 0 00.8-1.116.966.966 0 00-1.2-.889 3.419 3.419 0 00-1.03.164l.06.254a3.371 3.371 0 01.91-.143c.64 0 .95.2.95.625a1.153 1.153 0 01-.81.968c-.89.534-1.15.82-1.15 1.412v.244h2.33zm3.23-1.736c0-1-.42-1.788-1.28-1.788s-1.28.789-1.28 1.788.43 1.794 1.28 1.794 1.28-.818 1.28-1.818zm-.31 0c0 .857-.29 1.519-.97 1.519s-.97-.662-.97-1.519.29-1.513.97-1.513.97.632.97 1.489zm1.39 1.736v-.5h-.39v.5h.21l-.18.56h.17zm4.44-3.249v-.275h-2.74v.275h1.21v3.249h.31V6.693h1.22zm2.62 3.249V8.206a.822.822 0 00-.88-.915 1.042 1.042 0 00-.91.529V6.391h-.3v3.524h.3V8.608a.937.937 0 01.86-1.026.549.549 0 01.62.645v1.688h.31zm3.03-1.18v-.111a1.185 1.185 0 00-1.14-1.333 1.222 1.222 0 00-1.19 1.333 1.258 1.258 0 001.34 1.333 2.976 2.976 0 00.84-.132l-.06-.254a3.036 3.036 0 01-.79.111.932.932 0 01-1.01-.947h2.01zm-.32-.265h-1.69a.878.878 0 01.87-.9.834.834 0 01.82.876zm5.15 1.445V6.418h-.31v3.026l-2.26-3.026h-.3v3.524h.3V6.886l2.26 3.032h.31zm1.29 0V7.365h-.31v2.577h.31zm0-3v-.519h-.31v.519h.31zm3.03 1.825v-.111a1.18 1.18 0 00-1.14-1.333 1.222 1.222 0 00-1.19 1.333 1.264 1.264 0 001.34 1.333 2.923 2.923 0 00.84-.132l-.06-.254a2.966 2.966 0 01-.78.111.935.935 0 01-1.02-.947h2.01zm-.32-.265h-1.69a.878.878 0 01.87-.9.828.828 0 01.82.871zm1.92 1.476v-.264h-.23a.346.346 0 01-.37-.429V6.423h-.31v2.846a.61.61 0 00.66.709h.25zm2.4-.671c0-.376-.18-.524-.9-.82-.5-.2-.61-.307-.61-.524 0-.254.18-.365.62-.365a3.137 3.137 0 01.73.1l.05-.249a2.577 2.577 0 00-.79-.121.744.744 0 00-.91.608.806.806 0 00.71.794c.67.269.8.333.8.571 0 .286-.28.418-.69.418a2 2 0 01-.82-.2l-.09.238a2.13 2.13 0 00.92.233.811.811 0 00.98-.712zm2.82-.54v-.111a1.178 1.178 0 00-1.13-1.333 1.216 1.216 0 00-1.19 1.333 1.256 1.256 0 001.33 1.333 2.923 2.923 0 00.84-.132l-.06-.254a2.966 2.966 0 01-.78.111.94.94 0 01-1.02-.947h2.01zm-.31-.265h-1.7a.886.886 0 01.88-.9.84.84 0 01.82.871zm3.12 1.445V8.206a.822.822 0 00-.88-.915 1.026 1.026 0 00-.9.529v-.482h-.31v2.577h.31V8.608a.93.93 0 01.86-1.026.549.549 0 01.62.645v1.688h.3zm4.59-.059l-.06-.254a3.461 3.461 0 01-.8.1 1.543 1.543 0 110-3.084 3.5 3.5 0 01.81.1l.05-.259a3.13 3.13 0 00-.85-.112 1.813 1.813 0 00-1.94 1.815 1.834 1.834 0 001.94 1.82 3.184 3.184 0 00.85-.155zm3.01-1.232a1.207 1.207 0 10-1.2 1.333 1.23 1.23 0 001.2-1.362zm-.31 0a.9.9 0 11-.89-1.058.924.924 0 01.89 1.029zm4.84 1.291V8.206a.815.815 0 00-.87-.915 1.068 1.068 0 00-.93.545.79.79 0 00-.82-.545.983.983 0 00-.88.529v-.482h-.31v2.577h.31V8.608a.916.916 0 01.83-1.026.543.543 0 01.61.645v1.688h.31V8.606a.912.912 0 01.84-1.021.54.54 0 01.6.645v1.688h.31zm3.17-1.291a1.187 1.187 0 00-1.14-1.333.917.917 0 00-.84.518V7.37h-.32v3.492h.32V9.47a.918.918 0 00.84.519 1.187 1.187 0 001.14-1.362zm-.31 0a.859.859 0 11-.84-1.058.914.914 0 01.84 1.029zm2.83 1.291V8.156a.872.872 0 00-1.04-.862 3.619 3.619 0 00-.84.1l.04.254a4.769 4.769 0 01.79-.079.6.6 0 01.75.608v.3h-.87a.718.718 0 00-.84.73.743.743 0 00.87.757 1.007 1.007 0 00.84-.365v.323h.3zm-.3-.979a.738.738 0 01-.84.746.461.461 0 01-.56-.46.448.448 0 01.55-.477h.85v.191zm3.19.979V8.206a.822.822 0 00-.88-.915 1.026 1.026 0 00-.9.529v-.482h-.31v2.577h.31V8.608a.93.93 0 01.86-1.026.549.549 0 01.62.645v1.688h.3zm2.8-2.577h-.31l-.87 2.249-.87-2.249h-.31l1.05 2.577-.37.915h.3zm1.33.968a4.039 4.039 0 00-.82-2.422l-.22.153a3.937 3.937 0 010 4.539l.22.153a4.039 4.039 0 00.82-2.455z" fill="#fff" fill-rule="evenodd"/></svg><svg width="89.28" height="13.75" viewBox="-1 -1 176.56 25.5" x="129.07" y="27.28" xmlns="http://www.w3.org/2000/svg"><path d="M16.74 23.14v-4.42H5.14v-5.13h10.95V9.17H5.14V4.76h11.6V.34H0v22.8h16.74zM39.23 4.76V.34H21.68v22.8h5.13v-9.55H38V9.17H26.81V4.76h12.42zm21.68 0V.34H43.35v22.8h5.14v-9.55h11.19V9.17H48.49V4.76h12.42zm21.68 18.38L73.96.34h-4.72l-8.66 22.8h5.03l1.78-4.69h8.42l1.75 4.69h5.03zm-8.05-8.56h-5.92l2.98-9.1zM103.19.99A20.1 20.1 0 0096.55 0c-7.56 0-12.7 5.24-12.7 11.74s5.21 11.77 12.7 11.77a19.29 19.29 0 006.54-1.06l-1.03-4.17a16.993 16.993 0 01-4.79.68c-5.61 0-8.28-3.08-8.28-7.22s2.67-7.19 8.28-7.19a17.017 17.017 0 014.79.69zm21.31 22.15v-4.42h-10.98V.34h-5.14v22.8h16.12zm24.26 0L140.13.34h-4.72l-8.66 22.8h5.03l1.78-4.69h8.42l1.75 4.69h5.03zm-8.05-8.56h-5.92l2.98-9.1zm33.84 8.56l-6.57-8.94a7.048 7.048 0 004.21-6.53A7.308 7.308 0 00164.7.34h-12.39v22.8h5.13v-8.18h4.79l5.96 8.18h6.36zm-7.63-15.47a3.213 3.213 0 01-3.25 3.28h-6.23V4.48h6.23a3.132 3.132 0 013.25 3.19z" fill="#fff" fill-rule="evenodd"/></svg><svg width="282.08" height="19.86" viewBox="-1 -1 562.16 37.72" xmlns="http://www.w3.org/2000/svg"><path data-name="*Cálculos de L’OREAL, basados en parte en datos reportados por" d="M4.18 3.07L2.45 2.3l1.73-.77-.32-.58L2.27 2 2.42.1h-.66L1.91 2 .32.95 0 1.53l1.73.77L0 3.07l.32.58L1.91 2.6l-.15 1.9h.66l-.15-1.9 1.59 1.05zm6.79 4.24l-.13-.53a7.332 7.332 0 01-1.65.19 3.208 3.208 0 110-6.41 7.464 7.464 0 011.67.2l.11-.54a6.241 6.241 0 00-1.76-.23 3.764 3.764 0 00-4.04 3.77 3.82 3.82 0 004.04 3.79 6.8 6.8 0 001.76-.24zm5.39.12V3.76c0-1.05-.71-1.79-2.18-1.79a7.605 7.605 0 00-1.74.21l.09.53a9.809 9.809 0 011.63-.17c1.16 0 1.56.53 1.56 1.27v.61h-1.81a1.481 1.481 0 00-1.73 1.52 1.534 1.534 0 001.8 1.57 2.042 2.042 0 001.74-.76v.68h.64zm-.64-2.04a1.536 1.536 0 01-1.75 1.55.956.956 0 01-1.16-.96.932.932 0 011.15-.99h1.76v.4zM16 .03h-.75l-1.06 1.33h.55zm3.84 7.46v-.55h-.47a.721.721 0 01-.78-.89V.1h-.64v5.92a1.273 1.273 0 001.38 1.47h.51zm5.14-.17l-.11-.54a4.208 4.208 0 01-1.17.16 2.2 2.2 0 010-4.4 4.3 4.3 0 011.17.17l.11-.53a4.082 4.082 0 00-1.34-.21 2.77 2.77 0 000 5.54 5.1 5.1 0 001.34-.19zm5.73.11V2.07h-.64v2.72a1.937 1.937 0 01-1.79 2.13A1.145 1.145 0 0127 5.57v-3.5h-.65v3.55a1.7 1.7 0 001.84 1.89 2.133 2.133 0 001.88-1.1v1.02h.64zm3.71.06v-.55h-.48a.724.724 0 01-.78-.89V.1h-.63v5.92a1.27 1.27 0 001.37 1.47h.52zm6.04-2.75a2.513 2.513 0 10-2.5 2.77 2.562 2.562 0 002.5-2.77zm-.64 0a1.882 1.882 0 11-1.86-2.2 1.929 1.929 0 011.86 2.2zm5.69 1.35c0-.78-.38-1.08-1.89-1.7-1.03-.42-1.25-.64-1.25-1.09 0-.53.36-.76 1.29-.76a6.721 6.721 0 011.52.2l.1-.52a5.445 5.445 0 00-1.66-.25c-1.05 0-1.89.39-1.89 1.26 0 .73.27 1.16 1.49 1.65 1.38.57 1.65.7 1.65 1.19 0 .6-.57.87-1.42.87a4.066 4.066 0 01-1.72-.41l-.17.5a4.25 4.25 0 001.91.48c1.27 0 2.04-.57 2.04-1.42zm8.22 1.34V.1h-.63v2.95a1.921 1.921 0 00-1.76-1.08c-1.69 0-2.37 1.44-2.37 2.77s.69 2.77 2.37 2.77a1.93 1.93 0 001.76-1.07v.99h.63zm-.63-2.69c0 1.19-.6 2.2-1.74 2.2s-1.74-.99-1.74-2.2.59-2.2 1.74-2.2 1.74 1.01 1.74 2.2zm6.94.23v-.23c0-1.48-.81-2.77-2.37-2.77a2.539 2.539 0 00-2.47 2.77 2.611 2.611 0 002.78 2.77 6.072 6.072 0 001.75-.27l-.13-.53a6.014 6.014 0 01-1.63.23 1.942 1.942 0 01-2.11-1.97h4.18zm-.66-.55h-3.52a1.832 1.832 0 011.81-1.88 1.737 1.737 0 011.71 1.88zm9.24 3.01v-.58h-3.85V.1h-.66v7.33h4.51zm1.92-6.3V.1h-.82v1.03h.45l-.39 1.17h.36zm8.45 2.64a3.469 3.469 0 10-3.45 3.78 3.557 3.557 0 003.45-3.78zm-.66 0A2.822 2.822 0 1175.54.56a2.9 2.9 0 012.79 3.21zM87 7.43l-2.4-3.25a2.015 2.015 0 001.63-2A2.077 2.077 0 0084.01.1h-3.32v7.33h.66V4.25h2.56l2.34 3.18H87zm-1.43-5.25a1.439 1.439 0 01-1.56 1.52h-2.66V.67h2.66a1.5 1.5 0 011.56 1.51zm7.69 5.25v-.58h-4.22V3.92h3.94v-.58h-3.94V.67h4.22V.1h-4.89v7.33h4.89zm7.5 0L97.71.1h-.48l-3.04 7.33h.67l.82-2.05h3.59l.82 2.05h.67zm-1.71-2.59H95.9L97.47.9zm7.48 2.59v-.58h-3.85V.1h-.66v7.33h4.51zm1.98 0V6.39h-.82v1.04h.45l-.39 1.16h.37zm9.06-2.69c0-1.33-.67-2.77-2.36-2.77a1.911 1.911 0 00-1.76 1.08V.1h-.65v7.33h.65v-.99a1.919 1.919 0 001.76 1.07c1.67 0 2.36-1.44 2.36-2.77zm-.64 0c0 1.21-.6 2.2-1.74 2.2s-1.74-1.01-1.74-2.2.6-2.2 1.74-2.2 1.74.99 1.74 2.2zm5.89 2.69V3.76c0-1.05-.7-1.79-2.17-1.79a7.471 7.471 0 00-1.74.21l.09.53a9.807 9.807 0 011.62-.17c1.17 0 1.57.53 1.57 1.27v.61h-1.81a1.489 1.489 0 00-1.74 1.52 1.542 1.542 0 001.81 1.57 2.042 2.042 0 001.74-.76v.68h.63zm-.63-2.04a1.541 1.541 0 01-1.75 1.55.956.956 0 01-1.16-.96.928.928 0 011.15-.99h1.76v.4zm5.85.7c0-.78-.38-1.08-1.88-1.7-1.04-.42-1.26-.64-1.26-1.09 0-.53.37-.76 1.29-.76a6.646 6.646 0 011.52.2l.1-.52a5.429 5.429 0 00-1.65-.25c-1.06 0-1.9.39-1.9 1.26 0 .73.27 1.16 1.49 1.65 1.39.57 1.65.7 1.65 1.19 0 .6-.57.87-1.42.87a4.1 4.1 0 01-1.72-.41l-.17.5a4.25 4.25 0 001.91.48c1.27 0 2.04-.57 2.04-1.42zm5.2 1.34V3.76c0-1.05-.7-1.79-2.18-1.79a7.605 7.605 0 00-1.74.21l.09.53a9.914 9.914 0 011.63-.17c1.17 0 1.56.53 1.56 1.27v.61h-1.8a1.489 1.489 0 00-1.74 1.52 1.534 1.534 0 001.8 1.57 2.029 2.029 0 001.74-.76v.68h.64zm-.64-2.04a1.536 1.536 0 01-1.75 1.55.952.952 0 01-1.15-.96.924.924 0 011.14-.99h1.76v.4zm6.67 2.04V.1h-.64v2.95a1.911 1.911 0 00-1.76-1.08c-1.68 0-2.37 1.44-2.37 2.77s.7 2.77 2.37 2.77a1.919 1.919 0 001.76-1.07v.99h.64zm-.64-2.69c0 1.19-.59 2.2-1.74 2.2s-1.74-.99-1.74-2.2.6-2.2 1.74-2.2 1.74 1.01 1.74 2.2zm7.12 0a2.513 2.513 0 10-2.5 2.77 2.562 2.562 0 002.5-2.77zm-.64 0a1.882 1.882 0 11-1.86-2.2 1.929 1.929 0 011.86 2.2zm5.69 1.35c0-.78-.38-1.08-1.88-1.7-1.04-.42-1.26-.64-1.26-1.09 0-.53.36-.76 1.29-.76a6.721 6.721 0 011.52.2l.1-.52a5.429 5.429 0 00-1.65-.25c-1.06 0-1.9.39-1.9 1.26 0 .73.27 1.16 1.49 1.65 1.38.57 1.65.7 1.65 1.19 0 .6-.57.87-1.42.87a4.066 4.066 0 01-1.72-.41l-.17.5a4.25 4.25 0 001.91.48c1.27 0 2.04-.57 2.04-1.42zm8.28-1.12v-.23c0-1.48-.8-2.77-2.37-2.77a2.539 2.539 0 00-2.47 2.77 2.611 2.611 0 002.78 2.77 6.022 6.022 0 001.75-.27l-.13-.53a5.963 5.963 0 01-1.63.23 1.942 1.942 0 01-2.11-1.97h4.18zm-.66-.55h-3.52a1.832 1.832 0 011.81-1.88 1.737 1.737 0 011.71 1.88zm6.5 3.01V3.87a1.714 1.714 0 00-1.84-1.9 2.141 2.141 0 00-1.87 1.1v-1h-.65v5.36h.65V4.71A1.935 1.935 0 01163 2.57a1.142 1.142 0 011.28 1.35v3.51h.64zm9-2.69c0-1.33-.68-2.77-2.36-2.77a1.921 1.921 0 00-1.76 1.08v-.98h-.65v7.26h.65V6.44a1.93 1.93 0 001.76 1.07c1.69 0 2.36-1.44 2.36-2.77zm-.64 0c0 1.21-.59 2.2-1.74 2.2s-1.74-1.01-1.74-2.2.6-2.2 1.74-2.2 1.74.99 1.74 2.2zm5.9 2.69V3.76c0-1.05-.71-1.79-2.18-1.79a7.605 7.605 0 00-1.74.21l.09.53a9.809 9.809 0 011.63-.17c1.16 0 1.56.53 1.56 1.27v.61h-1.81a1.489 1.489 0 00-1.74 1.52 1.542 1.542 0 001.81 1.57 2.042 2.042 0 001.74-.76v.68h.64zm-.64-2.04a1.536 1.536 0 01-1.75 1.55.956.956 0 01-1.16-.96.928.928 0 011.15-.99h1.76v.4zm4.9-2.79v-.63a2.384 2.384 0 00-1.97 1.24V2.07h-.65v5.36h.65V4.74a2.092 2.092 0 011.97-2.14zm3.33 4.8l-.09-.48a3.786 3.786 0 01-.63.07c-.42 0-.62-.21-.62-.94V2.64h1.1v-.57h-1.1V.55h-.65v1.52h-.73v.57h.73v3.38c0 1.11.46 1.49 1.25 1.49a2.582 2.582 0 00.74-.11zm5.8-2.43v-.23c0-1.48-.8-2.77-2.36-2.77a2.546 2.546 0 00-2.48 2.77 2.619 2.619 0 002.79 2.77 6.123 6.123 0 001.75-.27l-.14-.53a5.9 5.9 0 01-1.62.23 1.945 1.945 0 01-2.12-1.97h4.18zm-.66-.55h-3.52a1.834 1.834 0 011.82-1.88 1.729 1.729 0 011.7 1.88zm9 .55v-.23c0-1.48-.8-2.77-2.36-2.77a2.541 2.541 0 00-2.48 2.77 2.616 2.616 0 002.78 2.77 6.022 6.022 0 001.75-.27l-.13-.53a5.963 5.963 0 01-1.63.23 1.942 1.942 0 01-2.11-1.97h4.18zm-.66-.55h-3.52a1.834 1.834 0 011.82-1.88 1.735 1.735 0 011.7 1.88zm6.5 3.01V3.87a1.707 1.707 0 00-1.83-1.9 2.145 2.145 0 00-1.88 1.1v-1h-.64v5.36h.64V4.71a1.941 1.941 0 011.79-2.14 1.142 1.142 0 011.28 1.35v3.51h.64zm8.62 0V.1h-.64v2.95a1.921 1.921 0 00-1.76-1.08c-1.69 0-2.37 1.44-2.37 2.77s.69 2.77 2.37 2.77a1.93 1.93 0 001.76-1.07v.99h.64zm-.64-2.69c0 1.19-.6 2.2-1.74 2.2s-1.74-.99-1.74-2.2.59-2.2 1.74-2.2 1.74 1.01 1.74 2.2zm6.28 2.69V3.76c0-1.05-.71-1.79-2.18-1.79a7.605 7.605 0 00-1.74.21l.09.53a9.809 9.809 0 011.63-.17c1.16 0 1.56.53 1.56 1.27v.61h-1.8a1.484 1.484 0 00-1.74 1.52 1.534 1.534 0 001.8 1.57 2.042 2.042 0 001.74-.76v.68h.64zm-.64-2.04a1.536 1.536 0 01-1.75 1.55.948.948 0 01-1.15-.96.924.924 0 011.14-.99h1.76v.4zm4.45 2.01l-.08-.48a3.786 3.786 0 01-.63.07c-.42 0-.62-.21-.62-.94V2.64h1.1v-.57h-1.1V.55h-.65v1.52h-.73v.57h.73v3.38c0 1.11.46 1.49 1.25 1.49a2.478 2.478 0 00.73-.11zm5.99-2.66a2.513 2.513 0 10-2.5 2.77 2.562 2.562 0 002.5-2.77zm-.64 0a1.882 1.882 0 11-1.86-2.2 1.923 1.923 0 011.86 2.2zm5.69 1.35c0-.78-.38-1.08-1.88-1.7-1.04-.42-1.26-.64-1.26-1.09 0-.53.36-.76 1.29-.76a6.646 6.646 0 011.52.2l.1-.52a5.429 5.429 0 00-1.65-.25c-1.06 0-1.9.39-1.9 1.26 0 .73.27 1.16 1.49 1.65 1.39.57 1.65.7 1.65 1.19 0 .6-.57.87-1.42.87a4.1 4.1 0 01-1.72-.41l-.17.5a4.25 4.25 0 001.91.48c1.27 0 2.04-.57 2.04-1.42zm6.47-3.49v-.63a2.357 2.357 0 00-1.97 1.24V2.07h-.65v5.36h.65V4.74a2.085 2.085 0 011.97-2.14zm5.58 2.37v-.23c0-1.48-.8-2.77-2.36-2.77a2.546 2.546 0 00-2.48 2.77 2.619 2.619 0 002.79 2.77 6.123 6.123 0 001.75-.27l-.14-.53a5.9 5.9 0 01-1.62.23 1.945 1.945 0 01-2.12-1.97h4.18zm-.66-.55h-3.52a1.834 1.834 0 011.82-1.88 1.729 1.729 0 011.7 1.88zm6.91.32c0-1.33-.68-2.77-2.35-2.77a1.911 1.911 0 00-1.76 1.08v-.98h-.65v7.26h.65V6.44a1.919 1.919 0 001.76 1.07c1.68 0 2.35-1.44 2.35-2.77zm-.64 0c0 1.21-.59 2.2-1.73 2.2s-1.74-1.01-1.74-2.2.59-2.2 1.74-2.2 1.73.99 1.73 2.2zm6.74 0a2.513 2.513 0 10-2.5 2.77 2.562 2.562 0 002.5-2.77zm-.64 0a1.882 1.882 0 11-1.86-2.2 1.929 1.929 0 011.86 2.2zm4.74-2.14v-.63a2.357 2.357 0 00-1.97 1.24V2.07h-.65v5.36h.65V4.74a2.092 2.092 0 011.97-2.14zm3.32 4.8l-.09-.48a3.786 3.786 0 01-.63.07c-.41 0-.61-.21-.61-.94V2.64h1.1v-.57h-1.1V.55h-.65v1.52h-.74v.57h.74v3.38c0 1.11.45 1.49 1.24 1.49a2.537 2.537 0 00.74-.11zm5.15.03V3.76c0-1.05-.71-1.79-2.18-1.79a7.605 7.605 0 00-1.74.21l.09.53a9.809 9.809 0 011.63-.17c1.16 0 1.56.53 1.56 1.27v.61h-1.8a1.484 1.484 0 00-1.74 1.52 1.534 1.534 0 001.8 1.57 2.042 2.042 0 001.74-.76v.68h.64zm-.64-2.04a1.536 1.536 0 01-1.75 1.55.956.956 0 01-1.16-.96.932.932 0 011.15-.99h1.76v.4zm6.67 2.04V.1h-.64v2.95a1.921 1.921 0 00-1.76-1.08c-1.69 0-2.37 1.44-2.37 2.77s.69 2.77 2.37 2.77a1.93 1.93 0 001.76-1.07v.99h.64zm-.64-2.69c0 1.19-.6 2.2-1.74 2.2s-1.74-.99-1.74-2.2.6-2.2 1.74-2.2 1.74 1.01 1.74 2.2zm7.12 0a2.513 2.513 0 10-2.5 2.77 2.562 2.562 0 002.5-2.77zm-.64 0a1.882 1.882 0 11-1.86-2.2 1.929 1.929 0 011.86 2.2zm5.68 1.35c0-.78-.37-1.08-1.88-1.7-1.03-.42-1.25-.64-1.25-1.09 0-.53.36-.76 1.29-.76a6.633 6.633 0 011.51.2l.1-.52a5.342 5.342 0 00-1.65-.25c-1.05 0-1.89.39-1.89 1.26 0 .73.26 1.16 1.48 1.65 1.39.57 1.66.7 1.66 1.19 0 .6-.58.87-1.42.87a4.066 4.066 0 01-1.72-.41l-.18.5a4.327 4.327 0 001.92.48c1.26 0 2.03-.57 2.03-1.42zM299 4.74c0-1.33-.69-2.77-2.36-2.77a1.911 1.911 0 00-1.76 1.08v-.98h-.65v7.26h.65V6.44a1.919 1.919 0 001.76 1.07c1.69 0 2.36-1.44 2.36-2.77zm-.64 0c0 1.21-.6 2.2-1.74 2.2s-1.74-1.01-1.74-2.2.6-2.2 1.74-2.2 1.74.99 1.74 2.2zm6.73 0a2.509 2.509 0 10-2.5 2.77 2.556 2.556 0 002.5-2.77zm-.64 0a1.882 1.882 0 11-1.86-2.2 1.923 1.923 0 011.86 2.2zm4.74-2.14v-.63a2.37 2.37 0 00-1.97 1.24V2.07h-.65v5.36h.65V4.74a2.092 2.092 0 011.97-2.14zm9.73 4.83V.1h-.65v6.29L313.57.1h-.64v7.33h.64V1.12l4.7 6.31h.65zm2.67 0V2.07h-.64v5.36h.64zm0-6.25V.1h-.64v1.08h.64zm6.3 3.79v-.23c0-1.48-.8-2.77-2.36-2.77a2.541 2.541 0 00-2.48 2.77 2.619 2.619 0 002.79 2.77 6.009 6.009 0 001.74-.27l-.13-.53a5.912 5.912 0 01-1.63.23 1.942 1.942 0 01-2.11-1.97h4.18zm-.66-.55h-3.52a1.834 1.834 0 011.82-1.88 1.735 1.735 0 011.7 1.88zm3.98 3.07v-.55h-.47a.721.721 0 01-.78-.89V.1h-.64v5.92a1.273 1.273 0 001.38 1.47h.51zm5-1.4c0-.78-.38-1.08-1.88-1.7-1.04-.42-1.26-.64-1.26-1.09 0-.53.37-.76 1.29-.76a6.646 6.646 0 011.52.2l.1-.52a5.429 5.429 0 00-1.65-.25c-1.06 0-1.9.39-1.9 1.26 0 .73.27 1.16 1.49 1.65 1.39.57 1.65.7 1.65 1.19 0 .6-.57.87-1.42.87a4.1 4.1 0 01-1.72-.41l-.17.5a4.25 4.25 0 001.91.48c1.27 0 2.04-.57 2.04-1.42zm5.86-1.12v-.23c0-1.48-.8-2.77-2.36-2.77a2.541 2.541 0 00-2.48 2.77 2.616 2.616 0 002.78 2.77 6.022 6.022 0 001.75-.27l-.13-.53a5.963 5.963 0 01-1.63.23 1.942 1.942 0 01-2.11-1.97h4.18zm-.66-.55h-3.52a1.834 1.834 0 011.82-1.88 1.735 1.735 0 011.7 1.88zm6.5 3.01V3.87a1.707 1.707 0 00-1.83-1.9 2.145 2.145 0 00-1.88 1.1v-1h-.64v5.36h.64V4.71a1.941 1.941 0 011.79-2.14 1.142 1.142 0 011.28 1.35v3.51h.64zm12.17 0V3.87a1.7 1.7 0 00-1.82-1.9 2.224 2.224 0 00-1.93 1.13 1.64 1.64 0 00-1.71-1.13 2.051 2.051 0 00-1.82 1.1v-1h-.65v5.36h.65V4.71a1.9 1.9 0 011.73-2.14 1.125 1.125 0 011.26 1.35v3.51h.65V4.7a1.892 1.892 0 011.74-2.13 1.122 1.122 0 011.25 1.35v3.51h.65zm6.25-2.46v-.23c0-1.48-.81-2.77-2.37-2.77a2.546 2.546 0 00-2.48 2.77 2.619 2.619 0 002.79 2.77 6.072 6.072 0 001.75-.27l-.13-.53a6.014 6.014 0 01-1.63.23 1.95 1.95 0 01-2.12-1.97h4.19zm-.66-.55h-3.53a1.846 1.846 0 011.82-1.88 1.737 1.737 0 011.71 1.88zm6.52 3.01V.1h-.64v2.95a1.911 1.911 0 00-1.76-1.08c-1.68 0-2.37 1.44-2.37 2.77s.7 2.77 2.37 2.77a1.919 1.919 0 001.76-1.07v.99h.64zm-.64-2.69c0 1.19-.59 2.2-1.74 2.2s-1.74-.99-1.74-2.2.6-2.2 1.74-2.2 1.74 1.01 1.74 2.2zm3.15 2.69V2.07h-.64v5.36h.64zm0-6.25V.1h-.64v1.08h.64zm5.64 6.25V3.76c0-1.05-.7-1.79-2.18-1.79a7.605 7.605 0 00-1.74.21l.09.53a9.914 9.914 0 011.63-.17c1.17 0 1.56.53 1.56 1.27v.61h-1.8a1.484 1.484 0 00-1.74 1.52 1.534 1.534 0 001.8 1.57 2.029 2.029 0 001.74-.76v.68h.64zm-.64-2.04a1.536 1.536 0 01-1.75 1.55.952.952 0 01-1.15-.96.924.924 0 011.14-.99h1.76v.4zm6.65 2.04V3.87a1.714 1.714 0 00-1.84-1.9 2.117 2.117 0 00-1.87 1.1v-1h-.65v5.36h.65V4.71a1.934 1.934 0 011.78-2.14 1.148 1.148 0 011.29 1.35v3.51h.64zm3.98-.03l-.09-.48a3.786 3.786 0 01-.63.07c-.42 0-.61-.21-.61-.94V2.64h1.1v-.57H389V.55h-.65v1.52h-.74v.57h.74v3.38c0 1.11.45 1.49 1.24 1.49a2.537 2.537 0 00.74-.11zm5.81-2.43v-.23c0-1.48-.81-2.77-2.37-2.77a2.546 2.546 0 00-2.48 2.77 2.619 2.619 0 002.79 2.77 6.072 6.072 0 001.75-.27l-.13-.53a6.014 6.014 0 01-1.63.23 1.945 1.945 0 01-2.12-1.97h4.19zm-.66-.55h-3.53a1.834 1.834 0 011.82-1.88 1.737 1.737 0 011.71 1.88zm8.99.55v-.23c0-1.48-.8-2.77-2.36-2.77a2.546 2.546 0 00-2.48 2.77 2.619 2.619 0 002.79 2.77 6.123 6.123 0 001.75-.27l-.14-.53a5.912 5.912 0 01-1.63.23 1.942 1.942 0 01-2.11-1.97h4.18zm-.66-.55h-3.52a1.834 1.834 0 011.82-1.88 1.729 1.729 0 011.7 1.88zm3.98 3.07v-.55h-.47a.721.721 0 01-.78-.89V.1h-.64v5.92a1.273 1.273 0 001.38 1.47h.51zm7.42-1.4c0-.78-.38-1.08-1.88-1.7-1.04-.42-1.26-.64-1.26-1.09 0-.53.37-.76 1.29-.76a6.646 6.646 0 011.52.2l.1-.52a5.429 5.429 0 00-1.65-.25c-1.06 0-1.9.39-1.9 1.26 0 .73.27 1.16 1.49 1.65 1.39.57 1.65.7 1.65 1.19 0 .6-.57.87-1.42.87a4.1 4.1 0 01-1.72-.41l-.17.5a4.284 4.284 0 001.91.48c1.27 0 2.04-.57 2.04-1.42zm5.86-1.12v-.23c0-1.48-.8-2.77-2.36-2.77a2.541 2.541 0 00-2.48 2.77 2.616 2.616 0 002.78 2.77 6.022 6.022 0 001.75-.27l-.13-.53a5.963 5.963 0 01-1.63.23 1.942 1.942 0 01-2.11-1.97h4.18zm-.66-.55h-3.52a1.834 1.834 0 011.82-1.88 1.735 1.735 0 011.7 1.88zm4.76-1.82v-.63a2.354 2.354 0 00-1.96 1.24V2.07h-.65v5.36h.65V4.74a2.084 2.084 0 011.96-2.14zm5.19-.53h-.64l-1.82 4.67-1.8-4.67h-.65l2.13 5.36h.64zm1.62 5.36V2.07h-.64v5.36h.64zm0-6.25V.1h-.64v1.08h.64zm5.58 6.14l-.11-.54a4.208 4.208 0 01-1.17.16 2.2 2.2 0 010-4.4 4.3 4.3 0 011.17.17l.11-.53a4.082 4.082 0 00-1.34-.21 2.77 2.77 0 000 5.54 5.1 5.1 0 001.34-.19zm2.12.11V2.07h-.64v5.36h.64zm0-6.25V.1h-.64v1.08h.64zm6.48 3.56a2.509 2.509 0 10-2.49 2.77 2.554 2.554 0 002.49-2.77zm-.64 0a1.878 1.878 0 11-1.85-2.2 1.922 1.922 0 011.85 2.2zm11.02 2.69l-2.4-3.25a2.025 2.025 0 001.63-2A2.086 2.086 0 00453.54.1h-3.31v7.33h.66V4.25h2.55l2.35 3.18h.75zm-1.43-5.25a1.442 1.442 0 01-1.57 1.52h-2.65V.67h2.65a1.5 1.5 0 011.57 1.51zm7.07 2.79v-.23c0-1.48-.8-2.77-2.37-2.77a2.539 2.539 0 00-2.47 2.77 2.611 2.611 0 002.78 2.77 6.072 6.072 0 001.75-.27l-.13-.53a5.963 5.963 0 01-1.63.23A1.942 1.942 0 01458 4.97h4.18zm-.66-.55H458a1.832 1.832 0 011.81-1.88 1.737 1.737 0 011.71 1.88zm4.31 2.98l-.09-.48a3.786 3.786 0 01-.63.07c-.41 0-.61-.21-.61-.94V2.64h1.1v-.57h-1.1V.55h-.65v1.52h-.74v.57h.74v3.38c0 1.11.45 1.49 1.24 1.49a2.537 2.537 0 00.74-.11zm5.15.03V3.76c0-1.05-.71-1.79-2.18-1.79a7.605 7.605 0 00-1.74.21l.09.53a9.809 9.809 0 011.63-.17c1.16 0 1.56.53 1.56 1.27v.61h-1.8a1.484 1.484 0 00-1.74 1.52 1.534 1.534 0 001.8 1.57 2.042 2.042 0 001.74-.76v.68h.64zm-.64-2.04a1.536 1.536 0 01-1.75 1.55.956.956 0 01-1.16-.96.932.932 0 011.15-.99h1.76v.4zm2.93 2.04V2.07h-.64v5.36h.64zm0-6.25V.1h-.64v1.08h.64zm3.7 6.31v-.55h-.47a.721.721 0 01-.78-.89V.1h-.64v5.92a1.273 1.273 0 001.38 1.47h.51zm2.15-.06V6.39h-.83v1.04h.45l-.38 1.16h.36zm9.05-2.69c0-1.33-.68-2.77-2.35-2.77a1.9 1.9 0 00-1.76 1.08v-.98h-.65v7.26h.65V6.44a1.909 1.909 0 001.76 1.07c1.68 0 2.35-1.44 2.35-2.77zm-.64 0c0 1.21-.59 2.2-1.74 2.2s-1.73-1.01-1.73-2.2.59-2.2 1.73-2.2 1.74.99 1.74 2.2zm5.9 2.69V3.76c0-1.05-.71-1.79-2.18-1.79a7.605 7.605 0 00-1.74.21l.09.53a9.809 9.809 0 011.63-.17c1.16 0 1.56.53 1.56 1.27v.61h-1.8a1.484 1.484 0 00-1.74 1.52 1.534 1.534 0 001.8 1.57 2.042 2.042 0 001.74-.76v.68h.64zm-.64-2.04a1.536 1.536 0 01-1.75 1.55.948.948 0 01-1.15-.96.924.924 0 011.14-.99h1.76v.4zm4.91-2.79v-.63a2.357 2.357 0 00-1.97 1.24V2.07h-.65v5.36h.65V4.74a2.092 2.092 0 011.97-2.14zm4.92 4.83V3.76c0-1.05-.7-1.79-2.17-1.79a7.471 7.471 0 00-1.74.21l.09.53a9.807 9.807 0 011.62-.17c1.17 0 1.57.53 1.57 1.27v.61h-1.81a1.489 1.489 0 00-1.74 1.52 1.542 1.542 0 001.81 1.57 2.042 2.042 0 001.74-.76v.68h.63zm-.63-2.04a1.541 1.541 0 01-1.75 1.55.956.956 0 01-1.16-.96.928.928 0 011.15-.99h1.76v.4zm6.54 2.1v-.55h-.47a.721.721 0 01-.78-.89V.1h-.64v5.92a1.27 1.27 0 001.37 1.47h.52zm5.2-.06V3.76c0-1.05-.7-1.79-2.17-1.79a7.471 7.471 0 00-1.74.21l.08.53a10.021 10.021 0 011.63-.17c1.17 0 1.57.53 1.57 1.27v.61h-1.81a1.489 1.489 0 00-1.74 1.52 1.542 1.542 0 001.81 1.57 2.042 2.042 0 001.74-.76v.68h.63zm-.63-2.04a1.541 1.541 0 01-1.75 1.55.956.956 0 01-1.16-.96.928.928 0 011.15-.99h1.76v.4zm8.41 1.93l-.11-.54a4.208 4.208 0 01-1.17.16 2.2 2.2 0 010-4.4 4.3 4.3 0 011.17.17l.11-.53a4.082 4.082 0 00-1.34-.21 2.77 2.77 0 000 5.54 5.1 5.1 0 001.34-.19zm5.26.11V3.76c0-1.05-.71-1.79-2.18-1.79a7.605 7.605 0 00-1.74.21l.09.53a9.809 9.809 0 011.63-.17c1.16 0 1.56.53 1.56 1.27v.61h-1.8a1.484 1.484 0 00-1.74 1.52 1.534 1.534 0 001.8 1.57 2.042 2.042 0 001.74-.76v.68h.64zm-.64-2.04a1.536 1.536 0 01-1.75 1.55.948.948 0 01-1.15-.96.924.924 0 011.14-.99h1.76v.4zm4.46 2.01l-.09-.48a3.786 3.786 0 01-.63.07c-.42 0-.62-.21-.62-.94V2.64h1.1v-.57h-1.1V.55h-.65v1.52h-.73v.57h.73v3.38c0 1.11.46 1.49 1.25 1.49a2.582 2.582 0 00.74-.11zm5.8-2.43v-.23c0-1.48-.8-2.77-2.36-2.77a2.546 2.546 0 00-2.48 2.77 2.619 2.619 0 002.79 2.77 6.123 6.123 0 001.75-.27l-.14-.53a5.9 5.9 0 01-1.62.23 1.945 1.945 0 01-2.12-1.97h4.18zm-.66-.55h-3.52a1.834 1.834 0 011.82-1.88 1.729 1.729 0 011.7 1.88zm6.47 2.59V2.07h-.64v.98a2.015 2.015 0 00-1.83-1.08c-1.62 0-2.29 1.29-2.29 2.71s.68 2.69 2.29 2.69a2.006 2.006 0 001.83-1.07V7a1.626 1.626 0 01-1.92 1.87 5.839 5.839 0 01-1.61-.27l-.13.5a5.585 5.585 0 001.79.32 2.217 2.217 0 002.51-2.41zm-.64-2.33c0 1.3-.63 2.12-1.78 2.12-1.21 0-1.69-.94-1.69-2.12s.48-2.14 1.69-2.14c1.15 0 1.78.83 1.78 2.14zm7.07.06a2.513 2.513 0 10-2.5 2.77 2.562 2.562 0 002.5-2.77zm-.64 0a1.882 1.882 0 11-1.86-2.2 1.929 1.929 0 011.86 2.2zm4.74-2.14v-.63a2.357 2.357 0 00-1.97 1.24V2.07h-.65v5.36h.65V4.74a2.092 2.092 0 011.97-2.14zm1.79 4.83V2.07h-.64v5.36h.64zm1.1-7.4h-.76l-1.05 1.33h.55zm4.54 7.4V3.76c0-1.05-.7-1.79-2.17-1.79a7.471 7.471 0 00-1.74.21l.08.53a10.021 10.021 0 011.63-.17c1.17 0 1.57.53 1.57 1.27v.61h-1.81a1.489 1.489 0 00-1.74 1.52 1.542 1.542 0 001.81 1.57 2.042 2.042 0 001.74-.76v.68h.63zm-.63-2.04a1.541 1.541 0 01-1.75 1.55.956.956 0 01-1.16-.96.928.928 0 011.15-.99h1.76v.4zM11.37 15.5v-1.04h-.46l.4-1.16h-.38l-.38 1.16v1.04h.82zm-1.69 0v-1.04h-.46l.39-1.16h-.37l-.39 1.16v1.04h.83zm8.7 5.01l-.13-.53a7.27 7.27 0 01-1.65.19 3.208 3.208 0 110-6.41 7.4 7.4 0 011.67.2l.11-.54a6.193 6.193 0 00-1.76-.23 3.77 3.77 0 00-4.04 3.77 3.82 3.82 0 004.04 3.79 6.738 6.738 0 001.76-.24zm4.27-4.71v-.63a2.357 2.357 0 00-1.97 1.24v-1.14h-.65v5.36h.65v-2.69a2.092 2.092 0 011.97-2.14zm5.59 2.37v-.23c0-1.48-.81-2.77-2.37-2.77a2.539 2.539 0 00-2.47 2.77 2.611 2.611 0 002.78 2.77 6.072 6.072 0 001.75-.27l-.13-.53a6.014 6.014 0 01-1.63.23 1.937 1.937 0 01-2.11-1.97h4.18zm-.66-.55h-3.52a1.832 1.832 0 011.81-1.88 1.737 1.737 0 011.71 1.88zm10.07 3.01v-3.56a1.692 1.692 0 00-1.81-1.9 2.24 2.24 0 00-1.94 1.13 1.628 1.628 0 00-1.7-1.13 2.055 2.055 0 00-1.83 1.1v-1h-.65v5.36h.65v-2.72a1.907 1.907 0 011.74-2.14 1.122 1.122 0 011.25 1.35v3.51h.65V17.9a1.9 1.9 0 011.74-2.13A1.122 1.122 0 0137 17.12v3.51h.65zm5.59 0v-3.67c0-1.05-.7-1.79-2.18-1.79a7.605 7.605 0 00-1.74.21l.09.53a9.914 9.914 0 011.63-.17c1.17 0 1.56.53 1.56 1.27v.61h-1.8a1.489 1.489 0 00-1.74 1.52 1.534 1.534 0 001.8 1.57 2.029 2.029 0 001.74-.76v.68h.64zm-.64-2.04a1.536 1.536 0 01-1.75 1.55.952.952 0 01-1.15-.96.924.924 0 011.14-.99h1.76v.4zm5.85.7c0-.78-.37-1.08-1.88-1.7-1.03-.42-1.25-.64-1.25-1.09 0-.53.36-.76 1.29-.76a6.633 6.633 0 011.51.2l.1-.52a5.342 5.342 0 00-1.65-.25c-1.05 0-1.89.39-1.89 1.26 0 .73.26 1.16 1.49 1.65 1.38.57 1.65.7 1.65 1.19 0 .6-.58.87-1.42.87a4.066 4.066 0 01-1.72-.41l-.18.5a4.327 4.327 0 001.92.48c1.26 0 2.03-.57 2.03-1.42zm8.95-5.42v-.57h-4.93v7.33h.67v-3.51h3.97v-.58h-3.97v-2.67h4.26zm5.2 6.76v-3.67c0-1.05-.7-1.79-2.18-1.79a7.605 7.605 0 00-1.74.21l.09.53a9.914 9.914 0 011.63-.17c1.17 0 1.56.53 1.56 1.27v.61h-1.8a1.484 1.484 0 00-1.74 1.52 1.534 1.534 0 001.8 1.57 2.029 2.029 0 001.74-.76v.68h.64zm-.64-2.04a1.536 1.536 0 01-1.75 1.55.952.952 0 01-1.15-.96.924.924 0 011.14-.99h1.76v.4zm6 1.93l-.11-.54a4.208 4.208 0 01-1.17.16 2.2 2.2 0 010-4.4 4.414 4.414 0 011.17.17l.11-.53a4.1 4.1 0 00-1.35-.21 2.77 2.77 0 000 5.54 5.176 5.176 0 001.35-.19zm2.12.11v-5.36h-.64v5.36h.64zm0-6.25V13.3h-.64v1.08h.64zm5.64 6.25v-3.67c0-1.05-.7-1.79-2.18-1.79a7.451 7.451 0 00-1.73.21l.08.53a9.914 9.914 0 011.63-.17c1.17 0 1.56.53 1.56 1.27v.61h-1.8a1.489 1.489 0 00-1.74 1.52 1.542 1.542 0 001.81 1.57 2.009 2.009 0 001.73-.76v.68h.64zm-.64-2.04a1.533 1.533 0 01-1.74 1.55.956.956 0 01-1.16-.96.924.924 0 011.14-.99h1.76v.4zm4.13 2.1v-.55h-.47a.727.727 0 01-.79-.89V13.3h-.63v5.92a1.27 1.27 0 001.37 1.47h.52zm5.86-2.52v-.23c0-1.48-.8-2.77-2.36-2.77a2.541 2.541 0 00-2.48 2.77 2.619 2.619 0 002.79 2.77 6.009 6.009 0 001.74-.27l-.13-.53a5.912 5.912 0 01-1.63.23 1.942 1.942 0 01-2.11-1.97h4.18zm-.66-.55h-3.52a1.834 1.834 0 011.82-1.88 1.735 1.735 0 011.7 1.88zm5.71 1.67c0-.78-.37-1.08-1.88-1.7-1.03-.42-1.25-.64-1.25-1.09 0-.53.36-.76 1.28-.76a6.646 6.646 0 011.52.2l.1-.52a5.385 5.385 0 00-1.65-.25c-1.06 0-1.89.39-1.89 1.26 0 .73.26 1.16 1.48 1.65 1.39.57 1.65.7 1.65 1.19 0 .6-.57.87-1.42.87a4.057 4.057 0 01-1.71-.41l-.18.5a4.327 4.327 0 001.92.48c1.26 0 2.03-.57 2.03-1.42zm3.79-4.96V13.3h-.83v1.03h.45l-.38 1.17h.36zm-1.7 0V13.3h-.82v1.03h.45l-.39 1.17h.36zm9.55 4.96c0-.78-.37-1.08-1.88-1.7-1.04-.42-1.26-.64-1.26-1.09 0-.53.37-.76 1.29-.76a6.646 6.646 0 011.52.2l.1-.52a5.429 5.429 0 00-1.65-.25c-1.06 0-1.89.39-1.89 1.26 0 .73.26 1.16 1.48 1.65 1.39.57 1.65.7 1.65 1.19 0 .6-.57.87-1.42.87a4.022 4.022 0 01-1.71-.41l-.18.5a4.284 4.284 0 001.91.48c1.27 0 2.04-.57 2.04-1.42zm5.86-1.12v-.23c0-1.48-.8-2.77-2.36-2.77a2.541 2.541 0 00-2.48 2.77 2.616 2.616 0 002.78 2.77 6.022 6.022 0 001.75-.27l-.13-.53a5.912 5.912 0 01-1.63.23 1.942 1.942 0 01-2.11-1.97h4.18zm-.66-.55h-3.52a1.834 1.834 0 011.82-1.88 1.735 1.735 0 011.7 1.88zm6.47 2.59v-4.94h-.64v.98a2.019 2.019 0 00-1.84-1.08c-1.61 0-2.28 1.29-2.28 2.71s.68 2.69 2.28 2.69a2.011 2.011 0 001.84-1.07v.7a1.629 1.629 0 01-1.92 1.87 5.839 5.839 0 01-1.61-.27l-.13.5a5.585 5.585 0 001.79.32 2.217 2.217 0 002.51-2.41zm-.64-2.33c0 1.3-.64 2.12-1.78 2.12-1.21 0-1.69-.94-1.69-2.12s.48-2.14 1.69-2.14c1.14 0 1.78.83 1.78 2.14zm10.39 2.75v-3.56a1.7 1.7 0 00-1.82-1.9 2.224 2.224 0 00-1.93 1.13 1.648 1.648 0 00-1.71-1.13 2.066 2.066 0 00-1.83 1.1v-1h-.65v5.36h.65v-2.72a1.907 1.907 0 011.74-2.14 1.129 1.129 0 011.26 1.35v3.51h.65V17.9a1.891 1.891 0 011.73-2.13 1.125 1.125 0 011.26 1.35v3.51h.65zm6.24-2.46v-.23c0-1.48-.8-2.77-2.36-2.77a2.546 2.546 0 00-2.48 2.77 2.619 2.619 0 002.79 2.77 6.123 6.123 0 001.75-.27l-.14-.53a5.9 5.9 0 01-1.62.23 1.945 1.945 0 01-2.12-1.97h4.18zm-.66-.55h-3.52a1.834 1.834 0 011.82-1.88 1.729 1.729 0 011.7 1.88zm6.51 3.01v-3.56a1.714 1.714 0 00-1.84-1.9 2.117 2.117 0 00-1.87 1.1v-1h-.65v5.36h.65v-2.72a1.934 1.934 0 011.78-2.14 1.148 1.148 0 011.29 1.35v3.51h.64zm3.98-.03l-.09-.48a3.786 3.786 0 01-.63.07c-.42 0-.62-.21-.62-.94v-3.41h1.11v-.57h-1.11v-1.52h-.64v1.52h-.74v.57h.74v3.38c0 1.11.45 1.49 1.24 1.49a2.582 2.582 0 00.74-.11zm5.98-2.66a2.509 2.509 0 10-2.5 2.77 2.556 2.556 0 002.5-2.77zm-.64 0a1.882 1.882 0 11-1.86-2.2 1.923 1.923 0 011.86 2.2zm7.06-2.44v-1.04h-.46l.4-1.16h-.38l-.38 1.16v1.04h.82zm-1.69 0v-1.04h-.46l.39-1.16h-.37l-.39 1.16v1.04h.83zm9.09 4.93v-3.04h-.6v2.62a8.456 8.456 0 01-1.58.16 3.163 3.163 0 01-3.35-3.21 3.085 3.085 0 013.35-3.2 7.917 7.917 0 011.82.2l.1-.54a7.546 7.546 0 00-1.9-.23 3.691 3.691 0 00-4.03 3.77 3.85 3.85 0 004.04 3.79 7.785 7.785 0 002.15-.32zm6.24-2.26v-.23c0-1.48-.8-2.77-2.36-2.77a2.546 2.546 0 00-2.48 2.77 2.619 2.619 0 002.79 2.77 6.123 6.123 0 001.75-.27l-.14-.53a5.9 5.9 0 01-1.62.23 1.945 1.945 0 01-2.12-1.97h4.18zm-.66-.55h-3.52a1.834 1.834 0 011.82-1.88 1.729 1.729 0 011.7 1.88zm3.99 3.07v-.55h-.48a.721.721 0 01-.78-.89V13.3h-.64v5.92a1.273 1.273 0 001.38 1.47h.52zm8.52-.06v-.58h-3.85V13.3h-.66v7.33h4.51zm1.9 0v-5.36h-.64v5.36h.64zm0-6.25V13.3h-.64v1.08h.64zm9.81 6.25v-3.56a1.7 1.7 0 00-1.82-1.9 2.253 2.253 0 00-1.94 1.13 1.628 1.628 0 00-1.7-1.13 2.066 2.066 0 00-1.83 1.1v-1h-.65v5.36h.65v-2.72a1.907 1.907 0 011.74-2.14 1.122 1.122 0 011.25 1.35v3.51h.65V17.9a1.9 1.9 0 011.74-2.13 1.129 1.129 0 011.26 1.35v3.51h.65zm6.57-2.69c0-1.33-.68-2.77-2.35-2.77a1.911 1.911 0 00-1.76 1.08v-.98h-.65v7.26h.65v-2.89a1.919 1.919 0 001.76 1.07c1.68 0 2.35-1.44 2.35-2.77zm-.64 0c0 1.21-.59 2.2-1.73 2.2s-1.74-1.01-1.74-2.2.59-2.2 1.74-2.2 1.73.99 1.73 2.2zm2.76 2.69v-5.36h-.63v5.36h.63zm0-6.25V13.3h-.63v1.08h.63zm6.31 3.79v-.23c0-1.48-.8-2.77-2.37-2.77a2.539 2.539 0 00-2.47 2.77 2.611 2.611 0 002.78 2.77 6.072 6.072 0 001.75-.27l-.13-.53a5.963 5.963 0 01-1.63.23 1.942 1.942 0 01-2.11-1.97h4.18zm-.66-.55h-3.52a1.832 1.832 0 011.81-1.88 1.737 1.737 0 011.71 1.88zm6.24 3.01v-.58h-3.65l3.56-4.21v-.57h-4.08v.57h3.31L205 20.05v.58h4.43zm5.36 0v-3.67c0-1.05-.7-1.79-2.18-1.79a7.451 7.451 0 00-1.73.21l.08.53a10.021 10.021 0 011.63-.17c1.17 0 1.57.53 1.57 1.27v.61h-1.81a1.489 1.489 0 00-1.74 1.52 1.542 1.542 0 001.81 1.57 2.042 2.042 0 001.74-.76v.68h.63zm-.63-2.04a1.541 1.541 0 01-1.75 1.55.956.956 0 01-1.16-.96.924.924 0 011.14-.99h1.77v.4zm4.64-4.26V13.3h-.83v1.03h.45l-.38 1.17h.36zm-1.7 0V13.3h-.82v1.03h.45l-.39 1.17h.37zm4.28 6.3v-1.04h-.82v1.04h.45l-.39 1.16h.37zm8.06 0v-3.67c0-1.05-.7-1.79-2.17-1.79a7.471 7.471 0 00-1.74.21l.09.53a9.807 9.807 0 011.62-.17c1.17 0 1.57.53 1.57 1.27v.61H227a1.489 1.489 0 00-1.74 1.52 1.542 1.542 0 001.81 1.57 2.042 2.042 0 001.74-.76v.68h.63zm-.63-2.04a1.536 1.536 0 01-1.75 1.55.956.956 0 01-1.16-.96.928.928 0 011.15-.99h1.76v.4zm4.12 2.1v-.55h-.47a.721.721 0 01-.78-.89V13.3h-.64v5.92a1.27 1.27 0 001.37 1.47h.52zm7.62-.06v-3.67c0-1.05-.7-1.79-2.17-1.79a7.471 7.471 0 00-1.74.21l.09.53a9.807 9.807 0 011.62-.17c1.17 0 1.57.53 1.57 1.27v.61h-1.81a1.489 1.489 0 00-1.74 1.52 1.542 1.542 0 001.81 1.57 2.042 2.042 0 001.74-.76v.68h.63zm-.63-2.04a1.536 1.536 0 01-1.75 1.55.956.956 0 01-1.16-.96.928.928 0 011.15-.99h1.76v.4zm5.99 1.93l-.11-.54a4.189 4.189 0 01-1.16.16 2.2 2.2 0 010-4.4 4.285 4.285 0 011.16.17l.11-.53a4.082 4.082 0 00-1.34-.21 2.77 2.77 0 000 5.54 5.043 5.043 0 001.34-.19zm5.73.11v-5.36H251v2.72a1.937 1.937 0 01-1.79 2.13 1.145 1.145 0 01-1.28-1.35v-3.5h-.64v3.55a1.7 1.7 0 001.83 1.89 2.133 2.133 0 001.88-1.1v1.02h.64zm9.8 0v-3.56a1.692 1.692 0 00-1.81-1.9 2.24 2.24 0 00-1.94 1.13 1.628 1.628 0 00-1.7-1.13 2.066 2.066 0 00-1.83 1.1v-1h-.65v5.36h.65v-2.72a1.907 1.907 0 011.74-2.14 1.122 1.122 0 011.25 1.35v3.51h.65V17.9a1.9 1.9 0 011.74-2.13 1.129 1.129 0 011.26 1.35v3.51h.64zm6.06 0v-5.36h-.63v2.72a1.944 1.944 0 01-1.8 2.13 1.139 1.139 0 01-1.27-1.35v-3.5h-.65v3.55a1.7 1.7 0 001.83 1.89 2.161 2.161 0 001.89-1.1v1.02h.63zm3.71.06v-.55h-.47a.721.721 0 01-.78-.89V13.3h-.64v5.92a1.27 1.27 0 001.37 1.47h.52zm5.2-.06v-3.67c0-1.05-.7-1.79-2.17-1.79a7.471 7.471 0 00-1.74.21l.09.53a9.807 9.807 0 011.62-.17c1.17 0 1.57.53 1.57 1.27v.61h-1.81a1.489 1.489 0 00-1.74 1.52 1.542 1.542 0 001.81 1.57 2.042 2.042 0 001.74-.76v.68h.63zm-.63-2.04a1.541 1.541 0 01-1.75 1.55.956.956 0 01-1.16-.96.928.928 0 011.15-.99h1.76v.4zm6.66 2.04V13.3h-.64v2.95a1.911 1.911 0 00-1.76-1.08c-1.68 0-2.36 1.44-2.36 2.77s.69 2.77 2.36 2.77a1.919 1.919 0 001.76-1.07v.99h.64zm-.64-2.69c0 1.19-.59 2.2-1.73 2.2s-1.74-.99-1.74-2.2.59-2.2 1.74-2.2 1.73 1.01 1.73 2.2zm7.12 0a2.509 2.509 0 10-2.5 2.77 2.556 2.556 0 002.5-2.77zm-.64 0a1.878 1.878 0 11-1.86-2.2 1.923 1.923 0 011.86 2.2zm8.92 2.69V13.3h-.63v2.95a1.921 1.921 0 00-1.76-1.08c-1.69 0-2.37 1.44-2.37 2.77s.69 2.77 2.37 2.77a1.93 1.93 0 001.76-1.07v.99h.63zm-.63-2.69c0 1.19-.6 2.2-1.74 2.2s-1.74-.99-1.74-2.2.59-2.2 1.74-2.2 1.74 1.01 1.74 2.2zm6.94.23v-.23c0-1.48-.81-2.77-2.37-2.77a2.539 2.539 0 00-2.47 2.77 2.611 2.611 0 002.78 2.77 6.072 6.072 0 001.75-.27l-.13-.53a6.014 6.014 0 01-1.63.23 1.937 1.937 0 01-2.11-1.97h4.18zm-.66-.55h-3.52a1.832 1.832 0 011.81-1.88 1.737 1.737 0 011.71 1.88zm3.98 3.07v-.55h-.48a.724.724 0 01-.78-.89V13.3h-.63v5.92a1.27 1.27 0 001.37 1.47h.52zm7.62-.06v-3.67c0-1.05-.7-1.79-2.18-1.79a7.605 7.605 0 00-1.74.21l.09.53a9.914 9.914 0 011.63-.17c1.17 0 1.56.53 1.56 1.27v.61h-1.8a1.489 1.489 0 00-1.74 1.52 1.534 1.534 0 001.8 1.57 2.029 2.029 0 001.74-.76v.68h.64zm-.64-2.04a1.536 1.536 0 01-1.75 1.55.952.952 0 01-1.15-.96.924.924 0 011.14-.99h1.76v.4zm6.65 2.04v-3.56a1.714 1.714 0 00-1.84-1.9 2.117 2.117 0 00-1.87 1.1v-1h-.65v5.36h.65v-2.72a1.934 1.934 0 011.78-2.14 1.148 1.148 0 011.29 1.35v3.51h.64zm-.61-6.99l-.44-.19a.679.679 0 01-.49.48 7.668 7.668 0 00-1.1-.41 1.109 1.109 0 00-.95.74l.43.19a.715.715 0 01.51-.46 6.954 6.954 0 001.1.4 1.11 1.11 0 00.94-.75zm7.03 4.3a2.509 2.509 0 10-2.5 2.77 2.556 2.556 0 002.5-2.77zm-.64 0a1.878 1.878 0 11-1.86-2.2 1.923 1.923 0 011.86 2.2zm9.22 2.69v-.58h-4.19c0-.99.41-1.37 2.4-2.58 1.18-.72 1.67-1.37 1.67-2.32 0-1.08-.76-1.85-2.5-1.85a6.89 6.89 0 00-2.13.34l.12.53a6.785 6.785 0 011.88-.3c1.34 0 1.99.41 1.99 1.3 0 .7-.34 1.21-1.69 2.01-1.86 1.11-2.39 1.71-2.39 2.94v.51h4.84zm6.71-3.61c0-2.08-.87-3.72-2.65-3.72s-2.66 1.64-2.66 3.72.88 3.73 2.66 3.73 2.65-1.65 2.65-3.73zm-.64 0c0 1.78-.59 3.15-2.01 3.15s-2.03-1.37-2.03-3.15.61-3.15 2.03-3.15 2.01 1.36 2.01 3.15zm4.23 3.61v-7.22h-.64l-2.07.42.1.49 1.97-.35v6.66h.64zm6.95-4.19c0-2.13-1.09-3.14-2.6-3.14a2.359 2.359 0 00-2.37 2.36 2.233 2.233 0 002.33 2.27 2.293 2.293 0 002.01-.94c-.19 1.95-1.19 3.18-3.09 3.18a8.607 8.607 0 01-.87-.06l-.07.53a4.521 4.521 0 00.9.11c2.41 0 3.76-1.62 3.76-4.31zm-.67-.75a1.792 1.792 0 01-1.95 1.67 1.564 1.564 0 01-1.72-1.67 1.726 1.726 0 011.76-1.82 1.765 1.765 0 011.91 1.82zm6.89 6.31a8.176 8.176 0 010-9.44l-.46-.32a8.36 8.36 0 000 10.08zm7.58-1.37V13.3h-.65v6.29l-4.69-6.29h-.64v7.33h.64v-6.31l4.69 6.31h.65zm6.65-2.69a2.513 2.513 0 10-2.5 2.77 2.562 2.562 0 002.5-2.77zm-.64 0a1.882 1.882 0 11-1.86-2.2 1.929 1.929 0 011.86 2.2zm6.15-2.67h-.64l-1.82 4.67-1.8-4.67h-.65l2.14 5.36h.63zm1.62 5.36v-5.36h-.63v5.36h.63zm0-6.25V13.3h-.63v1.08h.63zm6.31 3.79v-.23c0-1.48-.8-2.77-2.37-2.77a2.539 2.539 0 00-2.47 2.77 2.611 2.611 0 002.78 2.77 6.072 6.072 0 001.75-.27l-.13-.53a5.963 5.963 0 01-1.63.23 1.942 1.942 0 01-2.11-1.97h4.18zm-.66-.55h-3.52a1.832 1.832 0 011.81-1.88 1.737 1.737 0 011.71 1.88zm10.08 3.01v-3.56a1.7 1.7 0 00-1.82-1.9 2.253 2.253 0 00-1.94 1.13 1.628 1.628 0 00-1.7-1.13 2.066 2.066 0 00-1.83 1.1v-1h-.65v5.36h.65v-2.72a1.907 1.907 0 011.74-2.14 1.122 1.122 0 011.25 1.35v3.51h.65V17.9a1.9 1.9 0 011.74-2.13 1.129 1.129 0 011.26 1.35v3.51h.65zm6.57-2.69c0-1.33-.67-2.77-2.35-2.77a1.911 1.911 0 00-1.76 1.08V13.3h-.65v7.33h.65v-.99a1.919 1.919 0 001.76 1.07c1.67 0 2.35-1.44 2.35-2.77zm-.64 0c0 1.21-.59 2.2-1.73 2.2s-1.74-1.01-1.74-2.2.59-2.2 1.74-2.2 1.73.99 1.73 2.2zm4.75-2.14v-.63a2.357 2.357 0 00-1.97 1.24v-1.14h-.65v5.36h.65v-2.69a2.085 2.085 0 011.97-2.14zm5.58 2.37v-.23c0-1.48-.8-2.77-2.36-2.77a2.546 2.546 0 00-2.48 2.77 2.619 2.619 0 002.79 2.77 6.123 6.123 0 001.75-.27l-.14-.53a5.9 5.9 0 01-1.62.23 1.945 1.945 0 01-2.12-1.97h4.18zm-.66-.55h-3.52a1.834 1.834 0 011.82-1.88 1.729 1.729 0 011.7 1.88zm9.24 3.01v-.58h-4.19c0-.99.41-1.37 2.4-2.58 1.18-.72 1.67-1.37 1.67-2.32 0-1.08-.76-1.85-2.5-1.85a6.939 6.939 0 00-2.13.34l.12.53a6.785 6.785 0 011.88-.3c1.35 0 1.99.41 1.99 1.3 0 .7-.34 1.21-1.69 2.01-1.86 1.11-2.39 1.71-2.39 2.94v.51h4.84zm6.71-3.61c0-2.08-.87-3.72-2.65-3.72s-2.66 1.64-2.66 3.72.88 3.73 2.66 3.73 2.65-1.65 2.65-3.73zm-.63 0c0 1.78-.6 3.15-2.02 3.15s-2.02-1.37-2.02-3.15.6-3.15 2.02-3.15 2.02 1.36 2.02 3.15zm4.22 3.61v-7.22h-.64l-2.07.42.1.49 1.97-.35v6.66h.64zm7.01-2.04a1.965 1.965 0 00-1.34-1.84 1.847 1.847 0 001-1.57 2.28 2.28 0 00-4.49 0 1.836 1.836 0 00.99 1.57 1.971 1.971 0 00-1.36 1.84 2.645 2.645 0 005.2 0zm-.64 0a1.687 1.687 0 01-1.95 1.58 1.706 1.706 0 01-1.97-1.58c0-.87.71-1.51 1.97-1.51s1.95.64 1.95 1.51zm-.34-3.41a1.635 1.635 0 01-3.22 0 1.642 1.642 0 013.22 0zm8.71 5.45v-3.67c0-1.05-.71-1.79-2.18-1.79a7.605 7.605 0 00-1.74.21l.09.53a9.809 9.809 0 011.63-.17c1.16 0 1.56.53 1.56 1.27v.61h-1.8a1.484 1.484 0 00-1.74 1.52 1.534 1.534 0 001.8 1.57 2.042 2.042 0 001.74-.76v.68h.64zm-.64-2.04a1.536 1.536 0 01-1.75 1.55.948.948 0 01-1.15-.96.924.924 0 011.14-.99h1.76v.4zm11.29-1.62a3.469 3.469 0 10-3.46 3.78 3.558 3.558 0 003.46-3.78zm-.66 0a2.822 2.822 0 11-2.8-3.21 2.912 2.912 0 012.8 3.21zm5.9 3.55l-.11-.54a4.189 4.189 0 01-1.16.16 2.2 2.2 0 010-4.4 4.285 4.285 0 011.16.17l.11-.53a4.082 4.082 0 00-1.34-.21 2.77 2.77 0 000 5.54 5.043 5.043 0 001.34-.19zm3.65.08l-.08-.48a3.786 3.786 0 01-.63.07c-.42 0-.62-.21-.62-.94v-3.41h1.1v-.57h-1.1v-1.52h-.65v1.52h-.73v.57h.73v3.38c0 1.11.46 1.49 1.25 1.49a2.478 2.478 0 00.73-.11zm5.63.03v-5.36h-.64v2.72a1.938 1.938 0 01-1.8 2.13 1.139 1.139 0 01-1.27-1.35v-3.5h-.65v3.55a1.7 1.7 0 001.84 1.89 2.157 2.157 0 001.88-1.1v1.02h.64zm6.63-2.69c0-1.33-.67-2.77-2.36-2.77a1.921 1.921 0 00-1.76 1.08V13.3h-.65v7.33h.65v-.99a1.93 1.93 0 001.76 1.07c1.68 0 2.36-1.44 2.36-2.77zm-.64 0c0 1.21-.59 2.2-1.74 2.2s-1.74-1.01-1.74-2.2.6-2.2 1.74-2.2 1.74.99 1.74 2.2zm4.74-2.14v-.63a2.37 2.37 0 00-1.97 1.24v-1.14h-.65v5.36h.65v-2.69a2.092 2.092 0 011.97-2.14zm5.59 2.37v-.23c0-1.48-.8-2.77-2.37-2.77a2.539 2.539 0 00-2.47 2.77 2.611 2.611 0 002.78 2.77 6.022 6.022 0 001.75-.27l-.13-.53a5.963 5.963 0 01-1.63.23 1.942 1.942 0 01-2.11-1.97h4.18zm-.66-.55h-3.52a1.832 1.832 0 011.81-1.88 1.737 1.737 0 011.71 1.88zm9.24 3.01v-.58h-4.19c0-.99.4-1.37 2.4-2.58 1.17-.72 1.67-1.37 1.67-2.32 0-1.08-.76-1.85-2.5-1.85a6.841 6.841 0 00-2.13.34l.12.53a6.725 6.725 0 011.88-.3c1.34 0 1.99.41 1.99 1.3 0 .7-.34 1.21-1.69 2.01-1.86 1.11-2.39 1.71-2.39 2.94v.51h4.84zm6.71-3.61c0-2.08-.87-3.72-2.65-3.72s-2.66 1.64-2.66 3.72.88 3.73 2.66 3.73 2.65-1.65 2.65-3.73zm-.64 0c0 1.78-.59 3.15-2.01 3.15S498 18.8 498 17.02s.61-3.15 2.03-3.15 2.01 1.36 2.01 3.15zm4.22 3.61v-7.22h-.63l-2.07.42.1.49 1.97-.35v6.66h.63zm6.96-4.19c0-2.13-1.09-3.14-2.6-3.14a2.368 2.368 0 00-2.38 2.36 2.242 2.242 0 002.34 2.27 2.305 2.305 0 002.01-.94c-.19 1.95-1.19 3.18-3.09 3.18a8.607 8.607 0 01-.87-.06l-.07.53a4.513 4.513 0 00.89.11c2.41 0 3.77-1.62 3.77-4.31zm-.67-.75a1.8 1.8 0 01-1.95 1.67 1.564 1.564 0 01-1.72-1.67 1.726 1.726 0 011.76-1.82 1.765 1.765 0 011.91 1.82zm3.98 1.59a8.366 8.366 0 00-1.7-5.04l-.46.32a8.132 8.132 0 010 9.44l.46.32a8.366 8.366 0 001.7-5.04zm9.11.66c0-1.33-.69-2.77-2.36-2.77a1.911 1.911 0 00-1.76 1.08v-.98h-.65v7.26h.65v-2.89a1.919 1.919 0 001.76 1.07c1.68 0 2.36-1.44 2.36-2.77zm-.64 0c0 1.21-.6 2.2-1.74 2.2s-1.74-1.01-1.74-2.2.6-2.2 1.74-2.2 1.74.99 1.74 2.2zm5.89 2.69v-3.67c0-1.05-.7-1.79-2.17-1.79a7.471 7.471 0 00-1.74.21l.08.53a10.021 10.021 0 011.63-.17c1.17 0 1.57.53 1.57 1.27v.61h-1.81a1.489 1.489 0 00-1.74 1.52 1.542 1.542 0 001.81 1.57 2.042 2.042 0 001.74-.76v.68h.63zm-.63-2.04a1.541 1.541 0 01-1.75 1.55.956.956 0 01-1.16-.96.924.924 0 011.14-.99h1.77v.4zm4.9-2.79v-.63a2.37 2.37 0 00-1.97 1.24v-1.14h-.65v5.36h.65v-2.69a2.092 2.092 0 011.97-2.14zm4.93 4.83v-3.67c0-1.05-.7-1.79-2.18-1.79a7.605 7.605 0 00-1.74.21l.09.53a9.809 9.809 0 011.63-.17c1.17 0 1.56.53 1.56 1.27v.61h-1.8a1.484 1.484 0 00-1.74 1.52 1.534 1.534 0 001.8 1.57 2.029 2.029 0 001.74-.76v.68h.64zm-.64-2.04a1.536 1.536 0 01-1.75 1.55.952.952 0 01-1.15-.96.924.924 0 011.14-.99h1.76v.4zm9.14-.42v-.23c0-1.48-.8-2.77-2.36-2.77a2.541 2.541 0 00-2.48 2.77 2.616 2.616 0 002.78 2.77 6.022 6.022 0 001.75-.27l-.13-.53a5.912 5.912 0 01-1.63.23 1.942 1.942 0 01-2.11-1.97h4.18zm-.66-.55h-3.52a1.834 1.834 0 011.82-1.88 1.735 1.735 0 011.7 1.88zm3.98 3.07v-.55h-.47a.721.721 0 01-.78-.89V13.3h-.64v5.92a1.273 1.273 0 001.38 1.47h.51zM121.26 33.83v-3.56a1.7 1.7 0 00-1.82-1.9 2.253 2.253 0 00-1.94 1.13 1.628 1.628 0 00-1.7-1.13 2.066 2.066 0 00-1.83 1.1v-1h-.65v5.36h.65v-2.72a1.907 1.907 0 011.74-2.14 1.122 1.122 0 011.25 1.35v3.51h.65V31.1a1.9 1.9 0 011.74-2.13 1.129 1.129 0 011.26 1.35v3.51h.65zm6.24-2.46v-.23c0-1.48-.8-2.77-2.36-2.77a2.541 2.541 0 00-2.48 2.77 2.619 2.619 0 002.79 2.77 6.009 6.009 0 001.74-.27l-.13-.53a5.912 5.912 0 01-1.63.23 1.942 1.942 0 01-2.11-1.97h4.18zm-.66-.55h-3.52a1.834 1.834 0 011.82-1.88 1.735 1.735 0 011.7 1.88zm4.77-1.82v-.63a2.357 2.357 0 00-1.97 1.24v-1.14h-.65v5.36h.65v-2.69a2.092 2.092 0 011.97-2.14zm4.86 4.72l-.11-.54a4.208 4.208 0 01-1.17.16 2.2 2.2 0 010-4.4 4.414 4.414 0 011.17.17l.11-.53a4.082 4.082 0 00-1.34-.21 2.77 2.77 0 000 5.54 5.161 5.161 0 001.34-.19zm5.26.11v-3.67c0-1.05-.71-1.79-2.18-1.79a7.538 7.538 0 00-1.74.21l.09.53a9.807 9.807 0 011.62-.17c1.17 0 1.57.53 1.57 1.27v.61h-1.81a1.489 1.489 0 00-1.74 1.52 1.542 1.542 0 001.81 1.57 2.042 2.042 0 001.74-.76v.68h.64zm-.64-2.04a1.536 1.536 0 01-1.75 1.55.956.956 0 01-1.16-.96.928.928 0 011.15-.99h1.76v.4zm6.66 2.04V26.5h-.63v2.95a1.926 1.926 0 00-1.77-1.08c-1.68 0-2.36 1.44-2.36 2.77s.69 2.77 2.36 2.77a1.934 1.934 0 001.77-1.07v.99h.63zm-.63-2.69c0 1.19-.6 2.2-1.74 2.2s-1.74-.99-1.74-2.2.59-2.2 1.74-2.2 1.74 1.01 1.74 2.2zm7.11 0a2.509 2.509 0 10-2.5 2.77 2.556 2.556 0 002.5-2.77zm-.64 0a1.878 1.878 0 11-1.86-2.2 1.923 1.923 0 011.86 2.2zm8.93 2.69V26.5h-.64v2.95a1.921 1.921 0 00-1.76-1.08c-1.69 0-2.37 1.44-2.37 2.77s.69 2.77 2.37 2.77a1.93 1.93 0 001.76-1.07v.99h.64zm-.64-2.69c0 1.19-.6 2.2-1.74 2.2s-1.74-.99-1.74-2.2.59-2.2 1.74-2.2 1.74 1.01 1.74 2.2zm6.94.23v-.23c0-1.48-.81-2.77-2.37-2.77a2.539 2.539 0 00-2.47 2.77 2.611 2.611 0 002.78 2.77 6.072 6.072 0 001.75-.27l-.13-.53a5.963 5.963 0 01-1.63.23 1.942 1.942 0 01-2.11-1.97h4.18zm-.66-.55h-3.52a1.832 1.832 0 011.81-1.88 1.737 1.737 0 011.71 1.88zm9.87 2.89l-.14-.53a7.209 7.209 0 01-1.65.19 3.208 3.208 0 110-6.41 7.483 7.483 0 011.68.2l.11-.54a6.264 6.264 0 00-1.77-.23 3.761 3.761 0 00-4.03 3.77 3.817 3.817 0 004.03 3.79 6.814 6.814 0 001.77-.24zm5.99.12v-3.56a1.707 1.707 0 00-1.83-1.9 2.157 2.157 0 00-1.88 1.1V26.5h-.64v7.33h.64v-2.72a1.942 1.942 0 011.8-2.14 1.135 1.135 0 011.27 1.35v3.51h.64zm2.51 0v-5.36h-.64v5.36h.64zm0-6.25V26.5h-.64v1.08h.64zm3.7 6.31v-.55h-.47a.721.721 0 01-.78-.89V26.5h-.64v5.92a1.273 1.273 0 001.38 1.47h.51zm5.87-2.52v-.23c0-1.48-.81-2.77-2.37-2.77a2.539 2.539 0 00-2.47 2.77 2.611 2.611 0 002.78 2.77 6.072 6.072 0 001.75-.27l-.13-.53a5.963 5.963 0 01-1.63.23 1.942 1.942 0 01-2.11-1.97h4.18zm-.66-.55h-3.52a1.832 1.832 0 011.81-1.88 1.737 1.737 0 011.71 1.88zm2.97 3.01v-1.04h-.83v1.04h.83zm6.5 1.37a8.132 8.132 0 010-9.44l-.46-.32a8.321 8.321 0 000 10.08zm7.37-5.04c0-2.11-1.82-3.66-4.31-3.66h-1.47v7.33h1.47c2.49 0 4.31-1.56 4.31-3.67zm-.67 0a3.279 3.279 0 01-3.55 3.09h-.9v-6.18h.9a3.279 3.279 0 013.55 3.09zm6.48 1.21v-.23c0-1.48-.81-2.77-2.37-2.77a2.546 2.546 0 00-2.48 2.77 2.619 2.619 0 002.79 2.77 6.072 6.072 0 001.75-.27l-.13-.53a6.014 6.014 0 01-1.63.23 1.945 1.945 0 01-2.12-1.97h4.19zm-.66-.55h-3.53a1.84 1.84 0 011.82-1.88 1.737 1.737 0 011.71 1.88zm4.76-1.82v-.63a2.357 2.357 0 00-1.97 1.24v-1.14h-.65v5.36h.65v-2.69a2.092 2.092 0 011.97-2.14zm5.59 2.37v-.23c0-1.48-.81-2.77-2.37-2.77a2.539 2.539 0 00-2.47 2.77 2.611 2.611 0 002.78 2.77 6.072 6.072 0 001.75-.27l-.13-.53a6.014 6.014 0 01-1.63.23 1.937 1.937 0 01-2.11-1.97h4.18zm-.66-.55h-3.52a1.832 1.832 0 011.81-1.88 1.737 1.737 0 011.71 1.88zm5.85 2.9l-.11-.54a4.208 4.208 0 01-1.17.16 2.2 2.2 0 010-4.4 4.357 4.357 0 011.17.17l.11-.53a4.082 4.082 0 00-1.34-.21 2.77 2.77 0 000 5.54 5.161 5.161 0 001.34-.19zm5.83.11v-3.56a1.707 1.707 0 00-1.83-1.9 2.157 2.157 0 00-1.88 1.1V26.5h-.64v7.33h.64v-2.72a1.941 1.941 0 011.79-2.14 1.138 1.138 0 011.28 1.35v3.51h.64zm6.48-2.69a2.513 2.513 0 10-2.5 2.77 2.562 2.562 0 002.5-2.77zm-.64 0a1.882 1.882 0 11-1.86-2.2 1.929 1.929 0 011.86 2.2zm5.69 1.35c0-.78-.38-1.08-1.89-1.7-1.03-.42-1.25-.64-1.25-1.09 0-.53.36-.76 1.29-.76a6.721 6.721 0 011.52.2l.09-.52a5.342 5.342 0 00-1.65-.25c-1.05 0-1.89.39-1.89 1.26 0 .73.27 1.16 1.49 1.65 1.38.57 1.65.7 1.65 1.19 0 .6-.57.87-1.42.87a4.066 4.066 0 01-1.72-.41l-.17.5a4.25 4.25 0 001.91.48c1.27 0 2.04-.57 2.04-1.42zm6.46-3.49v-.63a2.384 2.384 0 00-1.97 1.24v-1.14h-.65v5.36h.65v-2.69a2.092 2.092 0 011.97-2.14zm5.59 2.37v-.23c0-1.48-.8-2.77-2.36-2.77a2.541 2.541 0 00-2.48 2.77 2.616 2.616 0 002.78 2.77 6.022 6.022 0 001.75-.27l-.13-.53a5.963 5.963 0 01-1.63.23 1.942 1.942 0 01-2.11-1.97h4.18zm-.66-.55h-3.52a1.834 1.834 0 011.82-1.88 1.735 1.735 0 011.7 1.88zm5.71 1.67c0-.78-.37-1.08-1.88-1.7-1.04-.42-1.26-.64-1.26-1.09 0-.53.37-.76 1.29-.76a6.646 6.646 0 011.52.2l.1-.52a5.385 5.385 0 00-1.65-.25c-1.06 0-1.89.39-1.89 1.26 0 .73.26 1.16 1.48 1.65 1.39.57 1.65.7 1.65 1.19 0 .6-.57.87-1.42.87a4.022 4.022 0 01-1.71-.41l-.18.5a4.318 4.318 0 001.91.48c1.27 0 2.04-.57 2.04-1.42zm5.86-1.12v-.23c0-1.48-.8-2.77-2.36-2.77a2.546 2.546 0 00-2.48 2.77 2.619 2.619 0 002.79 2.77 6.123 6.123 0 001.75-.27l-.14-.53a5.9 5.9 0 01-1.62.23 1.945 1.945 0 01-2.12-1.97h4.18zm-.66-.55h-3.52a1.834 1.834 0 011.82-1.88 1.729 1.729 0 011.7 1.88zM277.4 29v-.63a2.357 2.357 0 00-1.97 1.24v-1.14h-.65v5.36h.65v-2.69A2.092 2.092 0 01277.4 29zm5.18-.53h-.64l-1.82 4.67-1.8-4.67h-.65l2.13 5.36h.64zm4.76 5.36v-3.67c0-1.05-.7-1.79-2.18-1.79a7.605 7.605 0 00-1.74.21l.09.53a9.914 9.914 0 011.63-.17c1.17 0 1.56.53 1.56 1.27v.61h-1.8a1.489 1.489 0 00-1.74 1.52 1.534 1.534 0 001.8 1.57 2.029 2.029 0 001.74-.76v.68h.64zm-.64-2.04a1.536 1.536 0 01-1.75 1.55.952.952 0 01-1.15-.96.924.924 0 011.14-.99h1.76v.4zm6.67 2.04V26.5h-.64v2.95a1.911 1.911 0 00-1.76-1.08c-1.68 0-2.37 1.44-2.37 2.77s.7 2.77 2.37 2.77a1.919 1.919 0 001.76-1.07v.99h.64zm-.64-2.69c0 1.19-.59 2.2-1.74 2.2s-1.74-.99-1.74-2.2.6-2.2 1.74-2.2 1.74 1.01 1.74 2.2zm7.12 0a2.513 2.513 0 10-2.5 2.77 2.562 2.562 0 002.5-2.77zm-.64 0a1.882 1.882 0 11-1.86-2.2 1.929 1.929 0 011.86 2.2zm5.69 1.35c0-.78-.38-1.08-1.89-1.7-1.03-.42-1.25-.64-1.25-1.09 0-.53.36-.76 1.29-.76a6.721 6.721 0 011.52.2l.09-.52a5.342 5.342 0 00-1.65-.25c-1.05 0-1.89.39-1.89 1.26 0 .73.27 1.16 1.49 1.65 1.38.57 1.65.7 1.65 1.19 0 .6-.57.87-1.42.87a4.066 4.066 0 01-1.72-.41l-.17.5a4.25 4.25 0 001.91.48c1.27 0 2.04-.57 2.04-1.42zm8.52 1.34v-.58h-4.19c0-.99.41-1.37 2.4-2.58 1.17-.72 1.67-1.37 1.67-2.32 0-1.08-.76-1.85-2.5-1.85a6.89 6.89 0 00-2.13.34l.12.53a6.725 6.725 0 011.88-.3c1.34 0 1.99.41 1.99 1.3 0 .7-.34 1.21-1.69 2.01-1.86 1.11-2.39 1.71-2.39 2.94v.51h4.84zm6.71-3.61c0-2.08-.87-3.72-2.65-3.72s-2.66 1.64-2.66 3.72.88 3.73 2.66 3.73 2.65-1.65 2.65-3.73zm-.64 0c0 1.78-.59 3.15-2.01 3.15s-2.03-1.37-2.03-3.15.61-3.15 2.03-3.15 2.01 1.36 2.01 3.15zm6.86 3.61v-.58h-4.2c0-.99.41-1.37 2.4-2.58 1.18-.72 1.67-1.37 1.67-2.32 0-1.08-.75-1.85-2.49-1.85a6.955 6.955 0 00-2.14.34l.12.53a6.785 6.785 0 011.88-.3c1.35 0 2 .41 2 1.3 0 .7-.34 1.21-1.7 2.01-1.86 1.11-2.39 1.71-2.39 2.94v.51h4.85zm6.71-3.61c0-2.08-.87-3.72-2.66-3.72s-2.66 1.64-2.66 3.72.88 3.73 2.66 3.73 2.66-1.65 2.66-3.73zm-.64 0c0 1.78-.6 3.15-2.02 3.15s-2.02-1.37-2.02-3.15.6-3.15 2.02-3.15 2.02 1.36 2.02 3.15zm2.89 3.61v-1.04h-.83v1.04h.46l-.39 1.16h.36zm9.22-6.76v-.57h-5.7v.57h2.52v6.76h.66v-6.76h2.52zm5.44 6.76v-3.56a1.7 1.7 0 00-1.82-1.9 2.161 2.161 0 00-1.89 1.1V26.5h-.63v7.33h.63v-2.72a1.948 1.948 0 011.8-2.14 1.135 1.135 0 011.27 1.35v3.51h.64zm6.31-2.46v-.23c0-1.48-.81-2.77-2.37-2.77a2.546 2.546 0 00-2.48 2.77 2.619 2.619 0 002.79 2.77 6.072 6.072 0 001.75-.27l-.13-.53a6.014 6.014 0 01-1.63.23 1.945 1.945 0 01-2.12-1.97h4.19zm-.66-.55h-3.53a1.834 1.834 0 011.82-1.88 1.737 1.737 0 011.71 1.88zm10.71 3.01V26.5h-.65v6.29l-4.7-6.29h-.64v7.33h.64v-6.31l4.7 6.31h.65zm2.67 0v-5.36h-.64v5.36h.64zm0-6.25V26.5h-.64v1.08h.64zm6.31 3.79v-.23c0-1.48-.81-2.77-2.37-2.77a2.546 2.546 0 00-2.48 2.77 2.619 2.619 0 002.79 2.77 6.123 6.123 0 001.75-.27l-.13-.53a6.014 6.014 0 01-1.63.23 1.945 1.945 0 01-2.12-1.97h4.19zm-.66-.55h-3.53a1.834 1.834 0 011.82-1.88 1.742 1.742 0 011.71 1.88zm3.98 3.07v-.55h-.48a.724.724 0 01-.78-.89V26.5h-.64v5.92a1.273 1.273 0 001.38 1.47h.52zm4.99-1.4c0-.78-.37-1.08-1.88-1.7-1.03-.42-1.25-.64-1.25-1.09 0-.53.36-.76 1.28-.76a6.646 6.646 0 011.52.2l.1-.52a5.385 5.385 0 00-1.65-.25c-1.06 0-1.89.39-1.89 1.26 0 .73.26 1.16 1.48 1.65 1.39.57 1.65.7 1.65 1.19 0 .6-.57.87-1.42.87a4.057 4.057 0 01-1.71-.41l-.18.5a4.327 4.327 0 001.92.48c1.26 0 2.03-.57 2.03-1.42zm5.86-1.12v-.23c0-1.48-.8-2.77-2.36-2.77a2.546 2.546 0 00-2.48 2.77 2.619 2.619 0 002.79 2.77 6.123 6.123 0 001.75-.27l-.14-.53a5.9 5.9 0 01-1.62.23 1.945 1.945 0 01-2.12-1.97h4.18zm-.66-.55h-3.52a1.834 1.834 0 011.82-1.88 1.729 1.729 0 011.7 1.88zm6.51 3.01v-3.56a1.714 1.714 0 00-1.84-1.9 2.117 2.117 0 00-1.87 1.1v-1h-.65v5.36h.65v-2.72a1.934 1.934 0 011.78-2.14 1.148 1.148 0 011.29 1.35v3.51h.64zm9.53-.12l-.13-.53a7.27 7.27 0 01-1.65.19 3.208 3.208 0 110-6.41 7.4 7.4 0 011.67.2l.11-.54a6.193 6.193 0 00-1.76-.23 3.77 3.77 0 00-4.04 3.77 3.82 3.82 0 004.04 3.79 6.738 6.738 0 001.76-.24zm6.26-2.57a2.509 2.509 0 10-2.5 2.77 2.556 2.556 0 002.5-2.77zm-.64 0a1.882 1.882 0 11-1.86-2.2 1.923 1.923 0 011.86 2.2zm10.06 2.69v-3.56a1.7 1.7 0 00-1.82-1.9 2.224 2.224 0 00-1.93 1.13 1.648 1.648 0 00-1.71-1.13 2.066 2.066 0 00-1.83 1.1v-1h-.65v5.36h.65v-2.72a1.907 1.907 0 011.74-2.14 1.129 1.129 0 011.26 1.35v3.51h.65V31.1a1.891 1.891 0 011.73-2.13 1.125 1.125 0 011.26 1.35v3.51h.65zm6.57-2.69c0-1.33-.68-2.77-2.35-2.77a1.911 1.911 0 00-1.76 1.08v-.98h-.65v7.26h.65v-2.89a1.919 1.919 0 001.76 1.07c1.68 0 2.35-1.44 2.35-2.77zm-.63 0c0 1.21-.6 2.2-1.74 2.2s-1.74-1.01-1.74-2.2.59-2.2 1.74-2.2 1.74.99 1.74 2.2zm5.89 2.69v-3.67c0-1.05-.7-1.79-2.18-1.79a7.451 7.451 0 00-1.73.21l.08.53a9.914 9.914 0 011.63-.17c1.17 0 1.56.53 1.56 1.27v.61h-1.8a1.489 1.489 0 00-1.74 1.52 1.542 1.542 0 001.81 1.57 2.022 2.022 0 001.73-.76v.68h.64zm-.64-2.04a1.536 1.536 0 01-1.75 1.55.952.952 0 01-1.15-.96.924.924 0 011.14-.99h1.76v.4zm6.65 2.04v-3.56a1.714 1.714 0 00-1.84-1.9 2.141 2.141 0 00-1.87 1.1v-1h-.65v5.36h.65v-2.72a1.934 1.934 0 011.78-2.14 1.148 1.148 0 011.29 1.35v3.51h.64zm5.81-5.36h-.64l-1.82 4.67-1.8-4.67h-.65l2.19 5.36-.77 1.9h.61zm2.76 2.01a8.432 8.432 0 00-1.7-5.04l-.46.32a8.132 8.132 0 010 9.44l.46.32a8.432 8.432 0 001.7-5.04z" fill="#e9e9e9" fill-rule="evenodd"/></svg></svg>