<svg width="230" height="118" xmlns="http://www.w3.org/2000/svg" xmlns:xlink="http://www.w3.org/1999/xlink"><svg width="66.25" height="12.38" viewBox="-1 -1 130.5 22.75" y="105.14" xmlns="http://www.w3.org/2000/svg"><path d="M18.01 20.41L9.647.3H8.318L-.015 20.41h1.842l2.234-5.62h9.873l2.234 5.62h1.842zm-4.68-7.1H4.669L8.986 2.5zm21.827 6.77l-.362-1.45a19.724 19.724 0 01-4.529.54c-5.284 0-9.178-3.53-9.178-8.82s3.834-8.78 9.178-8.78a20.181 20.181 0 014.59.54l.3-1.48a17.732 17.732 0 00-4.83-.63c-6.7 0-11.081 4.56-11.081 10.35s4.559 10.39 11.081 10.39a18.223 18.223 0 004.831-.66zm18.287.33v-1.57H41.88v-8.06h10.809V9.21H41.88V1.87h11.564V.3H40.038v20.11h13.406zM73.761 6.13a5.8 5.8 0 00-6.1-5.83h-9.118v20.11h1.812v-8.49h7.306a5.771 5.771 0 006.1-5.79zm-1.811 0a4.031 4.031 0 01-4.288 4.29h-7.306V1.87h7.306a4.22 4.22 0 014.288 4.26zm18.648-4.26V.3h-15.64v1.57h6.911v18.54h1.812V1.87h6.914zm17.1 18.54L99.335.3h-1.329l-8.337 20.11h1.842l2.234-5.62h9.873l2.235 5.62h1.841zm-4.679-7.1h-8.666L98.671 2.5zm25.5 7.1l-6.582-8.91a5.538 5.538 0 004.468-5.49 5.711 5.711 0 00-6.1-5.71h-9.088v20.11h1.812v-8.73h7l6.431 8.73h2.053zm-3.925-14.4a3.932 3.932 0 01-4.288 4.16h-7.276v-8.3h7.276a4.12 4.12 0 014.285 4.14z" fill="#41c2f0" fill-rule="evenodd"/></svg><svg width="79.92" height="12.38" viewBox="-1 -1 157.84 22.75" x="138.94" y="84.69" xmlns="http://www.w3.org/2000/svg"><path d="M17.289 20.41l-6.582-8.91a5.538 5.538 0 004.468-5.49A5.711 5.711 0 009.075.3H-.013v20.11h1.812v-8.73h7l6.431 8.73h2.053zm-3.925-14.4a3.932 3.932 0 01-4.288 4.16H1.8v-8.3h7.276a4.12 4.12 0 014.288 4.14zm20.909 14.4v-1.57H22.706v-8.06h10.809V9.21H22.706V1.87H34.27V.3H20.867v20.11h13.406zm19.2-.33l-.362-1.45a19.737 19.737 0 01-4.529.54c-5.284 0-9.179-3.53-9.179-8.82s3.835-8.78 9.179-8.78a20.166 20.166 0 014.589.54l.3-1.48A17.744 17.744 0 0048.64 0c-6.7 0-11.081 4.56-11.081 10.35s4.56 10.39 11.081 10.39a18.225 18.225 0 004.833-.66zm19.977.33V.3h-1.844v8.91H60.165V.3h-1.811v20.11h1.811v-9.6h11.441v9.6h1.842zm21.716 0L86.802.3h-1.328L77.14 20.41h1.842l2.234-5.62h9.874l2.234 5.62h1.842zm-4.68-7.1H81.82L86.138 2.5zm24.036 7.1v-1.57h-13.95l13.919-16.97V.3h-15.64v1.57h13.466L98.429 18.84v1.57h16.093zm20.5 0L126.658.3h-1.328l-8.333 20.11h1.841l2.235-5.62h9.873l2.234 5.62h1.842zm-4.68-7.1h-8.665l4.317-10.81zm25.5 7.1l-6.582-8.91a5.538 5.538 0 004.469-5.49 5.711 5.711 0 00-6.1-5.71h-9.088v20.11h1.811v-8.73h7l6.431 8.73h2.053zm-3.925-14.4a3.931 3.931 0 01-4.287 4.16h-7.277v-8.3h7.277a4.12 4.12 0 014.292 4.14z" fill="#41c2f0" fill-rule="evenodd"/></svg><svg width="229.28" height="51.72" viewBox="-1 -1 456.56 101.43" xmlns="http://www.w3.org/2000/svg"><path data-name="¿Buscas TRATAR la piel grasa?" d="M27.502 36.71l-1.357-6.45a41.936 41.936 0 01-10.521 1.53c-5.09 0-7.466-1.31-7.466-4.36 0-4.24 3.394-6.22 8.145-10.01l-3.45-5.03C4.199 17.31.013 22.57.013 27.77c0 7.07 5.2 11.09 14.65 11.09a46.946 46.946 0 0012.839-2.15zM18.396 9.39V.56H9.572v8.83h8.824zM63.66 27.37c0-3.45-2.093-7.41-7.184-8.93a8.442 8.442 0 005.883-8.09c0-5.88-4.355-9.79-11.539-9.79H32.099v37.67H52.63a10.892 10.892 0 0011.03-10.86zm-8.484-.45c0 2.72-1.641 4.58-5.147 4.58h-9.672v-9.16h9.672c3.506 0 5.147 1.87 5.147 4.58zm-1.3-15.44c0 2.72-1.641 4.53-5.147 4.53h-8.371V7.24h8.371c3.505 0 5.146 1.53 5.146 4.24zm46.8 11.09V.56h-8.484v22.01c0 5.43-3.563 8.71-8.484 8.71s-8.484-3.28-8.484-8.71V.56H66.74v22.01c0 8.71 6.73 16.29 16.968 16.29s16.971-7.58 16.971-16.29zm35.237 4.97c0-6.95-3.846-8.2-11.821-11.31-7.579-2.94-9.955-3.62-9.955-5.99 0-2.21 1.867-2.95 7.183-2.95a50.378 50.378 0 0112.274 1.53l1.3-6.9A54.453 54.453 0 00121.206 0c-10.69 0-15.554 3.51-15.554 10.46 0 6.62 4.242 8.77 12.726 11.94 6.9 2.6 9.05 3.05 9.05 5.37 0 2.83-2.828 3.9-7.636 3.9a46.582 46.582 0 01-13.914-2.49l-1.753 6.51a43.886 43.886 0 0015.78 3.17c9.283 0 16.011-4.25 16.011-11.32zm33.633-25.9A32.765 32.765 0 00158.573 0c-12.5 0-20.984 8.65-20.984 19.4s8.6 19.46 20.984 19.46a32.072 32.072 0 0010.8-1.76l-1.7-6.9a28.253 28.253 0 01-7.918 1.13c-9.276 0-13.688-5.09-13.688-11.93s4.412-11.88 13.688-11.88a28.7 28.7 0 017.918 1.13zm37.026 36.59L192.319.56h-7.805l-14.31 37.67h8.314l2.941-7.75h13.914l2.885 7.75h8.314zm-13.284-14.14h-9.785l4.92-15.04zm45.567 3.45c0-6.95-3.846-8.2-11.821-11.31-7.579-2.94-9.955-3.62-9.955-5.99 0-2.21 1.866-2.95 7.183-2.95a50.378 50.378 0 0112.274 1.53l1.3-6.9A54.453 54.453 0 00224.148 0c-10.69 0-15.554 3.51-15.554 10.46 0 6.62 4.242 8.77 12.726 11.94 6.9 2.6 9.05 3.05 9.05 5.37 0 2.83-2.828 3.9-7.636 3.9a46.582 46.582 0 01-13.914-2.49l-1.753 6.51a43.882 43.882 0 0015.78 3.17c9.273 0 16.004-4.25 16.004-11.32zM281.21 7.97V.56h-33.2v7.41h12.378v30.26h8.484V7.97h12.33zm38.809 30.26l-10.86-14.76a11.686 11.686 0 006.957-10.8A12.079 12.079 0 00303.73.56h-20.479v37.67h8.484V24.72h7.918l9.842 13.51h10.52zm-12.613-25.56a5.311 5.311 0 01-5.373 5.43h-10.298V7.41h10.294a5.17 5.17 0 015.373 5.26zm48.282 25.56L341.435.56h-7.806l-14.31 37.67h8.315l2.941-7.75h13.913l2.885 7.75h8.315zm-13.292-14.14h-9.785l4.921-15.04zm41.743-16.12V.56h-33.2v7.41h12.387v30.26h8.484V7.97h12.33zm31.2 30.26L401.088.56h-7.806l-14.31 37.67h8.315l2.941-7.75h13.914l2.884 7.75h8.315zm-13.292-14.14h-9.785l4.921-15.04zm52.524 14.14l-10.859-14.76a11.688 11.688 0 006.957-10.8A12.08 12.08 0 00438.282.56h-20.478v37.67h8.484V24.72h7.918l9.842 13.51h10.52zm-12.613-25.56a5.311 5.311 0 01-5.373 5.43h-10.297V7.41h10.294a5.17 5.17 0 015.373 5.26zM29.234 98.8v-7.37H10.895V60.75H2.326V98.8h26.905zm40.267 0L55.106 60.75h-7.883L32.771 98.8h8.4l2.971-7.83h14.046l2.913 7.83h8.4zM56.077 84.51h-9.889l4.97-15.19zM120.46 73.2c0-6.79-5.255-12.45-12.852-12.45H87.612V98.8h8.511V85.83h11.482a12.539 12.539 0 0012.852-12.63zm-8.8 0a5.617 5.617 0 01-5.483 5.72H96.123l.057-11.31h10a5.509 5.509 0 015.48 5.59zm24.306 25.6V60.75h-8.568V98.8h8.568zm38.829 0v-7.37h-19.364v-8.57h18.279v-7.37h-18.279v-7.37h19.364v-7.37h-27.932V98.8h27.932zm35.78 0v-7.37h-18.337V60.75h-8.568V98.8h26.9zm50.411-1.15V79.2h-8v12.23a34.56 34.56 0 01-5.6.4c-7.826 0-12.224-5.09-12.224-12 0-7.71 4.57-12.05 13.938-12.05a45.924 45.924 0 018.8.8l1.142-7.2a48.293 48.293 0 00-11.025-1.2c-12.224 0-21.42 8-21.42 19.65 0 10.85 8.111 19.59 21.535 19.59a55.963 55.963 0 0012.856-1.77zm46 1.15l-10.968-14.91a11.805 11.805 0 007.026-10.91 12.2 12.2 0 00-12.51-12.23h-20.681V98.8h8.568V85.14h8l9.94 13.66h10.627zm-12.739-25.82a5.368 5.368 0 01-5.426 5.48h-10.4v-10.8h10.4a5.228 5.228 0 015.423 5.32zm52.656 25.82l-14.395-38.05h-7.883L310.173 98.8h8.4l2.971-7.83h14.044l2.913 7.83h8.4zm-13.424-14.29h-9.882l4.97-15.19zM382.552 88c0-7.03-3.885-8.28-11.939-11.43-7.654-2.97-10.054-3.65-10.054-6.05 0-2.23 1.885-2.97 7.255-2.97a50.865 50.865 0 0112.4 1.54l1.313-6.97a55.042 55.042 0 00-13.823-1.94c-10.8 0-15.709 3.54-15.709 10.57 0 6.68 4.284 8.85 12.853 12.05 6.969 2.63 9.139 3.09 9.139 5.43 0 2.85-2.856 3.94-7.711 3.94a47.19 47.19 0 01-14.052-2.51l-1.771 6.56a44.118 44.118 0 0015.937 3.2c9.361 0 16.159-4.28 16.159-11.42zm39.761 10.8l-14.395-38.05h-7.883L385.583 98.8h8.4l2.971-7.83h14.052l2.913 7.83h8.4zm-13.425-14.29h-9.882l4.97-15.19zm42.365-13.13c0-7.14-5.256-11.2-14.795-11.2a47.519 47.519 0 00-12.967 2.17l1.371 6.51a42.3 42.3 0 0110.625-1.54c5.141 0 7.54 1.31 7.54 4.4 0 4.28-3.427 6.28-8.226 10.11l3.485 5.08c8.738-4.97 12.965-10.28 12.965-15.53zm-9.654 27.42v-8.92h-8.911v8.92h8.911z" fill="#41c2f0" fill-rule="evenodd"/></svg><svg width="176.88" height="32.97" viewBox="-1 -1 351.75 63.94" y="51.72" xmlns="http://www.w3.org/2000/svg"><path d="M23.59 60.71V48.05h-5.48v8.39a22.9 22.9 0 01-3.85.28c-5.37 0-8.38-3.49-8.38-8.24 0-5.29 3.13-8.27 9.56-8.27a31.642 31.642 0 016.04.55l.78-4.94A33.059 33.059 0 0014.7 35C6.31 35 0 40.49 0 48.48c0 7.45 5.56 13.45 14.77 13.45a38.476 38.476 0 008.82-1.22zm24.98.79v-5.06H35.28v-5.88h12.54v-5.05H35.28v-5.06h13.29v-5.06H29.4V61.5h19.17zm24.12 0v-5.06H60.1V35.39h-5.88V61.5h18.47zm35.43-17.56a8.5 8.5 0 00-8.82-8.55H85.58V61.5h5.85v-8.9h7.87a8.6 8.6 0 008.82-8.66zm-6.03 0a3.858 3.858 0 01-3.77 3.92h-6.89l.03-7.76h6.86a3.782 3.782 0 013.77 3.84zm33.41 6.7V35.39h-5.88v15.25c0 3.76-2.47 6.04-5.88 6.04s-5.88-2.28-5.88-6.04V35.39h-5.88v15.25c0 6.04 4.66 11.29 11.76 11.29s11.76-5.25 11.76-11.29zm32.41 10.86l-7.53-10.23a8.1 8.1 0 004.82-7.49 8.369 8.369 0 00-8.58-8.39h-14.19V61.5h5.88v-9.37h5.48l6.82 9.37h7.3zm-8.75-17.72a3.672 3.672 0 01-3.72 3.76h-7.13v-7.41h7.13a3.587 3.587 0 013.72 3.65zm19.4 17.72V35.39h-5.88V61.5h5.88zm27.1-21.05v-5.06h-20.11V61.5h5.88V50.56h12.82v-5.05h-12.82v-5.06h14.23zm10.79 21.05V35.39h-5.88V61.5h5.88zm27.18-25.36a22.576 22.576 0 00-7.61-1.14c-8.66 0-14.54 6-14.54 13.45s5.96 13.48 14.54 13.48a22.028 22.028 0 007.49-1.22l-1.17-4.78a19.533 19.533 0 01-5.49.79c-6.43 0-9.49-3.53-9.49-8.27s3.06-8.24 9.49-8.24a19.8 19.8 0 015.49.79zm28.01 25.36l-9.87-26.11h-5.41l-9.92 26.11h5.76l2.04-5.37h9.64l2 5.37h5.76zm-9.21-9.8h-6.78l3.41-10.43zm37.43 9.8V35.39h-5.81v17.29l-12.62-17.29h-5.72V61.5h5.8V44.25l12.62 17.25h5.73zm27.08-20.97v-5.14h-23.01v5.14h8.59V61.5h5.88V40.53h8.54zm22.82 20.97v-5.06h-13.29v-5.88h12.54v-5.05h-12.54v-5.06h13.29v-5.06h-19.17V61.5h19.17zm-327.9-35v-5.06H8.57v-5.88h12.54v-5.05H8.57V5.45h13.29V.39H2.69V26.5h19.17zM47.62 5.45V.39H27.51V26.5h5.88V15.56h12.82v-5.05H33.39V5.45h14.23zm24.83 0V.39H52.34V26.5h5.88V15.56h12.82v-5.05H58.22V5.45h14.23zM97.28 26.5L87.4.39h-5.41L72.07 26.5h5.77l2.03-5.37h9.65l2 5.37h5.76zm-9.21-9.8h-6.79l3.41-10.43zm32.81-15.56A22.614 22.614 0 00113.27 0c-8.66 0-14.54 6-14.54 13.45s5.96 13.48 14.54 13.48a22.069 22.069 0 007.49-1.22l-1.18-4.78a19.465 19.465 0 01-5.48.79c-6.43 0-9.49-3.53-9.49-8.27s3.06-8.24 9.49-8.24a19.676 19.676 0 015.48.79zm24.41 25.36v-5.06H132.7V.39h-5.88V26.5h18.47zm27.78 0L163.19.39h-5.41l-9.92 26.11h5.76l2.04-5.37h9.64l2 5.37h5.77zm-9.22-9.8h-6.78l3.41-10.43zm38.76 9.8l-7.53-10.23a8.11 8.11 0 004.83-7.49 8.372 8.372 0 00-8.59-8.39h-14.19V26.5h5.88v-9.37h5.49l6.82 9.37h7.29zm-8.74-17.72a3.678 3.678 0 01-3.72 3.76h-7.14V5.13h7.14a3.592 3.592 0 013.72 3.65z" fill="#fff" fill-rule="evenodd"/></svg><svg width="138.94" height="20.45" viewBox="-1 -1 275.88 38.91" y="84.69" xmlns="http://www.w3.org/2000/svg"><path d="M26.25 36.31v-6.92H8.04v-8.06h17.19V14.4H8.04V7.48h18.21V.55H-.01v35.76h26.26zm35.3-28.83V.55H34v35.76h8.06V21.33h17.56V14.4H42.06V7.48h19.49zm34.01 0V.55H68.01v35.76h8.06V21.33h17.56V14.4H76.07V7.48h19.49zm34.01 28.83L116.04.55h-7.41L95.04 36.31h7.9l2.79-7.35h13.21l2.74 7.35h7.89zm-12.62-13.42h-9.29l4.68-14.29zM161.9 1.57A31.045 31.045 0 00151.49.01c-11.87 0-19.93 8.22-19.93 18.42s8.16 18.47 19.93 18.47a30.471 30.471 0 0010.25-1.66l-1.61-6.55a26.778 26.778 0 01-7.52 1.07c-8.8 0-12.99-4.83-12.99-11.33s4.19-11.28 12.99-11.28a27.017 27.017 0 017.52 1.08zm33.44 34.74v-6.92H178.1V.55h-8.05v35.76h25.29zm38.06 0L219.87.55h-7.41l-13.59 35.76h7.89l2.8-7.35h13.21l2.74 7.35h7.89zm-12.62-13.42h-9.29l4.67-14.29zm53.1 13.42L263.56 22.3a11.094 11.094 0 006.61-10.26A11.465 11.465 0 00258.41.55h-19.44v35.76h8.05V23.48h7.52l9.35 12.83h9.99zM261.9 12.04a5.047 5.047 0 01-5.1 5.16h-9.78V7.05h9.78a4.905 4.905 0 015.1 4.99z" fill="#fff" fill-rule="evenodd"/></svg></svg>