<svg width="436" height="307" xmlns="http://www.w3.org/2000/svg" xmlns:xlink="http://www.w3.org/1999/xlink"><svg viewBox="-1 -1 192.92 187.92" width="192.92" height="187.92" y="118.33" xmlns="http://www.w3.org/2000/svg"><g data-name="Layer 2"><g data-name="Layer 1" stroke-width="8.92" stroke="#f1e445" stroke-linecap="round" stroke-linejoin="round" fill="none"><rect x="4.46" y="134.16" width="182" height="47.3" rx="22.24"/><path d="M6.17 148.06S9.11 132 20.85 113.92c9-13.84 34.74-41.45 35.23-57.06s-9.79-16.58-16.15-14.63C30.17 45.23 15.47 56.86 13 72c0 0-7.34-14.63-2.93-28.77 4.09-13.15 11.25-20.48 11.25-20.48S21.34 11 35 6.15s36.05.62 44 19c7.83 18 5.87 38.52-8.81 62.9-12.19 20.46-28.55 46.11-28.55 46.11"/><ellipse cx="50.45" cy="24.92" rx="2.69" ry="2.68"/><path d="M21.34 22.73a41.91 41.91 0 0110.76 6.34 23 23 0 017.83 13.16"/></g></g></svg><svg viewBox="-1 -1 244.33 118.33" width="244.33" height="118.33" xmlns="http://www.w3.org/2000/svg"><g data-name="Layer 2"><g data-name="Layer 1" fill="none" stroke="#ef5a24" stroke-linecap="round" stroke-linejoin="round" stroke-width="8.33"><path d="M180.65 22.53C180.65 6.79 171 4.17 164 4.17H59.05c-10.54 0-54.88 9.18-54.88 54.22s43.9 53.78 55.31 53.78h104.05c7 0 17.12-3.5 17.12-15.74zm0 45.91h43.91c3.95 0 13.61-2.18 13.61-11.37 0-10-7.91-13.11-13.61-13.11h-43.91"/><path d="M73.09 4.17V40.9c0 14.42 20.2.87 20.2 15.3 0 16.18-20.2 2.19-20.2 15.74 0 9.62 7.91 8.31 13.17 8.31h25c4.83 0 10.1 1.75 10.1 8.31s-4.83 8.3-10.1 8.3H80.12c-10.54 0-7 15.31-7 15.31"/></g></g></svg><svg viewBox="-1 -1 191.26 149.26" width="191.26" height="149.26" x="244.33" xmlns="http://www.w3.org/2000/svg"><g data-name="Layer 2"><g data-name="Layer 1" fill="none" stroke="#f4388e" stroke-linecap="round" stroke-linejoin="round" stroke-width="8.26"><path d="M41.38 143.13S4.13 115.5 4.13 96.65c0-13.16 9.2-21.49 18.84-21.49s18.41 10.09 18.41 10.09S48 75.16 60.22 75.16c10.08 0 18.41 10.09 18.41 22.8 0 16.23-37.25 45.17-37.25 45.17zm37.25-44.29l-74.5-.44m11.39 20.17l51.72.44"/><path d="M5 91c-.43-.88 17.53-63.14 21-72.35s9.64-14 18-14.47m32.44 104.75s35.94.43 36.81.43m34.63 33.77s37.25-27.63 37.25-46.48c0-13.16-9.21-21.49-18.85-21.49s-18.4 10.09-18.4 10.09S141.3 75.16 129 75.16c-10.08 0-18.41 10.09-18.41 22.8.03 16.23 37.29 45.17 37.29 45.17zm-37.26-44.29l74.51-.44m-11.4 20.17l-51.71.44"/><path d="M184.25 91c.44-.88-17.53-63.14-21-72.35s-9.65-14-18-14.47"/></g></g></svg><svg viewBox="-1 -1 190.55 89.55" width="190.55" height="89.55" x="244.33" y="149.26" xmlns="http://www.w3.org/2000/svg"><g data-name="Layer 2"><path d="M5.27 16.66c11 0 22.37-11.39 22.37-11.39s11 11.39 22.82 11.39S72.37 5.27 72.37 5.27s11.41 10.94 22.36 10.94 21.45-10.94 21.45-10.94 11.87 11.39 23.28 11.39 21.45-11.39 21.45-11.39 12.32 11.39 22.36 11.39m-178 32.81c11 0 22.37-11.39 22.37-11.39s11 11.39 22.82 11.39 21.91-11.39 21.91-11.39S83.78 49 94.73 49s21.45-10.93 21.45-10.93 11.87 11.39 23.28 11.39 21.45-11.39 21.45-11.39 12.32 11.39 22.36 11.39m-178 32.81c11 0 22.37-11.39 22.37-11.39s11 11.39 22.82 11.39 21.91-11.39 21.91-11.39 11.41 10.94 22.36 10.94 21.45-10.94 21.45-10.94 11.87 11.39 23.28 11.39 21.45-11.39 21.45-11.39 12.32 11.39 22.36 11.39" data-name="Layer 1" fill="none" stroke="#fc066b" stroke-linecap="round" stroke-linejoin="round" stroke-width="10.55"/></g></svg></svg>