<svg width="160" height="119" xmlns="http://www.w3.org/2000/svg" xmlns:xlink="http://www.w3.org/1999/xlink"><svg width="61.94" height="12.61" viewBox="-1 -1 121.88 23.22" y="93.27" xmlns="http://www.w3.org/2000/svg"><path d="M15.8 2.687A9.748 9.748 0 009.99.765 10.111 10.111 0 000 10.707a9.983 9.983 0 0015.8 8.173v-2.665a8.355 8.355 0 01-5.81 2.537 7.97 7.97 0 010-15.937 8.391 8.391 0 015.81 2.537V2.687zm1.93 7.968A10.041 10.041 0 1027.8.765a10.1 10.1 0 00-10.07 9.89zm2.17 0a7.872 7.872 0 117.82 8.1 8.027 8.027 0 01-7.82-8.1zm22.66 9.762l1.89-13.451 6.48 14.245 6.61-14.22 1.8 13.426h2.2l-3-20.42-7.58 16.321-7.4-16.321-3.21 20.42h2.21zm24.88 0v-8.455h1.87c3.74 0 6.12-2.075 6.12-5.432 0-3.433-2.38-5.431-6.66-5.431h-3.51v19.318h2.18zm0-17.32h1.59c2.84 0 4.27 1.153 4.27 3.408s-1.48 3.484-4.12 3.484h-1.74V3.097zm15.35 8.686a5.1 5.1 0 004.84-5.253c0-3.33-2-5.431-6.77-5.431h-3.12v19.318h2.18v-8.481h.53l5.85 8.481h2.61zm-2.87-8.686h1.28c2.87 0 4.3 1.153 4.3 3.433s-1.48 3.51-4.25 3.51h-1.33V3.097zm24.49 17.32h2.36L97.98.176l-8.79 20.241h2.36l2.33-5.457h8.2zm-9.66-7.481l3.23-7.738 3.23 7.738h-6.46zm18.99-1.153a5.092 5.092 0 004.84-5.253c0-3.33-2-5.431-6.76-5.431h-3.13v19.318h2.18v-8.481h.54l5.84 8.481h2.61zm-2.87-8.686h1.28c2.87 0 4.3 1.153 4.3 3.433s-1.48 3.51-4.25 3.51h-1.33V3.097z" fill="#fefefe" fill-rule="evenodd"/></svg><svg width="38.33" height="10.06" viewBox="-1 -1 74.66 18.13" x="102.44" y="27.87" xmlns="http://www.w3.org/2000/svg"><path d="M3.014 15.739v-10.4l9.362 10.709h2.081V.359h-3v10.362L2.074.012H.014v15.727h3zM17.372.359v9.4c0 4.3 2.57 6.324 6.18 6.324s6.181-2.02 6.181-6.324v-9.4h-3v8.812a5.47 5.47 0 01-.469 2.733 3.113 3.113 0 01-2.713 1.448 2.872 2.872 0 01-2.712-1.448 5.47 5.47 0 01-.47-2.733V.359h-3zm23.8 0h-8.506v15.38h8.506v-2.591h-5.507V8.967h5.3V6.376h-5.3V2.97h5.507V.359zm.55 0l6.547 15.767h1.591L56.53.359h-3.263l-4.159 10.347-4.1-10.342h-3.284zm17.561 7.629a5.131 5.131 0 1110.259 0 5.357 5.357 0 01-5.16 5.364 5.189 5.189 0 01-5.097-5.364zm-3.08 0A8.224 8.224 0 1064.382.012a8.021 8.021 0 00-8.177 7.976z" fill-rule="evenodd"/></svg><svg width="80.75" height="12.44" viewBox="-1 -1 159.5 22.88" y="65.7" xmlns="http://www.w3.org/2000/svg"><path data-name="y recupera" d="M6.85 20.432h3.89v-9.136L17.76.465h-4.64L8.89 7.403 4.57.465H-.01l6.86 10.831v9.136zM30.39 3.616h1.19c2.51 0 3.76 1.007 3.76 2.993 0 2.039-1.27 3.045-3.81 3.045h-1.14V3.616zm4.42 8.395c3.05-.609 4.55-2.489 4.55-5.641 0-3.469-2.27-5.9-7.07-5.9h-5.8v19.967h3.9v-8.024h.5l5.4 8.024h4.8zM53.98.465H42.94v19.967h11.04v-3.363h-7.15v-5.425h6.89V8.281h-6.89V3.859h7.15V.469zm17.42.768A10.656 10.656 0 0066.53.015a10.484 10.484 0 00-10.56 10.539A10.319 10.319 0 0066.5 20.882a11.8 11.8 0 004.9-1.165v-4.582a6.71 6.71 0 01-4.82 2.2 6.568 6.568 0 01-6.62-6.805 6.658 6.658 0 016.54-6.965 6.874 6.874 0 014.9 2.278V1.235zm2.81-.768v12.208c0 5.587 3.34 8.209 8.02 8.209s8.03-2.622 8.03-8.209V.465h-3.9v11.44a7.068 7.068 0 01-.61 3.548 4.03 4.03 0 01-3.52 1.88 3.735 3.735 0 01-3.52-1.88 7.178 7.178 0 01-.61-3.548V.465h-3.89zm23.75 3.39h1.35c2.7 0 3.89.873 3.89 2.939 0 1.907-1.21 2.86-3.65 2.86h-1.59v-5.8zm0 9.162h2.52c4.47 0 6.72-2.516 6.72-6.223a6.559 6.559 0 00-1.51-4.263C104.45.968 102.41.465 100.05.465h-5.98v19.967h3.89v-7.415zM120.34.465h-11.05v19.967h11.05v-3.363h-7.15v-5.425h6.88V8.281h-6.88V3.859h7.15V.469zm6.88 3.151h1.19c2.52 0 3.76 1.007 3.76 2.993 0 2.039-1.27 3.045-3.81 3.045h-1.14V3.616zm4.42 8.395c3.05-.609 4.56-2.489 4.56-5.641 0-3.469-2.28-5.9-7.07-5.9h-5.8v19.967h3.89v-8.024h.5l5.41 8.024h4.79zm13.03 1.059l2.91-7.176 2.81 7.176h-5.72zm8.63 7.362h4.19L149.07.041h-2.92l-8.66 20.391h4.13l1.83-4.211h8.16z" fill-rule="evenodd"/></svg><svg width="95.48" height="12.45" viewBox="-1 -1 188.96 22.91" y="53.25" xmlns="http://www.w3.org/2000/svg"><path data-name="luminosidad" d="M-.01.465v19.967h10.03v-3.363H3.88V.469H-.01zm11.51 0v12.208c0 5.587 3.34 8.209 8.03 8.209s8.02-2.622 8.02-8.209V.465h-3.89v11.44a7.068 7.068 0 01-.61 3.548 4.042 4.042 0 01-3.52 1.88 3.724 3.724 0 01-3.52-1.88 7.068 7.068 0 01-.61-3.548V.465h-3.9zm22.7 19.967l2.04-12.287 5.29 12.525h1.06L48.1 8.145l1.77 12.287h3.92L50.48.094h-2.67l-5.7 13.082L36.69.094h-2.68L30.3 20.432h3.9zM56.54.465v19.967h3.9V.465h-3.9zm11.58 19.967V6.926l12.15 13.9h2.7V.465h-3.89v13.452L66.9.017h-2.68v20.417h3.9zm21.79-10.063a6.662 6.662 0 1113.32 0 6.955 6.955 0 01-6.7 6.964 6.738 6.738 0 01-6.62-6.964zm-4 0A10.675 10.675 0 1096.53.015a10.413 10.413 0 00-10.62 10.354zm35.91-8.024a8.612 8.612 0 00-5.86-2.224 5.873 5.873 0 00-6.22 5.826c0 2.6 1.17 4.025 4.93 5.375 3.33 1.218 3.86 1.827 3.86 3.231a2.884 2.884 0 01-3.1 2.807 4.507 4.507 0 01-4.21-2.675l-2.51 2.436a7.994 7.994 0 006.86 3.787c4.1 0 6.96-2.7 6.96-6.567 0-2.728-1.06-4.5-5.75-6.223-2.41-.874-3.04-1.4-3.04-2.489 0-1.3 1.3-2.225 2.81-2.225a4.363 4.363 0 013.25 1.589zm3.36-1.88v19.967h3.89V.465h-3.89zm11.57 3.39h1.03c2.52 0 4.34.5 5.61 1.827a6.72 6.72 0 011.91 4.766 6.872 6.872 0 01-1.64 4.5c-1.27 1.509-3.23 2.119-5.88 2.119h-1.03V3.855zm-3.89 16.577h5.66c6.68 0 10.78-4.529 10.78-10.01 0-5.588-4.1-9.957-10.72-9.957h-5.72v19.967zm23.27-7.362l2.91-7.176 2.81 7.176h-5.72zm8.63 7.362h4.19L160.53.041h-2.92l-8.66 20.391h4.14l1.82-4.211h8.16zm9.64-16.577h1.03c2.52 0 4.35.5 5.62 1.827a6.711 6.711 0 011.9 4.766 6.872 6.872 0 01-1.64 4.5c-1.27 1.509-3.23 2.119-5.88 2.119h-1.03V3.855zm-3.89 16.577h5.67c6.67 0 10.77-4.529 10.77-10.01 0-5.588-4.1-9.957-10.72-9.957h-5.72v19.967z" fill-rule="evenodd"/></svg><svg width="159.17" height="15.42" viewBox="-1 -1 316.34 28.84" xmlns="http://www.w3.org/2000/svg"><path data-name="LIFTACTIV ampollas" d="M.012.728v25.105h7.957v-1.5h-6.36V.728h-1.6zm10.855 0v25.105h1.6V.728h-1.6zm17.514 0H18.259v25.105h1.6V12.814h8.257v-1.5h-8.257V2.26h8.523V.728zM44.269 2.26V.728H29.648V2.26h6.459v23.573h1.632V2.26h6.53zm17.414 23.573h1.832L53.056 0 42.501 25.838h1.831l3.33-8.258H58.35zm-13.418-9.756l4.8-11.886 4.694 11.886H48.27zM85.558 3.625A12.775 12.775 0 0077.134.362a12.936 12.936 0 10.067 25.87 13.488 13.488 0 008.357-3.1v-2.2a11.228 11.228 0 01-8.457 3.8 11.421 11.421 0 01-.034-22.841 10.977 10.977 0 018.491 4V3.627zm16.111-1.365V.728H87.054V2.26h6.46v23.573h1.631V2.26h6.524zm2.9-1.532v25.105h1.6V.728h-1.6zm4.5 0l9.19 26.1 8.956-26.1h-1.764L118.254 21.9 110.862.724h-1.8zm35.995 15.849l3.662-9.023 3.53 9.023h-7.197zm10.854 9.256h5.261L150.586.2h-3.663l-10.887 25.638h5.194l2.3-5.294h10.255zm10.79 0l2.564-15.449 6.659 15.748h1.332l6.925-15.748 2.231 15.449h4.928L187.185.262h-3.363l-7.159 16.448L169.838.262h-3.369l-4.661 25.571h4.894zm33-20.843h1.7c3.4 0 4.895 1.1 4.895 3.7q0 3.6-4.595 3.6h-2v-7.3zm0 11.52h3.161c5.627 0 8.458-3.163 8.458-7.824a8.293 8.293 0 00-1.9-5.361c-1.565-1.964-4.129-2.6-7.092-2.6h-7.525V25.83h4.894v-9.32zm17.982-3.33a8.375 8.375 0 1116.747 0 8.746 8.746 0 01-8.424 8.757 8.471 8.471 0 01-8.33-8.757zm-5.028 0A13.424 13.424 0 10226.013.162a13.093 13.093 0 00-13.358 13.018zM242.997.728v25.105h12.612V21.6h-7.725V.728h-4.894zm15.017 0v25.105h12.619V21.6h-7.725V.728h-4.894zm22.541 15.849l3.663-9.023 3.529 9.023h-7.192zm10.855 9.256h5.259L286.076.2h-3.663l-10.888 25.638h5.194l2.3-5.294h10.25zm22.044-22.741a10.805 10.805 0 00-7.359-2.8c-4.561 0-7.824 3.2-7.824 7.325 0 3.263 1.465 5.061 6.193 6.759 4.195 1.532 4.861 2.3 4.861 4.062a3.626 3.626 0 01-3.9 3.529 5.664 5.664 0 01-5.294-3.362l-3.162 3.066a10.072 10.072 0 008.624 4.761c5.161 0 8.756-3.4 8.756-8.257 0-3.43-1.331-5.66-7.225-7.825-3.03-1.1-3.829-1.764-3.829-3.129 0-1.632 1.632-2.8 3.53-2.8a5.5 5.5 0 014.1 2z" fill-rule="evenodd"/></svg><svg width="76.36" height="15.13" viewBox="-1 -1 150.72 28.25" y="78.14" xmlns="http://www.w3.org/2000/svg"><path data-name="PEPTIDE-C" d="M4.907 4.841h1.7c3.4 0 4.895 1.1 4.895 3.7q0 3.6-4.6 3.6h-2V4.849zm0 11.52h3.162c5.627 0 8.457-3.163 8.457-7.824a8.3 8.3 0 00-1.9-5.361c-1.565-1.964-4.129-2.6-7.092-2.6H.009v25.1h4.894v-9.323zM33.044.579H19.159v25.1h13.885v-4.228h-8.99v-6.826h8.657v-4.228h-8.657V4.836h8.99V.579zm8.658 4.262h1.7c3.4 0 4.894 1.1 4.894 3.7q0 3.6-4.594 3.6h-2V4.849zm0 11.52h3.167c5.627 0 8.457-3.163 8.457-7.824a8.292 8.292 0 00-1.9-5.361c-1.565-1.964-4.128-2.6-7.092-2.6h-7.525v25.1h4.895v-9.323zm22.11-11.52h5.657V.579H53.29v4.262h5.627v20.843h4.9V4.841zM71.604.579v25.1h4.895V.579h-4.895zm14.551 4.262h1.3c3.163 0 5.46.633 7.058 2.3a8.455 8.455 0 012.4 5.993 8.669 8.669 0 01-2.065 5.66c-1.6 1.9-4.062 2.664-7.391 2.664h-1.3V4.841zm-4.894 20.843h7.125c8.39 0 13.551-5.693 13.551-12.585 0-7.026-5.161-12.52-13.485-12.52h-7.191v25.1zm38.092-25.1h-13.884v25.1h13.885v-4.228h-8.99V14.63h8.657v-4.228h-8.657V4.841h8.99V.579zm.867 18.346h8.457v-3.8h-8.457v3.8zm28.5-17.38a13.452 13.452 0 00-6.126-1.532 13.188 13.188 0 00-13.285 13.252 12.978 12.978 0 0013.252 12.985 14.846 14.846 0 006.159-1.465v-5.76a8.456 8.456 0 01-6.059 2.764 8.259 8.259 0 01-8.324-8.557c0-4.961 3.6-8.757 8.224-8.757a8.649 8.649 0 016.159 2.863V1.55z" fill-rule="evenodd"/></svg><svg width="102.44" height="12.91" viewBox="-1 -1 202.88 23.81" y="27.87" xmlns="http://www.w3.org/2000/svg"><path d="M16.35 2.594A10.09 10.09 0 0010.34.608 10.455 10.455 0 00.01 10.883a10.325 10.325 0 0016.34 8.447v-2.754a8.645 8.645 0 01-6.01 2.622 8.237 8.237 0 010-16.471 8.683 8.683 0 016.01 2.621V2.594zm1.99 8.236A10.381 10.381 0 1028.74.608a10.439 10.439 0 00-10.4 10.223zm2.25 0a8.132 8.132 0 118.07 8.368 8.292 8.292 0 01-8.07-8.367zm24.07 10.089V5.535L60.2 21.82V.953h-2.23v15.465L42.4.106V20.92h2.26zM80.03 2.594A10.09 10.09 0 0074.02.608a10.455 10.455 0 00-10.33 10.275 10.325 10.325 0 0016.34 8.447v-2.754a8.627 8.627 0 01-6.01 2.622 8.237 8.237 0 010-16.471 8.683 8.683 0 016.01 2.621V2.594zM93.67.952H83.31v19.967h10.36v-2.092h-8.11v-7.785h7.87V8.95h-7.87V3.018h8.11V.952zm5.53 19.967V5.535l15.55 16.285V.953h-2.23v15.465L96.95.106V20.92h2.25zm29.66-17.9V.953h-11.92v2.066h4.85v17.9h2.22v-17.9h4.85zm7.41 8.977a5.267 5.267 0 005.01-5.429c0-3.442-2.07-5.614-6.99-5.614h-3.24V20.92h2.26v-8.765h.55l6.04 8.765h2.7zm-2.96-8.977h1.32c2.97 0 4.45 1.192 4.45 3.548s-1.54 3.628-4.4 3.628h-1.37V3.019zm25.31 17.9h2.44l-9.09-20.92-9.08 20.92h2.44l2.41-5.64h8.47zm-9.98-7.732l3.33-8 3.34 8h-6.67zm14.4 7.732h4.05a13.278 13.278 0 004.56-.662 9.708 9.708 0 003.44-2.251 10.314 10.314 0 00.05-14.141 9.464 9.464 0 00-3.41-2.224 13.8 13.8 0 00-4.58-.689h-4.11v19.967zm2.25-17.9h1.94a8.275 8.275 0 016.24 2.3 7.7 7.7 0 012.2 5.614 7.57 7.57 0 01-2.22 5.587 8.216 8.216 0 01-6.22 2.3h-1.94V3.019zm14.83 7.812A10.381 10.381 0 10190.53.609a10.445 10.445 0 00-10.41 10.222zm2.25 0a8.132 8.132 0 118.08 8.368 8.294 8.294 0 01-8.08-8.368z" fill-rule="evenodd"/></svg><svg width="76.52" height="12.33" viewBox="-1 -1 151.03 22.66" x="80.75" y="65.7" xmlns="http://www.w3.org/2000/svg"><path data-name="superdosis" d="M11.77 3.119A5.615 5.615 0 006.63-.006c-3.15 0-5.61 2.171-5.61 5.164 0 2.25 1.11 3.522 4.05 4.9l1.8.847c2.49 1.165 3.36 2.012 3.36 3.734a3.979 3.979 0 01-4 3.945c-2.17 0-3.52-1.244-4.07-3.68l-2.15.609c.72 3.2 2.94 5.137 6.15 5.137a6.231 6.231 0 006.35-6.144c0-2.568-1.32-4.025-4.53-5.481L6.1 8.177c-1.88-.847-2.83-1.8-2.83-2.992a3.13 3.13 0 013.31-3.072c1.53 0 2.46.53 3.41 2.172zm4-2.781v12.843a7.19 7.19 0 001.74 5.243 7.617 7.617 0 0010.76 0 7.192 7.192 0 001.74-5.243V.34h-2.25v12.234c0 1.616-.02 3.125-.92 4.211a5.2 5.2 0 01-3.95 1.8 5.3 5.3 0 01-3.95-1.8c-.9-1.086-.92-2.6-.92-4.211V.34h-2.25zm20.86 19.967v-8.739h1.93c3.87 0 6.33-2.145 6.33-5.614 0-3.548-2.46-5.614-6.88-5.614h-3.63v19.967h2.25zm0-17.9h1.64c2.94 0 4.43 1.191 4.43 3.522s-1.54 3.6-4.27 3.6h-1.8V2.404zm21-2.066H47.28v19.967h10.35v-2.087h-8.1v-7.79h7.86V8.337h-7.86V2.406h8.1V.34zm8.5 11.043a5.259 5.259 0 005-5.429c0-3.442-2.06-5.614-6.99-5.614h-3.23v19.967h2.25V11.54h.56l6.04 8.766h2.7zm-2.97-8.977h1.33c2.96 0 4.45 1.191 4.45 3.548s-1.54 3.628-4.4 3.628h-1.38V2.405zm12 17.9h4.05a13.178 13.178 0 004.55-.662 10.178 10.178 0 003.5-16.392 9.574 9.574 0 00-3.42-2.224 13.732 13.732 0 00-4.58-.689h-4.1v19.967zm2.25-17.9h1.93a8.286 8.286 0 016.25 2.3 7.7 7.7 0 012.2 5.614 7.572 7.572 0 01-2.22 5.588 8.228 8.228 0 01-6.23 2.3h-1.93V2.406zm14.83 7.811a10.381 10.381 0 1010.4-10.221 10.439 10.439 0 00-10.4 10.224zm2.25 0a8.132 8.132 0 118.07 8.368 8.292 8.292 0 01-8.07-8.365zm32.49-7.1a5.626 5.626 0 00-5.14-3.125c-3.15 0-5.61 2.171-5.61 5.164 0 2.25 1.11 3.522 4.05 4.9l1.8.847c2.49 1.165 3.36 2.012 3.36 3.734a3.985 3.985 0 01-4 3.945c-2.17 0-3.52-1.244-4.07-3.68l-2.15.609c.72 3.2 2.94 5.137 6.14 5.137a6.233 6.233 0 006.36-6.144c0-2.568-1.32-4.025-4.53-5.481l-1.88-.848c-1.88-.847-2.83-1.8-2.83-2.992a3.13 3.13 0 013.31-3.072c1.53 0 2.46.53 3.41 2.172zM131 .335v19.967h2.25V.34H131zm17.29 2.781a5.611 5.611 0 00-5.13-3.125c-3.16 0-5.62 2.171-5.62 5.164 0 2.25 1.11 3.522 4.05 4.9l1.8.847c2.49 1.165 3.37 2.012 3.37 3.734a3.985 3.985 0 01-4 3.945c-2.17 0-3.52-1.244-4.08-3.68l-2.14.609a6.021 6.021 0 006.14 5.137 6.224 6.224 0 006.35-6.144c0-2.568-1.32-4.025-4.52-5.481l-1.88-.848c-1.88-.847-2.84-1.8-2.84-2.992a3.136 3.136 0 013.31-3.072c1.54 0 2.47.53 3.42 2.172z" fill-rule="evenodd"/></svg><svg width="71.15" height="12.42" viewBox="-1 -1 140.29 22.84" x="76.36" y="78.14" xmlns="http://www.w3.org/2000/svg"><path data-name="anti-edad" d="M7.17 13.07l2.92-7.176 2.8 7.176H7.17zm8.64 7.362h4.18L11.57.041H8.66L0 20.432h4.13l1.83-4.211h8.15zm9.64 0V6.926l12.15 13.9h2.7V.465h-3.89v13.452L24.23.017h-2.68v20.417h3.9zM50.34 3.855h4.5V.465H41.97v3.39h4.47v16.577h3.9V3.855zm6.19-3.39v19.967h3.89V.465h-3.89zm5.38 14.591h6.72v-3.019h-6.72v3.019zM81.18.465H70.14v19.967h11.04v-3.363h-7.15v-5.425h6.89V8.281h-6.89V3.859h7.15V.469zm6.89 3.39h1.03c2.52 0 4.34.5 5.61 1.827a6.72 6.72 0 011.91 4.766 6.872 6.872 0 01-1.64 4.5c-1.27 1.509-3.23 2.119-5.88 2.119h-1.03V3.855zm-3.9 16.577h5.67c6.67 0 10.78-4.529 10.78-10.01 0-5.588-4.11-9.957-10.73-9.957h-5.72v19.967zm23.28-7.362l2.91-7.176 2.81 7.176h-5.72zm8.63 7.362h4.19L111.85.041h-2.92l-8.66 20.391h4.13l1.83-4.211h8.16zm9.64-16.577h1.03c2.52 0 4.35.5 5.62 1.827a6.711 6.711 0 011.9 4.766 6.872 6.872 0 01-1.64 4.5c-1.27 1.509-3.23 2.119-5.88 2.119h-1.03V3.855zm-3.89 16.577h5.66c6.68 0 10.78-4.529 10.78-10.01 0-5.588-4.1-9.957-10.72-9.957h-5.72v19.967z" fill-rule="evenodd"/></svg><svg width="61.61" height="12.86" viewBox="-1 -1 121.22 23.72" y="105.88" xmlns="http://www.w3.org/2000/svg"><path data-name="Con 10%" d="M16.35 2.5A10.09 10.09 0 0010.34.514 10.455 10.455 0 00.01 10.789a10.325 10.325 0 0016.34 8.447v-2.754a8.645 8.645 0 01-6.01 2.622 8.237 8.237 0 010-16.471 8.683 8.683 0 016.01 2.621V2.5zm1.99 8.236A10.381 10.381 0 1028.74.514a10.439 10.439 0 00-10.4 10.223zm2.25 0a8.132 8.132 0 118.07 8.368 8.292 8.292 0 01-8.07-8.367zm24.07 10.089V5.441L60.2 21.726V.859h-2.23v15.465L42.4.012v20.814h2.26zm32.33 0h2.25V.859h-4.4l-1.16 2.066h3.31v17.9zm7.33-9.957c0 5.932 3.1 10.275 7.12 10.275s7.15-4.343 7.15-10.275-3.12-10.3-7.15-10.3-7.12 4.369-7.12 10.301zm2.17 0c0-4.713 2.09-8.262 4.95-8.262s4.98 3.549 4.98 8.262-2.12 8.236-4.98 8.236-4.95-3.521-4.95-8.235zm16.66 9.666l1.16.662 11.63-20.073-1.17-.662zm7.2-3.84a4.435 4.435 0 008.87 0 4.435 4.435 0 10-8.87.006zm1.72 0a2.7 2.7 0 112.7 2.7 2.713 2.713 0 01-2.7-2.694zM99.81 4.989a4.435 4.435 0 008.87 0 4.435 4.435 0 10-8.87.001zm1.72 0a2.7 2.7 0 112.7 2.7 2.714 2.714 0 01-2.7-2.699z" fill-rule="evenodd"/></svg><svg width="99.05" height="12.47" viewBox="-1 -1 196.09 22.94" y="40.78" xmlns="http://www.w3.org/2000/svg"><path data-name="de vitamina C" d="M3.88 3.855h1.03c2.52 0 4.34.5 5.62 1.827a6.754 6.754 0 011.9 4.766 6.872 6.872 0 01-1.64 4.5c-1.27 1.509-3.23 2.119-5.88 2.119H3.88V3.855zM-.01 20.432h5.66c6.68 0 10.78-4.529 10.78-10.01 0-5.588-4.1-9.957-10.72-9.957H-.01v19.967zM30.28.465H19.24v19.967h11.04v-3.363h-7.15v-5.425h6.88V8.281h-6.88V3.859h7.15V.469zm8.1 0l8.5 20.47h2.07L57.6.465h-4.23l-5.4 13.426L42.64.465h-4.26zm20.76 0v19.967h3.89V.465h-3.89zm13.93 3.39h4.5V.465H64.7v3.39h4.47v16.577h3.9V3.855zM83.1 13.07l2.92-7.176 2.8 7.176H83.1zm8.64 7.362h4.18L87.5.041h-2.91l-8.66 20.391h4.13l1.82-4.211h8.16zm8.57 0l2.04-12.287 5.3 12.525h1.06l5.51-12.525 1.77 12.287h3.92L116.6.094h-2.67l-5.7 13.082L102.8.094h-2.67l-3.71 20.338h3.89zM122.66.465v19.967h3.89V.465h-3.89zm11.57 19.967V6.926l12.16 13.9h2.7V.465h-3.89v13.452L133.01.017h-2.67v20.417h3.89zm23.67-7.362l2.92-7.176 2.8 7.176h-5.72zm8.64 7.362h4.18L162.3.041h-2.91l-8.66 20.391h4.13l1.83-4.211h8.15zm27.56-19.2a10.687 10.687 0 00-4.87-1.218 10.493 10.493 0 00-10.57 10.539 10.321 10.321 0 0010.54 10.328 11.8 11.8 0 004.9-1.165v-4.582a6.71 6.71 0 01-4.82 2.2 6.568 6.568 0 01-6.62-6.805 6.658 6.658 0 016.54-6.965 6.874 6.874 0 014.9 2.278V1.234z" fill-rule="evenodd"/></svg><svg width="123.28" height="12.45" viewBox="-1 -1 244.56 22.91" y="15.42" xmlns="http://www.w3.org/2000/svg"><path data-name="Rellena arrugas" d="M3.88 3.605h1.19c2.52 0 3.76 1.006 3.76 2.992 0 2.039-1.27 3.045-3.81 3.045H3.88V3.605zm4.42 8.394c3.05-.609 4.56-2.489 4.56-5.64 0-3.469-2.28-5.906-7.07-5.906h-5.8V20.42h3.89v-8.026h.5l5.4 8.024h4.8zM27.47.453H16.43V20.42h11.04v-3.363h-7.15v-5.429h6.89V8.265h-6.89V3.843h7.15V.453zm2.99 0V20.42H40.5v-3.363h-6.14V.457h-3.9zm11.94 0V20.42h10.04v-3.363H46.3V.457h-3.9zm22.99 0H54.35V20.42h11.04v-3.363h-7.15v-5.429h6.88V8.265h-6.88V3.843h7.15V.453zm6.88 19.967V6.92l12.16 13.9h2.7V.453h-3.89v13.453L71.05.006h-2.67v20.417h3.89zm23.67-7.362l2.92-7.176 2.8 7.176h-5.72zm8.64 7.362h4.18L100.34.03h-2.91l-8.66 20.39h4.13l1.83-4.21h8.15zm18.03-7.362l2.91-7.176 2.81 7.176h-5.72zm8.63 7.362h4.19L127 .03h-2.91l-8.66 20.39h4.13l1.83-4.21h8.16zm9.64-16.815h1.19c2.52 0 3.76 1.006 3.76 2.992 0 2.039-1.27 3.045-3.81 3.045h-1.14V3.605zm4.42 8.394c3.05-.609 4.56-2.489 4.56-5.64 0-3.469-2.28-5.906-7.07-5.906h-5.8V20.42h3.89v-8.026h.5l5.4 8.024h4.8zm12.02-8.394h1.19c2.52 0 3.76 1.006 3.76 2.992 0 2.039-1.27 3.045-3.81 3.045h-1.14V3.605zm4.42 8.394c3.05-.609 4.56-2.489 4.56-5.64 0-3.469-2.28-5.906-7.07-5.906h-5.8V20.42h3.89v-8.026h.5l5.41 8.024h4.79zM169.66.453v12.208c0 5.588 3.34 8.209 8.02 8.209s8.03-2.621 8.03-8.209V.453h-3.9v11.441a7.184 7.184 0 01-.6 3.549 4.05 4.05 0 01-3.53 1.88 3.737 3.737 0 01-3.52-1.88 7.182 7.182 0 01-.61-3.549V.454h-3.89zm29.95 12.632h4.69c-.3 2.648-2.52 4.237-5.22 4.237a6.544 6.544 0 01-6.57-6.806 6.648 6.648 0 016.57-6.964 5.791 5.791 0 015.22 2.966l3.39-1.828a9.407 9.407 0 00-8.58-4.687A10.434 10.434 0 10199 20.87c5.64 0 9.74-3.707 9.74-10.566v-.582h-9.13v3.363zm16.07-.027l2.91-7.176 2.81 7.176h-5.72zm8.63 7.362h4.19L220.08.03h-2.92l-8.66 20.39h4.14l1.82-4.21h8.16zm17.53-18.086a8.588 8.588 0 00-5.85-2.225 5.873 5.873 0 00-6.22 5.826c0 2.6 1.16 4.025 4.92 5.376 3.34 1.218 3.87 1.827 3.87 3.23a2.884 2.884 0 01-3.1 2.807 4.506 4.506 0 01-4.21-2.674l-2.52 2.436a8.018 8.018 0 006.86 3.787c4.11 0 6.97-2.7 6.97-6.568 0-2.727-1.06-4.5-5.75-6.223-2.41-.873-3.04-1.4-3.04-2.489 0-1.3 1.29-2.224 2.8-2.224a4.379 4.379 0 013.26 1.589z" fill-rule="evenodd"/></svg></svg>