<svg width="283" height="274" xmlns="http://www.w3.org/2000/svg" xmlns:xlink="http://www.w3.org/1999/xlink"><svg width="66.25" height="12.38" viewBox="-1 -1 130.5 22.75" x="214.81" y="77.24" xmlns="http://www.w3.org/2000/svg"><path d="M18.01 20.41L9.647.3H8.318L-.015 20.41h1.842l2.234-5.62h9.873l2.234 5.62h1.842zm-4.68-7.1H4.669L8.986 2.5zm21.827 6.77l-.362-1.45a19.724 19.724 0 01-4.529.54c-5.284 0-9.178-3.53-9.178-8.82s3.834-8.78 9.178-8.78a20.181 20.181 0 014.59.54l.3-1.48a17.732 17.732 0 00-4.83-.63c-6.7 0-11.081 4.56-11.081 10.35s4.559 10.39 11.081 10.39a18.223 18.223 0 004.831-.66zm18.287.33v-1.57H41.88v-8.06h10.809V9.21H41.88V1.87h11.564V.3H40.038v20.11h13.406zM73.761 6.13a5.8 5.8 0 00-6.1-5.83h-9.118v20.11h1.812v-8.49h7.306a5.771 5.771 0 006.1-5.79zm-1.811 0a4.031 4.031 0 01-4.288 4.29h-7.306V1.87h7.306a4.22 4.22 0 014.288 4.26zm18.648-4.26V.3h-15.64v1.57h6.911v18.54h1.812V1.87h6.914zm17.1 18.54L99.335.3h-1.329l-8.337 20.11h1.842l2.234-5.62h9.873l2.235 5.62h1.841zm-4.679-7.1h-8.666L98.671 2.5zm25.5 7.1l-6.582-8.91a5.538 5.538 0 004.468-5.49 5.711 5.711 0 00-6.1-5.71h-9.088v20.11h1.812v-8.73h7l6.431 8.73h2.053zm-3.925-14.4a3.932 3.932 0 01-4.288 4.16h-7.276v-8.3h7.276a4.12 4.12 0 014.285 4.14z" fill="#41c2f0" fill-rule="evenodd"/></svg><svg width="79.92" height="12.38" viewBox="-1 -1 157.84 22.75" x="194.36" y="147.53" xmlns="http://www.w3.org/2000/svg"><path d="M17.289 20.41l-6.582-8.91a5.538 5.538 0 004.468-5.49A5.711 5.711 0 009.075.3H-.013v20.11h1.812v-8.73h7l6.431 8.73h2.053zm-3.925-14.4a3.932 3.932 0 01-4.288 4.16H1.8v-8.3h7.276a4.12 4.12 0 014.288 4.14zm20.909 14.4v-1.57H22.706v-8.06h10.809V9.21H22.706V1.87H34.27V.3H20.867v20.11h13.406zm19.2-.33l-.362-1.45a19.737 19.737 0 01-4.529.54c-5.284 0-9.179-3.53-9.179-8.82s3.835-8.78 9.179-8.78a20.166 20.166 0 014.589.54l.3-1.48A17.744 17.744 0 0048.64 0c-6.7 0-11.081 4.56-11.081 10.35s4.56 10.39 11.081 10.39a18.225 18.225 0 004.833-.66zm19.977.33V.3h-1.844v8.91H60.165V.3h-1.811v20.11h1.811v-9.6h11.441v9.6h1.842zm21.716 0L86.802.3h-1.328L77.14 20.41h1.842l2.234-5.62h9.874l2.234 5.62h1.842zm-4.68-7.1H81.82L86.138 2.5zm24.036 7.1v-1.57h-13.95l13.919-16.97V.3h-15.64v1.57h13.466L98.429 18.84v1.57h16.093zm20.5 0L126.658.3h-1.328l-8.333 20.11h1.841l2.235-5.62h9.873l2.234 5.62h1.842zm-4.68-7.1h-8.665l4.317-10.81zm25.5 7.1l-6.582-8.91a5.538 5.538 0 004.469-5.49 5.711 5.711 0 00-6.1-5.71h-9.088v20.11h1.811v-8.73h7l6.431 8.73h2.053zm-3.925-14.4a3.931 3.931 0 01-4.287 4.16h-7.277v-8.3h7.277a4.12 4.12 0 014.292 4.14z" fill="#41c2f0" fill-rule="evenodd"/></svg><svg width="255.16" height="57.38" viewBox="-1 -1 508.31 112.75" y="19.86" xmlns="http://www.w3.org/2000/svg"><path data-name="¿Buscas TRATAR la piel grasa?" d="M30.611 40.89l-1.512-7.19a46.655 46.655 0 01-11.718 1.7c-5.671 0-8.317-1.44-8.317-4.85 0-4.72 3.78-6.93 9.073-11.15l-3.844-5.61c-9.639 5.49-14.3 11.35-14.3 17.14 0 7.88 5.8 12.35 16.317 12.35a52.2 52.2 0 0014.301-2.39zM20.468 10.46V.63h-9.824v9.83h9.829zm50.42 20.03c0-3.84-2.331-8.25-8-9.95a9.407 9.407 0 006.553-9.01c0-6.56-4.852-10.9-12.853-10.9H35.732v41.96h22.87a12.134 12.134 0 0012.286-12.1zm-9.451-.5c0 3.02-1.827 5.1-5.733 5.1H44.93V24.88h10.774c3.906 0 5.733 2.08 5.733 5.11zm-1.449-17.2c0 3.02-1.827 5.04-5.733 5.04H44.93V8.06h9.325c3.906 0 5.733 1.7 5.733 4.73zm52.136 12.35V.63h-9.451v24.51c0 6.04-3.969 9.7-9.45 9.7s-9.451-3.66-9.451-9.7V.63h-9.45v24.51c0 9.7 7.5 18.14 18.9 18.14s18.902-8.44 18.902-18.14zm39.251 5.54c0-7.75-4.285-9.14-13.168-12.6-8.443-3.28-11.089-4.03-11.089-6.68 0-2.46 2.079-3.28 8-3.28a55.589 55.589 0 0113.671 1.71l1.45-7.69A60.6 60.6 0 00134.992 0c-11.908 0-17.326 3.9-17.326 11.65 0 7.37 4.725 9.77 14.175 13.3 7.687 2.89 10.081 3.4 10.081 5.98 0 3.15-3.15 4.35-8.5 4.35a52.008 52.008 0 01-15.5-2.77l-1.953 7.24a48.837 48.837 0 0017.578 3.53c10.33 0 17.828-4.73 17.828-12.6zm37.469-28.86A36.644 36.644 0 00176.621 0c-13.924 0-23.374 9.64-23.374 21.61s9.576 21.67 23.374 21.67a35.709 35.709 0 0012.034-1.95l-1.891-7.69a31.472 31.472 0 01-8.82 1.26c-10.333 0-15.247-5.67-15.247-13.29s4.914-13.23 15.247-13.23a31.713 31.713 0 018.82 1.26zm41.244 40.77L214.211.63h-8.695l-15.94 41.96h9.262l3.276-8.63h15.5l3.213 8.63h9.262zm-14.806-15.75h-10.9l5.482-16.76zm50.758 3.84c0-7.75-4.285-9.14-13.168-12.6-8.443-3.28-11.089-4.03-11.089-6.68 0-2.46 2.079-3.28 8-3.28a55.589 55.589 0 0113.671 1.71l1.45-7.69A60.6 60.6 0 00249.657 0c-11.908 0-17.326 3.9-17.326 11.65 0 7.37 4.725 9.77 14.175 13.3 7.687 2.89 10.081 3.4 10.081 5.98 0 3.15-3.15 4.35-8.5 4.35a52.008 52.008 0 01-15.5-2.77l-1.953 7.24a48.837 48.837 0 0017.578 3.53c10.325 0 17.823-4.73 17.823-12.6zm47.18-21.8V.63h-36.989v8.25h13.8v33.71h9.451V8.88h13.735zm43.229 33.71l-12.105-16.45a13.006 13.006 0 007.75-12.03 13.451 13.451 0 00-13.8-13.48h-22.802v41.96h9.45V27.53h8.821l10.962 15.06h11.719zm-14.05-28.48a5.918 5.918 0 01-5.985 6.05h-11.47V8.25h11.467a5.76 5.76 0 015.983 5.86zm53.789 28.48L380.311.63h-8.695l-15.94 41.96h9.262l3.276-8.63h15.5l3.213 8.63h9.262zm-14.806-15.75h-10.9l5.482-16.76zm46.5-17.96V.63h-36.991v8.25h13.8v33.71h9.453V8.88h13.735zm34.748 33.71L446.744.63h-8.7l-15.94 41.96h9.262l3.276-8.63h15.5l3.213 8.63h9.262zm-14.806-15.75h-10.9l5.482-16.76zm58.507 15.75l-12.1-16.45a13.006 13.006 0 007.75-12.03 13.451 13.451 0 00-13.8-13.48h-22.809v41.96h9.45V27.53h8.822l10.962 15.06h11.718zm-14.05-28.48a5.918 5.918 0 01-5.985 6.05h-11.474V8.25h11.467a5.76 5.76 0 015.985 5.86zM32.544 110.05v-8.21H12.112V67.67H2.568v42.38h29.969zm44.854 0L61.364 67.67h-8.781l-16.1 42.38h9.353l3.309-8.72h15.653l3.245 8.72h9.353zM62.445 94.14H51.431l5.535-16.93zm71.717-12.6c0-7.57-5.854-13.87-14.317-13.87h-22.27v42.38h9.481V95.6h12.789a13.964 13.964 0 0014.31-14.06zm-9.8 0a6.25 6.25 0 01-6.109 6.36h-11.2l.063-12.59h11.128a6.136 6.136 0 016.112 6.23zm27.075 28.51V67.67h-9.545v42.38h9.545zm43.252 0v-8.21h-21.577v-9.55h20.362v-8.2h-20.362v-8.21h21.571v-8.21h-31.115v42.38h31.115zm39.854 0v-8.21h-20.431V67.67h-9.544v42.38h29.969zm56.154-1.28V88.22h-8.908v13.62a37.624 37.624 0 01-6.235.44c-8.718 0-13.617-5.66-13.617-13.36 0-8.59 5.09-13.42 15.525-13.42a50.742 50.742 0 019.8.89l1.273-8.02a53.859 53.859 0 00-12.281-1.34c-13.616 0-23.86 8.91-23.86 21.89 0 12.09 9.035 21.83 23.988 21.83a62.592 62.592 0 0014.309-1.98zm51.236 1.28l-12.217-16.61a13.147 13.147 0 007.827-12.15 13.585 13.585 0 00-13.935-13.62h-23.04v42.38h9.544V94.84h8.908l11.072 15.21h11.835zm-14.189-28.76a5.98 5.98 0 01-6.045 6.11h-11.587V75.37h11.581a5.816 5.816 0 016.045 5.92zm58.653 28.76l-16.034-42.38h-8.781l-16.1 42.38h9.353l3.309-8.72h15.653l3.245 8.72h9.353zm-14.953-15.91h-11.013l5.535-16.93zm54.663 3.88c0-7.83-4.327-9.22-13.3-12.72-8.526-3.31-11.2-4.08-11.2-6.75 0-2.48 2.1-3.31 8.081-3.31a56.671 56.671 0 0113.808 1.72l1.463-7.76a60.862 60.862 0 00-15.4-2.17c-12.026 0-17.5 3.95-17.5 11.78 0 7.44 4.772 9.86 14.317 13.42 7.762 2.93 10.18 3.44 10.18 6.05 0 3.18-3.181 4.39-8.59 4.39a52.748 52.748 0 01-15.652-2.8l-1.97 7.31a49.19 49.19 0 0017.753 3.57c10.432 0 18.004-4.78 18.004-12.73zm44.29 12.03l-16.034-42.38h-8.781l-16.1 42.38h9.353l3.309-8.72h15.653l3.245 8.72h9.353zm-14.953-15.91h-11.013l5.535-16.93zm47.19-14.63c0-7.96-5.853-12.48-16.479-12.48a52.911 52.911 0 00-14.444 2.42l1.527 7.26a46.71 46.71 0 0111.835-1.72c5.726 0 8.4 1.46 8.4 4.9 0 4.77-3.818 7-9.163 11.26l3.882 5.66c9.728-5.53 14.436-11.45 14.436-17.3zm-10.753 30.54v-9.93h-9.926v9.93h9.926z" fill="#41c2f0" fill-rule="evenodd"/></svg><svg width="214.81" height="39.88" viewBox="-1 -1 427.62 77.75" y="77.24" xmlns="http://www.w3.org/2000/svg"><path d="M28.73 74.28V58.87h-6.68v10.21a28.112 28.112 0 01-4.67.33c-6.54 0-10.21-4.24-10.21-10.01 0-6.44 3.81-10.07 11.64-10.07a37.971 37.971 0 017.34.67l.96-6.01a40.252 40.252 0 00-9.21-1C7.69 42.99.01 49.67.01 59.4c0 9.06 6.78 16.36 17.99 16.36a47.183 47.183 0 0010.73-1.48zm30.38.95v-6.15H42.94v-7.16h15.27v-6.15H42.94v-6.15h16.17v-6.15H35.79v31.76h23.32zm29.36 0v-6.15H73.16V43.47H66v31.76h22.47zm43.12-21.37a10.35 10.35 0 00-10.73-10.39h-16.7v31.76h7.11V64.41h9.59a10.473 10.473 0 0010.73-10.55zm-7.35 0a4.687 4.687 0 01-4.58 4.77h-8.39l.05-9.44h8.34a4.6 4.6 0 014.58 4.67zm40.66 8.16V43.47h-7.15v18.55c0 4.58-3.01 7.35-7.16 7.35s-7.15-2.77-7.15-7.35V43.47h-7.16v18.55c0 7.35 5.68 13.74 14.31 13.74s14.31-6.39 14.31-13.74zm39.43 13.21l-9.15-12.45a9.853 9.853 0 005.86-9.11 10.178 10.178 0 00-10.44-10.2h-17.27v31.76h7.15v-11.4h6.68l8.3 11.4h8.87zM193.7 53.67a4.483 4.483 0 01-4.54 4.58h-8.68v-9.01h8.68a4.359 4.359 0 014.54 4.43zm23.59 21.56V43.47h-7.15v31.76h7.15zm32.98-25.61v-6.15H225.8v31.76h7.16V61.92h15.59v-6.15h-15.59v-6.15h17.31zm13.13 25.61V43.47h-7.15v31.76h7.15zm33.08-30.86a27.787 27.787 0 00-9.26-1.38c-10.54 0-17.69 7.3-17.69 16.36s7.25 16.41 17.69 16.41a27.1 27.1 0 009.11-1.48l-1.43-5.82a23.633 23.633 0 01-6.68.95c-7.82 0-11.54-4.29-11.54-10.06s3.72-10.02 11.54-10.02a24.024 24.024 0 016.68.96zm34.09 30.86l-12.02-31.76h-6.59L299.9 75.23h7.01l2.48-6.53h11.73l2.44 6.53h7.01zm-11.21-11.92h-8.25l4.15-12.69zm45.54 11.92V43.47h-7.06V64.5l-15.36-21.03h-6.97v31.76h7.06V54.25l15.36 20.98h6.97zm32.96-25.52v-6.24h-28v6.24h10.45v25.52h7.15V49.71h10.4zm27.76 25.52v-6.15h-16.17v-7.16h15.26v-6.15h-15.26v-6.15h16.17v-6.15H402.3v31.76h23.32zm-401.84-43v-6.15H7.61v-7.16h15.26v-6.15H7.61V6.62h16.17V.47H.45v31.76h23.33zM55.13 6.62V.47H30.66v31.76h7.16V18.92h15.6v-6.15h-15.6V6.62h17.31zm30.21 0V.47H60.87v31.76h7.16V18.92h15.6v-6.15h-15.6V6.62h17.31zm30.22 25.61L103.53.47h-6.58L84.88 32.23h7.02l2.48-6.53h11.73l2.43 6.53h7.02zm-11.21-11.92h-8.26l4.15-12.69zm39.92-18.94a27.688 27.688 0 00-9.25-1.38c-10.54 0-17.7 7.3-17.7 16.36s7.25 16.41 17.7 16.41a27.146 27.146 0 009.11-1.48l-1.43-5.82a23.733 23.733 0 01-6.68.95c-7.82 0-11.54-4.29-11.54-10.06s3.72-10.02 11.54-10.02a24.078 24.078 0 016.68.96zm29.7 30.86v-6.15h-15.31V.47h-7.15v31.76h22.46zm33.81 0L195.76.47h-6.58l-12.07 31.76h7.01l2.48-6.53h11.73l2.44 6.53h7.01zm-11.21-11.92h-8.25l4.15-12.69zm47.16 11.92l-9.16-12.45a9.862 9.862 0 005.87-9.11A10.18 10.18 0 00229.99.47h-17.27v31.76h7.16v-11.4h6.68l8.3 11.4h8.87zm-10.64-21.56a4.481 4.481 0 01-4.53 4.58h-8.68V6.24h8.68a4.356 4.356 0 014.53 4.43z" fill="#fff" fill-rule="evenodd"/></svg><svg width="129.63" height="23.81" viewBox="-1 -1 257.25 45.62" y="250.04" xmlns="http://www.w3.org/2000/svg"><path d="M41.27 42.91L29.08 26.34a13.13 13.13 0 007.81-12.13A13.555 13.555 0 0022.99.62H0v42.29h9.53V27.73h8.88l11.05 15.18h11.81zm-14.16-28.7a5.963 5.963 0 01-6.03 6.09H9.53v-12h11.55a5.807 5.807 0 016.03 5.91zm52.44 28.7v-8.19H58.02v-9.53h20.32V17H58.02V8.81h21.53V.62H48.5v42.29h31.05zm46.51-21.15C126.06 9.38 115.33.62 98.95.62h-9.91v42.29h9.91c16.38 0 27.11-8.76 27.11-21.15zm-9.9 0c0 9.02-7.12 12.7-15.43 12.7h-2.16V9.07h2.16c8.31 0 15.43 3.68 15.43 12.69zm54.87 3.56V.62h-9.53v24.7c0 6.1-4 9.78-9.52 9.78s-9.53-3.68-9.53-9.78V.62h-9.52v24.7c0 9.78 7.56 18.29 19.05 18.29s19.05-8.51 19.05-18.29zm43.73-23.49a36.67 36.67 0 00-12.32-1.84c-14.03 0-23.55 9.71-23.55 21.77s9.65 21.85 23.55 21.85a35.957 35.957 0 0012.13-1.97l-1.9-7.75a31.66 31.66 0 01-8.89 1.27c-10.42 0-15.37-5.71-15.37-13.4s4.95-13.33 15.37-13.33a32.21 32.21 0 018.89 1.27zm40.49 41.08v-8.19h-21.53v-9.53h20.32V17h-20.32V8.81h21.53V.62H224.2v42.29h31.05z" fill="#fff" fill-rule="evenodd"/></svg><svg width="194.36" height="55.56" viewBox="-1 -1 386.72 109.12" y="147.53" xmlns="http://www.w3.org/2000/svg"><path data-name="la cantidad de sebo" d="M26.02 42.91v-3.3H3.8V.62H-.01v42.29h26.03zm43.05 0L51.48.62h-2.79L31.16 42.91h3.88l4.7-11.81H60.5l4.7 11.81h3.87zm-9.84-14.92H41l9.08-22.73zm61.04 14.22l-.76-3.05a40.972 40.972 0 01-9.52 1.14c-11.11 0-19.3-7.42-19.3-18.54s8.06-18.47 19.3-18.47a42.228 42.228 0 019.65 1.14l.63-3.11a36.988 36.988 0 00-10.16-1.33c-14.09 0-23.3 9.58-23.3 21.77s9.59 21.85 23.3 21.85a38.056 38.056 0 0010.16-1.4zm44.2.7L146.88.62h-2.79l-17.52 42.29h3.87l4.7-11.81h20.76l4.7 11.81h3.87zm-9.84-14.92h-18.22l9.08-22.73zm51.63 14.92V.62h-3.75v36.32L175.4.62h-3.69v42.29h3.69V6.53l27.11 36.38h3.75zm39.85-38.99V.62h-32.89v3.3h14.54v38.99h3.81V3.92h14.54zm11.62 38.99V.62h-3.81v42.29h3.81zm46.7-21.15c0-12.19-10.48-21.14-24.89-21.14h-8.45v42.29h8.45c14.41 0 24.89-8.95 24.89-21.15zm-3.88 0c0 11.37-10.22 17.85-20.44 17.85h-5.21V3.92h5.21c10.22 0 20.44 6.48 20.44 17.84zm43.6 21.15L326.56.62h-2.79l-17.53 42.29h3.87l4.7-11.81h20.77l4.69 11.81h3.88zm-9.84-14.92h-18.23l9.08-22.73zm50.41-6.23c0-12.19-10.47-21.14-24.89-21.14h-8.44v42.29h8.44c14.42 0 24.89-8.95 24.89-21.15zm-3.87 0c0 11.37-10.22 17.85-20.44 17.85h-5.21V3.92h5.21c10.22 0 20.44 6.48 20.44 17.84zM96 85.26c0-12.38-10.73-21.14-27.11-21.14h-9.91v42.29h9.91c16.38 0 27.11-8.76 27.11-21.15zm-9.91 0c0 9.02-7.11 12.7-15.43 12.7h-2.15V72.57h2.15c8.32 0 15.43 3.68 15.43 12.69zm48.46 21.15v-8.19h-21.52v-9.53h20.31V80.5h-20.31v-8.19h21.52v-8.19H103.5v42.29h31.05zm57.27-12c0-7.81-4.32-9.21-13.27-12.7-8.51-3.3-11.17-4.06-11.17-6.73 0-2.48 2.09-3.3 8.06-3.3a56.464 56.464 0 0113.78 1.71l1.46-7.75a61.12 61.12 0 00-15.37-2.15c-12 0-17.46 3.93-17.46 11.74 0 7.43 4.76 9.84 14.29 13.4 7.74 2.92 10.16 3.43 10.16 6.03 0 3.18-3.18 4.38-8.58 4.38a52.488 52.488 0 01-15.61-2.79l-1.97 7.3a49.158 49.158 0 0017.71 3.56c10.41 0 17.97-4.77 17.97-12.7zm39.72 12v-8.19h-21.52v-9.53h20.32V80.5h-20.32v-8.19h21.52v-8.19H200.5v42.29h31.04zm44.93-12.19c0-3.88-2.35-8.32-8.06-10.03a9.493 9.493 0 006.6-9.08c0-6.61-4.89-10.99-12.95-10.99h-21.02v42.29h23.05a12.225 12.225 0 0012.38-12.19zm-9.52-.51c0 3.05-1.84 5.14-5.78 5.14h-10.86V88.57h10.86c3.94 0 5.78 2.09 5.78 5.14zm-1.46-17.33c0 3.04-1.84 5.07-5.78 5.07h-9.4v-9.84h9.4c3.94 0 5.78 1.72 5.78 4.77zm59.22 8.95a21.561 21.561 0 10-21.59 21.78 21.624 21.624 0 0021.59-21.78zm-9.53 0c0 7.68-4.38 13.33-12.06 13.33s-12-5.65-12-13.33 4.32-13.4 12-13.4 12.06 5.72 12.06 13.4z" fill="#fff" fill-rule="evenodd"/></svg><svg width="133.17" height="23.14" viewBox="-1 -1 264.34 44.28" y="226.9" xmlns="http://www.w3.org/2000/svg"><path d="M31.06 42.29V34.1H9.54v-9.53h20.32v-8.19H9.54V8.19h21.52V0H.01v42.29h31.05zm39.41 0V34.1H50.08V0h-9.52v42.29h29.91zm16.5 0V0h-9.52v42.29h9.52zm55.95 0V0h-9.15l-13.01 22.1L107.74 0H98.6v42.29h9.14V16.76l10.41 17.72h5.15l10.47-17.65v25.46h9.15zm21.17 0V0h-9.52v42.29h9.52zm50.74 0V0h-9.4v28L184.98 0h-9.27v42.29h9.4V14.35l20.45 27.94h9.27zm47.51 0L246.34 0h-8.76l-16.06 42.29h9.33l3.3-8.7h15.62l3.24 8.7h9.33zm-14.92-15.88h-10.98l5.52-16.88z" fill="#fff" fill-rule="evenodd"/></svg><svg width="176.38" height="23.81" viewBox="-1 -1 350.75 45.62" y="203.09" xmlns="http://www.w3.org/2000/svg"><path data-name="impurezas" d="M3.8 42.91V.62H-.01v42.29H3.8zm52.47 0V.62h-3.68L36.72 32.3 20.84.62h-3.68v42.29h3.68V7.61l14.67 29.71h2.41L52.59 7.61v35.3h3.68zm44.57-30.03C100.84 6.65 96.2.62 88.01.62H68.84v42.29h3.81V25.07h15.36c8.19 0 12.83-5.97 12.83-12.19zm-3.81 0c0 5.27-3.37 9.01-9.02 9.01H72.65V3.92h15.36a8.881 8.881 0 019.02 8.96zm44.26 15.23V.62h-3.81v27.75c0 7.11-5.4 11.93-12.83 11.93s-12.82-4.31-12.82-11.93V.62h-3.88v27.49c0 8 5.97 15.5 16.7 15.5s16.64-7.43 16.64-15.5zm48.2 14.8l-13.84-18.73a11.669 11.669 0 009.4-11.56c0-6.22-4.64-12-12.83-12h-19.11v42.29h3.81V24.56h14.73l13.52 18.35h4.32zm-8.25-30.29c0 5.27-3.37 8.76-9.02 8.76h-15.3V3.92h15.3c4.83 0 9.02 3.43 9.02 8.7zm44.58 30.29v-3.3H201.5V22.65h22.73v-3.3H201.5V3.92h24.32V.62h-28.19v42.29h28.19zm42.07 0v-3.3h-29.33l29.27-35.69V.62h-32.89v3.3h28.31l-29.2 35.69v3.3h33.84zm43.34 0L293.64.62h-2.79l-17.52 42.29h3.87l4.7-11.81h20.76l4.7 11.81h3.87zm-9.84-14.92h-18.22l9.08-22.73zm47.37 4.76c0-4.95-1.84-7.75-13.78-12.7-10.79-4.51-13.58-5.84-13.58-10.73 0-4.38 3.36-6.03 11.61-6.03a62.393 62.393 0 0113.91 1.84l.63-3.05a57.983 57.983 0 00-14.66-2.09c-9.53 0-15.3 2.79-15.3 9.27 0 6.03 3.23 9.08 14.92 13.58 10.6 4.07 12.44 6.29 12.44 10.04 0 4.06-4.38 7.42-11.94 7.42a47.462 47.462 0 01-15.81-3.11l-.95 3.05a46.809 46.809 0 0016.89 3.37c9.78 0 15.62-4.83 15.62-10.86z" fill="#fff" fill-rule="evenodd"/></svg><svg width="212.92" height="30.41" viewBox="-1 -1 423.84 58.81" y="117.12" xmlns="http://www.w3.org/2000/svg"><path d="M40.44 55.89V45.22H12.4v-12.4h26.47V22.15H12.4V11.48h28.04V.81H-.01v55.08h40.45zm54.37-44.41V.81H52.38v55.08h12.4V32.82h27.05V22.15H64.78V11.48h30.03zm52.39 0V.81h-42.44v55.08h12.41V32.82h27.05V22.15h-27.05V11.48h30.03zm52.38 44.41L178.74.81h-11.41L146.4 55.89h12.16l4.3-11.33h20.35l4.21 11.33h12.16zm-19.43-20.67h-14.31l7.19-22.01zm69.23-32.84a47.931 47.931 0 00-16.05-2.4c-18.28 0-30.68 12.65-30.68 28.37s12.57 28.45 30.68 28.45a46.947 46.947 0 0015.8-2.56l-2.48-10.09a41.152 41.152 0 01-11.58 1.65c-13.57 0-20.02-7.44-20.02-17.45s6.45-17.37 20.02-17.37a41.924 41.924 0 0111.58 1.65zm51.5 53.51V45.22h-26.55V.81h-12.4v55.08h38.95zm58.62 0L338.66.81h-11.42l-20.92 55.08h12.16l4.3-11.33h20.34l4.22 11.33h12.16zm-19.44-20.67h-14.3l7.19-22.01zm81.78 20.67l-15.88-21.58a17.108 17.108 0 0010.18-15.8A17.659 17.659 0 00398.02.81h-29.94v55.08h12.41V36.13h11.58l14.39 19.76h15.38zM403.4 18.51a7.773 7.773 0 01-7.86 7.94h-15.05V10.81h15.05a7.573 7.573 0 017.86 7.7z" fill="#fff" fill-rule="evenodd"/></svg><svg height="19.86" viewBox="-1 -1 562.16 37.72" width="282.08" xmlns="http://www.w3.org/2000/svg"><path d="M4.18 3.07L2.45 2.3l1.73-.77-.32-.58L2.27 2 2.42.1h-.66L1.91 2 .32.95 0 1.53l1.73.77L0 3.07l.32.58L1.91 2.6l-.15 1.9h.66l-.15-1.9 1.59 1.05zm6.79 4.24l-.13-.53a7.332 7.332 0 01-1.65.19 3.208 3.208 0 110-6.41 7.464 7.464 0 011.67.2l.11-.54a6.241 6.241 0 00-1.76-.23 3.764 3.764 0 00-4.04 3.77 3.82 3.82 0 004.04 3.79 6.8 6.8 0 001.76-.24zm5.39.12V3.76c0-1.05-.71-1.79-2.18-1.79a7.605 7.605 0 00-1.74.21l.09.53a9.809 9.809 0 011.63-.17c1.16 0 1.56.53 1.56 1.27v.61h-1.81a1.481 1.481 0 00-1.73 1.52 1.534 1.534 0 001.8 1.57 2.042 2.042 0 001.74-.76v.68zm-.64-2.04a1.536 1.536 0 01-1.75 1.55.956.956 0 01-1.16-.96.932.932 0 011.15-.99h1.76zM16 .03h-.75l-1.06 1.33h.55zm3.84 7.46v-.55h-.47a.721.721 0 01-.78-.89V.1h-.64v5.92a1.273 1.273 0 001.38 1.47zm5.14-.17l-.11-.54a4.208 4.208 0 01-1.17.16 2.2 2.2 0 010-4.4 4.3 4.3 0 011.17.17l.11-.53a4.082 4.082 0 00-1.34-.21 2.77 2.77 0 000 5.54 5.1 5.1 0 001.34-.19zm5.73.11V2.07h-.64v2.72a1.937 1.937 0 01-1.79 2.13A1.145 1.145 0 0127 5.57v-3.5h-.65v3.55a1.7 1.7 0 001.84 1.89 2.133 2.133 0 001.88-1.1v1.02zm3.71.06v-.55h-.48a.724.724 0 01-.78-.89V.1h-.63v5.92a1.27 1.27 0 001.37 1.47zm6.04-2.75a2.513 2.513 0 10-2.5 2.77 2.562 2.562 0 002.5-2.77zm-.64 0a1.882 1.882 0 11-1.86-2.2 1.929 1.929 0 011.86 2.2zm5.69 1.35c0-.78-.38-1.08-1.89-1.7-1.03-.42-1.25-.64-1.25-1.09 0-.53.36-.76 1.29-.76a6.721 6.721 0 011.52.2l.1-.52a5.445 5.445 0 00-1.66-.25c-1.05 0-1.89.39-1.89 1.26 0 .73.27 1.16 1.49 1.65 1.38.57 1.65.7 1.65 1.19 0 .6-.57.87-1.42.87a4.066 4.066 0 01-1.72-.41l-.17.5a4.25 4.25 0 001.91.48c1.27 0 2.04-.57 2.04-1.42zm8.22 1.34V.1h-.63v2.95a1.921 1.921 0 00-1.76-1.08c-1.69 0-2.37 1.44-2.37 2.77s.69 2.77 2.37 2.77a1.93 1.93 0 001.76-1.07v.99zm-.63-2.69c0 1.19-.6 2.2-1.74 2.2s-1.74-.99-1.74-2.2.59-2.2 1.74-2.2 1.74 1.01 1.74 2.2zm6.94.23v-.23c0-1.48-.81-2.77-2.37-2.77a2.539 2.539 0 00-2.47 2.77 2.611 2.611 0 002.78 2.77 6.072 6.072 0 001.75-.27l-.13-.53a6.014 6.014 0 01-1.63.23 1.942 1.942 0 01-2.11-1.97zm-.66-.55h-3.52a1.832 1.832 0 011.81-1.88 1.737 1.737 0 011.71 1.88zm9.24 3.01v-.58h-3.85V.1h-.66v7.33zm1.92-6.3V.1h-.82v1.03h.45l-.39 1.17h.36zm8.45 2.64a3.469 3.469 0 10-3.45 3.78 3.557 3.557 0 003.45-3.78zm-.66 0A2.822 2.822 0 1175.54.56a2.9 2.9 0 012.79 3.21zM87 7.43l-2.4-3.25a2.015 2.015 0 001.63-2A2.077 2.077 0 0084.01.1h-3.32v7.33h.66V4.25h2.56l2.34 3.18zm-1.43-5.25a1.439 1.439 0 01-1.56 1.52h-2.66V.67h2.66a1.5 1.5 0 011.56 1.51zm7.69 5.25v-.58h-4.22V3.92h3.94v-.58h-3.94V.67h4.22V.1h-4.89v7.33zm7.5 0L97.71.1h-.48l-3.04 7.33h.67l.82-2.05h3.59l.82 2.05zm-1.71-2.59H95.9L97.47.9zm7.48 2.59v-.58h-3.85V.1h-.66v7.33zm1.98 0V6.39h-.82v1.04h.45l-.39 1.16h.37zm9.06-2.69c0-1.33-.67-2.77-2.36-2.77a1.911 1.911 0 00-1.76 1.08V.1h-.65v7.33h.65v-.99a1.919 1.919 0 001.76 1.07c1.67 0 2.36-1.44 2.36-2.77zm-.64 0c0 1.21-.6 2.2-1.74 2.2s-1.74-1.01-1.74-2.2.6-2.2 1.74-2.2 1.74.99 1.74 2.2zm5.89 2.69V3.76c0-1.05-.7-1.79-2.17-1.79a7.471 7.471 0 00-1.74.21l.09.53a9.807 9.807 0 011.62-.17c1.17 0 1.57.53 1.57 1.27v.61h-1.81a1.489 1.489 0 00-1.74 1.52 1.542 1.542 0 001.81 1.57 2.042 2.042 0 001.74-.76v.68zm-.63-2.04a1.541 1.541 0 01-1.75 1.55.956.956 0 01-1.16-.96.928.928 0 011.15-.99h1.76zm5.85.7c0-.78-.38-1.08-1.88-1.7-1.04-.42-1.26-.64-1.26-1.09 0-.53.37-.76 1.29-.76a6.646 6.646 0 011.52.2l.1-.52a5.429 5.429 0 00-1.65-.25c-1.06 0-1.9.39-1.9 1.26 0 .73.27 1.16 1.49 1.65 1.39.57 1.65.7 1.65 1.19 0 .6-.57.87-1.42.87a4.1 4.1 0 01-1.72-.41l-.17.5a4.25 4.25 0 001.91.48c1.27 0 2.04-.57 2.04-1.42zm5.2 1.34V3.76c0-1.05-.7-1.79-2.18-1.79a7.605 7.605 0 00-1.74.21l.09.53a9.914 9.914 0 011.63-.17c1.17 0 1.56.53 1.56 1.27v.61h-1.8a1.489 1.489 0 00-1.74 1.52 1.534 1.534 0 001.8 1.57 2.029 2.029 0 001.74-.76v.68zm-.64-2.04a1.536 1.536 0 01-1.75 1.55.952.952 0 01-1.15-.96.924.924 0 011.14-.99h1.76zm6.67 2.04V.1h-.64v2.95a1.911 1.911 0 00-1.76-1.08c-1.68 0-2.37 1.44-2.37 2.77s.7 2.77 2.37 2.77a1.919 1.919 0 001.76-1.07v.99zm-.64-2.69c0 1.19-.59 2.2-1.74 2.2s-1.74-.99-1.74-2.2.6-2.2 1.74-2.2 1.74 1.01 1.74 2.2zm7.12 0a2.513 2.513 0 10-2.5 2.77 2.562 2.562 0 002.5-2.77zm-.64 0a1.882 1.882 0 11-1.86-2.2 1.929 1.929 0 011.86 2.2zm5.69 1.35c0-.78-.38-1.08-1.88-1.7-1.04-.42-1.26-.64-1.26-1.09 0-.53.36-.76 1.29-.76a6.721 6.721 0 011.52.2l.1-.52a5.429 5.429 0 00-1.65-.25c-1.06 0-1.9.39-1.9 1.26 0 .73.27 1.16 1.49 1.65 1.38.57 1.65.7 1.65 1.19 0 .6-.57.87-1.42.87a4.066 4.066 0 01-1.72-.41l-.17.5a4.25 4.25 0 001.91.48c1.27 0 2.04-.57 2.04-1.42zm8.28-1.12v-.23c0-1.48-.8-2.77-2.37-2.77a2.539 2.539 0 00-2.47 2.77 2.611 2.611 0 002.78 2.77 6.022 6.022 0 001.75-.27l-.13-.53a5.963 5.963 0 01-1.63.23 1.942 1.942 0 01-2.11-1.97zm-.66-.55h-3.52a1.832 1.832 0 011.81-1.88 1.737 1.737 0 011.71 1.88zm6.5 3.01V3.87a1.714 1.714 0 00-1.84-1.9 2.141 2.141 0 00-1.87 1.1v-1h-.65v5.36h.65V4.71A1.935 1.935 0 01163 2.57a1.142 1.142 0 011.28 1.35v3.51zm9-2.69c0-1.33-.68-2.77-2.36-2.77a1.921 1.921 0 00-1.76 1.08v-.98h-.65v7.26h.65V6.44a1.93 1.93 0 001.76 1.07c1.69 0 2.36-1.44 2.36-2.77zm-.64 0c0 1.21-.59 2.2-1.74 2.2s-1.74-1.01-1.74-2.2.6-2.2 1.74-2.2 1.74.99 1.74 2.2zm5.9 2.69V3.76c0-1.05-.71-1.79-2.18-1.79a7.605 7.605 0 00-1.74.21l.09.53a9.809 9.809 0 011.63-.17c1.16 0 1.56.53 1.56 1.27v.61h-1.81a1.489 1.489 0 00-1.74 1.52 1.542 1.542 0 001.81 1.57 2.042 2.042 0 001.74-.76v.68zm-.64-2.04a1.536 1.536 0 01-1.75 1.55.956.956 0 01-1.16-.96.928.928 0 011.15-.99h1.76zm4.9-2.79v-.63a2.384 2.384 0 00-1.97 1.24V2.07h-.65v5.36h.65V4.74a2.092 2.092 0 011.97-2.14zm3.33 4.8l-.09-.48a3.786 3.786 0 01-.63.07c-.42 0-.62-.21-.62-.94V2.64h1.1v-.57h-1.1V.55h-.65v1.52h-.73v.57h.73v3.38c0 1.11.46 1.49 1.25 1.49a2.582 2.582 0 00.74-.11zm5.8-2.43v-.23c0-1.48-.8-2.77-2.36-2.77a2.546 2.546 0 00-2.48 2.77 2.619 2.619 0 002.79 2.77 6.123 6.123 0 001.75-.27l-.14-.53a5.9 5.9 0 01-1.62.23 1.945 1.945 0 01-2.12-1.97zm-.66-.55h-3.52a1.834 1.834 0 011.82-1.88 1.729 1.729 0 011.7 1.88zm9 .55v-.23c0-1.48-.8-2.77-2.36-2.77a2.541 2.541 0 00-2.48 2.77 2.616 2.616 0 002.78 2.77 6.022 6.022 0 001.75-.27l-.13-.53a5.963 5.963 0 01-1.63.23 1.942 1.942 0 01-2.11-1.97zm-.66-.55h-3.52a1.834 1.834 0 011.82-1.88 1.735 1.735 0 011.7 1.88zm6.5 3.01V3.87a1.707 1.707 0 00-1.83-1.9 2.145 2.145 0 00-1.88 1.1v-1h-.64v5.36h.64V4.71a1.941 1.941 0 011.79-2.14 1.142 1.142 0 011.28 1.35v3.51zm8.62 0V.1h-.64v2.95a1.921 1.921 0 00-1.76-1.08c-1.69 0-2.37 1.44-2.37 2.77s.69 2.77 2.37 2.77a1.93 1.93 0 001.76-1.07v.99zm-.64-2.69c0 1.19-.6 2.2-1.74 2.2s-1.74-.99-1.74-2.2.59-2.2 1.74-2.2 1.74 1.01 1.74 2.2zm6.28 2.69V3.76c0-1.05-.71-1.79-2.18-1.79a7.605 7.605 0 00-1.74.21l.09.53a9.809 9.809 0 011.63-.17c1.16 0 1.56.53 1.56 1.27v.61h-1.8a1.484 1.484 0 00-1.74 1.52 1.534 1.534 0 001.8 1.57 2.042 2.042 0 001.74-.76v.68zm-.64-2.04a1.536 1.536 0 01-1.75 1.55.948.948 0 01-1.15-.96.924.924 0 011.14-.99h1.76zm4.45 2.01l-.08-.48a3.786 3.786 0 01-.63.07c-.42 0-.62-.21-.62-.94V2.64h1.1v-.57h-1.1V.55h-.65v1.52h-.73v.57h.73v3.38c0 1.11.46 1.49 1.25 1.49a2.478 2.478 0 00.73-.11zm5.99-2.66a2.513 2.513 0 10-2.5 2.77 2.562 2.562 0 002.5-2.77zm-.64 0a1.882 1.882 0 11-1.86-2.2 1.923 1.923 0 011.86 2.2zm5.69 1.35c0-.78-.38-1.08-1.88-1.7-1.04-.42-1.26-.64-1.26-1.09 0-.53.36-.76 1.29-.76a6.646 6.646 0 011.52.2l.1-.52a5.429 5.429 0 00-1.65-.25c-1.06 0-1.9.39-1.9 1.26 0 .73.27 1.16 1.49 1.65 1.39.57 1.65.7 1.65 1.19 0 .6-.57.87-1.42.87a4.1 4.1 0 01-1.72-.41l-.17.5a4.25 4.25 0 001.91.48c1.27 0 2.04-.57 2.04-1.42zm6.47-3.49v-.63a2.357 2.357 0 00-1.97 1.24V2.07h-.65v5.36h.65V4.74a2.085 2.085 0 011.97-2.14zm5.58 2.37v-.23c0-1.48-.8-2.77-2.36-2.77a2.546 2.546 0 00-2.48 2.77 2.619 2.619 0 002.79 2.77 6.123 6.123 0 001.75-.27l-.14-.53a5.9 5.9 0 01-1.62.23 1.945 1.945 0 01-2.12-1.97zm-.66-.55h-3.52a1.834 1.834 0 011.82-1.88 1.729 1.729 0 011.7 1.88zm6.91.32c0-1.33-.68-2.77-2.35-2.77a1.911 1.911 0 00-1.76 1.08v-.98h-.65v7.26h.65V6.44a1.919 1.919 0 001.76 1.07c1.68 0 2.35-1.44 2.35-2.77zm-.64 0c0 1.21-.59 2.2-1.73 2.2s-1.74-1.01-1.74-2.2.59-2.2 1.74-2.2 1.73.99 1.73 2.2zm6.74 0a2.513 2.513 0 10-2.5 2.77 2.562 2.562 0 002.5-2.77zm-.64 0a1.882 1.882 0 11-1.86-2.2 1.929 1.929 0 011.86 2.2zm4.74-2.14v-.63a2.357 2.357 0 00-1.97 1.24V2.07h-.65v5.36h.65V4.74a2.092 2.092 0 011.97-2.14zm3.32 4.8l-.09-.48a3.786 3.786 0 01-.63.07c-.41 0-.61-.21-.61-.94V2.64h1.1v-.57h-1.1V.55h-.65v1.52h-.74v.57h.74v3.38c0 1.11.45 1.49 1.24 1.49a2.537 2.537 0 00.74-.11zm5.15.03V3.76c0-1.05-.71-1.79-2.18-1.79a7.605 7.605 0 00-1.74.21l.09.53a9.809 9.809 0 011.63-.17c1.16 0 1.56.53 1.56 1.27v.61h-1.8a1.484 1.484 0 00-1.74 1.52 1.534 1.534 0 001.8 1.57 2.042 2.042 0 001.74-.76v.68zm-.64-2.04a1.536 1.536 0 01-1.75 1.55.956.956 0 01-1.16-.96.932.932 0 011.15-.99h1.76zm6.67 2.04V.1h-.64v2.95a1.921 1.921 0 00-1.76-1.08c-1.69 0-2.37 1.44-2.37 2.77s.69 2.77 2.37 2.77a1.93 1.93 0 001.76-1.07v.99zm-.64-2.69c0 1.19-.6 2.2-1.74 2.2s-1.74-.99-1.74-2.2.6-2.2 1.74-2.2 1.74 1.01 1.74 2.2zm7.12 0a2.513 2.513 0 10-2.5 2.77 2.562 2.562 0 002.5-2.77zm-.64 0a1.882 1.882 0 11-1.86-2.2 1.929 1.929 0 011.86 2.2zm5.68 1.35c0-.78-.37-1.08-1.88-1.7-1.03-.42-1.25-.64-1.25-1.09 0-.53.36-.76 1.29-.76a6.633 6.633 0 011.51.2l.1-.52a5.342 5.342 0 00-1.65-.25c-1.05 0-1.89.39-1.89 1.26 0 .73.26 1.16 1.48 1.65 1.39.57 1.66.7 1.66 1.19 0 .6-.58.87-1.42.87a4.066 4.066 0 01-1.72-.41l-.18.5a4.327 4.327 0 001.92.48c1.26 0 2.03-.57 2.03-1.42zM299 4.74c0-1.33-.69-2.77-2.36-2.77a1.911 1.911 0 00-1.76 1.08v-.98h-.65v7.26h.65V6.44a1.919 1.919 0 001.76 1.07c1.69 0 2.36-1.44 2.36-2.77zm-.64 0c0 1.21-.6 2.2-1.74 2.2s-1.74-1.01-1.74-2.2.6-2.2 1.74-2.2 1.74.99 1.74 2.2zm6.73 0a2.509 2.509 0 10-2.5 2.77 2.556 2.556 0 002.5-2.77zm-.64 0a1.882 1.882 0 11-1.86-2.2 1.923 1.923 0 011.86 2.2zm4.74-2.14v-.63a2.37 2.37 0 00-1.97 1.24V2.07h-.65v5.36h.65V4.74a2.092 2.092 0 011.97-2.14zm9.73 4.83V.1h-.65v6.29L313.57.1h-.64v7.33h.64V1.12l4.7 6.31zm2.67 0V2.07h-.64v5.36zm0-6.25V.1h-.64v1.08zm6.3 3.79v-.23c0-1.48-.8-2.77-2.36-2.77a2.541 2.541 0 00-2.48 2.77 2.619 2.619 0 002.79 2.77 6.009 6.009 0 001.74-.27l-.13-.53a5.912 5.912 0 01-1.63.23 1.942 1.942 0 01-2.11-1.97zm-.66-.55h-3.52a1.834 1.834 0 011.82-1.88 1.735 1.735 0 011.7 1.88zm3.98 3.07v-.55h-.47a.721.721 0 01-.78-.89V.1h-.64v5.92a1.273 1.273 0 001.38 1.47zm5-1.4c0-.78-.38-1.08-1.88-1.7-1.04-.42-1.26-.64-1.26-1.09 0-.53.37-.76 1.29-.76a6.646 6.646 0 011.52.2l.1-.52a5.429 5.429 0 00-1.65-.25c-1.06 0-1.9.39-1.9 1.26 0 .73.27 1.16 1.49 1.65 1.39.57 1.65.7 1.65 1.19 0 .6-.57.87-1.42.87a4.1 4.1 0 01-1.72-.41l-.17.5a4.25 4.25 0 001.91.48c1.27 0 2.04-.57 2.04-1.42zm5.86-1.12v-.23c0-1.48-.8-2.77-2.36-2.77a2.541 2.541 0 00-2.48 2.77 2.616 2.616 0 002.78 2.77 6.022 6.022 0 001.75-.27l-.13-.53a5.963 5.963 0 01-1.63.23 1.942 1.942 0 01-2.11-1.97zm-.66-.55h-3.52a1.834 1.834 0 011.82-1.88 1.735 1.735 0 011.7 1.88zm6.5 3.01V3.87a1.707 1.707 0 00-1.83-1.9 2.145 2.145 0 00-1.88 1.1v-1h-.64v5.36h.64V4.71a1.941 1.941 0 011.79-2.14 1.142 1.142 0 011.28 1.35v3.51zm12.17 0V3.87a1.7 1.7 0 00-1.82-1.9 2.224 2.224 0 00-1.93 1.13 1.64 1.64 0 00-1.71-1.13 2.051 2.051 0 00-1.82 1.1v-1h-.65v5.36h.65V4.71a1.9 1.9 0 011.73-2.14 1.125 1.125 0 011.26 1.35v3.51h.65V4.7a1.892 1.892 0 011.74-2.13 1.122 1.122 0 011.25 1.35v3.51zm6.25-2.46v-.23c0-1.48-.81-2.77-2.37-2.77a2.546 2.546 0 00-2.48 2.77 2.619 2.619 0 002.79 2.77 6.072 6.072 0 001.75-.27l-.13-.53a6.014 6.014 0 01-1.63.23 1.95 1.95 0 01-2.12-1.97zm-.66-.55h-3.53a1.846 1.846 0 011.82-1.88 1.737 1.737 0 011.71 1.88zm6.52 3.01V.1h-.64v2.95a1.911 1.911 0 00-1.76-1.08c-1.68 0-2.37 1.44-2.37 2.77s.7 2.77 2.37 2.77a1.919 1.919 0 001.76-1.07v.99zm-.64-2.69c0 1.19-.59 2.2-1.74 2.2s-1.74-.99-1.74-2.2.6-2.2 1.74-2.2 1.74 1.01 1.74 2.2zm3.15 2.69V2.07h-.64v5.36zm0-6.25V.1h-.64v1.08zm5.64 6.25V3.76c0-1.05-.7-1.79-2.18-1.79a7.605 7.605 0 00-1.74.21l.09.53a9.914 9.914 0 011.63-.17c1.17 0 1.56.53 1.56 1.27v.61h-1.8a1.484 1.484 0 00-1.74 1.52 1.534 1.534 0 001.8 1.57 2.029 2.029 0 001.74-.76v.68zm-.64-2.04a1.536 1.536 0 01-1.75 1.55.952.952 0 01-1.15-.96.924.924 0 011.14-.99h1.76zm6.65 2.04V3.87a1.714 1.714 0 00-1.84-1.9 2.117 2.117 0 00-1.87 1.1v-1h-.65v5.36h.65V4.71a1.934 1.934 0 011.78-2.14 1.148 1.148 0 011.29 1.35v3.51zm3.98-.03l-.09-.48a3.786 3.786 0 01-.63.07c-.42 0-.61-.21-.61-.94V2.64h1.1v-.57H389V.55h-.65v1.52h-.74v.57h.74v3.38c0 1.11.45 1.49 1.24 1.49a2.537 2.537 0 00.74-.11zm5.81-2.43v-.23c0-1.48-.81-2.77-2.37-2.77a2.546 2.546 0 00-2.48 2.77 2.619 2.619 0 002.79 2.77 6.072 6.072 0 001.75-.27l-.13-.53a6.014 6.014 0 01-1.63.23 1.945 1.945 0 01-2.12-1.97zm-.66-.55h-3.53a1.834 1.834 0 011.82-1.88 1.737 1.737 0 011.71 1.88zm8.99.55v-.23c0-1.48-.8-2.77-2.36-2.77a2.546 2.546 0 00-2.48 2.77 2.619 2.619 0 002.79 2.77 6.123 6.123 0 001.75-.27l-.14-.53a5.912 5.912 0 01-1.63.23 1.942 1.942 0 01-2.11-1.97zm-.66-.55h-3.52a1.834 1.834 0 011.82-1.88 1.729 1.729 0 011.7 1.88zm3.98 3.07v-.55h-.47a.721.721 0 01-.78-.89V.1h-.64v5.92a1.273 1.273 0 001.38 1.47zm7.42-1.4c0-.78-.38-1.08-1.88-1.7-1.04-.42-1.26-.64-1.26-1.09 0-.53.37-.76 1.29-.76a6.646 6.646 0 011.52.2l.1-.52a5.429 5.429 0 00-1.65-.25c-1.06 0-1.9.39-1.9 1.26 0 .73.27 1.16 1.49 1.65 1.39.57 1.65.7 1.65 1.19 0 .6-.57.87-1.42.87a4.1 4.1 0 01-1.72-.41l-.17.5a4.284 4.284 0 001.91.48c1.27 0 2.04-.57 2.04-1.42zm5.86-1.12v-.23c0-1.48-.8-2.77-2.36-2.77a2.541 2.541 0 00-2.48 2.77 2.616 2.616 0 002.78 2.77 6.022 6.022 0 001.75-.27l-.13-.53a5.963 5.963 0 01-1.63.23 1.942 1.942 0 01-2.11-1.97zm-.66-.55h-3.52a1.834 1.834 0 011.82-1.88 1.735 1.735 0 011.7 1.88zm4.76-1.82v-.63a2.354 2.354 0 00-1.96 1.24V2.07h-.65v5.36h.65V4.74a2.084 2.084 0 011.96-2.14zm5.19-.53h-.64l-1.82 4.67-1.8-4.67h-.65l2.13 5.36h.64zm1.62 5.36V2.07h-.64v5.36zm0-6.25V.1h-.64v1.08zm5.58 6.14l-.11-.54a4.208 4.208 0 01-1.17.16 2.2 2.2 0 010-4.4 4.3 4.3 0 011.17.17l.11-.53a4.082 4.082 0 00-1.34-.21 2.77 2.77 0 000 5.54 5.1 5.1 0 001.34-.19zm2.12.11V2.07h-.64v5.36zm0-6.25V.1h-.64v1.08zm6.48 3.56a2.509 2.509 0 10-2.49 2.77 2.554 2.554 0 002.49-2.77zm-.64 0a1.878 1.878 0 11-1.85-2.2 1.922 1.922 0 011.85 2.2zm11.02 2.69l-2.4-3.25a2.025 2.025 0 001.63-2A2.086 2.086 0 00453.54.1h-3.31v7.33h.66V4.25h2.55l2.35 3.18zm-1.43-5.25a1.442 1.442 0 01-1.57 1.52h-2.65V.67h2.65a1.5 1.5 0 011.57 1.51zm7.07 2.79v-.23c0-1.48-.8-2.77-2.37-2.77a2.539 2.539 0 00-2.47 2.77 2.611 2.611 0 002.78 2.77 6.072 6.072 0 001.75-.27l-.13-.53a5.963 5.963 0 01-1.63.23A1.942 1.942 0 01458 4.97zm-.66-.55H458a1.832 1.832 0 011.81-1.88 1.737 1.737 0 011.71 1.88zm4.31 2.98l-.09-.48a3.786 3.786 0 01-.63.07c-.41 0-.61-.21-.61-.94V2.64h1.1v-.57h-1.1V.55h-.65v1.52h-.74v.57h.74v3.38c0 1.11.45 1.49 1.24 1.49a2.537 2.537 0 00.74-.11zm5.15.03V3.76c0-1.05-.71-1.79-2.18-1.79a7.605 7.605 0 00-1.74.21l.09.53a9.809 9.809 0 011.63-.17c1.16 0 1.56.53 1.56 1.27v.61h-1.8a1.484 1.484 0 00-1.74 1.52 1.534 1.534 0 001.8 1.57 2.042 2.042 0 001.74-.76v.68zm-.64-2.04a1.536 1.536 0 01-1.75 1.55.956.956 0 01-1.16-.96.932.932 0 011.15-.99h1.76zm2.93 2.04V2.07h-.64v5.36zm0-6.25V.1h-.64v1.08zm3.7 6.31v-.55h-.47a.721.721 0 01-.78-.89V.1h-.64v5.92a1.273 1.273 0 001.38 1.47zm2.15-.06V6.39h-.83v1.04h.45l-.38 1.16h.36zm9.05-2.69c0-1.33-.68-2.77-2.35-2.77a1.9 1.9 0 00-1.76 1.08v-.98h-.65v7.26h.65V6.44a1.909 1.909 0 001.76 1.07c1.68 0 2.35-1.44 2.35-2.77zm-.64 0c0 1.21-.59 2.2-1.74 2.2s-1.73-1.01-1.73-2.2.59-2.2 1.73-2.2 1.74.99 1.74 2.2zm5.9 2.69V3.76c0-1.05-.71-1.79-2.18-1.79a7.605 7.605 0 00-1.74.21l.09.53a9.809 9.809 0 011.63-.17c1.16 0 1.56.53 1.56 1.27v.61h-1.8a1.484 1.484 0 00-1.74 1.52 1.534 1.534 0 001.8 1.57 2.042 2.042 0 001.74-.76v.68zm-.64-2.04a1.536 1.536 0 01-1.75 1.55.948.948 0 01-1.15-.96.924.924 0 011.14-.99h1.76zm4.91-2.79v-.63a2.357 2.357 0 00-1.97 1.24V2.07h-.65v5.36h.65V4.74a2.092 2.092 0 011.97-2.14zm4.92 4.83V3.76c0-1.05-.7-1.79-2.17-1.79a7.471 7.471 0 00-1.74.21l.09.53a9.807 9.807 0 011.62-.17c1.17 0 1.57.53 1.57 1.27v.61h-1.81a1.489 1.489 0 00-1.74 1.52 1.542 1.542 0 001.81 1.57 2.042 2.042 0 001.74-.76v.68zm-.63-2.04a1.541 1.541 0 01-1.75 1.55.956.956 0 01-1.16-.96.928.928 0 011.15-.99h1.76zm6.54 2.1v-.55h-.47a.721.721 0 01-.78-.89V.1h-.64v5.92a1.27 1.27 0 001.37 1.47zm5.2-.06V3.76c0-1.05-.7-1.79-2.17-1.79a7.471 7.471 0 00-1.74.21l.08.53a10.021 10.021 0 011.63-.17c1.17 0 1.57.53 1.57 1.27v.61h-1.81a1.489 1.489 0 00-1.74 1.52 1.542 1.542 0 001.81 1.57 2.042 2.042 0 001.74-.76v.68zm-.63-2.04a1.541 1.541 0 01-1.75 1.55.956.956 0 01-1.16-.96.928.928 0 011.15-.99h1.76zm8.41 1.93l-.11-.54a4.208 4.208 0 01-1.17.16 2.2 2.2 0 010-4.4 4.3 4.3 0 011.17.17l.11-.53a4.082 4.082 0 00-1.34-.21 2.77 2.77 0 000 5.54 5.1 5.1 0 001.34-.19zm5.26.11V3.76c0-1.05-.71-1.79-2.18-1.79a7.605 7.605 0 00-1.74.21l.09.53a9.809 9.809 0 011.63-.17c1.16 0 1.56.53 1.56 1.27v.61h-1.8a1.484 1.484 0 00-1.74 1.52 1.534 1.534 0 001.8 1.57 2.042 2.042 0 001.74-.76v.68zm-.64-2.04a1.536 1.536 0 01-1.75 1.55.948.948 0 01-1.15-.96.924.924 0 011.14-.99h1.76zm4.46 2.01l-.09-.48a3.786 3.786 0 01-.63.07c-.42 0-.62-.21-.62-.94V2.64h1.1v-.57h-1.1V.55h-.65v1.52h-.73v.57h.73v3.38c0 1.11.46 1.49 1.25 1.49a2.582 2.582 0 00.74-.11zm5.8-2.43v-.23c0-1.48-.8-2.77-2.36-2.77a2.546 2.546 0 00-2.48 2.77 2.619 2.619 0 002.79 2.77 6.123 6.123 0 001.75-.27l-.14-.53a5.9 5.9 0 01-1.62.23 1.945 1.945 0 01-2.12-1.97zm-.66-.55h-3.52a1.834 1.834 0 011.82-1.88 1.729 1.729 0 011.7 1.88zm6.47 2.59V2.07h-.64v.98a2.015 2.015 0 00-1.83-1.08c-1.62 0-2.29 1.29-2.29 2.71s.68 2.69 2.29 2.69a2.006 2.006 0 001.83-1.07V7a1.626 1.626 0 01-1.92 1.87 5.839 5.839 0 01-1.61-.27l-.13.5a5.585 5.585 0 001.79.32 2.217 2.217 0 002.51-2.41zm-.64-2.33c0 1.3-.63 2.12-1.78 2.12-1.21 0-1.69-.94-1.69-2.12s.48-2.14 1.69-2.14c1.15 0 1.78.83 1.78 2.14zm7.07.06a2.513 2.513 0 10-2.5 2.77 2.562 2.562 0 002.5-2.77zm-.64 0a1.882 1.882 0 11-1.86-2.2 1.929 1.929 0 011.86 2.2zm4.74-2.14v-.63a2.357 2.357 0 00-1.97 1.24V2.07h-.65v5.36h.65V4.74a2.092 2.092 0 011.97-2.14zm1.79 4.83V2.07h-.64v5.36zm1.1-7.4h-.76l-1.05 1.33h.55zm4.54 7.4V3.76c0-1.05-.7-1.79-2.17-1.79a7.471 7.471 0 00-1.74.21l.08.53a10.021 10.021 0 011.63-.17c1.17 0 1.57.53 1.57 1.27v.61h-1.81a1.489 1.489 0 00-1.74 1.52 1.542 1.542 0 001.81 1.57 2.042 2.042 0 001.74-.76v.68zm-.63-2.04a1.541 1.541 0 01-1.75 1.55.956.956 0 01-1.16-.96.928.928 0 011.15-.99h1.76zM11.37 15.5v-1.04h-.46l.4-1.16h-.38l-.38 1.16v1.04zm-1.69 0v-1.04h-.46l.39-1.16h-.37l-.39 1.16v1.04zm8.7 5.01l-.13-.53a7.27 7.27 0 01-1.65.19 3.208 3.208 0 110-6.41 7.4 7.4 0 011.67.2l.11-.54a6.193 6.193 0 00-1.76-.23 3.77 3.77 0 00-4.04 3.77 3.82 3.82 0 004.04 3.79 6.738 6.738 0 001.76-.24zm4.27-4.71v-.63a2.357 2.357 0 00-1.97 1.24v-1.14h-.65v5.36h.65v-2.69a2.092 2.092 0 011.97-2.14zm5.59 2.37v-.23c0-1.48-.81-2.77-2.37-2.77a2.539 2.539 0 00-2.47 2.77 2.611 2.611 0 002.78 2.77 6.072 6.072 0 001.75-.27l-.13-.53a6.014 6.014 0 01-1.63.23 1.937 1.937 0 01-2.11-1.97zm-.66-.55h-3.52a1.832 1.832 0 011.81-1.88 1.737 1.737 0 011.71 1.88zm10.07 3.01v-3.56a1.692 1.692 0 00-1.81-1.9 2.24 2.24 0 00-1.94 1.13 1.628 1.628 0 00-1.7-1.13 2.055 2.055 0 00-1.83 1.1v-1h-.65v5.36h.65v-2.72a1.907 1.907 0 011.74-2.14 1.122 1.122 0 011.25 1.35v3.51h.65V17.9a1.9 1.9 0 011.74-2.13A1.122 1.122 0 0137 17.12v3.51zm5.59 0v-3.67c0-1.05-.7-1.79-2.18-1.79a7.605 7.605 0 00-1.74.21l.09.53a9.914 9.914 0 011.63-.17c1.17 0 1.56.53 1.56 1.27v.61h-1.8a1.489 1.489 0 00-1.74 1.52 1.534 1.534 0 001.8 1.57 2.029 2.029 0 001.74-.76v.68zm-.64-2.04a1.536 1.536 0 01-1.75 1.55.952.952 0 01-1.15-.96.924.924 0 011.14-.99h1.76zm5.85.7c0-.78-.37-1.08-1.88-1.7-1.03-.42-1.25-.64-1.25-1.09 0-.53.36-.76 1.29-.76a6.633 6.633 0 011.51.2l.1-.52a5.342 5.342 0 00-1.65-.25c-1.05 0-1.89.39-1.89 1.26 0 .73.26 1.16 1.49 1.65 1.38.57 1.65.7 1.65 1.19 0 .6-.58.87-1.42.87a4.066 4.066 0 01-1.72-.41l-.18.5a4.327 4.327 0 001.92.48c1.26 0 2.03-.57 2.03-1.42zm8.95-5.42v-.57h-4.93v7.33h.67v-3.51h3.97v-.58h-3.97v-2.67zm5.2 6.76v-3.67c0-1.05-.7-1.79-2.18-1.79a7.605 7.605 0 00-1.74.21l.09.53a9.914 9.914 0 011.63-.17c1.17 0 1.56.53 1.56 1.27v.61h-1.8a1.484 1.484 0 00-1.74 1.52 1.534 1.534 0 001.8 1.57 2.029 2.029 0 001.74-.76v.68zm-.64-2.04a1.536 1.536 0 01-1.75 1.55.952.952 0 01-1.15-.96.924.924 0 011.14-.99h1.76zm6 1.93l-.11-.54a4.208 4.208 0 01-1.17.16 2.2 2.2 0 010-4.4 4.414 4.414 0 011.17.17l.11-.53a4.1 4.1 0 00-1.35-.21 2.77 2.77 0 000 5.54 5.176 5.176 0 001.35-.19zm2.12.11v-5.36h-.64v5.36zm0-6.25V13.3h-.64v1.08zm5.64 6.25v-3.67c0-1.05-.7-1.79-2.18-1.79a7.451 7.451 0 00-1.73.21l.08.53a9.914 9.914 0 011.63-.17c1.17 0 1.56.53 1.56 1.27v.61h-1.8a1.489 1.489 0 00-1.74 1.52 1.542 1.542 0 001.81 1.57 2.009 2.009 0 001.73-.76v.68zm-.64-2.04a1.533 1.533 0 01-1.74 1.55.956.956 0 01-1.16-.96.924.924 0 011.14-.99h1.76zm4.13 2.1v-.55h-.47a.727.727 0 01-.79-.89V13.3h-.63v5.92a1.27 1.27 0 001.37 1.47zm5.86-2.52v-.23c0-1.48-.8-2.77-2.36-2.77a2.541 2.541 0 00-2.48 2.77 2.619 2.619 0 002.79 2.77 6.009 6.009 0 001.74-.27l-.13-.53a5.912 5.912 0 01-1.63.23 1.942 1.942 0 01-2.11-1.97zm-.66-.55h-3.52a1.834 1.834 0 011.82-1.88 1.735 1.735 0 011.7 1.88zm5.71 1.67c0-.78-.37-1.08-1.88-1.7-1.03-.42-1.25-.64-1.25-1.09 0-.53.36-.76 1.28-.76a6.646 6.646 0 011.52.2l.1-.52a5.385 5.385 0 00-1.65-.25c-1.06 0-1.89.39-1.89 1.26 0 .73.26 1.16 1.48 1.65 1.39.57 1.65.7 1.65 1.19 0 .6-.57.87-1.42.87a4.057 4.057 0 01-1.71-.41l-.18.5a4.327 4.327 0 001.92.48c1.26 0 2.03-.57 2.03-1.42zm3.79-4.96V13.3h-.83v1.03h.45l-.38 1.17h.36zm-1.7 0V13.3h-.82v1.03h.45l-.39 1.17h.36zm9.55 4.96c0-.78-.37-1.08-1.88-1.7-1.04-.42-1.26-.64-1.26-1.09 0-.53.37-.76 1.29-.76a6.646 6.646 0 011.52.2l.1-.52a5.429 5.429 0 00-1.65-.25c-1.06 0-1.89.39-1.89 1.26 0 .73.26 1.16 1.48 1.65 1.39.57 1.65.7 1.65 1.19 0 .6-.57.87-1.42.87a4.022 4.022 0 01-1.71-.41l-.18.5a4.284 4.284 0 001.91.48c1.27 0 2.04-.57 2.04-1.42zm5.86-1.12v-.23c0-1.48-.8-2.77-2.36-2.77a2.541 2.541 0 00-2.48 2.77 2.616 2.616 0 002.78 2.77 6.022 6.022 0 001.75-.27l-.13-.53a5.912 5.912 0 01-1.63.23 1.942 1.942 0 01-2.11-1.97zm-.66-.55h-3.52a1.834 1.834 0 011.82-1.88 1.735 1.735 0 011.7 1.88zm6.47 2.59v-4.94h-.64v.98a2.019 2.019 0 00-1.84-1.08c-1.61 0-2.28 1.29-2.28 2.71s.68 2.69 2.28 2.69a2.011 2.011 0 001.84-1.07v.7a1.629 1.629 0 01-1.92 1.87 5.839 5.839 0 01-1.61-.27l-.13.5a5.585 5.585 0 001.79.32 2.217 2.217 0 002.51-2.41zm-.64-2.33c0 1.3-.64 2.12-1.78 2.12-1.21 0-1.69-.94-1.69-2.12s.48-2.14 1.69-2.14c1.14 0 1.78.83 1.78 2.14zm10.39 2.75v-3.56a1.7 1.7 0 00-1.82-1.9 2.224 2.224 0 00-1.93 1.13 1.648 1.648 0 00-1.71-1.13 2.066 2.066 0 00-1.83 1.1v-1h-.65v5.36h.65v-2.72a1.907 1.907 0 011.74-2.14 1.129 1.129 0 011.26 1.35v3.51h.65V17.9a1.891 1.891 0 011.73-2.13 1.125 1.125 0 011.26 1.35v3.51zm6.24-2.46v-.23c0-1.48-.8-2.77-2.36-2.77a2.546 2.546 0 00-2.48 2.77 2.619 2.619 0 002.79 2.77 6.123 6.123 0 001.75-.27l-.14-.53a5.9 5.9 0 01-1.62.23 1.945 1.945 0 01-2.12-1.97zm-.66-.55h-3.52a1.834 1.834 0 011.82-1.88 1.729 1.729 0 011.7 1.88zm6.51 3.01v-3.56a1.714 1.714 0 00-1.84-1.9 2.117 2.117 0 00-1.87 1.1v-1h-.65v5.36h.65v-2.72a1.934 1.934 0 011.78-2.14 1.148 1.148 0 011.29 1.35v3.51zm3.98-.03l-.09-.48a3.786 3.786 0 01-.63.07c-.42 0-.62-.21-.62-.94v-3.41h1.11v-.57h-1.11v-1.52h-.64v1.52h-.74v.57h.74v3.38c0 1.11.45 1.49 1.24 1.49a2.582 2.582 0 00.74-.11zm5.98-2.66a2.509 2.509 0 10-2.5 2.77 2.556 2.556 0 002.5-2.77zm-.64 0a1.882 1.882 0 11-1.86-2.2 1.923 1.923 0 011.86 2.2zm7.06-2.44v-1.04h-.46l.4-1.16h-.38l-.38 1.16v1.04zm-1.69 0v-1.04h-.46l.39-1.16h-.37l-.39 1.16v1.04zm9.09 4.93v-3.04h-.6v2.62a8.456 8.456 0 01-1.58.16 3.163 3.163 0 01-3.35-3.21 3.085 3.085 0 013.35-3.2 7.917 7.917 0 011.82.2l.1-.54a7.546 7.546 0 00-1.9-.23 3.691 3.691 0 00-4.03 3.77 3.85 3.85 0 004.04 3.79 7.785 7.785 0 002.15-.32zm6.24-2.26v-.23c0-1.48-.8-2.77-2.36-2.77a2.546 2.546 0 00-2.48 2.77 2.619 2.619 0 002.79 2.77 6.123 6.123 0 001.75-.27l-.14-.53a5.9 5.9 0 01-1.62.23 1.945 1.945 0 01-2.12-1.97zm-.66-.55h-3.52a1.834 1.834 0 011.82-1.88 1.729 1.729 0 011.7 1.88zm3.99 3.07v-.55h-.48a.721.721 0 01-.78-.89V13.3h-.64v5.92a1.273 1.273 0 001.38 1.47zm8.52-.06v-.58h-3.85V13.3h-.66v7.33zm1.9 0v-5.36h-.64v5.36zm0-6.25V13.3h-.64v1.08zm9.81 6.25v-3.56a1.7 1.7 0 00-1.82-1.9 2.253 2.253 0 00-1.94 1.13 1.628 1.628 0 00-1.7-1.13 2.066 2.066 0 00-1.83 1.1v-1h-.65v5.36h.65v-2.72a1.907 1.907 0 011.74-2.14 1.122 1.122 0 011.25 1.35v3.51h.65V17.9a1.9 1.9 0 011.74-2.13 1.129 1.129 0 011.26 1.35v3.51zm6.57-2.69c0-1.33-.68-2.77-2.35-2.77a1.911 1.911 0 00-1.76 1.08v-.98h-.65v7.26h.65v-2.89a1.919 1.919 0 001.76 1.07c1.68 0 2.35-1.44 2.35-2.77zm-.64 0c0 1.21-.59 2.2-1.73 2.2s-1.74-1.01-1.74-2.2.59-2.2 1.74-2.2 1.73.99 1.73 2.2zm2.76 2.69v-5.36h-.63v5.36zm0-6.25V13.3h-.63v1.08zm6.31 3.79v-.23c0-1.48-.8-2.77-2.37-2.77a2.539 2.539 0 00-2.47 2.77 2.611 2.611 0 002.78 2.77 6.072 6.072 0 001.75-.27l-.13-.53a5.963 5.963 0 01-1.63.23 1.942 1.942 0 01-2.11-1.97zm-.66-.55h-3.52a1.832 1.832 0 011.81-1.88 1.737 1.737 0 011.71 1.88zm6.24 3.01v-.58h-3.65l3.56-4.21v-.57h-4.08v.57h3.31L205 20.05v.58zm5.36 0v-3.67c0-1.05-.7-1.79-2.18-1.79a7.451 7.451 0 00-1.73.21l.08.53a10.021 10.021 0 011.63-.17c1.17 0 1.57.53 1.57 1.27v.61h-1.81a1.489 1.489 0 00-1.74 1.52 1.542 1.542 0 001.81 1.57 2.042 2.042 0 001.74-.76v.68zm-.63-2.04a1.541 1.541 0 01-1.75 1.55.956.956 0 01-1.16-.96.924.924 0 011.14-.99h1.77zm4.64-4.26V13.3h-.83v1.03h.45l-.38 1.17h.36zm-1.7 0V13.3h-.82v1.03h.45l-.39 1.17h.37zm4.28 6.3v-1.04h-.82v1.04h.45l-.39 1.16h.37zm8.06 0v-3.67c0-1.05-.7-1.79-2.17-1.79a7.471 7.471 0 00-1.74.21l.09.53a9.807 9.807 0 011.62-.17c1.17 0 1.57.53 1.57 1.27v.61H227a1.489 1.489 0 00-1.74 1.52 1.542 1.542 0 001.81 1.57 2.042 2.042 0 001.74-.76v.68zm-.63-2.04a1.536 1.536 0 01-1.75 1.55.956.956 0 01-1.16-.96.928.928 0 011.15-.99h1.76zm4.12 2.1v-.55h-.47a.721.721 0 01-.78-.89V13.3h-.64v5.92a1.27 1.27 0 001.37 1.47zm7.62-.06v-3.67c0-1.05-.7-1.79-2.17-1.79a7.471 7.471 0 00-1.74.21l.09.53a9.807 9.807 0 011.62-.17c1.17 0 1.57.53 1.57 1.27v.61h-1.81a1.489 1.489 0 00-1.74 1.52 1.542 1.542 0 001.81 1.57 2.042 2.042 0 001.74-.76v.68zm-.63-2.04a1.536 1.536 0 01-1.75 1.55.956.956 0 01-1.16-.96.928.928 0 011.15-.99h1.76zm5.99 1.93l-.11-.54a4.189 4.189 0 01-1.16.16 2.2 2.2 0 010-4.4 4.285 4.285 0 011.16.17l.11-.53a4.082 4.082 0 00-1.34-.21 2.77 2.77 0 000 5.54 5.043 5.043 0 001.34-.19zm5.73.11v-5.36H251v2.72a1.937 1.937 0 01-1.79 2.13 1.145 1.145 0 01-1.28-1.35v-3.5h-.64v3.55a1.7 1.7 0 001.83 1.89 2.133 2.133 0 001.88-1.1v1.02zm9.8 0v-3.56a1.692 1.692 0 00-1.81-1.9 2.24 2.24 0 00-1.94 1.13 1.628 1.628 0 00-1.7-1.13 2.066 2.066 0 00-1.83 1.1v-1h-.65v5.36h.65v-2.72a1.907 1.907 0 011.74-2.14 1.122 1.122 0 011.25 1.35v3.51h.65V17.9a1.9 1.9 0 011.74-2.13 1.129 1.129 0 011.26 1.35v3.51zm6.06 0v-5.36h-.63v2.72a1.944 1.944 0 01-1.8 2.13 1.139 1.139 0 01-1.27-1.35v-3.5h-.65v3.55a1.7 1.7 0 001.83 1.89 2.161 2.161 0 001.89-1.1v1.02zm3.71.06v-.55h-.47a.721.721 0 01-.78-.89V13.3h-.64v5.92a1.27 1.27 0 001.37 1.47zm5.2-.06v-3.67c0-1.05-.7-1.79-2.17-1.79a7.471 7.471 0 00-1.74.21l.09.53a9.807 9.807 0 011.62-.17c1.17 0 1.57.53 1.57 1.27v.61h-1.81a1.489 1.489 0 00-1.74 1.52 1.542 1.542 0 001.81 1.57 2.042 2.042 0 001.74-.76v.68zm-.63-2.04a1.541 1.541 0 01-1.75 1.55.956.956 0 01-1.16-.96.928.928 0 011.15-.99h1.76zm6.66 2.04V13.3h-.64v2.95a1.911 1.911 0 00-1.76-1.08c-1.68 0-2.36 1.44-2.36 2.77s.69 2.77 2.36 2.77a1.919 1.919 0 001.76-1.07v.99zm-.64-2.69c0 1.19-.59 2.2-1.73 2.2s-1.74-.99-1.74-2.2.59-2.2 1.74-2.2 1.73 1.01 1.73 2.2zm7.12 0a2.509 2.509 0 10-2.5 2.77 2.556 2.556 0 002.5-2.77zm-.64 0a1.878 1.878 0 11-1.86-2.2 1.923 1.923 0 011.86 2.2zm8.92 2.69V13.3h-.63v2.95a1.921 1.921 0 00-1.76-1.08c-1.69 0-2.37 1.44-2.37 2.77s.69 2.77 2.37 2.77a1.93 1.93 0 001.76-1.07v.99zm-.63-2.69c0 1.19-.6 2.2-1.74 2.2s-1.74-.99-1.74-2.2.59-2.2 1.74-2.2 1.74 1.01 1.74 2.2zm6.94.23v-.23c0-1.48-.81-2.77-2.37-2.77a2.539 2.539 0 00-2.47 2.77 2.611 2.611 0 002.78 2.77 6.072 6.072 0 001.75-.27l-.13-.53a6.014 6.014 0 01-1.63.23 1.937 1.937 0 01-2.11-1.97zm-.66-.55h-3.52a1.832 1.832 0 011.81-1.88 1.737 1.737 0 011.71 1.88zm3.98 3.07v-.55h-.48a.724.724 0 01-.78-.89V13.3h-.63v5.92a1.27 1.27 0 001.37 1.47zm7.62-.06v-3.67c0-1.05-.7-1.79-2.18-1.79a7.605 7.605 0 00-1.74.21l.09.53a9.914 9.914 0 011.63-.17c1.17 0 1.56.53 1.56 1.27v.61h-1.8a1.489 1.489 0 00-1.74 1.52 1.534 1.534 0 001.8 1.57 2.029 2.029 0 001.74-.76v.68zm-.64-2.04a1.536 1.536 0 01-1.75 1.55.952.952 0 01-1.15-.96.924.924 0 011.14-.99h1.76zm6.65 2.04v-3.56a1.714 1.714 0 00-1.84-1.9 2.117 2.117 0 00-1.87 1.1v-1h-.65v5.36h.65v-2.72a1.934 1.934 0 011.78-2.14 1.148 1.148 0 011.29 1.35v3.51zm-.61-6.99l-.44-.19a.679.679 0 01-.49.48 7.668 7.668 0 00-1.1-.41 1.109 1.109 0 00-.95.74l.43.19a.715.715 0 01.51-.46 6.954 6.954 0 001.1.4 1.11 1.11 0 00.94-.75zm7.03 4.3a2.509 2.509 0 10-2.5 2.77 2.556 2.556 0 002.5-2.77zm-.64 0a1.878 1.878 0 11-1.86-2.2 1.923 1.923 0 011.86 2.2zm9.22 2.69v-.58h-4.19c0-.99.41-1.37 2.4-2.58 1.18-.72 1.67-1.37 1.67-2.32 0-1.08-.76-1.85-2.5-1.85a6.89 6.89 0 00-2.13.34l.12.53a6.785 6.785 0 011.88-.3c1.34 0 1.99.41 1.99 1.3 0 .7-.34 1.21-1.69 2.01-1.86 1.11-2.39 1.71-2.39 2.94v.51zm6.71-3.61c0-2.08-.87-3.72-2.65-3.72s-2.66 1.64-2.66 3.72.88 3.73 2.66 3.73 2.65-1.65 2.65-3.73zm-.64 0c0 1.78-.59 3.15-2.01 3.15s-2.03-1.37-2.03-3.15.61-3.15 2.03-3.15 2.01 1.36 2.01 3.15zm4.23 3.61v-7.22h-.64l-2.07.42.1.49 1.97-.35v6.66zm6.95-4.19c0-2.13-1.09-3.14-2.6-3.14a2.359 2.359 0 00-2.37 2.36 2.233 2.233 0 002.33 2.27 2.293 2.293 0 002.01-.94c-.19 1.95-1.19 3.18-3.09 3.18a8.607 8.607 0 01-.87-.06l-.07.53a4.521 4.521 0 00.9.11c2.41 0 3.76-1.62 3.76-4.31zm-.67-.75a1.792 1.792 0 01-1.95 1.67 1.564 1.564 0 01-1.72-1.67 1.726 1.726 0 011.76-1.82 1.765 1.765 0 011.91 1.82zm6.89 6.31a8.176 8.176 0 010-9.44l-.46-.32a8.36 8.36 0 000 10.08zm7.58-1.37V13.3h-.65v6.29l-4.69-6.29h-.64v7.33h.64v-6.31l4.69 6.31zm6.65-2.69a2.513 2.513 0 10-2.5 2.77 2.562 2.562 0 002.5-2.77zm-.64 0a1.882 1.882 0 11-1.86-2.2 1.929 1.929 0 011.86 2.2zm6.15-2.67h-.64l-1.82 4.67-1.8-4.67h-.65l2.14 5.36h.63zm1.62 5.36v-5.36h-.63v5.36zm0-6.25V13.3h-.63v1.08zm6.31 3.79v-.23c0-1.48-.8-2.77-2.37-2.77a2.539 2.539 0 00-2.47 2.77 2.611 2.611 0 002.78 2.77 6.072 6.072 0 001.75-.27l-.13-.53a5.963 5.963 0 01-1.63.23 1.942 1.942 0 01-2.11-1.97zm-.66-.55h-3.52a1.832 1.832 0 011.81-1.88 1.737 1.737 0 011.71 1.88zm10.08 3.01v-3.56a1.7 1.7 0 00-1.82-1.9 2.253 2.253 0 00-1.94 1.13 1.628 1.628 0 00-1.7-1.13 2.066 2.066 0 00-1.83 1.1v-1h-.65v5.36h.65v-2.72a1.907 1.907 0 011.74-2.14 1.122 1.122 0 011.25 1.35v3.51h.65V17.9a1.9 1.9 0 011.74-2.13 1.129 1.129 0 011.26 1.35v3.51zm6.57-2.69c0-1.33-.67-2.77-2.35-2.77a1.911 1.911 0 00-1.76 1.08V13.3h-.65v7.33h.65v-.99a1.919 1.919 0 001.76 1.07c1.67 0 2.35-1.44 2.35-2.77zm-.64 0c0 1.21-.59 2.2-1.73 2.2s-1.74-1.01-1.74-2.2.59-2.2 1.74-2.2 1.73.99 1.73 2.2zm4.75-2.14v-.63a2.357 2.357 0 00-1.97 1.24v-1.14h-.65v5.36h.65v-2.69a2.085 2.085 0 011.97-2.14zm5.58 2.37v-.23c0-1.48-.8-2.77-2.36-2.77a2.546 2.546 0 00-2.48 2.77 2.619 2.619 0 002.79 2.77 6.123 6.123 0 001.75-.27l-.14-.53a5.9 5.9 0 01-1.62.23 1.945 1.945 0 01-2.12-1.97zm-.66-.55h-3.52a1.834 1.834 0 011.82-1.88 1.729 1.729 0 011.7 1.88zm9.24 3.01v-.58h-4.19c0-.99.41-1.37 2.4-2.58 1.18-.72 1.67-1.37 1.67-2.32 0-1.08-.76-1.85-2.5-1.85a6.939 6.939 0 00-2.13.34l.12.53a6.785 6.785 0 011.88-.3c1.35 0 1.99.41 1.99 1.3 0 .7-.34 1.21-1.69 2.01-1.86 1.11-2.39 1.71-2.39 2.94v.51zm6.71-3.61c0-2.08-.87-3.72-2.65-3.72s-2.66 1.64-2.66 3.72.88 3.73 2.66 3.73 2.65-1.65 2.65-3.73zm-.63 0c0 1.78-.6 3.15-2.02 3.15s-2.02-1.37-2.02-3.15.6-3.15 2.02-3.15 2.02 1.36 2.02 3.15zm4.22 3.61v-7.22h-.64l-2.07.42.1.49 1.97-.35v6.66zm7.01-2.04a1.965 1.965 0 00-1.34-1.84 1.847 1.847 0 001-1.57 2.28 2.28 0 00-4.49 0 1.836 1.836 0 00.99 1.57 1.971 1.971 0 00-1.36 1.84 2.645 2.645 0 005.2 0zm-.64 0a1.687 1.687 0 01-1.95 1.58 1.706 1.706 0 01-1.97-1.58c0-.87.71-1.51 1.97-1.51s1.95.64 1.95 1.51zm-.34-3.41a1.635 1.635 0 01-3.22 0 1.642 1.642 0 013.22 0zm8.71 5.45v-3.67c0-1.05-.71-1.79-2.18-1.79a7.605 7.605 0 00-1.74.21l.09.53a9.809 9.809 0 011.63-.17c1.16 0 1.56.53 1.56 1.27v.61h-1.8a1.484 1.484 0 00-1.74 1.52 1.534 1.534 0 001.8 1.57 2.042 2.042 0 001.74-.76v.68zm-.64-2.04a1.536 1.536 0 01-1.75 1.55.948.948 0 01-1.15-.96.924.924 0 011.14-.99h1.76zm11.29-1.62a3.469 3.469 0 10-3.46 3.78 3.558 3.558 0 003.46-3.78zm-.66 0a2.822 2.822 0 11-2.8-3.21 2.912 2.912 0 012.8 3.21zm5.9 3.55l-.11-.54a4.189 4.189 0 01-1.16.16 2.2 2.2 0 010-4.4 4.285 4.285 0 011.16.17l.11-.53a4.082 4.082 0 00-1.34-.21 2.77 2.77 0 000 5.54 5.043 5.043 0 001.34-.19zm3.65.08l-.08-.48a3.786 3.786 0 01-.63.07c-.42 0-.62-.21-.62-.94v-3.41h1.1v-.57h-1.1v-1.52h-.65v1.52h-.73v.57h.73v3.38c0 1.11.46 1.49 1.25 1.49a2.478 2.478 0 00.73-.11zm5.63.03v-5.36h-.64v2.72a1.938 1.938 0 01-1.8 2.13 1.139 1.139 0 01-1.27-1.35v-3.5h-.65v3.55a1.7 1.7 0 001.84 1.89 2.157 2.157 0 001.88-1.1v1.02zm6.63-2.69c0-1.33-.67-2.77-2.36-2.77a1.921 1.921 0 00-1.76 1.08V13.3h-.65v7.33h.65v-.99a1.93 1.93 0 001.76 1.07c1.68 0 2.36-1.44 2.36-2.77zm-.64 0c0 1.21-.59 2.2-1.74 2.2s-1.74-1.01-1.74-2.2.6-2.2 1.74-2.2 1.74.99 1.74 2.2zm4.74-2.14v-.63a2.37 2.37 0 00-1.97 1.24v-1.14h-.65v5.36h.65v-2.69a2.092 2.092 0 011.97-2.14zm5.59 2.37v-.23c0-1.48-.8-2.77-2.37-2.77a2.539 2.539 0 00-2.47 2.77 2.611 2.611 0 002.78 2.77 6.022 6.022 0 001.75-.27l-.13-.53a5.963 5.963 0 01-1.63.23 1.942 1.942 0 01-2.11-1.97zm-.66-.55h-3.52a1.832 1.832 0 011.81-1.88 1.737 1.737 0 011.71 1.88zm9.24 3.01v-.58h-4.19c0-.99.4-1.37 2.4-2.58 1.17-.72 1.67-1.37 1.67-2.32 0-1.08-.76-1.85-2.5-1.85a6.841 6.841 0 00-2.13.34l.12.53a6.725 6.725 0 011.88-.3c1.34 0 1.99.41 1.99 1.3 0 .7-.34 1.21-1.69 2.01-1.86 1.11-2.39 1.71-2.39 2.94v.51zm6.71-3.61c0-2.08-.87-3.72-2.65-3.72s-2.66 1.64-2.66 3.72.88 3.73 2.66 3.73 2.65-1.65 2.65-3.73zm-.64 0c0 1.78-.59 3.15-2.01 3.15S498 18.8 498 17.02s.61-3.15 2.03-3.15 2.01 1.36 2.01 3.15zm4.22 3.61v-7.22h-.63l-2.07.42.1.49 1.97-.35v6.66zm6.96-4.19c0-2.13-1.09-3.14-2.6-3.14a2.368 2.368 0 00-2.38 2.36 2.242 2.242 0 002.34 2.27 2.305 2.305 0 002.01-.94c-.19 1.95-1.19 3.18-3.09 3.18a8.607 8.607 0 01-.87-.06l-.07.53a4.513 4.513 0 00.89.11c2.41 0 3.77-1.62 3.77-4.31zm-.67-.75a1.8 1.8 0 01-1.95 1.67 1.564 1.564 0 01-1.72-1.67 1.726 1.726 0 011.76-1.82 1.765 1.765 0 011.91 1.82zm3.98 1.59a8.366 8.366 0 00-1.7-5.04l-.46.32a8.132 8.132 0 010 9.44l.46.32a8.366 8.366 0 001.7-5.04zm9.11.66c0-1.33-.69-2.77-2.36-2.77a1.911 1.911 0 00-1.76 1.08v-.98h-.65v7.26h.65v-2.89a1.919 1.919 0 001.76 1.07c1.68 0 2.36-1.44 2.36-2.77zm-.64 0c0 1.21-.6 2.2-1.74 2.2s-1.74-1.01-1.74-2.2.6-2.2 1.74-2.2 1.74.99 1.74 2.2zm5.89 2.69v-3.67c0-1.05-.7-1.79-2.17-1.79a7.471 7.471 0 00-1.74.21l.08.53a10.021 10.021 0 011.63-.17c1.17 0 1.57.53 1.57 1.27v.61h-1.81a1.489 1.489 0 00-1.74 1.52 1.542 1.542 0 001.81 1.57 2.042 2.042 0 001.74-.76v.68zm-.63-2.04a1.541 1.541 0 01-1.75 1.55.956.956 0 01-1.16-.96.924.924 0 011.14-.99h1.77zm4.9-2.79v-.63a2.37 2.37 0 00-1.97 1.24v-1.14h-.65v5.36h.65v-2.69a2.092 2.092 0 011.97-2.14zm4.93 4.83v-3.67c0-1.05-.7-1.79-2.18-1.79a7.605 7.605 0 00-1.74.21l.09.53a9.809 9.809 0 011.63-.17c1.17 0 1.56.53 1.56 1.27v.61h-1.8a1.484 1.484 0 00-1.74 1.52 1.534 1.534 0 001.8 1.57 2.029 2.029 0 001.74-.76v.68zm-.64-2.04a1.536 1.536 0 01-1.75 1.55.952.952 0 01-1.15-.96.924.924 0 011.14-.99h1.76zm9.14-.42v-.23c0-1.48-.8-2.77-2.36-2.77a2.541 2.541 0 00-2.48 2.77 2.616 2.616 0 002.78 2.77 6.022 6.022 0 001.75-.27l-.13-.53a5.912 5.912 0 01-1.63.23 1.942 1.942 0 01-2.11-1.97zm-.66-.55h-3.52a1.834 1.834 0 011.82-1.88 1.735 1.735 0 011.7 1.88zm3.98 3.07v-.55h-.47a.721.721 0 01-.78-.89V13.3h-.64v5.92a1.273 1.273 0 001.38 1.47zM121.26 33.83v-3.56a1.7 1.7 0 00-1.82-1.9 2.253 2.253 0 00-1.94 1.13 1.628 1.628 0 00-1.7-1.13 2.066 2.066 0 00-1.83 1.1v-1h-.65v5.36h.65v-2.72a1.907 1.907 0 011.74-2.14 1.122 1.122 0 011.25 1.35v3.51h.65V31.1a1.9 1.9 0 011.74-2.13 1.129 1.129 0 011.26 1.35v3.51zm6.24-2.46v-.23c0-1.48-.8-2.77-2.36-2.77a2.541 2.541 0 00-2.48 2.77 2.619 2.619 0 002.79 2.77 6.009 6.009 0 001.74-.27l-.13-.53a5.912 5.912 0 01-1.63.23 1.942 1.942 0 01-2.11-1.97zm-.66-.55h-3.52a1.834 1.834 0 011.82-1.88 1.735 1.735 0 011.7 1.88zm4.77-1.82v-.63a2.357 2.357 0 00-1.97 1.24v-1.14h-.65v5.36h.65v-2.69a2.092 2.092 0 011.97-2.14zm4.86 4.72l-.11-.54a4.208 4.208 0 01-1.17.16 2.2 2.2 0 010-4.4 4.414 4.414 0 011.17.17l.11-.53a4.082 4.082 0 00-1.34-.21 2.77 2.77 0 000 5.54 5.161 5.161 0 001.34-.19zm5.26.11v-3.67c0-1.05-.71-1.79-2.18-1.79a7.538 7.538 0 00-1.74.21l.09.53a9.807 9.807 0 011.62-.17c1.17 0 1.57.53 1.57 1.27v.61h-1.81a1.489 1.489 0 00-1.74 1.52 1.542 1.542 0 001.81 1.57 2.042 2.042 0 001.74-.76v.68zm-.64-2.04a1.536 1.536 0 01-1.75 1.55.956.956 0 01-1.16-.96.928.928 0 011.15-.99h1.76zm6.66 2.04V26.5h-.63v2.95a1.926 1.926 0 00-1.77-1.08c-1.68 0-2.36 1.44-2.36 2.77s.69 2.77 2.36 2.77a1.934 1.934 0 001.77-1.07v.99zm-.63-2.69c0 1.19-.6 2.2-1.74 2.2s-1.74-.99-1.74-2.2.59-2.2 1.74-2.2 1.74 1.01 1.74 2.2zm7.11 0a2.509 2.509 0 10-2.5 2.77 2.556 2.556 0 002.5-2.77zm-.64 0a1.878 1.878 0 11-1.86-2.2 1.923 1.923 0 011.86 2.2zm8.93 2.69V26.5h-.64v2.95a1.921 1.921 0 00-1.76-1.08c-1.69 0-2.37 1.44-2.37 2.77s.69 2.77 2.37 2.77a1.93 1.93 0 001.76-1.07v.99zm-.64-2.69c0 1.19-.6 2.2-1.74 2.2s-1.74-.99-1.74-2.2.59-2.2 1.74-2.2 1.74 1.01 1.74 2.2zm6.94.23v-.23c0-1.48-.81-2.77-2.37-2.77a2.539 2.539 0 00-2.47 2.77 2.611 2.611 0 002.78 2.77 6.072 6.072 0 001.75-.27l-.13-.53a5.963 5.963 0 01-1.63.23 1.942 1.942 0 01-2.11-1.97zm-.66-.55h-3.52a1.832 1.832 0 011.81-1.88 1.737 1.737 0 011.71 1.88zm9.87 2.89l-.14-.53a7.209 7.209 0 01-1.65.19 3.208 3.208 0 110-6.41 7.483 7.483 0 011.68.2l.11-.54a6.264 6.264 0 00-1.77-.23 3.761 3.761 0 00-4.03 3.77 3.817 3.817 0 004.03 3.79 6.814 6.814 0 001.77-.24zm5.99.12v-3.56a1.707 1.707 0 00-1.83-1.9 2.157 2.157 0 00-1.88 1.1V26.5h-.64v7.33h.64v-2.72a1.942 1.942 0 011.8-2.14 1.135 1.135 0 011.27 1.35v3.51zm2.51 0v-5.36h-.64v5.36zm0-6.25V26.5h-.64v1.08zm3.7 6.31v-.55h-.47a.721.721 0 01-.78-.89V26.5h-.64v5.92a1.273 1.273 0 001.38 1.47zm5.87-2.52v-.23c0-1.48-.81-2.77-2.37-2.77a2.539 2.539 0 00-2.47 2.77 2.611 2.611 0 002.78 2.77 6.072 6.072 0 001.75-.27l-.13-.53a5.963 5.963 0 01-1.63.23 1.942 1.942 0 01-2.11-1.97zm-.66-.55h-3.52a1.832 1.832 0 011.81-1.88 1.737 1.737 0 011.71 1.88zm2.97 3.01v-1.04h-.83v1.04zm6.5 1.37a8.132 8.132 0 010-9.44l-.46-.32a8.321 8.321 0 000 10.08zm7.37-5.04c0-2.11-1.82-3.66-4.31-3.66h-1.47v7.33h1.47c2.49 0 4.31-1.56 4.31-3.67zm-.67 0a3.279 3.279 0 01-3.55 3.09h-.9v-6.18h.9a3.279 3.279 0 013.55 3.09zm6.48 1.21v-.23c0-1.48-.81-2.77-2.37-2.77a2.546 2.546 0 00-2.48 2.77 2.619 2.619 0 002.79 2.77 6.072 6.072 0 001.75-.27l-.13-.53a6.014 6.014 0 01-1.63.23 1.945 1.945 0 01-2.12-1.97zm-.66-.55h-3.53a1.84 1.84 0 011.82-1.88 1.737 1.737 0 011.71 1.88zm4.76-1.82v-.63a2.357 2.357 0 00-1.97 1.24v-1.14h-.65v5.36h.65v-2.69a2.092 2.092 0 011.97-2.14zm5.59 2.37v-.23c0-1.48-.81-2.77-2.37-2.77a2.539 2.539 0 00-2.47 2.77 2.611 2.611 0 002.78 2.77 6.072 6.072 0 001.75-.27l-.13-.53a6.014 6.014 0 01-1.63.23 1.937 1.937 0 01-2.11-1.97zm-.66-.55h-3.52a1.832 1.832 0 011.81-1.88 1.737 1.737 0 011.71 1.88zm5.85 2.9l-.11-.54a4.208 4.208 0 01-1.17.16 2.2 2.2 0 010-4.4 4.357 4.357 0 011.17.17l.11-.53a4.082 4.082 0 00-1.34-.21 2.77 2.77 0 000 5.54 5.161 5.161 0 001.34-.19zm5.83.11v-3.56a1.707 1.707 0 00-1.83-1.9 2.157 2.157 0 00-1.88 1.1V26.5h-.64v7.33h.64v-2.72a1.941 1.941 0 011.79-2.14 1.138 1.138 0 011.28 1.35v3.51zm6.48-2.69a2.513 2.513 0 10-2.5 2.77 2.562 2.562 0 002.5-2.77zm-.64 0a1.882 1.882 0 11-1.86-2.2 1.929 1.929 0 011.86 2.2zm5.69 1.35c0-.78-.38-1.08-1.89-1.7-1.03-.42-1.25-.64-1.25-1.09 0-.53.36-.76 1.29-.76a6.721 6.721 0 011.52.2l.09-.52a5.342 5.342 0 00-1.65-.25c-1.05 0-1.89.39-1.89 1.26 0 .73.27 1.16 1.49 1.65 1.38.57 1.65.7 1.65 1.19 0 .6-.57.87-1.42.87a4.066 4.066 0 01-1.72-.41l-.17.5a4.25 4.25 0 001.91.48c1.27 0 2.04-.57 2.04-1.42zm6.46-3.49v-.63a2.384 2.384 0 00-1.97 1.24v-1.14h-.65v5.36h.65v-2.69a2.092 2.092 0 011.97-2.14zm5.59 2.37v-.23c0-1.48-.8-2.77-2.36-2.77a2.541 2.541 0 00-2.48 2.77 2.616 2.616 0 002.78 2.77 6.022 6.022 0 001.75-.27l-.13-.53a5.963 5.963 0 01-1.63.23 1.942 1.942 0 01-2.11-1.97zm-.66-.55h-3.52a1.834 1.834 0 011.82-1.88 1.735 1.735 0 011.7 1.88zm5.71 1.67c0-.78-.37-1.08-1.88-1.7-1.04-.42-1.26-.64-1.26-1.09 0-.53.37-.76 1.29-.76a6.646 6.646 0 011.52.2l.1-.52a5.385 5.385 0 00-1.65-.25c-1.06 0-1.89.39-1.89 1.26 0 .73.26 1.16 1.48 1.65 1.39.57 1.65.7 1.65 1.19 0 .6-.57.87-1.42.87a4.022 4.022 0 01-1.71-.41l-.18.5a4.318 4.318 0 001.91.48c1.27 0 2.04-.57 2.04-1.42zm5.86-1.12v-.23c0-1.48-.8-2.77-2.36-2.77a2.546 2.546 0 00-2.48 2.77 2.619 2.619 0 002.79 2.77 6.123 6.123 0 001.75-.27l-.14-.53a5.9 5.9 0 01-1.62.23 1.945 1.945 0 01-2.12-1.97zm-.66-.55h-3.52a1.834 1.834 0 011.82-1.88 1.729 1.729 0 011.7 1.88zM277.4 29v-.63a2.357 2.357 0 00-1.97 1.24v-1.14h-.65v5.36h.65v-2.69A2.092 2.092 0 01277.4 29zm5.18-.53h-.64l-1.82 4.67-1.8-4.67h-.65l2.13 5.36h.64zm4.76 5.36v-3.67c0-1.05-.7-1.79-2.18-1.79a7.605 7.605 0 00-1.74.21l.09.53a9.914 9.914 0 011.63-.17c1.17 0 1.56.53 1.56 1.27v.61h-1.8a1.489 1.489 0 00-1.74 1.52 1.534 1.534 0 001.8 1.57 2.029 2.029 0 001.74-.76v.68zm-.64-2.04a1.536 1.536 0 01-1.75 1.55.952.952 0 01-1.15-.96.924.924 0 011.14-.99h1.76zm6.67 2.04V26.5h-.64v2.95a1.911 1.911 0 00-1.76-1.08c-1.68 0-2.37 1.44-2.37 2.77s.7 2.77 2.37 2.77a1.919 1.919 0 001.76-1.07v.99zm-.64-2.69c0 1.19-.59 2.2-1.74 2.2s-1.74-.99-1.74-2.2.6-2.2 1.74-2.2 1.74 1.01 1.74 2.2zm7.12 0a2.513 2.513 0 10-2.5 2.77 2.562 2.562 0 002.5-2.77zm-.64 0a1.882 1.882 0 11-1.86-2.2 1.929 1.929 0 011.86 2.2zm5.69 1.35c0-.78-.38-1.08-1.89-1.7-1.03-.42-1.25-.64-1.25-1.09 0-.53.36-.76 1.29-.76a6.721 6.721 0 011.52.2l.09-.52a5.342 5.342 0 00-1.65-.25c-1.05 0-1.89.39-1.89 1.26 0 .73.27 1.16 1.49 1.65 1.38.57 1.65.7 1.65 1.19 0 .6-.57.87-1.42.87a4.066 4.066 0 01-1.72-.41l-.17.5a4.25 4.25 0 001.91.48c1.27 0 2.04-.57 2.04-1.42zm8.52 1.34v-.58h-4.19c0-.99.41-1.37 2.4-2.58 1.17-.72 1.67-1.37 1.67-2.32 0-1.08-.76-1.85-2.5-1.85a6.89 6.89 0 00-2.13.34l.12.53a6.725 6.725 0 011.88-.3c1.34 0 1.99.41 1.99 1.3 0 .7-.34 1.21-1.69 2.01-1.86 1.11-2.39 1.71-2.39 2.94v.51zm6.71-3.61c0-2.08-.87-3.72-2.65-3.72s-2.66 1.64-2.66 3.72.88 3.73 2.66 3.73 2.65-1.65 2.65-3.73zm-.64 0c0 1.78-.59 3.15-2.01 3.15s-2.03-1.37-2.03-3.15.61-3.15 2.03-3.15 2.01 1.36 2.01 3.15zm6.86 3.61v-.58h-4.2c0-.99.41-1.37 2.4-2.58 1.18-.72 1.67-1.37 1.67-2.32 0-1.08-.75-1.85-2.49-1.85a6.955 6.955 0 00-2.14.34l.12.53a6.785 6.785 0 011.88-.3c1.35 0 2 .41 2 1.3 0 .7-.34 1.21-1.7 2.01-1.86 1.11-2.39 1.71-2.39 2.94v.51zm6.71-3.61c0-2.08-.87-3.72-2.66-3.72s-2.66 1.64-2.66 3.72.88 3.73 2.66 3.73 2.66-1.65 2.66-3.73zm-.64 0c0 1.78-.6 3.15-2.02 3.15s-2.02-1.37-2.02-3.15.6-3.15 2.02-3.15 2.02 1.36 2.02 3.15zm2.89 3.61v-1.04h-.83v1.04h.46l-.39 1.16h.36zm9.22-6.76v-.57h-5.7v.57h2.52v6.76h.66v-6.76zm5.44 6.76v-3.56a1.7 1.7 0 00-1.82-1.9 2.161 2.161 0 00-1.89 1.1V26.5h-.63v7.33h.63v-2.72a1.948 1.948 0 011.8-2.14 1.135 1.135 0 011.27 1.35v3.51zm6.31-2.46v-.23c0-1.48-.81-2.77-2.37-2.77a2.546 2.546 0 00-2.48 2.77 2.619 2.619 0 002.79 2.77 6.072 6.072 0 001.75-.27l-.13-.53a6.014 6.014 0 01-1.63.23 1.945 1.945 0 01-2.12-1.97zm-.66-.55h-3.53a1.834 1.834 0 011.82-1.88 1.737 1.737 0 011.71 1.88zm10.71 3.01V26.5h-.65v6.29l-4.7-6.29h-.64v7.33h.64v-6.31l4.7 6.31zm2.67 0v-5.36h-.64v5.36zm0-6.25V26.5h-.64v1.08zm6.31 3.79v-.23c0-1.48-.81-2.77-2.37-2.77a2.546 2.546 0 00-2.48 2.77 2.619 2.619 0 002.79 2.77 6.123 6.123 0 001.75-.27l-.13-.53a6.014 6.014 0 01-1.63.23 1.945 1.945 0 01-2.12-1.97zm-.66-.55h-3.53a1.834 1.834 0 011.82-1.88 1.742 1.742 0 011.71 1.88zm3.98 3.07v-.55h-.48a.724.724 0 01-.78-.89V26.5h-.64v5.92a1.273 1.273 0 001.38 1.47zm4.99-1.4c0-.78-.37-1.08-1.88-1.7-1.03-.42-1.25-.64-1.25-1.09 0-.53.36-.76 1.28-.76a6.646 6.646 0 011.52.2l.1-.52a5.385 5.385 0 00-1.65-.25c-1.06 0-1.89.39-1.89 1.26 0 .73.26 1.16 1.48 1.65 1.39.57 1.65.7 1.65 1.19 0 .6-.57.87-1.42.87a4.057 4.057 0 01-1.71-.41l-.18.5a4.327 4.327 0 001.92.48c1.26 0 2.03-.57 2.03-1.42zm5.86-1.12v-.23c0-1.48-.8-2.77-2.36-2.77a2.546 2.546 0 00-2.48 2.77 2.619 2.619 0 002.79 2.77 6.123 6.123 0 001.75-.27l-.14-.53a5.9 5.9 0 01-1.62.23 1.945 1.945 0 01-2.12-1.97zm-.66-.55h-3.52a1.834 1.834 0 011.82-1.88 1.729 1.729 0 011.7 1.88zm6.51 3.01v-3.56a1.714 1.714 0 00-1.84-1.9 2.117 2.117 0 00-1.87 1.1v-1h-.65v5.36h.65v-2.72a1.934 1.934 0 011.78-2.14 1.148 1.148 0 011.29 1.35v3.51zm9.53-.12l-.13-.53a7.27 7.27 0 01-1.65.19 3.208 3.208 0 110-6.41 7.4 7.4 0 011.67.2l.11-.54a6.193 6.193 0 00-1.76-.23 3.77 3.77 0 00-4.04 3.77 3.82 3.82 0 004.04 3.79 6.738 6.738 0 001.76-.24zm6.26-2.57a2.509 2.509 0 10-2.5 2.77 2.556 2.556 0 002.5-2.77zm-.64 0a1.882 1.882 0 11-1.86-2.2 1.923 1.923 0 011.86 2.2zm10.06 2.69v-3.56a1.7 1.7 0 00-1.82-1.9 2.224 2.224 0 00-1.93 1.13 1.648 1.648 0 00-1.71-1.13 2.066 2.066 0 00-1.83 1.1v-1h-.65v5.36h.65v-2.72a1.907 1.907 0 011.74-2.14 1.129 1.129 0 011.26 1.35v3.51h.65V31.1a1.891 1.891 0 011.73-2.13 1.125 1.125 0 011.26 1.35v3.51zm6.57-2.69c0-1.33-.68-2.77-2.35-2.77a1.911 1.911 0 00-1.76 1.08v-.98h-.65v7.26h.65v-2.89a1.919 1.919 0 001.76 1.07c1.68 0 2.35-1.44 2.35-2.77zm-.63 0c0 1.21-.6 2.2-1.74 2.2s-1.74-1.01-1.74-2.2.59-2.2 1.74-2.2 1.74.99 1.74 2.2zm5.89 2.69v-3.67c0-1.05-.7-1.79-2.18-1.79a7.451 7.451 0 00-1.73.21l.08.53a9.914 9.914 0 011.63-.17c1.17 0 1.56.53 1.56 1.27v.61h-1.8a1.489 1.489 0 00-1.74 1.52 1.542 1.542 0 001.81 1.57 2.022 2.022 0 001.73-.76v.68zm-.64-2.04a1.536 1.536 0 01-1.75 1.55.952.952 0 01-1.15-.96.924.924 0 011.14-.99h1.76zm6.65 2.04v-3.56a1.714 1.714 0 00-1.84-1.9 2.141 2.141 0 00-1.87 1.1v-1h-.65v5.36h.65v-2.72a1.934 1.934 0 011.78-2.14 1.148 1.148 0 011.29 1.35v3.51zm5.81-5.36h-.64l-1.82 4.67-1.8-4.67h-.65l2.19 5.36-.77 1.9h.61zm2.76 2.01a8.432 8.432 0 00-1.7-5.04l-.46.32a8.132 8.132 0 010 9.44l.46.32a8.432 8.432 0 001.7-5.04z" fill="#e9e9e9" fill-rule="evenodd"/></svg></svg>