<svg width="159" height="92" xmlns="http://www.w3.org/2000/svg" xmlns:xlink="http://www.w3.org/1999/xlink"><svg width="79.97" height="15.8" viewBox="-1 -1 157.93 29.6" y="45.99" xmlns="http://www.w3.org/2000/svg"><path d="M20.57 3.51a12.67 12.67 0 00-7.56-2.5 13.156 13.156 0 00-13 12.93 12.994 12.994 0 0020.56 10.64v-3.47a10.88 10.88 0 01-7.56 3.3 10.367 10.367 0 010-20.73 10.934 10.934 0 017.56 3.3V3.51zm2.5 10.37a13.066 13.066 0 1013.1-12.87 13.143 13.143 0 00-13.1 12.87zm2.84 0a10.233 10.233 0 1110.16 10.53 10.44 10.44 0 01-10.16-10.53zm29.46 12.7l2.47-17.5 8.43 18.53 8.6-18.5 2.33 17.47h2.87L76.17.01 66.3 21.24 56.67.01l-4.16 26.57h2.86zm32.37 0v-11h2.43c4.87 0 7.97-2.7 7.97-7.07 0-4.47-3.1-7.07-8.67-7.07h-4.56v25.14h2.83zm0-22.54h2.07c3.7 0 5.56 1.5 5.56 4.44s-1.93 4.53-5.36 4.53h-2.27V4.04zm19.97 11.3A6.615 6.615 0 00114 8.51c0-4.33-2.6-7.07-8.79-7.07h-4.07v25.14h2.83V15.54h.7l7.6 11.04h3.4zm-3.74-11.3h1.67c3.73 0 5.6 1.5 5.6 4.47s-1.93 4.57-5.53 4.57h-1.74V4.04zm31.87 22.54h3.06L127.47.24l-11.43 26.34h3.07l3.03-7.1h10.66zm-12.57-9.74l4.2-10.06 4.2 10.06h-8.4zm24.7-1.5a6.623 6.623 0 006.3-6.83c0-4.33-2.6-7.07-8.8-7.07h-4.06v25.14h2.83V15.54h.7l7.6 11.04h3.4zm-3.73-11.3h1.67c3.73 0 5.59 1.5 5.59 4.47s-1.93 4.57-5.53 4.57h-1.73V4.04z" fill="#fefefe" fill-rule="evenodd"/></svg><svg width="24.16" height="6.92" viewBox="-1 -1 46.31 11.84" x="98.36" y="48.87" xmlns="http://www.w3.org/2000/svg"><path d="M1.837 9.601V3.256l5.71 6.532h1.27V.221H6.988v6.32L1.265.009H.009v9.592h1.828zm8.758-9.38v5.735a3.771 3.771 0 107.539 0V.221h-1.828v5.374a3.338 3.338 0 01-.286 1.667 1.9 1.9 0 01-1.655.884 1.752 1.752 0 01-1.655-.884 3.339 3.339 0 01-.286-1.667V.221h-1.829zm14.518 0h-5.188v9.38h5.188v-1.58h-3.359v-2.55h3.235v-1.58h-3.235V1.813h3.359V.221zm.335 0l3.994 9.617h.97L34.48.221h-1.99l-2.538 6.307-2.5-6.307h-2zm10.711 4.653a3.13 3.13 0 116.258 0 3.268 3.268 0 01-3.148 3.272 3.166 3.166 0 01-3.11-3.272zm-1.879 0A5.016 5.016 0 1039.269.009a4.892 4.892 0 00-4.988 4.865z" fill-rule="evenodd"/></svg><svg width="59.83" height="9.66" viewBox="-1 -1 117.66 17.31" x="98.36" xmlns="http://www.w3.org/2000/svg"><path data-name="y recupera" d="M5.041 14.978h2.858V8.27L13.051.319h-3.4L6.54 5.412 3.371.319H.006L5.041 8.27v6.708zM22.327 2.632h.875c1.847 0 2.761.739 2.761 2.2 0 1.5-.933 2.236-2.8 2.236h-.836V2.635zm3.248 6.163a3.788 3.788 0 003.344-4.141c0-2.547-1.672-4.335-5.191-4.335h-4.259v14.659h2.858V9.087h.369l3.966 5.891h3.519zM39.652.319h-8.108v14.659h8.107v-2.469h-5.249V8.525h5.055V6.056h-5.055V2.809h5.249V.321zm12.794.564a7.85 7.85 0 00-3.577-.895 7.7 7.7 0 00-7.757 7.738 7.578 7.578 0 007.737 7.582 8.667 8.667 0 003.6-.855v-3.364a4.934 4.934 0 01-3.538 1.614 4.822 4.822 0 01-4.861-5 4.889 4.889 0 014.8-5.114 5.05 5.05 0 013.6 1.672V.879zm2.063-.564v8.962c0 4.1 2.449 6.027 5.89 6.027s5.891-1.925 5.891-6.027V.319h-2.858v8.4a5.227 5.227 0 01-.447 2.606 2.968 2.968 0 01-2.586 1.38 2.739 2.739 0 01-2.585-1.38 5.216 5.216 0 01-.447-2.606v-8.4h-2.858zM71.95 2.807h.991c1.983 0 2.858.642 2.858 2.158q0 2.1-2.683 2.1H71.95V2.807zm0 6.727h1.847c3.285 0 4.938-1.847 4.938-4.569a4.845 4.845 0 00-1.108-3.13C76.713.688 75.216.319 73.486.319h-4.394v14.659h2.858V9.534zM88.379.319h-8.104v14.659h8.1v-2.469h-5.249V8.525h5.055V6.056h-5.055V2.809h5.249V.321zm5.057 2.313h.875c1.847 0 2.76.739 2.76 2.2 0 1.5-.933 2.236-2.8 2.236h-.836V2.635zm3.247 6.163a3.788 3.788 0 003.343-4.141c0-2.547-1.672-4.335-5.19-4.335h-4.261v14.659h2.858V9.087h.369l3.966 5.891h3.519zm9.566.778l2.139-5.269 2.061 5.269h-4.2zm6.338 5.4h3.072L109.477.003h-2.139l-6.357 14.97h3.033l1.341-3.092h5.988z" fill-rule="evenodd"/></svg><svg width="70.66" height="9.66" viewBox="-1 -1 139.31 17.31" y="81.5" xmlns="http://www.w3.org/2000/svg"><path data-name="luminosidad" d="M.014.319v14.659h7.368v-2.469h-4.51V.319H.014zm8.458 0v8.962c0 4.1 2.45 6.027 5.891 6.027s5.891-1.925 5.891-6.027V.319h-2.86v8.4a5.224 5.224 0 01-.447 2.606 2.968 2.968 0 01-2.586 1.38 2.739 2.739 0 01-2.586-1.38 5.224 5.224 0 01-.447-2.606v-8.4H8.472zm16.664 14.659l1.5-9.021 3.888 9.2h.77l4.044-9.2 1.3 9.021h2.877L37.094.047h-1.966l-4.18 9.6-3.986-9.6h-1.963l-2.722 14.931h2.858zM41.547.319v14.659h2.857V.319h-2.857zm8.5 14.659V5.062l8.924 10.207h1.983V.319h-2.86v9.876L49.151-.012h-1.964v14.99h2.858zm16-7.388a4.891 4.891 0 119.779 0 5.107 5.107 0 01-4.919 5.113 4.947 4.947 0 01-4.861-5.113zm-2.936 0a7.839 7.839 0 107.8-7.6 7.645 7.645 0 00-7.801 7.6zm26.365-5.891a6.307 6.307 0 00-4.3-1.633 4.314 4.314 0 00-4.569 4.277c0 1.905.855 2.955 3.616 3.947 2.45.894 2.838 1.341 2.838 2.372a2.116 2.116 0 01-2.274 2.06 3.306 3.306 0 01-3.091-1.963l-1.847 1.788a5.881 5.881 0 005.035 2.781 4.757 4.757 0 005.113-4.822c0-2-.778-3.3-4.219-4.569-1.769-.641-2.236-1.03-2.236-1.827a1.868 1.868 0 012.061-1.633 3.215 3.215 0 012.392 1.166zm2.471-1.38v14.659h2.858V.319h-2.858zm8.5 2.488h.759a5.368 5.368 0 014.121 1.342 4.939 4.939 0 011.4 3.5 5.064 5.064 0 01-1.2 3.3c-.934 1.108-2.372 1.556-4.316 1.556h-.759v-9.7zm-2.858 12.171h4.161c4.9 0 7.913-3.325 7.913-7.349 0-4.1-3.014-7.31-7.874-7.31h-4.2v14.659zm17.092-5.4l2.138-5.269 2.061 5.269h-4.2zm6.337 5.4h3.072L117.908.008h-2.144l-6.357 14.97h3.033l1.341-3.092h5.988zm7.076-12.171h.758a5.369 5.369 0 014.122 1.342 4.939 4.939 0 011.4 3.5 5.059 5.059 0 01-1.206 3.3c-.933 1.108-2.371 1.556-4.316 1.556h-.758v-9.7zm-2.858 12.171h4.158c4.9 0 7.912-3.325 7.912-7.349 0-4.1-3.013-7.31-7.873-7.31h-4.2v14.659z" fill-rule="evenodd"/></svg><svg width="98.36" height="26.13" viewBox="-1 -1 194.72 50.25" xmlns="http://www.w3.org/2000/svg"><path data-name="nuevo LIFTACTIV ampollas PEPTIDE-C" d="M1.837 9.6V3.25l5.71 6.53h1.27V.22H6.988v6.32L1.265.01H.009V9.6h1.828zM10.595.22v5.73c0 2.63 1.568 3.86 3.77 3.86s3.77-1.23 3.77-3.86V.22h-1.829v5.37a3.345 3.345 0 01-.286 1.67 1.908 1.908 0 01-1.655.88 1.76 1.76 0 01-1.655-.88 3.346 3.346 0 01-.286-1.67V.22h-1.829zm14.518 0h-5.188V9.6h5.188V8.02h-3.359V5.47h3.235V3.89h-3.235V1.81h3.359V.22zm.335 0l3.994 9.61h.97L34.48.22h-1.99l-2.538 6.3-2.5-6.3h-2zm10.711 4.65a3.13 3.13 0 116.258 0 3.264 3.264 0 01-3.148 3.27 3.164 3.164 0 01-3.11-3.27zm-1.879 0A5.016 5.016 0 1039.269.01a4.892 4.892 0 00-4.988 4.86zM.997 12.7v15.31h4.854v-.92H1.973V12.7H.998zm6.621 0v15.31h.975V12.7h-.974zm10.683 0h-6.173v15.31h.975v-7.94h5.034v-.92h-5.035v-5.52h5.2v-.93zm9.688.93v-.93h-8.915v.93h3.94v14.38h1V13.63h3.98zm10.622 14.38h1.117l-6.377-15.76-6.438 15.76h1.117l2.031-5.04h6.519zm-8.184-5.95l2.924-7.25 2.864 7.25h-5.788zm22.746-7.6a7.791 7.791 0 00-5.138-1.99 7.89 7.89 0 10.041 15.78 8.219 8.219 0 005.1-1.89v-1.34a6.826 6.826 0 01-5.158 2.32 6.965 6.965 0 01-.02-13.93 6.7 6.7 0 015.178 2.43v-1.38zm9.831-.83v-.93h-8.915v.93h3.939v14.38h1V13.63h3.98zm1.768-.93v15.31h.974V12.7h-.974zm2.742 0l5.605 15.92 5.463-15.92h-1.077l-4.386 12.91L68.61 12.7h-1.1zm21.954 9.66l2.234-5.5 2.153 5.5h-4.387zm6.621 5.65h3.209l-6.459-15.64h-2.233l-6.641 15.64h3.172l1.4-3.23h6.255zm6.581 0l1.564-9.42 4.061 9.6h.813l4.224-9.6 1.361 9.42h3l-2.538-15.6h-2.051l-4.367 10.03-4.163-10.03h-2.051l-2.843 15.6h2.985zm20.127-12.71h1.04c2.071 0 2.985.67 2.985 2.25q0 2.19-2.8 2.19h-1.225V15.3zm0 7.02h1.929c3.433 0 5.159-1.93 5.159-4.77a5.055 5.055 0 00-1.158-3.27c-.954-1.2-2.518-1.58-4.325-1.58h-4.59v15.31h2.985v-5.69zm10.968-2.03a5.109 5.109 0 1110.215 0 5.336 5.336 0 01-5.138 5.34 5.163 5.163 0 01-5.077-5.34zm-3.067 0a8.188 8.188 0 108.144-7.94 7.983 7.983 0 00-8.144 7.94zm18.5-7.59v15.31h7.7v-2.58h-4.711V12.7h-2.985zm9.159 0v15.31h7.7v-2.58h-4.711V12.7h-2.986zm13.749 9.66l2.234-5.5 2.153 5.5h-4.387zm6.621 5.65h3.21l-6.458-15.64h-2.232l-6.641 15.64h3.168l1.4-3.23h6.255zm13.445-13.87a6.58 6.58 0 00-4.488-1.71 4.508 4.508 0 00-4.772 4.47c0 1.99.893 3.09 3.777 4.12 2.559.94 2.965 1.4 2.965 2.48a2.209 2.209 0 01-2.376 2.15 3.454 3.454 0 01-3.229-2.05l-1.929 1.87a6.137 6.137 0 005.26 2.9c3.147 0 5.341-2.07 5.341-5.03 0-2.09-.813-3.45-4.407-4.77-1.848-.68-2.336-1.08-2.336-1.91a1.951 1.951 0 012.153-1.71 3.363 3.363 0 012.5 1.22zM3.672 35.2h1.036c2.071 0 2.985.67 2.985 2.25 0 1.47-.934 2.2-2.8 2.2H3.678V35.2zm0 7.03h1.929c3.432 0 5.158-1.93 5.158-4.78a5.074 5.074 0 00-1.158-3.27c-.955-1.19-2.518-1.58-4.326-1.58H.685v15.31H3.67v-5.68zm17.162-9.63h-8.463v15.31h8.466v-2.58h-5.48v-4.16h5.28v-2.58h-5.28V35.2h5.48v-2.6zm5.281 2.6h1.042c2.072 0 2.985.67 2.985 2.25 0 1.47-.934 2.2-2.8 2.2h-1.221V35.2zm0 7.03h1.929c3.432 0 5.158-1.93 5.158-4.78a5.074 5.074 0 00-1.158-3.27c-.954-1.19-2.518-1.58-4.326-1.58h-4.581v15.31h2.985v-5.68zm13.486-7.03h3.453v-2.6h-9.87v2.6h3.432v12.71h2.991V35.2zm4.753-2.6v15.31h2.985V32.6H44.36zm8.875 2.6h.792c1.929 0 3.331.39 4.306 1.4a5.164 5.164 0 011.462 3.66 5.3 5.3 0 01-1.259 3.45c-.975 1.16-2.478 1.62-4.509 1.62h-.784V35.2zm-2.985 12.71h4.346c5.118 0 8.265-3.47 8.265-7.67 0-4.29-3.147-7.64-8.225-7.64h-4.386v15.31zM73.478 32.6h-8.469v15.31h8.469v-2.58h-5.484v-4.16h5.281v-2.58h-5.281V35.2h5.484v-2.6zm.529 11.19h5.158v-2.32h-5.158v2.32zm17.384-10.6a8.209 8.209 0 00-3.737-.94 8.048 8.048 0 00-8.1 8.09 7.921 7.921 0 008.083 7.92 9.054 9.054 0 003.757-.9v-3.51a5.152 5.152 0 01-3.7 1.69 5.041 5.041 0 01-5.077-5.22 5.1 5.1 0 015.016-5.34 5.3 5.3 0 013.757 1.74v-3.53z" fill-rule="evenodd"/></svg><svg width="97.86" height="10.19" viewBox="-1 -1 193.72 18.38" y="26.13" xmlns="http://www.w3.org/2000/svg"><path data-name="LIFTACTIV ampollas" d="M-.002.45v15.313h4.854v-.914H.973V.449h-.975zm6.621 0v15.313h.975V.45h-.975zm10.683 0h-6.174v15.313h.975V7.822h5.034v-.914h-5.035V1.384h5.2V.45zm9.688.934V.45h-8.916v.934h3.94v14.379h1V1.384h3.98zm10.622 14.379h1.117L32.352.003l-6.438 15.76h1.117l2.031-5.037h6.519zm-8.184-5.951l2.924-7.25 2.864 7.25h-5.789zm22.746-7.6a7.791 7.791 0 00-5.138-1.99 7.89 7.89 0 10.041 15.779 8.222 8.222 0 005.1-1.888v-1.341a6.845 6.845 0 01-5.158 2.315 6.966 6.966 0 01-.02-13.931 6.694 6.694 0 015.174 2.438V2.213zm9.831-.833V.445H53.09v.934h3.939v14.379h1V1.384h3.98zm1.768-.934v15.313h.974V.45h-.974zm2.742 0l5.605 15.922L77.583.445h-1.077L72.12 13.361 67.611.445h-1.1zm21.954 9.667l2.234-5.5 2.153 5.5h-4.387zm6.621 5.646h3.209L91.837.125h-2.233l-6.641 15.638h3.174l1.4-3.229h6.255zm6.581 0l1.564-9.424 4.061 9.606h.813l4.224-9.606 1.361 9.424h3l-2.538-15.6h-2.051l-4.363 10.036L103.579.162h-2.051l-2.843 15.6h2.985zm20.127-12.714h1.039c2.071 0 2.985.671 2.985 2.255q0 2.193-2.8 2.193h-1.225V3.044zm0 7.027h1.929c3.433 0 5.159-1.929 5.159-4.772a5.057 5.057 0 00-1.158-3.27c-.954-1.2-2.518-1.584-4.325-1.584h-4.59v15.313h2.985v-5.687zm10.968-2.031a5.109 5.109 0 1110.215 0 5.335 5.335 0 01-5.138 5.341 5.167 5.167 0 01-5.078-5.336zm-3.067 0A8.188 8.188 0 10137.843.1a7.986 7.986 0 00-8.145 7.945zm18.5-7.6v15.313h7.7v-2.58h-4.711V.45h-2.985zm9.159 0v15.313h7.7v-2.58h-4.711V.45h-2.986zm13.749 9.667l2.234-5.5 2.153 5.5h-4.387zm6.621 5.646h3.209L174.479.115h-2.232l-6.641 15.638h3.168l1.4-3.229h6.255zm13.447-13.859a6.59 6.59 0 00-4.488-1.706 4.507 4.507 0 00-4.772 4.468c0 1.99.893 3.087 3.777 4.122 2.559.935 2.965 1.4 2.965 2.478a2.212 2.212 0 01-2.376 2.153 3.455 3.455 0 01-3.229-2.051l-1.929 1.868a6.143 6.143 0 005.26 2.9c3.147 0 5.341-2.071 5.341-5.036 0-2.092-.813-3.453-4.407-4.773-1.848-.67-2.336-1.076-2.336-1.909a1.952 1.952 0 012.153-1.706 3.352 3.352 0 012.5 1.219z" fill-rule="evenodd"/></svg><svg width="47.36" height="10" viewBox="-1 -1 92.72 18" x="98.36" y="28.89" xmlns="http://www.w3.org/2000/svg"><path data-name="PEPTIDE-C" d="M2.991 2.948h1.036c2.071 0 2.985.67 2.985 2.254q0 2.195-2.8 2.194H2.991V2.948zm0 7.027H4.92c3.432 0 5.158-1.929 5.158-4.773A5.055 5.055 0 008.92 1.933C7.965.733 6.402.349 4.594.349H.004v15.312h2.985V9.975zM20.15.349h-8.466v15.312h8.466v-2.579h-5.48V8.919h5.28V6.34h-5.28V2.948h5.48v-2.6zm5.281 2.6h1.039c2.072 0 2.985.67 2.985 2.254q0 2.195-2.8 2.194h-1.221V2.949zm0 7.027h1.929c3.432 0 5.158-1.929 5.158-4.773a5.055 5.055 0 00-1.158-3.269C30.406.734 28.842.35 27.034.35H22.45v15.312h2.985V9.976zm13.486-7.027h3.453v-2.6H32.5v2.6h3.432v12.713h2.988V2.948zm4.753-2.6v15.312h2.985V.349h-2.982zm8.875 2.6h.792c1.929 0 3.331.386 4.306 1.4a5.156 5.156 0 011.462 3.655 5.293 5.293 0 01-1.259 3.453c-.975 1.157-2.478 1.624-4.509 1.624h-.787V2.948zM49.56 15.662h4.346c5.118 0 8.265-3.472 8.265-7.676 0-4.285-3.147-7.636-8.225-7.636H49.56v15.312zM72.794.35h-8.469v15.312h8.469v-2.579H67.31V8.92h5.281V6.34H67.31V2.948h5.484v-2.6zm.529 11.19h5.158V9.225h-5.158v2.315zM90.707.94A8.2 8.2 0 0086.97.006a8.043 8.043 0 00-8.1 8.082 7.917 7.917 0 008.083 7.921 9.058 9.058 0 003.757-.894V11.6a5.157 5.157 0 01-3.7 1.685 5.037 5.037 0 01-5.077-5.219 5.106 5.106 0 015.016-5.341 5.275 5.275 0 013.757 1.746V.938z" fill-rule="evenodd"/></svg><svg width="75.77" height="10.02" viewBox="-1 -1 149.53 18.03" y="61.79" xmlns="http://www.w3.org/2000/svg"><path d="M11.992 1.905A7.419 7.419 0 007.577.447 7.676 7.676 0 00-.008 7.993a7.583 7.583 0 0012 6.2v-2.019a6.347 6.347 0 01-4.415 1.925 6.05 6.05 0 010-12.1 6.382 6.382 0 014.415 1.925V1.901zm1.464 6.049A7.624 7.624 0 1021.099.447a7.669 7.669 0 00-7.643 7.507zm1.653 0a5.972 5.972 0 115.932 6.145 6.091 6.091 0 01-5.936-6.145zm17.679 7.41v-11.3l11.416 11.961V.7h-1.638v11.357L31.13.077v15.287h1.653zM58.772 1.905A7.42 7.42 0 0054.357.447a7.676 7.676 0 00-7.585 7.546 7.583 7.583 0 0012 6.2v-2.019a6.349 6.349 0 01-4.415 1.925 6.05 6.05 0 010-12.1 6.383 6.383 0 014.415 1.925V1.901zm10.016-1.2h-7.6v14.659h7.6v-1.537h-5.951V8.109h5.776V6.573h-5.776V2.217h5.951V.7zm4.065 14.664v-11.3L84.269 16.03V.7h-1.633v11.357L71.2.077v15.287h1.653zM94.636 2.222V.705h-8.752v1.517h3.559v13.142h1.634V2.217h3.559zm5.445 6.593a3.868 3.868 0 003.676-3.987c0-2.529-1.517-4.123-5.134-4.123H96.25v14.659h1.653V8.926h.409l4.434 6.438h1.984zm-2.178-6.593h.973c2.178 0 3.267.875 3.267 2.606s-1.128 2.664-3.228 2.664h-1.012v-5.27zm18.593 13.147h1.789L111.615.004l-6.671 15.365h1.789l1.77-4.143h6.223zm-7.332-5.679l2.451-5.874 2.45 5.874h-4.9zm10.58 5.679h2.976a9.714 9.714 0 003.345-.487 7.475 7.475 0 002.567-12.038 6.991 6.991 0 00-2.509-1.634 10.139 10.139 0 00-3.364-.5h-3.015v14.654zm1.654-13.147h1.419a6.091 6.091 0 014.59 1.692 5.658 5.658 0 011.614 4.123 5.553 5.553 0 01-1.633 4.1 6.031 6.031 0 01-4.571 1.692h-1.419V2.219zm10.891 5.737a7.624 7.624 0 107.643-7.507 7.669 7.669 0 00-7.648 7.502zm1.653 0a5.972 5.972 0 115.932 6.145 6.091 6.091 0 01-5.937-6.15z" fill-rule="evenodd"/></svg><svg width="56.72" height="9.59" viewBox="-1 -1 111.44 17.19" x="98.36" y="9.66" xmlns="http://www.w3.org/2000/svg"><path data-name="superdosis" d="M8.628 2.308a4.126 4.126 0 00-3.773-2.3A3.88 3.88 0 00.732 3.8c0 1.653.817 2.587 2.976 3.6l1.322.623c1.828.855 2.47 1.478 2.47 2.742a2.926 2.926 0 01-2.937 2.9c-1.595 0-2.587-.914-3-2.7l-1.575.448A4.43 4.43 0 004.5 15.186a4.576 4.576 0 004.668-4.512c0-1.887-.973-2.957-3.326-4.026l-1.376-.629c-1.381-.622-2.081-1.322-2.081-2.2a2.3 2.3 0 012.431-2.256 2.586 2.586 0 012.509 1.595zM11.565.266v9.432a5.272 5.272 0 001.284 3.851 5.586 5.586 0 007.9 0 5.278 5.278 0 001.284-3.851V.266h-1.658v8.985a4.7 4.7 0 01-.681 3.092 3.8 3.8 0 01-2.9 1.323 3.877 3.877 0 01-2.9-1.323 4.7 4.7 0 01-.681-3.092V.266h-1.648zM26.891 14.93V8.512h1.42c2.84 0 4.648-1.575 4.648-4.123 0-2.606-1.809-4.123-5.057-4.123h-2.665V14.93h1.653zm0-13.147h1.205c2.159 0 3.248.875 3.248 2.586s-1.128 2.65-3.131 2.65H26.89V1.788zM42.314.266h-7.6V14.93h7.6v-1.537h-5.952V7.676h5.776V6.139h-5.776V1.783h5.951V.266zm6.243 8.11a3.868 3.868 0 003.676-3.987c0-2.528-1.517-4.123-5.134-4.123h-2.374V14.93h1.653V8.492h.409l4.434 6.438h1.984zm-2.178-6.593h.977c2.178 0 3.267.875 3.267 2.606s-1.128 2.664-3.229 2.664h-1.011v-5.27zm8.81 13.147h2.976a9.74 9.74 0 003.345-.486 7.476 7.476 0 002.567-12.039A7 7 0 0061.569.771a10.15 10.15 0 00-3.365-.5h-3.015v14.664zm1.654-13.147h1.419a6.091 6.091 0 014.59 1.692 5.659 5.659 0 011.614 4.123 5.553 5.553 0 01-1.633 4.1 6.031 6.031 0 01-4.571 1.692h-1.419V1.78zM67.734 7.52A7.624 7.624 0 1075.377.013a7.669 7.669 0 00-7.644 7.506zm1.653 0a5.972 5.972 0 115.932 6.146 6.093 6.093 0 01-5.933-6.147zm23.864-5.212a4.127 4.127 0 00-3.773-2.3A3.88 3.88 0 0085.355 3.8c0 1.653.816 2.587 2.975 3.6l1.326.626c1.828.855 2.47 1.478 2.47 2.742a2.926 2.926 0 01-2.937 2.9c-1.595 0-2.587-.914-3-2.7l-1.575.448a4.43 4.43 0 004.512 3.773 4.575 4.575 0 004.667-4.512c0-1.887-.972-2.957-3.325-4.026l-1.381-.623c-1.381-.622-2.081-1.322-2.081-2.2a2.3 2.3 0 012.431-2.256 2.587 2.587 0 012.509 1.595zM96.207.266V14.93h1.649V.266h-1.65zm12.7 2.042a4.125 4.125 0 00-3.773-2.3 3.881 3.881 0 00-4.123 3.792c0 1.653.817 2.587 2.975 3.6l1.323.623c1.828.855 2.47 1.478 2.47 2.742a2.926 2.926 0 01-2.937 2.9c-1.595 0-2.586-.914-3-2.7l-1.575.448a4.43 4.43 0 004.512 3.773 4.575 4.575 0 004.667-4.512c0-1.887-.972-2.957-3.325-4.026l-1.381-.623c-1.381-.622-2.081-1.322-2.081-2.2a2.3 2.3 0 012.431-2.256 2.586 2.586 0 012.509 1.595z" fill-rule="evenodd"/></svg><svg width="52.78" height="9.64" viewBox="-1 -1 103.56 17.28" x="98.36" y="19.25" xmlns="http://www.w3.org/2000/svg"><path data-name="anti-edad" d="M5.268 9.581l2.139-5.27 2.062 5.27h-4.2zm6.34 5.407h3.073L8.496.013H6.357l-6.36 14.975h3.034l1.342-3.092h5.99zm7.08 0V5.069l8.927 10.212h1.984V.328h-2.86v9.88L17.793-.003h-1.964v15h2.859zM36.97 2.817h3.306V.328h-9.452v2.489h3.287v12.175h2.859V2.817zM41.521.328v14.664h2.859V.328h-2.859zm3.948 10.716h4.94V8.827h-4.94v2.217zM59.628.328h-8.11v14.664h8.11v-2.47h-5.252V8.535h5.057v-2.47h-5.057V2.817h5.252V.328zm5.056 2.489h.759a5.372 5.372 0 014.123 1.342 4.939 4.939 0 011.4 3.5 5.064 5.064 0 01-1.206 3.306c-.933 1.109-2.372 1.556-4.317 1.556h-.759v-9.7zm-2.858 12.175h4.161c4.9 0 7.916-3.326 7.916-7.352 0-4.1-3.015-7.312-7.877-7.312h-4.2v14.664zm17.1-5.407l2.139-5.27 2.062 5.27h-4.2zm6.34 5.407h3.073L82.15.017h-2.14l-6.36 14.975h3.034l1.341-3.092h5.991zm7.08-12.175h.758a5.37 5.37 0 014.123 1.342 4.94 4.94 0 011.4 3.5 5.064 5.064 0 01-1.206 3.306c-.934 1.109-2.373 1.556-4.318 1.556h-.758v-9.7zm-2.859 12.175h4.162c4.9 0 7.915-3.326 7.915-7.352 0-4.1-3.014-7.312-7.876-7.312h-4.2v14.664z" fill-rule="evenodd"/></svg><svg width="45.78" height="9.98" viewBox="-1 -1 89.56 17.97" x="98.36" y="38.89" xmlns="http://www.w3.org/2000/svg"><path data-name="Con 10%" d="M11.992 1.842A7.419 7.419 0 007.577.384 7.676 7.676 0 00-.008 7.93a7.583 7.583 0 0012 6.2v-2.019a6.347 6.347 0 01-4.415 1.925 6.05 6.05 0 010-12.1 6.382 6.382 0 014.415 1.925V1.838zm1.464 6.049A7.624 7.624 0 1021.099.384a7.669 7.669 0 00-7.643 7.507zm1.653 0a5.972 5.972 0 115.932 6.145 6.091 6.091 0 01-5.936-6.145zm17.679 7.41v-11.3l11.416 11.961V.637h-1.638v11.357L31.13.014v15.287h1.653zm23.746 0h1.654V.637h-3.232L54.1 2.154h2.431v13.147zm5.388-7.313c0 4.356 2.275 7.546 5.231 7.546s5.252-3.19 5.252-7.546-2.3-7.565-5.252-7.565-5.235 3.208-5.235 7.565zm1.595 0c0-3.462 1.536-6.068 3.636-6.068s3.657 2.606 3.657 6.068-1.556 6.048-3.657 6.048-3.64-2.586-3.64-6.048zm12.233 7.1l.856.486L85.143.832l-.855-.486zm5.29-2.82a3.258 3.258 0 006.515 0 3.26 3.26 0 10-6.519-.001zm1.264 0a1.984 1.984 0 111.984 1.983 1.993 1.993 0 01-1.988-1.984zm-9.005-8.6a3.258 3.258 0 006.516 0 3.26 3.26 0 10-6.52.002zm1.264 0a1.984 1.984 0 111.984 1.984 1.992 1.992 0 01-1.991-1.982z" fill-rule="evenodd"/></svg><svg width="73.3" height="9.69" viewBox="-1 -1 144.59 17.38" y="71.81" xmlns="http://www.w3.org/2000/svg"><path data-name="de vitamina c" d="M2.873 2.817h.758a5.372 5.372 0 014.123 1.342 4.941 4.941 0 011.4 3.5 5.064 5.064 0 01-1.206 3.306c-.933 1.109-2.373 1.556-4.317 1.556h-.758V2.816zM.014 14.992h4.162c4.9 0 7.916-3.326 7.916-7.352 0-4.1-3.015-7.312-7.877-7.312h-4.2v14.664zM22.263.328h-8.11v14.664h8.11v-2.47h-5.251V8.535h5.057v-2.47h-5.057V2.817h5.251V.328zm5.951 0l6.243 15.033h1.517L42.334.328h-3.111l-3.967 9.86-3.909-9.86h-3.132zm15.248 0v14.664h2.859V.328h-2.858zm10.23 2.489h3.306V.328h-9.452v2.489h3.287v12.175h2.861V2.817zm7.371 6.768l2.139-5.27 2.062 5.27h-4.2zm6.34 5.407h3.073L64.294.017h-2.139l-6.36 14.975h3.034l1.342-3.092h5.99zm6.3 0l1.5-9.024 3.89 9.2h.778l4.045-9.2 1.3 9.024h2.878L85.663.055h-1.965l-4.181 9.608L75.53.055h-1.964l-2.723 14.937h2.859zM90.118.328v14.664h2.858V.328h-2.858zm8.5 14.664V5.073l8.928 10.208h1.984V.328h-2.859v9.88L97.725-.003h-1.964v15h2.859zm17.387-5.407l2.139-5.27 2.062 5.27h-4.2zm6.34 5.407h3.073L119.233.017h-2.139l-6.36 14.975h3.034l1.342-3.092h5.99zm20.246-14.1a7.855 7.855 0 00-3.579-.895 7.7 7.7 0 00-7.759 7.741 7.58 7.58 0 007.74 7.584 8.675 8.675 0 003.6-.855v-3.365a4.938 4.938 0 01-3.54 1.614 4.824 4.824 0 01-4.862-5 4.89 4.89 0 014.8-5.115 5.049 5.049 0 013.603 1.68V.897z" fill-rule="evenodd"/></svg><svg width="91.06" height="9.67" viewBox="-1 -1 180.13 17.34" y="36.32" xmlns="http://www.w3.org/2000/svg"><path data-name="Rellena arrugas" d="M2.871 2.643h.875c1.847 0 2.761.739 2.761 2.2 0 1.5-.933 2.236-2.8 2.236h-.836V2.646zm3.247 6.163a3.788 3.788 0 003.344-4.141C9.462 2.118 7.79.33 4.271.33H.014v14.659h2.858V9.098h.369l3.966 5.891h3.519zM20.194.33h-8.106v14.659h8.106v-2.47h-5.248V8.533h5.055V6.064h-5.055V2.819h5.248V.331zm2.2 0v14.659h7.368v-2.47h-4.51V.329h-2.858zm8.769 0v14.659h7.368v-2.47h-4.51V.329h-2.858zm16.876 0h-8.107v14.659h8.107v-2.47h-5.245V8.533h5.055V6.064h-5.055V2.819h5.249V.331zm5.055 14.659V5.073l8.923 10.207H64V.33h-2.856v9.876L52.201-.001h-1.963v14.99h2.856zm17.382-5.4l2.139-5.269 2.061 5.269h-4.2zm6.338 5.4h3.072L73.704.019h-2.139l-6.357 14.97h3.033l1.341-3.092h5.988zm13.243-5.4l2.137-5.27 2.061 5.269h-4.2zm6.338 5.4h3.071L93.284.019h-2.139l-6.351 14.97h3.033l1.341-3.092h5.988zm7.078-12.346h.875c1.847 0 2.761.739 2.761 2.2 0 1.5-.933 2.236-2.8 2.236h-.836V2.646zm3.247 6.163a3.788 3.788 0 003.344-4.141c0-2.547-1.672-4.335-5.191-4.335h-4.257v14.659h2.857V9.098h.37l3.966 5.891h3.519zm8.828-6.163h.875c1.847 0 2.761.739 2.761 2.2 0 1.5-.933 2.236-2.8 2.236h-.836V2.646zm3.247 6.163a3.788 3.788 0 003.344-4.141c0-2.547-1.672-4.335-5.191-4.335h-4.254v14.659h2.858V9.098h.37l3.966 5.891h3.518zM124.609.33v8.962c0 4.1 2.45 6.027 5.891 6.027s5.891-1.925 5.891-6.027V.33h-2.858v8.4a5.227 5.227 0 01-.447 2.606 2.968 2.968 0 01-2.586 1.38 2.738 2.738 0 01-2.585-1.38 5.216 5.216 0 01-.448-2.606V.33h-2.858zM146.6 9.603h3.441a3.584 3.584 0 01-3.83 3.111 4.8 4.8 0 01-4.821-5 4.88 4.88 0 014.821-5.114 4.247 4.247 0 013.83 2.178l2.489-1.342a6.9 6.9 0 00-6.3-3.441 7.66 7.66 0 10-.078 15.32c4.141 0 7.154-2.722 7.154-7.757V7.13h-6.707v2.469zm11.8-.019l2.138-5.269 2.061 5.269h-4.2zm6.337 5.4h3.072L161.627.014h-2.133l-6.357 14.97h3.033l1.341-3.092h5.988zM177.61 1.705a6.309 6.309 0 00-4.3-1.633 4.315 4.315 0 00-4.569 4.277c0 1.9.856 2.955 3.617 3.947 2.449.894 2.838 1.341 2.838 2.372a2.117 2.117 0 01-2.275 2.06 3.308 3.308 0 01-3.091-1.963l-1.847 1.788a5.881 5.881 0 005.036 2.781 4.757 4.757 0 005.113-4.822c0-2-.778-3.3-4.219-4.569-1.769-.641-2.236-1.03-2.236-1.827a1.868 1.868 0 012.061-1.633 3.211 3.211 0 012.391 1.166z" fill-rule="evenodd"/></svg></svg>