<svg width="290" height="189" xmlns="http://www.w3.org/2000/svg" xmlns:xlink="http://www.w3.org/1999/xlink"><svg width="79.97" height="15.8" viewBox="-1 -1 157.93 29.6" x="196.23" y="34.94" xmlns="http://www.w3.org/2000/svg"><path d="M20.57 3.51a12.67 12.67 0 00-7.56-2.5 13.156 13.156 0 00-13 12.93 12.994 12.994 0 0020.56 10.64v-3.47a10.88 10.88 0 01-7.56 3.3 10.367 10.367 0 010-20.73 10.934 10.934 0 017.56 3.3V3.51zm2.5 10.37a13.066 13.066 0 1013.1-12.87 13.143 13.143 0 00-13.1 12.87zm2.84 0a10.233 10.233 0 1110.16 10.53 10.44 10.44 0 01-10.16-10.53zm29.46 12.7l2.47-17.5 8.43 18.53 8.6-18.5 2.33 17.47h2.87L76.17.01 66.3 21.24 56.67.01l-4.16 26.57h2.86zm32.37 0v-11h2.43c4.87 0 7.97-2.7 7.97-7.07 0-4.47-3.1-7.07-8.67-7.07h-4.56v25.14h2.83zm0-22.54h2.07c3.7 0 5.56 1.5 5.56 4.44s-1.93 4.53-5.36 4.53h-2.27V4.04zm19.97 11.3A6.615 6.615 0 00114 8.51c0-4.33-2.6-7.07-8.79-7.07h-4.07v25.14h2.83V15.54h.7l7.6 11.04h3.4zm-3.74-11.3h1.67c3.73 0 5.6 1.5 5.6 4.47s-1.93 4.57-5.53 4.57h-1.74V4.04zm31.87 22.54h3.06L127.47.24l-11.43 26.34h3.07l3.03-7.1h10.66zm-12.57-9.74l4.2-10.06 4.2 10.06h-8.4zm24.7-1.5a6.623 6.623 0 006.3-6.83c0-4.33-2.6-7.07-8.8-7.07h-4.06v25.14h2.83V15.54h.7l7.6 11.04h3.4zm-3.73-11.3h1.67c3.73 0 5.59 1.5 5.59 4.47s-1.93 4.57-5.53 4.57h-1.73V4.04z" fill="#fefefe" fill-rule="evenodd"/></svg><svg width="46.66" height="11.91" viewBox="-1 -1 91.31 21.81" x="196.23" y="50.74" xmlns="http://www.w3.org/2000/svg"><path d="M3.692 19.343V6.553l11.511 13.166h2.558V.434h-3.686v12.741L2.544.008H.011v19.335h3.686zM21.344.434v11.561c0 5.292 3.16 7.774 7.6 7.774s7.6-2.482 7.6-7.774V.434h-3.686v10.834a6.741 6.741 0 01-.577 3.36 3.83 3.83 0 01-3.335 1.781 3.534 3.534 0 01-3.336-1.781 6.741 6.741 0 01-.577-3.36V.434h-3.689zm29.264 0H40.151v18.909h10.458v-3.185h-6.771v-5.141h6.52V7.832h-6.52V3.644h6.771V.434zm.675 0l8.05 19.385h1.956l8.2-19.385h-4.013l-5.115 12.715L55.32.434h-4.036zm21.591 9.379a6.308 6.308 0 1112.614 0 6.588 6.588 0 01-6.345 6.6 6.381 6.381 0 01-6.268-6.6zm-3.787 0a10.111 10.111 0 1010.056-9.8 9.861 9.861 0 00-10.055 9.8z" fill-rule="evenodd"/></svg><svg width="123.2" height="18.06" viewBox="-1 -1 244.41 34.12" y="138.46" xmlns="http://www.w3.org/2000/svg"><path data-name="y recupera" d="M10.568 31.43h5.988V17.37L27.356.7h-7.131l-6.521 10.68L7.061.7H.011l10.555 16.67v14.06zM46.794 5.55h1.834c3.872 0 5.787 1.55 5.787 4.6 0 3.14-1.956 4.69-5.868 4.69h-1.753V5.55zM53.6 18.47c4.687-.94 7.009-3.83 7.009-8.68 0-5.34-3.5-9.09-10.881-9.09h-8.925v30.73h5.991V19.08h.774l8.314 12.35h7.374zM83.1.7H66.109v30.73h16.994v-5.18h-11V17.9h10.595v-5.18H72.1V5.91h11V.7zm26.814 1.18a16.5 16.5 0 00-7.5-1.87 16.139 16.139 0 00-16.258 16.22 15.884 15.884 0 0016.219 15.89 18.2 18.2 0 007.54-1.79v-7.05a10.355 10.355 0 01-7.417 3.38 10.109 10.109 0 01-10.189-10.48c0-6.07 4.4-10.71 10.066-10.71a10.589 10.589 0 017.54 3.5V1.88zM114.232.7v18.79c0 8.59 5.135 12.63 12.348 12.63s12.348-4.04 12.348-12.63V.7h-5.991v17.6c0 2.08-.081 4-.937 5.46a6.224 6.224 0 01-5.42 2.9 5.744 5.744 0 01-5.42-2.9c-.856-1.46-.938-3.38-.938-5.46V.7h-5.99zm36.553 5.21h2.079c4.156 0 5.99 1.35 5.99 4.53q0 4.395-5.624 4.4h-2.445V5.91zm0 14.11h3.871c6.887 0 10.351-3.88 10.351-9.58a10.143 10.143 0 00-2.323-6.56c-1.915-2.41-5.053-3.18-8.68-3.18h-9.211v30.73h5.991V20.02zM185.22.7h-16.991v30.73h16.994v-5.18h-11V17.9h10.6v-5.18h-10.6V5.91h11V.7zm10.594 4.85h1.842c3.871 0 5.787 1.55 5.787 4.6 0 3.14-1.956 4.69-5.869 4.69h-1.752V5.55zm6.806 12.92c4.686-.94 7.009-3.83 7.009-8.68 0-5.34-3.5-9.09-10.881-9.09h-8.922v30.73h5.991V19.08h.774l8.314 12.35h7.376zm20.048 1.63l4.488-11.05 4.32 11.05h-8.8zm13.288 11.33h6.439L229.436.05h-4.48L211.63 31.43h6.357l2.812-6.48h12.552z" fill-rule="evenodd"/></svg><svg width="145.88" height="18.08" viewBox="-1 -1 289.75 34.15" y="87.23" xmlns="http://www.w3.org/2000/svg"><path data-name="luminosidad" d="M.012.7v30.73h15.446v-5.18H6.006V.7H.015zm17.727 0v18.79c0 8.59 5.134 12.63 12.348 12.63s12.348-4.04 12.348-12.63V.7h-5.991v17.6c0 2.08-.081 4-.937 5.46a6.225 6.225 0 01-5.42 2.9 5.743 5.743 0 01-5.42-2.9c-.856-1.46-.938-3.38-.938-5.46V.7h-5.99zm34.923 30.73L55.8 12.52l8.15 19.27h1.631l8.476-19.27 2.731 18.91h6.031L77.725.13h-4.119l-8.762 20.13L56.49.13h-4.116l-5.706 31.3h5.991zM87.054.7v30.73h5.991V.7h-5.991zm17.808 30.73V10.64l18.706 21.4h4.157V.7h-5.991v20.7L102.988.01h-4.117v31.42h5.991zm33.537-15.49a10.252 10.252 0 1120.5 0c0 5.62-4.605 10.72-10.311 10.72-5.665 0-10.189-4.69-10.189-10.72zm-6.154 0a16.425 16.425 0 0032.847 0c0-8.88-7.335-15.93-16.5-15.93a16.15 16.15 0 00-16.347 15.93zm55.259-12.35a13.233 13.233 0 00-9.007-3.42c-5.583 0-9.577 3.91-9.577 8.96 0 4 1.793 6.2 7.58 8.28 5.135 1.87 5.95 2.81 5.95 4.97 0 2.53-2.078 4.32-4.768 4.32a6.937 6.937 0 01-6.48-4.12l-3.871 3.75c2.69 3.87 6.194 5.83 10.555 5.83 6.317 0 10.718-4.16 10.718-10.11 0-4.19-1.63-6.92-8.843-9.57-3.709-1.35-4.687-2.16-4.687-3.83 0-2 2-3.43 4.32-3.43a6.734 6.734 0 015.012 2.45zM192.677.7v30.73h5.991V.7h-5.991zm17.808 5.21h1.59c3.871 0 6.683.78 8.639 2.82a10.332 10.332 0 012.935 7.33 10.61 10.61 0 01-2.527 6.93c-1.956 2.32-4.972 3.26-9.047 3.26h-1.59V5.91zm-5.99 25.52h8.721c10.27 0 16.586-6.97 16.586-15.41 0-8.6-6.316-15.32-16.5-15.32h-8.8v30.73zm35.82-11.33l4.482-11.05 4.32 11.05h-8.8zM253.6 31.43h6.439L247.08.05h-4.483L229.27 31.43h6.358l2.812-6.48h12.552zm14.832-25.52h1.589c3.872 0 6.684.78 8.64 2.82a10.331 10.331 0 012.934 7.33 10.609 10.609 0 01-2.526 6.93c-1.957 2.32-4.972 3.26-9.048 3.26h-1.589V5.91zm-5.991 25.52h8.721c10.27 0 16.587-6.97 16.587-15.41 0-8.6-6.317-15.32-16.5-15.32h-8.8v30.73z" fill-rule="evenodd"/></svg><svg width="196.23" height="50.65" viewBox="-1 -1 390.47 99.29" xmlns="http://www.w3.org/2000/svg"><path data-name="nuevo LIFTACTIV ampollas PEPTIDE-C" d="M3.692 19.35V6.56l11.511 13.16h2.558V.44h-3.686v12.74L2.544.01H.011v19.34h3.686zM21.344.44V12c0 5.29 3.16 7.77 7.6 7.77s7.6-2.48 7.6-7.77V.44h-3.686v10.83a6.732 6.732 0 01-.577 3.36 3.825 3.825 0 01-3.335 1.78 3.53 3.53 0 01-3.336-1.78 6.732 6.732 0 01-.577-3.36V.44h-3.689zm29.264 0H40.151v18.91h10.458v-3.19h-6.771v-5.14h6.52V7.84h-6.52V3.65h6.771V.44zm.675 0l8.05 19.38h1.956l8.2-19.38h-4.013l-5.115 12.71L55.32.44h-4.036zm21.591 9.38a6.309 6.309 0 1112.614 0 6.584 6.584 0 01-6.345 6.59 6.377 6.377 0 01-6.268-6.59zm-3.787 0A10.111 10.111 0 1079.143.01a9.858 9.858 0 00-10.055 9.81zM1.999 25.59v30.87h9.783v-1.84H3.964V25.59H1.999zm13.345 0v30.87h1.965V25.59h-1.965zm21.533 0H24.434v30.87h1.965V40.45h10.152v-1.84H26.399V27.48h10.479v-1.89zm19.528 1.89v-1.89h-17.97v1.89h7.942v28.98h2.006V27.48h8.023zm21.411 28.98h2.251L67.214 24.69 54.237 56.46h2.251l4.094-10.15h13.14zm-16.5-11.99l5.895-14.62 5.772 14.62H61.32zm45.85-15.31a15.673 15.673 0 00-10.357-4.02 16.268 16.268 0 00-16.006 15.97c0 8.43 7.369 15.84 16.088 15.84a16.573 16.573 0 0010.275-3.81v-2.7a13.8 13.8 0 01-10.4 4.67 14.321 14.321 0 01-13.918-13.92c0-7.57 6.509-14.16 13.877-14.16a13.478 13.478 0 0110.439 4.91v-2.78zm19.815-1.68v-1.89h-17.97v1.89h7.941v28.98h2.006V27.48h8.023zm3.563-1.89v30.87h1.965V25.59h-1.965zm5.527 0l11.3 32.1 11.012-32.1h-2.17l-8.842 26.04-9.087-26.04h-2.211zm44.254 19.49l4.5-11.09 4.339 11.09h-8.842zm13.345 11.38h6.474l-13.018-31.52h-4.5l-13.385 31.52h6.385l2.825-6.51h12.603zm13.266 0l3.152-18.99 8.187 19.36h1.637l8.515-19.36 2.743 18.99h6.058l-5.117-31.44h-4.134l-8.8 20.22-8.391-20.22h-4.135l-5.731 31.44h6.024zm40.57-25.63h2.088c4.175 0 6.017 1.35 6.017 4.55 0 2.94-1.883 4.42-5.649 4.42h-2.456v-8.97zm0 14.17h3.889c6.918 0 10.4-3.89 10.4-9.62a10.179 10.179 0 00-2.333-6.59c-1.924-2.42-5.076-3.2-8.719-3.2h-9.252v30.87h6.018V45zm22.107-4.1a10.3 10.3 0 1120.591 0c0 5.65-4.626 10.77-10.357 10.77-5.686 0-10.23-4.71-10.23-10.77zm-6.181 0a16.5 16.5 0 0032.994 0c0-8.92-7.369-16-16.579-16a16.22 16.22 0 00-16.411 16zm37.295-15.31v30.87h15.517v-5.2h-9.5V25.59h-6.018zm18.463 0v30.87h15.515v-5.2h-9.5V25.59h-6.011zm27.714 19.49l4.5-11.09 4.339 11.09h-8.842zm13.345 11.38h6.468L353.7 24.94h-4.5l-13.386 31.52h6.386l2.824-6.51h12.608zm27.1-27.96a13.3 13.3 0 00-9.047-3.44c-5.608 0-9.619 3.93-9.619 9.01 0 4.01 1.8 6.22 7.614 8.31 5.157 1.88 5.976 2.82 5.976 4.99 0 2.54-2.088 4.34-4.789 4.34a6.962 6.962 0 01-6.509-4.13l-3.889 3.76c2.7 3.89 6.222 5.86 10.6 5.86 6.345 0 10.766-4.18 10.766-10.16 0-4.21-1.637-6.96-8.883-9.62-3.725-1.35-4.707-2.17-4.707-3.84 0-2.01 2.006-3.44 4.339-3.44a6.779 6.779 0 015.035 2.45zM7.397 70.95h2.088c4.175 0 6.017 1.35 6.017 4.55q0 4.425-5.649 4.42H7.397v-8.97zm0 14.17h3.889c6.918 0 10.4-3.89 10.4-9.62a10.18 10.18 0 00-2.334-6.59c-1.924-2.42-5.076-3.2-8.719-3.2H1.382v30.87h6.017V85.12zM41.99 65.71H24.92v30.87h17.07v-5.2H30.944v-8.39h10.643v-5.2H30.944v-6.84h11.053v-5.24zm10.645 5.24h2.088c4.175 0 6.017 1.35 6.017 4.55q0 4.425-5.649 4.42h-2.447v-8.97zm0 14.17h3.889c6.918 0 10.4-3.89 10.4-9.62a10.179 10.179 0 00-2.333-6.59c-1.924-2.42-5.076-3.2-8.719-3.2H46.62v30.87h6.024V85.12zm27.183-14.17h6.959v-5.24h-19.9v5.24h6.919v25.63h6.017V70.95zm9.581-5.24v30.87h6.017V65.71h-6.017zm17.889 5.24h1.6c3.889 0 6.713.78 8.678 2.83a10.387 10.387 0 012.948 7.37 10.678 10.678 0 01-2.539 6.96c-1.964 2.33-4.994 3.27-9.087 3.27h-1.6V70.95zm-6.017 25.63h8.76c10.316 0 16.661-7 16.661-15.47 0-8.64-6.345-15.4-16.579-15.4h-8.842v30.87zm46.832-30.87h-17.059v30.87h17.07v-5.2h-11.057v-8.39H147.7v-5.2h-10.643v-6.84h11.052v-5.24zm1.066 22.56h10.4V83.6h-10.4v4.67zm35.042-21.37a16.52 16.52 0 00-7.532-1.88 16.208 16.208 0 00-16.333 16.29 15.962 15.962 0 0016.298 15.97 18.234 18.234 0 007.573-1.81v-7.08a10.4 10.4 0 01-7.45 3.4 10.151 10.151 0 01-10.234-10.52c0-6.1 4.421-10.77 10.111-10.77a10.641 10.641 0 017.573 3.52V66.9z" fill-rule="evenodd"/></svg><svg width="195.23" height="18.5" viewBox="-1 -1 388.47 35" y="50.65" xmlns="http://www.w3.org/2000/svg"><path data-name="LIFTACTIV ampollas" d="M0 .902v30.865h9.783v-1.842H1.965V.902H0zm13.345 0v30.865h1.965V.902h-1.966zm21.533 0H22.434v30.865h1.965V15.761h10.152v-1.842H24.399V2.788h10.479V.905zm19.528 1.883V.902H36.435v1.886h7.942V31.77h2.006V2.788h8.023zm21.411 28.982h2.251L65.215.001 52.238 31.767h2.251l4.094-10.152h13.14zm-16.5-11.994l5.895-14.614 5.772 14.614H59.32zm45.85-15.31A15.71 15.71 0 0094.81.451a16.264 16.264 0 00-16.006 15.965c0 8.433 7.369 15.842 16.088 15.842a16.581 16.581 0 0010.275-3.807v-2.7a13.8 13.8 0 01-10.4 4.666 14.316 14.316 0 01-13.913-13.919c0-7.573 6.509-14.164 13.877-14.164a13.5 13.5 0 0110.439 4.913V4.463zm19.815-1.678V.902h-17.97v1.886h7.941V31.77h2.006V2.788h8.023zm3.563-1.883v30.865h1.965V.902h-1.966zm5.527 0l11.3 32.093L156.384.902h-2.17l-8.842 26.035L136.285.902h-2.211zm44.257 19.486l4.5-11.093 4.339 11.093h-8.842zm13.345 11.38h6.47L185.126.248h-4.5l-13.385 31.52h6.385l2.825-6.509h12.603zm13.266 0l3.152-18.994 8.187 19.363h1.637l8.515-19.363 2.743 18.994h6.058L230.115.33h-4.134l-8.8 20.222L208.79.33h-4.135l-5.731 31.438h6.02zm40.57-25.625h2.088c4.175 0 6.017 1.35 6.017 4.543q0 4.422-5.649 4.421h-2.456V6.143zm0 14.163h3.889c6.918 0 10.4-3.889 10.4-9.62a10.19 10.19 0 00-2.333-6.59c-1.924-2.415-5.076-3.193-8.719-3.193h-9.252v30.865h6.018V20.305zm22.107-4.093a10.3 10.3 0 1120.591 0c0 5.649-4.626 10.766-10.357 10.766-5.69-.001-10.234-4.709-10.234-10.767zm-6.181 0a16.5 16.5 0 0032.994 0c0-8.924-7.369-16.006-16.579-16.006a16.225 16.225 0 00-16.415 16.005zM298.731.903v30.865h15.513v-5.2h-9.5V.902h-6.018zm18.463 0v30.865h15.515v-5.2h-9.5V.902h-6.015zm27.714 19.485l4.5-11.093 4.339 11.093h-8.842zm13.345 11.38h6.468L351.704.248h-4.5l-13.386 31.52h6.386l2.824-6.509h12.608zm27.1-27.959a13.287 13.287 0 00-9.047-3.438c-5.608 0-9.619 3.929-9.619 9.005 0 4.012 1.8 6.223 7.614 8.31 5.157 1.883 5.976 2.825 5.976 4.994 0 2.538-2.088 4.34-4.789 4.34a6.962 6.962 0 01-6.509-4.135l-3.889 3.766c2.7 3.889 6.222 5.854 10.6 5.854 6.345 0 10.766-4.175 10.766-10.152 0-4.216-1.637-6.959-8.883-9.62-3.725-1.351-4.707-2.169-4.707-3.848 0-2.006 2.006-3.438 4.339-3.438a6.759 6.759 0 015.035 2.456z" fill-rule="evenodd"/></svg><svg width="93.42" height="18.13" viewBox="-1 -1 184.84 34.25" x="196.23" xmlns="http://www.w3.org/2000/svg"><path data-name="PEPTIDE-C" d="M6.028 5.932h2.088c4.175 0 6.017 1.35 6.017 4.543q0 4.422-5.649 4.421H6.028V5.932zm0 14.163h3.889c6.918 0 10.4-3.889 10.4-9.62a10.19 10.19 0 00-2.334-6.59C16.059 1.47 12.907.692 9.264.692H.013v30.865H6.03V20.095zM40.621.695h-17.07V31.56h17.07v-5.2H29.569v-8.391h10.643v-5.2H29.569V5.933h11.053V.693zm10.645 5.24h2.088c4.175 0 6.017 1.35 6.017 4.543q0 4.422-5.649 4.421h-2.453V5.935zm0 14.163h3.889c6.918 0 10.4-3.889 10.4-9.62a10.19 10.19 0 00-2.333-6.59C61.298 1.473 58.146.695 54.503.695h-9.252V31.56h6.018V20.095zM78.449 5.935h6.959V.695h-19.9v5.24h6.919V31.56h6.017V5.932zM88.03.695V31.56h6.017V.692H88.03zm17.889 5.24h1.6c3.889 0 6.713.777 8.678 2.824a10.4 10.4 0 012.948 7.369 10.655 10.655 0 01-2.539 6.959c-1.964 2.333-4.994 3.274-9.087 3.274h-1.6V5.932zM99.902 31.56h8.76c10.316 0 16.661-7 16.661-15.473 0-8.638-6.345-15.392-16.579-15.392h-8.842V31.56zM146.734.695h-17.065V31.56h17.07v-5.2h-11.057v-8.391h10.643v-5.2h-10.643V5.933h11.052V.693zM147.8 23.25h10.4v-4.666h-10.4v4.666zm35.042-21.368a16.537 16.537 0 00-7.532-1.883 16.213 16.213 0 00-16.333 16.292 15.956 15.956 0 0016.292 15.962 18.263 18.263 0 007.573-1.8v-7.084a10.393 10.393 0 01-7.45 3.4 10.154 10.154 0 01-10.234-10.521c0-6.1 4.421-10.766 10.111-10.766a10.627 10.627 0 017.573 3.521V1.879z" fill-rule="evenodd"/></svg><svg width="138.97" height="16.88" viewBox="-1 -1 275.94 31.75" y="105.31" xmlns="http://www.w3.org/2000/svg"><path d="M22.275 3.525a13.769 13.769 0 00-8.2-2.709A14.253 14.253 0 00-.008 14.827a14.078 14.078 0 0022.28 11.519v-3.758a11.79 11.79 0 01-8.2 3.574 11.232 11.232 0 010-22.46 11.855 11.855 0 018.2 3.575V3.522zm2.709 11.23A14.156 14.156 0 1039.175.816a14.24 14.24 0 00-14.192 13.939zm3.069 0a11.089 11.089 0 1111.014 11.41 11.311 11.311 0 01-11.015-11.41zm32.822 13.758V7.533l21.2 22.207V1.288h-3.034v21.088L57.809.132v28.383h3.066zm48.243-24.988a13.766 13.766 0 00-8.2-2.709 14.252 14.252 0 00-14.082 14.011 14.077 14.077 0 0022.279 11.519v-3.758a11.788 11.788 0 01-8.2 3.574 11.232 11.232 0 010-22.46 11.854 11.854 0 018.2 3.575V3.522zm18.6-2.239h-14.119v27.227h14.119V25.66h-11.05V15.044h10.725v-2.856h-10.725V4.099h11.05V1.288zm7.547 27.227V7.533l21.2 22.207V1.288h-3.034v21.088L132.199.132v28.383h3.069zm40.444-24.411V1.288H159.46v2.816h6.608v24.411h3.033V4.102h6.608zm10.111 12.242a7.181 7.181 0 006.825-7.4c0-4.694-2.817-7.655-9.533-7.655h-4.405v27.227h3.068V16.56h.758l8.233 11.953h3.683zm-4.045-12.242h1.805c4.045 0 6.067 1.625 6.067 4.839s-2.1 4.947-5.994 4.947h-1.878V4.102zm34.521 24.411h3.322L207.234-.012l-12.386 28.527h3.327l3.286-7.692h11.555zm-13.612-10.545l4.55-10.9 4.55 10.9h-9.1zm19.644 10.545h5.525a18.057 18.057 0 006.211-.9 13.88 13.88 0 004.767-22.352 12.993 12.993 0 00-4.659-3.033 18.8 18.8 0 00-6.247-.939h-5.6v27.227zm3.07-24.411h2.636c3.647 0 6.5 1.047 8.522 3.142a10.511 10.511 0 013 7.655 10.314 10.314 0 01-3.033 7.619c-2.059 2.131-4.875 3.142-8.486 3.142h-2.636V4.102zm20.222 10.653A14.156 14.156 0 10259.811.816a14.24 14.24 0 00-14.191 13.939zm3.069 0a11.088 11.088 0 1111.014 11.41 11.311 11.311 0 01-11.014-11.41z" fill-rule="evenodd"/></svg><svg width="103.61" height="16.09" viewBox="-1 -1 205.22 30.19" y="156.52" xmlns="http://www.w3.org/2000/svg"><path data-name="superdosis" d="M16.027 4.275a7.661 7.661 0 00-7-4.261c-4.3 0-7.656 2.961-7.656 7.041 0 3.07 1.517 4.8 5.525 6.681l2.455 1.155c3.4 1.589 4.586 2.745 4.586 5.092a5.432 5.432 0 01-5.452 5.38c-2.961 0-4.8-1.7-5.561-5.019l-2.925.83c.975 4.37 4.008 7.006 8.378 7.006a8.5 8.5 0 008.666-8.378c0-3.5-1.806-5.489-6.175-7.475l-2.564-1.155c-2.563-1.156-3.863-2.456-3.863-4.081a4.271 4.271 0 014.513-4.188c2.095 0 3.359.722 4.658 2.961zM21.48.483v17.514c0 2.816.578 5.272 2.383 7.149a10.373 10.373 0 0014.661 0c1.913-1.986 2.383-4.549 2.383-7.149V.483h-3.069v16.683c0 2.2-.037 4.261-1.264 5.742a7.051 7.051 0 01-5.381 2.455 7.2 7.2 0 01-5.38-2.455c-1.228-1.481-1.264-3.539-1.264-5.742V.483H21.48zM49.935 27.71V15.794h2.64c5.272 0 8.63-2.925 8.63-7.655 0-4.839-3.358-7.656-9.388-7.656H46.87V27.71h3.069zm0-24.41h2.24c4.008 0 6.03 1.625 6.03 4.8s-2.094 4.91-5.814 4.91h-2.456V3.297zM78.571.483H64.452V27.71h14.123v-2.852h-11.05V14.241H78.25v-2.852H67.521V3.3h11.054V.483zm11.592 15.058a7.18 7.18 0 006.824-7.4c0-4.695-2.816-7.656-9.533-7.656h-4.405v27.227h3.069V15.758h.757l8.233 11.952h3.683zM86.118 3.3h1.806c4.044 0 6.066 1.625 6.066 4.839s-2.094 4.947-5.994 4.947h-1.878V3.3zm16.358 24.41h5.525a18.057 18.057 0 006.211-.9 13.88 13.88 0 004.767-22.352 12.993 12.993 0 00-4.659-3.033 18.8 18.8 0 00-6.247-.939h-5.6v27.227zm3.07-24.41h2.636c3.647 0 6.5 1.047 8.522 3.141a10.513 10.513 0 013 7.656 10.314 10.314 0 01-3.036 7.622c-2.059 2.13-4.875 3.142-8.486 3.142h-2.636V3.3zm20.222 10.652A14.156 14.156 0 10139.959.019a14.24 14.24 0 00-14.191 13.933zm3.069 0a11.088 11.088 0 1111.014 11.411 11.311 11.311 0 01-11.014-11.411zm44.308-9.677a7.662 7.662 0 00-7.006-4.261c-4.3 0-7.655 2.961-7.655 7.041 0 3.07 1.517 4.8 5.525 6.681l2.455 1.155c3.395 1.589 4.586 2.745 4.586 5.092a5.432 5.432 0 01-5.452 5.38c-2.961 0-4.8-1.7-5.561-5.019l-2.925.83c.975 4.37 4.008 7.006 8.377 7.006a8.5 8.5 0 008.667-8.378c0-3.5-1.806-5.489-6.175-7.475l-2.564-1.155c-2.564-1.156-3.864-2.456-3.864-4.081a4.271 4.271 0 014.514-4.188c2.095 0 3.358.722 4.658 2.961zm5.489-3.792V27.71h3.069V.483h-3.069zm23.58 3.792a7.662 7.662 0 00-7.006-4.261c-4.3 0-7.655 2.961-7.655 7.041 0 3.07 1.517 4.8 5.525 6.681l2.455 1.155c3.395 1.589 4.586 2.745 4.586 5.092a5.432 5.432 0 01-5.452 5.38c-2.961 0-4.8-1.7-5.561-5.019l-2.925.83c.975 4.37 4.008 7.006 8.378 7.006a8.5 8.5 0 008.666-8.378c0-3.5-1.806-5.489-6.175-7.475l-2.564-1.155c-2.564-1.156-3.863-2.456-3.863-4.081a4.271 4.271 0 014.513-4.188c2.095 0 3.358.722 4.658 2.961z" fill-rule="evenodd"/></svg><svg width="96.28" height="16.19" viewBox="-1 -1 190.56 30.38" y="172.61" xmlns="http://www.w3.org/2000/svg"><path data-name="anti-edad" d="M9.789 17.797l3.972-9.786 3.827 9.786h-7.8zM21.56 27.835h5.706L15.783.035h-3.972L.003 27.835h5.633l2.492-5.741h11.121zm13.145 0V9.419L51.28 28.377h3.683V.608h-5.308v18.344L33.044-.006h-3.647v27.841h5.309zm33.944-22.6h6.139V.613H57.239v4.622h6.1v22.6h5.308v-22.6zM77.1.613V27.84h5.306V.608h-5.308zm7.33 19.9h9.176v-4.117h-9.172v4.117zm26.288-19.9H95.66V27.84h15.058v-4.586h-9.749v-7.41h9.388v-4.586h-9.388V5.227h9.749V.605zm9.389 4.622h1.409c3.43 0 5.922.687 7.655 2.492a9.171 9.171 0 012.6 6.5 9.4 9.4 0 01-2.239 6.138c-1.733 2.059-4.4 2.889-8.016 2.889h-1.41V5.23zm-5.308 22.6h7.728c9.1 0 14.7-6.175 14.7-13.649 0-7.62-5.6-13.578-14.624-13.578h-7.8v27.227zm31.742-10.038l3.972-9.786 3.827 9.786h-7.8zm11.771 10.038h5.706L152.535.035h-3.972l-11.808 27.8h5.633l2.492-5.741h11.126zm13.145-22.6h1.408c3.431 0 5.922.687 7.656 2.492a9.171 9.171 0 012.6 6.5 9.4 9.4 0 01-2.239 6.138c-1.733 2.059-4.406 2.889-8.017 2.889h-1.408V5.23zm-5.308 22.6h7.728c9.1 0 14.7-6.175 14.7-13.649 0-7.62-5.6-13.578-14.624-13.578h-7.8v27.227z" fill-rule="evenodd"/></svg><svg width="83.28" height="16.81" viewBox="-1 -1 164.56 31.62" x="196.23" y="18.13" xmlns="http://www.w3.org/2000/svg"><path data-name="Con 10%" d="M22.275 3.399a13.769 13.769 0 00-8.2-2.709A14.253 14.253 0 00-.008 14.701a14.078 14.078 0 0022.28 11.519v-3.758a11.79 11.79 0 01-8.2 3.574 11.232 11.232 0 010-22.46 11.855 11.855 0 018.2 3.575V3.396zm2.709 11.23A14.156 14.156 0 1039.175.69a14.24 14.24 0 00-14.192 13.939zm3.069 0a11.089 11.089 0 1111.014 11.41 11.311 11.311 0 01-11.015-11.41zm32.822 13.758V7.407l21.2 22.207V1.162h-3.034V22.25L57.809.006v28.383h3.066zm44.091 0h3.069V1.162h-5.994l-1.589 2.816h4.514v24.411zm10-13.578c0 8.089 4.225 14.011 9.713 14.011s9.75-5.922 9.75-14.011S130.175.762 124.684.762s-9.709 5.959-9.709 14.047zm2.961 0c0-6.427 2.853-11.266 6.752-11.266s6.789 4.839 6.789 11.266-2.889 11.23-6.789 11.23-6.747-4.802-6.747-11.23zm22.713 13.18l1.589.9 15.852-27.371-1.588-.9zm9.822-5.236a6.05 6.05 0 0012.1 0 6.049 6.049 0 10-12.095 0zm2.347 0a3.684 3.684 0 113.684 3.684 3.7 3.7 0 01-3.679-3.684zm-16.718-15.96a6.05 6.05 0 0012.1 0 6.048 6.048 0 10-12.095 0zm2.347 0a3.683 3.683 0 113.683 3.683 3.7 3.7 0 01-3.678-3.683z" fill-rule="evenodd"/></svg><svg width="134.38" height="16.27" viewBox="-1 -1 266.75 30.53" y="122.19" xmlns="http://www.w3.org/2000/svg"><path data-name="de vitamina c" d="M5.322 5.23h1.409c3.43 0 5.922.687 7.655 2.492a9.171 9.171 0 012.6 6.5 9.4 9.4 0 01-2.239 6.138c-1.733 2.059-4.405 2.889-8.016 2.889H5.322V5.23zM.012 27.835H7.74c9.1 0 14.7-6.175 14.7-13.649 0-7.62-5.6-13.578-14.625-13.578h-7.8v27.227zM41.323.608H26.267v27.227h15.058v-4.586h-9.75v-7.405h9.388v-4.586h-9.388V5.227h9.75V.605zm11.05 0l11.591 27.913h2.817L78.588.608h-5.776l-7.367 18.308L58.187.608h-5.813zm28.311 0v27.227h5.308V.608h-5.308zM99.677 5.23h6.139V.608H88.269V5.23h6.1v22.605h5.308V5.23zm13.687 12.567l3.972-9.786 3.828 9.786h-7.8zm11.772 10.038h5.7L119.353.035h-3.972l-11.808 27.8h5.639l2.492-5.741h11.122zm11.7 0l2.78-16.755 7.222 17.08h1.445l7.511-17.08 2.419 16.755h5.344L159.044.103h-3.648l-7.761 17.841-7.4-17.838h-3.647l-5.055 27.732h5.308zM167.312.608v27.227h5.309V.608h-5.309zm15.781 27.227V9.419l16.574 18.958h3.683V.608h-5.308v18.344L181.434-.006h-3.647v27.841h5.309zm32.282-10.038l3.972-9.786 3.828 9.786h-7.8zm11.772 10.038h5.706L221.37.035h-3.973l-11.807 27.8h5.633l2.491-5.741h11.122zm37.591-26.179a14.578 14.578 0 00-6.644-1.662 14.3 14.3 0 00-14.408 14.372 14.075 14.075 0 0014.372 14.083 16.112 16.112 0 006.68-1.589v-6.247a9.171 9.171 0 01-6.572 3 8.956 8.956 0 01-9.027-9.28c0-5.38 3.9-9.5 8.919-9.5a9.374 9.374 0 016.68 3.106V1.656z" fill-rule="evenodd"/></svg><svg width="188.66" height="18.08" viewBox="-1 -1 375.31 34.16" y="69.15" xmlns="http://www.w3.org/2000/svg"><path data-name="Rellena arrugas" d="M6.006 5.54H7.84c3.871 0 5.787 1.549 5.787 4.605 0 3.138-1.956 4.687-5.869 4.687H6.006V5.54zm6.806 12.919c4.686-.937 7.009-3.831 7.009-8.68 0-5.339-3.5-9.088-10.881-9.088H.015v30.728h5.991V19.07h.774l8.314 12.349h7.376zM42.312.691H25.318v30.728h16.994v-5.176h-11v-8.349h10.6v-5.176H31.306V5.912h11V.694zm4.6 0v30.728h15.446v-5.176h-9.452V.694h-5.991zm18.378 0v30.728h15.446v-5.176h-9.455V.694H65.29zm35.372 0H83.671v30.728h16.994v-5.176h-11v-8.349h10.6v-5.176h-10.6V5.912h11V.694zm10.594 30.728V10.634l18.706 21.4h4.157V.694h-5.991v20.7l-18.743-21.4h-4.117v31.421h5.991zm36.434-11.325l4.482-11.044 4.32 11.044h-8.8zm13.285 11.33h6.439L154.455.044h-4.483l-13.327 31.38h6.361l2.812-6.48h12.552zm27.749-11.33l4.483-11.044 4.32 11.044h-8.8zm13.286 11.33h6.439L195.49.044h-4.484l-13.327 31.38h6.358l2.812-6.48h12.557zm14.832-25.879h1.834c3.871 0 5.787 1.549 5.787 4.605 0 3.138-1.956 4.687-5.869 4.687h-1.752V5.545zm6.806 12.919c4.686-.937 7.009-3.831 7.009-8.68 0-5.339-3.5-9.088-10.881-9.088h-8.925v30.728h5.991V19.07h.774l8.314 12.349h7.376zm18.5-12.919h1.834c3.872 0 5.787 1.549 5.787 4.605 0 3.138-1.956 4.687-5.868 4.687h-1.753V5.545zm6.806 12.919c4.687-.937 7.01-3.831 7.01-8.68 0-5.339-3.5-9.088-10.882-9.088h-8.924v30.728h5.99V19.07h.775l8.313 12.349h7.377zM261.136.694v18.787c0 8.6 5.135 12.633 12.348 12.633s12.348-4.034 12.348-12.633V.694h-5.99v17.6c0 2.078-.082 3.994-.938 5.461a6.221 6.221 0 01-5.42 2.893 5.741 5.741 0 01-5.42-2.893c-.856-1.467-.937-3.383-.937-5.461V.694h-5.991zm46.09 19.439h7.213c-.448 4.075-3.872 6.52-8.028 6.52-5.787 0-10.107-4.523-10.107-10.473 0-6.032 4.32-10.718 10.107-10.718a8.9 8.9 0 018.028 4.564l5.216-2.812q-4.4-7.213-13.2-7.213c-9.5 0-16.3 6.846-16.3 16.179 0 9.21 6.847 15.934 16.138 15.934 8.681 0 15-5.705 15-16.26v-.9h-14.067v5.176zm24.735-.039l4.483-11.044 4.32 11.044h-8.8zm13.285 11.33h6.439L338.726.044h-4.483l-13.326 31.38h6.357l2.812-6.48h12.552zm26.977-27.835a13.226 13.226 0 00-9.007-3.423c-5.583 0-9.577 3.912-9.577 8.966 0 3.993 1.793 6.194 7.58 8.272 5.135 1.875 5.95 2.812 5.95 4.972 0 2.527-2.078 4.32-4.768 4.32a6.932 6.932 0 01-6.48-4.116l-3.871 3.749c2.69 3.872 6.194 5.828 10.555 5.828 6.317 0 10.718-4.157 10.718-10.107 0-4.2-1.63-6.928-8.843-9.577-3.709-1.345-4.687-2.16-4.687-3.83 0-2 2-3.424 4.32-3.424a6.731 6.731 0 015.013 2.445z" fill-rule="evenodd"/></svg></svg>