<svg width="86" height="57" xmlns="http://www.w3.org/2000/svg" xmlns:xlink="http://www.w3.org/1999/xlink"><svg width="42.49" height="25.5" viewBox="-1 -1 42.49 25.5" x="43.48" xmlns="http://www.w3.org/2000/svg"><g data-name="Layer 2"><path d="M36.66 16.74l-.5.48a2.28 2.28 0 000 3.19 2.3 2.3 0 003.18 0l.5-.49a2.25 2.25 0 10-3.18-3.18zM4.5 21.25v-.49a2.28 2.28 0 00-2.25-2.25A2.29 2.29 0 000 20.76v.49a2.27 2.27 0 002.25 2.25 2.29 2.29 0 002.25-2.25zM18.25 4.5c2.9 0 2.9-4.5 0-4.5s-2.9 4.5 0 4.5z" data-name="Layer 4" fill="#fff"/></g></svg><svg width="43.48" height="28.49" viewBox="-1 -1 43.48 28.49" xmlns="http://www.w3.org/2000/svg"><g data-name="Layer 2"><path d="M4.5 24.24v-.51a2.27 2.27 0 00-2.25-2.25A2.29 2.29 0 000 23.73v.51a2.27 2.27 0 002.25 2.25 2.29 2.29 0 002.25-2.25zm7.66-20.41l.5.51a2.26 2.26 0 003.18 0 2.29 2.29 0 000-3.18l-.5-.51a2.27 2.27 0 00-3.18 0 2.29 2.29 0 000 3.18zm25 17.4l.5.51a2.25 2.25 0 103.18-3.18l-.5-.52a2.25 2.25 0 10-3.18 3.19zm-17.41-1.9c2.9 0 2.9-4.5 0-4.5s-2.9 4.5 0 4.5z" data-name="Layer 4" fill="#fff"/></g></svg><svg width="39.42" height="28.5" viewBox="-1 -1 39.42 28.5" y="28.49" xmlns="http://www.w3.org/2000/svg"><g data-name="Layer 2"><path d="M32.92 2.25v.5a2.25 2.25 0 004.5 0v-.5a2.25 2.25 0 00-4.5 0zM2.17 26.5c2.9 0 2.9-4.5 0-4.5s-2.9 4.5 0 4.5zm15-14c2.9 0 2.9-4.5 0-4.5s-2.9 4.5 0 4.5z" data-name="Layer 4" fill="#fff"/></g></svg></svg>