<svg width="139" height="68" xmlns="http://www.w3.org/2000/svg" xmlns:xlink="http://www.w3.org/1999/xlink"><svg viewBox="-1 -1 69 34" width="69" height="34" y="34" xmlns="http://www.w3.org/2000/svg"><g data-name="Layer 2"><g data-name="Layer 1" fill="none" stroke="#ef5a24" stroke-linecap="round" stroke-linejoin="round" stroke-width="3"><path d="M49.77 6.43c0-4.23-2.64-4.93-4.56-4.93h-28.7c-2.88 0-15 2.47-15 14.56s12 14.44 15.13 14.44h28.45c1.92 0 4.68-.94 4.68-4.23zm0 12.33h12c1.08 0 3.72-.59 3.72-3.05a3.44 3.44 0 00-3.72-3.53h-12"/><path d="M20.35 1.5v9.86c0 3.88 5.53.24 5.53 4.11 0 4.35-5.53.59-5.53 4.23 0 2.58 2.16 2.23 3.6 2.23h6.85c1.32 0 2.76.47 2.76 2.23s-1.32 2.23-2.76 2.23h-8.53c-2.88 0-1.92 4.11-1.92 4.11"/></g></g></svg><svg viewBox="-1 -1 69 54" width="69" height="54" x="70" xmlns="http://www.w3.org/2000/svg"><g data-name="Layer 2"><g data-name="Layer 1" fill="none" stroke="#f4388e" stroke-linecap="round" stroke-linejoin="round" stroke-width="3"><path d="M14.67 50.5S1.5 40.76 1.5 34.12c0-4.64 3.25-7.58 6.66-7.58s6.51 3.56 6.51 3.56a8.48 8.48 0 016.67-3.56c3.56 0 6.5 3.56 6.5 8 0 5.76-13.17 15.96-13.17 15.96zm13.17-15.61L1.5 34.73m4.03 7.11l18.28.16"/><path d="M1.81 32.11C1.65 31.8 8 9.85 9.25 6.6s3.41-4.95 6.35-5.1m11.47 36.94l13 .16m12.26 11.9S65.5 40.76 65.5 34.12c0-4.64-3.25-7.58-6.66-7.58s-6.51 3.56-6.51 3.56a8.48 8.48 0 00-6.67-3.56c-3.56 0-6.5 3.56-6.5 8 0 5.76 13.17 15.96 13.17 15.96zM39.16 34.89l26.34-.16m-4.03 7.11L43.19 42"/><path d="M65.19 32.11C65.35 31.8 59 9.85 57.75 6.6s-3.41-4.95-6.35-5.1"/></g></g></svg><svg viewBox="-1 -1 70 34" width="70" height="34" xmlns="http://www.w3.org/2000/svg"><g data-name="Layer 2"><path d="M2 6.14C5.94 6.14 10 2 10 2s4 4.14 8.25 4.14S26.12 2 26.12 2s4.11 4 8 4 7.72-4 7.72-4 4.26 4.14 8.37 4.14S58 2 58 2s4.43 4.14 8 4.14M2 18.07c3.94 0 8-4.14 8-4.14s3.94 4.14 8.21 4.14 7.87-4.14 7.87-4.14 4.11 4 8 4 7.72-4 7.72-4 4.26 4.14 8.37 4.14S58 13.93 58 13.93s4.43 4.14 8 4.14M2 30c3.94 0 8-4.14 8-4.14S14 30 18.25 30s7.87-4.14 7.87-4.14 4.11 4 8 4 7.72-4 7.72-4S46.14 30 50.25 30 58 25.86 58 25.86 62.39 30 66 30" data-name="Layer 1" fill="none" stroke="#fc066b" stroke-linecap="round" stroke-linejoin="round" stroke-width="4"/></g></svg></svg>