<svg width="254" height="189" xmlns="http://www.w3.org/2000/svg" xmlns:xlink="http://www.w3.org/1999/xlink"><svg width="79.97" height="15.8" viewBox="-1 -1 157.93 29.6" x="171.49" y="64.8" xmlns="http://www.w3.org/2000/svg"><path d="M20.57 3.51a12.67 12.67 0 00-7.56-2.5 13.156 13.156 0 00-13 12.93 12.994 12.994 0 0020.56 10.64v-3.47a10.88 10.88 0 01-7.56 3.3 10.367 10.367 0 010-20.73 10.934 10.934 0 017.56 3.3V3.51zm2.5 10.37a13.066 13.066 0 1013.1-12.87 13.143 13.143 0 00-13.1 12.87zm2.84 0a10.233 10.233 0 1110.16 10.53 10.44 10.44 0 01-10.16-10.53zm29.46 12.7l2.47-17.5 8.43 18.53 8.6-18.5 2.33 17.47h2.87L76.17.01 66.3 21.24 56.67.01l-4.16 26.57h2.86zm32.37 0v-11h2.43c4.87 0 7.97-2.7 7.97-7.07 0-4.47-3.1-7.07-8.67-7.07h-4.56v25.14h2.83zm0-22.54h2.07c3.7 0 5.56 1.5 5.56 4.44s-1.93 4.53-5.36 4.53h-2.27V4.04zm19.97 11.3A6.615 6.615 0 00114 8.51c0-4.33-2.6-7.07-8.79-7.07h-4.07v25.14h2.83V15.54h.7l7.6 11.04h3.4zm-3.74-11.3h1.67c3.73 0 5.6 1.5 5.6 4.47s-1.93 4.57-5.53 4.57h-1.74V4.04zm31.87 22.54h3.06L127.47.24l-11.43 26.34h3.07l3.03-7.1h10.66zm-12.57-9.74l4.2-10.06 4.2 10.06h-8.4zm24.7-1.5a6.623 6.623 0 006.3-6.83c0-4.33-2.6-7.07-8.8-7.07h-4.06v25.14h2.83V15.54h.7l7.6 11.04h3.4zm-3.73-11.3h1.67c3.73 0 5.59 1.5 5.59 4.47s-1.93 4.57-5.53 4.57h-1.73V4.04z" fill="#fefefe" fill-rule="evenodd"/></svg><svg width="60.16" height="14.91" viewBox="-1 -1 118.31 27.81" x="177.39" y="43.75" xmlns="http://www.w3.org/2000/svg"><path d="M4.812 25.18V8.52l14.993 17.15h3.332V.55h-4.8v16.59L3.311-.01h-3.3v25.19h4.8zM27.805.55V15.6c0 6.9 4.116 10.13 9.9 10.13s9.9-3.23 9.9-10.13V.55h-4.8v14.11a8.744 8.744 0 01-.751 4.37 4.977 4.977 0 01-4.345 2.32 4.591 4.591 0 01-4.344-2.32 8.744 8.744 0 01-.751-4.37V.55h-4.8zm38.117 0H52.301v24.63h13.621v-4.15h-8.819v-6.7h8.492v-4.15h-8.492V4.73h8.819V.55zm.88 0L77.288 25.8h2.547L90.517.55h-5.229l-6.663 16.56L72.059.55H66.8zm28.123 12.21a8.217 8.217 0 1116.43 0 8.578 8.578 0 01-8.264 8.59 8.306 8.306 0 01-8.166-8.59zm-4.933 0a13.17 13.17 0 1013.1-12.77 12.846 12.846 0 00-13.104 12.77z" fill-rule="evenodd"/></svg><svg width="139.52" height="20.22" viewBox="-1 -1 277.04 38.44" y="105.32" xmlns="http://www.w3.org/2000/svg"><path data-name="y recupera" d="M11.97 35.66h6.79V19.7L31.02.79h-8.09l-7.4 12.12L7.99.79h-8L11.97 19.7v15.96zm41.1-29.37h2.08c4.4 0 6.57 1.76 6.57 5.23 0 3.56-2.22 5.32-6.66 5.32h-1.99V6.29zm7.73 14.66c5.31-1.06 7.95-4.34 7.95-9.85C68.75 5.05 64.77.79 56.4.79H46.28v34.87h6.79V21.65h.88l9.44 14.01h8.37zM94.27.79H74.99v34.87h19.28v-5.87H81.79v-9.48h12.02v-5.88H81.79V6.71h12.48V.79zm30.43 1.34a18.721 18.721 0 00-8.51-2.12 18.312 18.312 0 00-18.45 18.4 18.023 18.023 0 0018.4 18.03 20.64 20.64 0 008.56-2.03v-8a11.749 11.749 0 01-8.42 3.84c-6.56 0-11.56-5.09-11.56-11.89 0-6.89 5-12.16 11.42-12.16 3.06 0 5.92 1.34 8.56 3.98V2.13zm4.9-1.34v21.32c0 9.76 5.83 14.33 14.01 14.33s14.01-4.57 14.01-14.33V.79h-6.79v19.98c0 2.36-.1 4.53-1.07 6.2a7.057 7.057 0 01-6.15 3.28 6.514 6.514 0 01-6.15-3.28c-.97-1.67-1.06-3.84-1.06-6.2V.79h-6.8zm41.48 5.92h2.36c4.71 0 6.79 1.53 6.79 5.13 0 3.33-2.12 5-6.38 5h-2.77V6.71zm0 16h4.39c7.82 0 11.75-4.39 11.75-10.87a11.476 11.476 0 00-2.64-7.44c-2.17-2.73-5.73-3.61-9.85-3.61h-10.45v34.87h6.8V22.71zM210.15.79h-19.28v34.87h19.28v-5.87h-12.48v-9.48h12.02v-5.88h-12.02V6.71h12.48V.79zm12.02 5.5h2.08c4.4 0 6.57 1.76 6.57 5.23 0 3.56-2.22 5.32-6.66 5.32h-1.99V6.29zm7.73 14.66c5.31-1.06 7.95-4.34 7.95-9.85 0-6.05-3.98-10.31-12.35-10.31h-10.13v34.87h6.8V21.65h.88l9.43 14.01h8.37zm22.74 1.85l5.09-12.53 4.9 12.53h-9.99zm15.08 12.86h7.31L260.32.05h-5.09l-15.12 35.61h7.22l3.19-7.35h14.24z" fill-rule="evenodd"/></svg><svg width="165.25" height="20.25" viewBox="-1 -1 328.5 38.5" y="85.07" xmlns="http://www.w3.org/2000/svg"><path data-name="luminosidad" d="M-.01.79v34.87h17.53v-5.87H6.79v-29h-6.8zm20.12 0v21.32c0 9.76 5.82 14.33 14.01 14.33s14.01-4.57 14.01-14.33V.79h-6.8v19.98c0 2.36-.09 4.53-1.06 6.2a7.057 7.057 0 01-6.15 3.28 6.514 6.514 0 01-6.15-3.28c-.97-1.67-1.06-3.84-1.06-6.2V.79h-6.8zm39.63 34.87L63.3 14.2l9.25 21.87h1.85l9.61-21.87 3.1 21.46h6.85L88.18.14h-4.67l-9.95 22.85L64.08.14h-4.67l-6.47 35.52h6.8zM98.76.79v34.87h6.8V.79h-6.8zm20.21 34.87V12.07l21.23 24.28h4.71V.79h-6.8v23.49L116.84.01h-4.67v35.65h6.8zm38.05-17.57a11.633 11.633 0 1123.26 0c0 6.38-5.22 12.16-11.69 12.16-6.43 0-11.57-5.32-11.57-12.16zm-6.98 0a18.637 18.637 0 0037.27 0c0-10.08-8.32-18.08-18.72-18.08a18.326 18.326 0 00-18.55 18.08zm62.7-14.02A14.975 14.975 0 00202.52.19c-6.33 0-10.86 4.44-10.86 10.17 0 4.54 2.03 7.03 8.6 9.39 5.83 2.13 6.75 3.19 6.75 5.64 0 2.87-2.36 4.9-5.41 4.9a7.863 7.863 0 01-7.35-4.67l-4.4 4.26c3.06 4.39 7.03 6.61 11.98 6.61 7.17 0 12.16-4.72 12.16-11.47 0-4.76-1.85-7.86-10.03-10.86-4.21-1.53-5.32-2.46-5.32-4.35 0-2.27 2.27-3.89 4.9-3.89a7.647 7.647 0 015.69 2.78zm5.88-3.28v34.87h6.79V.79h-6.79zm20.2 5.92h1.81c4.39 0 7.58.88 9.8 3.19a11.737 11.737 0 013.33 8.33 12.036 12.036 0 01-2.87 7.86c-2.22 2.63-5.64 3.7-10.26 3.7h-1.81V6.71zm-6.8 28.95h9.9c11.65 0 18.82-7.91 18.82-17.48 0-9.76-7.17-17.39-18.73-17.39h-9.99v34.87zm40.65-12.86l5.09-12.53 4.9 12.53h-9.99zm15.08 12.86h7.3L280.35.05h-5.09l-15.12 35.61h7.21l3.19-7.35h14.25zm16.83-28.95h1.8c4.39 0 7.58.88 9.8 3.19a11.737 11.737 0 013.33 8.33 12.081 12.081 0 01-2.86 7.86c-2.22 2.63-5.65 3.7-10.27 3.7h-1.8V6.71zm-6.8 28.95h9.89c11.66 0 18.83-7.91 18.83-17.48 0-9.76-7.17-17.39-18.73-17.39h-9.99v34.87z" fill-rule="evenodd"/></svg><svg width="253.7" height="23.5" viewBox="-1 -1 505.41 45" xmlns="http://www.w3.org/2000/svg"><path data-name="LIFTACTIV ampollas" d="M.013 1.19v40.2h12.743v-2.4H2.572V1.19H.013zm17.383 0v40.2h2.56V1.19h-2.562zm28.048 0h-16.21v40.2h2.56V20.55h13.223v-2.4H31.794V3.64h13.65V1.19zm25.435 2.45V1.19H47.472v2.45h10.344v37.75h2.613V3.64h10.45zm27.889 37.75h2.932L84.958.02l-16.9 41.37h2.933l5.332-13.22h17.116zM77.28 25.77l7.678-19.03 7.518 19.03h-15.2zm59.721-19.94A20.448 20.448 0 00123.511.6c-11.037 0-20.848 9.39-20.848 20.8 0 10.98 9.6 20.63 20.955 20.63a21.62 21.62 0 0013.383-4.95v-3.52a17.989 17.989 0 01-13.543 6.07c-9.331 0-18.129-8.21-18.129-18.12 0-9.87 8.478-18.45 18.075-18.45a17.567 17.567 0 0113.6 6.4V5.83zm25.81-2.19V1.19h-23.407v2.45h10.344v37.75h2.613V3.64h10.45zm4.641-2.45v40.2h2.559V1.19h-2.559zm7.2 0l14.717 41.8 14.343-41.8h-2.826L189.369 35.1 177.532 1.19h-2.88zm57.643 25.38l5.865-14.45 5.652 14.45h-11.518zm17.382 14.82h8.425L241.146.34h-5.865l-17.437 41.05h8.318l3.679-8.47h16.423zm17.279 0l4.106-24.74 10.664 25.22h2.133l11.09-25.22 3.573 24.74h7.891L299.748.44h-5.385l-11.469 26.34L271.963.44h-5.385l-7.465 40.95h7.838zM319.8 8.02h2.72c5.438 0 7.838 1.76 7.838 5.91q0 5.76-7.359 5.76h-3.2V8.02zm0 18.44h5.066c9.011 0 13.543-5.06 13.543-12.53a13.285 13.285 0 00-3.039-8.58c-2.506-3.15-6.612-4.16-11.357-4.16h-12.052v40.2h7.838V26.46zm28.8-5.33a13.413 13.413 0 1126.82 0c0 7.36-6.025 14.03-13.49 14.03-7.417 0-13.336-6.14-13.336-14.03zm-8.052 0A20.967 20.967 0 00361.93 42.3c12.317 0 21.594-9.44 21.594-21.17 0-11.62-9.6-20.85-21.594-20.85a21.136 21.136 0 00-21.387 20.85zm48.579-19.94v40.2h20.208v-6.77h-12.37V1.19h-7.838zm24.049 0v40.2h20.208v-6.77h-12.37V1.19h-7.838zm36.1 25.38l5.866-14.45 5.652 14.45h-11.525zm17.383 14.82h8.424L458.128.34h-5.866l-17.435 41.05h8.318l3.679-8.47h16.422zm35.3-36.41A17.286 17.286 0 00490.175.5c-7.305 0-12.53 5.12-12.53 11.73 0 5.22 2.346 8.1 9.918 10.82 6.718 2.45 7.784 3.68 7.784 6.51 0 3.3-2.719 5.65-6.238 5.65-3.786 0-6.612-1.81-8.478-5.39l-5.065 4.91c3.519 5.06 8.1 7.62 13.809 7.62 8.265 0 14.024-5.43 14.024-13.22 0-5.49-2.133-9.06-11.571-12.53-4.852-1.76-6.132-2.83-6.132-5.01 0-2.61 2.613-4.48 5.652-4.48a8.817 8.817 0 016.559 3.2z" fill-rule="evenodd"/></svg><svg width="121.06" height="23.02" viewBox="-1 -1 240.13 44.03" y="165.74" xmlns="http://www.w3.org/2000/svg"><path d="M7.832 7.74h2.72c5.438 0 7.838 1.76 7.838 5.92q0 5.745-7.359 5.75h-3.2V7.74zm0 18.45h5.066c9.011 0 13.543-5.07 13.543-12.53a13.293 13.293 0 00-3.039-8.59C20.896 1.92 16.79.91 12.045.91H-.006v40.21h7.838V26.19zM52.89.91H30.656v40.21H52.89v-6.78h-14.4V23.41h13.863v-6.77H38.494v-8.9h14.4V.91zm13.866 6.83h2.719c5.439 0 7.838 1.76 7.838 5.92q0 5.745-7.358 5.75h-3.2V7.74zm0 18.45h5.065c9.011 0 13.544-5.07 13.544-12.53a13.288 13.288 0 00-3.04-8.59C79.819 1.92 75.714.91 70.968.91h-12.05v40.21h7.838V26.19zm35.407-18.45h9.065V.91H85.314v6.83h9.011v33.38h7.838V7.74zM114.642.91v40.21h7.838V.91h-7.838zm23.3 6.83h2.08c5.065 0 8.744 1.01 11.3 3.68a13.539 13.539 0 013.839 9.59 13.882 13.882 0 01-3.306 9.07c-2.56 3.04-6.5 4.26-11.837 4.26h-2.08V7.74zm-7.838 33.38h11.411c13.436 0 21.7-9.12 21.7-20.16 0-11.25-8.265-20.05-21.6-20.05h-11.509v40.21zm61-40.21h-22.229v40.21h22.234v-6.78h-14.4V23.41h13.866v-6.77h-13.864v-8.9h14.4V.91zm1.389 29.38h13.543v-6.08h-13.54v6.08zm45.643-27.83a21.575 21.575 0 00-9.811-2.45 21.118 21.118 0 00-21.275 21.22c0 11.57 9.225 20.79 21.222 20.79a23.874 23.874 0 009.864-2.34v-9.23c-2.933 2.93-6.185 4.43-9.7 4.43-7.572 0-13.33-5.87-13.33-13.71 0-7.94 5.758-14.02 13.17-14.02 3.519 0 6.825 1.55 9.864 4.59V2.46z" fill-rule="evenodd"/></svg><svg width="177.39" height="21.05" viewBox="-1 -1 352.78 40.1" y="43.75" xmlns="http://www.w3.org/2000/svg"><path data-name="Concentrado" d="M28.541 4.53a17.65 17.65 0 00-10.5-3.47A18.256 18.256 0 00.006 19.01a18.01 18.01 0 0018.035 18.12 18.2 18.2 0 0010.5-3.37v-4.81c-3.237 3.05-6.752 4.58-10.5 4.58a14.388 14.388 0 010-28.77 15.192 15.192 0 0110.5 4.58V4.53zm3.466 14.38A18.129 18.129 0 1050.181 1.06c-9.712 0-18.169 8.14-18.169 17.85zm3.931 0a14.2 14.2 0 1114.1 14.62 14.486 14.486 0 01-14.1-14.62zM77.97 36.53V9.67l27.145 28.44V1.67h-3.885v27L74.039.19v36.34h3.931zm61.778-32a17.653 17.653 0 00-10.5-3.47 18.256 18.256 0 00-18.034 17.95 18.01 18.01 0 0018.034 18.12 18.2 18.2 0 0010.5-3.37v-4.81c-3.237 3.05-6.752 4.58-10.5 4.58a14.388 14.388 0 010-28.77 15.193 15.193 0 0110.5 4.58V4.53zm23.814-2.86h-18.083v34.86h18.083v-3.65h-14.15v-13.6h13.732v-3.65h-13.732V5.27h14.152v-3.6zm9.66 34.86V9.67l27.15 28.44V1.67h-3.89v27L169.292.19v36.34h3.93zm51.79-31.26v-3.6h-20.81v3.6h8.46v31.26h3.89V5.27h8.46zm12.95 15.68a9.2 9.2 0 008.74-9.48c0-6.01-3.61-9.8-12.21-9.8h-5.64v34.86h3.93v-15.3h.97l10.54 15.3h4.72zm-5.18-15.68h2.31c5.18 0 7.77 2.08 7.77 6.2s-2.68 6.33-7.68 6.33h-2.4V5.27zm44.21 31.26h4.25L265.382 0l-15.86 36.53h4.25l4.21-9.85h14.8zm-17.44-13.5l5.83-13.97 5.83 13.97h-11.66zm25.16 13.5h7.07a23.343 23.343 0 007.96-1.15 17.021 17.021 0 006.01-3.93 18.027 18.027 0 00.09-24.7 16.59 16.59 0 00-5.97-3.88 23.979 23.979 0 00-8-1.2h-7.16v34.86zm3.93-31.26h3.37c4.67 0 8.33 1.34 10.92 4.03a13.461 13.461 0 013.83 9.8 13.211 13.211 0 01-3.88 9.76c-2.64 2.72-6.24 4.02-10.87 4.02h-3.37V5.27zm25.89 13.64a18.131 18.131 0 1018.17-17.85c-9.71 0-18.17 8.14-18.17 17.85zm3.93 0a14.2 14.2 0 1114.11 14.62 14.488 14.488 0 01-14.11-14.62z" fill-rule="evenodd"/></svg><svg width="132.13" height="20.03" viewBox="-1 -1 262.25 38.06" y="125.54" xmlns="http://www.w3.org/2000/svg"><path d="M20.541 5.45C18.46 1.8 15.454-.01 11.57-.01c-5.5 0-9.8 3.8-9.8 9.02 0 3.93 1.942 6.15 7.075 8.56l3.145 1.48c4.347 2.03 5.873 3.51 5.873 6.52a6.962 6.962 0 01-6.983 6.89c-3.792 0-6.151-2.18-7.122-6.43L.013 27.09c1.248 5.6 5.133 8.97 10.728 8.97a10.879 10.879 0 0011.1-10.72c0-4.49-2.313-7.03-7.908-9.58l-3.283-1.48c-3.284-1.48-4.948-3.14-4.948-5.22a5.471 5.471 0 015.78-5.37c2.682 0 4.3.93 5.965 3.8zM27.521.6v22.42c0 3.61.74 6.75 3.052 9.16a13.3 13.3 0 0018.775 0c2.451-2.54 3.052-5.83 3.052-9.16V.6h-3.93v21.36c0 2.82-.047 5.46-1.619 7.35a9.038 9.038 0 01-6.89 3.15 9.229 9.229 0 01-6.89-3.15c-1.573-1.89-1.619-4.53-1.619-7.35V.6h-3.931zm36.438 34.86V20.2h3.375c6.752 0 11.053-3.74 11.053-9.8 0-6.2-4.3-9.8-12.024-9.8h-6.335v34.86h3.931zm0-31.26h2.867c5.133 0 7.722 2.08 7.722 6.15s-2.682 6.29-7.445 6.29h-3.144V4.2zM100.628.6H82.547v34.86h18.081v-3.65h-14.15v-13.6h13.734v-3.65H86.478V4.2h14.15V.6zm14.842 19.28a9.2 9.2 0 008.741-9.48c0-6.01-3.607-9.8-12.209-9.8h-5.641v34.86h3.93v-15.3h.971l10.544 15.3h4.717zM110.291 4.2h2.312c5.18 0 7.769 2.08 7.769 6.2s-2.682 6.33-7.676 6.33h-2.4V4.2zm20.946 31.26h7.075a23.3 23.3 0 007.954-1.15 17.012 17.012 0 006.015-3.93 18.027 18.027 0 00.09-24.7 16.578 16.578 0 00-5.967-3.88 23.979 23.979 0 00-8-1.2h-7.168v34.86zm3.931-31.26h3.376c4.671 0 8.324 1.34 10.913 4.03a13.445 13.445 0 013.835 9.8 13.208 13.208 0 01-3.881 9.76c-2.636 2.72-6.243 4.02-10.867 4.02h-3.376V4.2zm25.894 13.64a18.126 18.126 0 1018.17-17.85c-9.71 0-18.17 8.14-18.17 17.85zm3.93 0a14.2 14.2 0 1114.1 14.62 14.486 14.486 0 01-14.1-14.62zm56.74-12.39c-2.08-3.65-5.09-5.46-8.97-5.46-5.51 0-9.81 3.8-9.81 9.02 0 3.93 1.95 6.15 7.08 8.56l3.14 1.48c4.35 2.03 5.88 3.51 5.88 6.52a6.963 6.963 0 01-6.99 6.89c-3.79 0-6.15-2.18-7.12-6.43l-3.74 1.06c1.24 5.6 5.13 8.97 10.72 8.97a10.878 10.878 0 0011.1-10.72c0-4.49-2.31-7.03-7.9-9.58l-3.29-1.48c-3.28-1.48-4.95-3.14-4.95-5.22a5.471 5.471 0 015.78-5.37c2.69 0 4.31.93 5.97 3.8zm7.02-4.85v34.86h3.94V.6h-3.94zm30.2 4.85c-2.08-3.65-5.09-5.46-8.97-5.46-5.5 0-9.8 3.8-9.8 9.02 0 3.93 1.94 6.15 7.07 8.56l3.15 1.48c4.34 2.03 5.87 3.51 5.87 6.52a6.961 6.961 0 01-6.98 6.89c-3.8 0-6.15-2.18-7.13-6.43l-3.74 1.06c1.25 5.6 5.13 8.97 10.73 8.97a10.884 10.884 0 0011.1-10.72c0-4.49-2.32-7.03-7.91-9.58l-3.29-1.48c-3.28-1.48-4.94-3.14-4.94-5.22a5.471 5.471 0 015.78-5.37c2.68 0 4.3.93 5.96 3.8z" fill-rule="evenodd"/></svg><svg width="122.74" height="20.17" viewBox="-1 -1 243.47 38.34" y="145.57" xmlns="http://www.w3.org/2000/svg"><path data-name="anti-edad" d="M12.54 22.8l5.086-12.53 4.9 12.53H12.54zm15.075 12.85h7.306L20.216.05h-5.087L.008 35.65h7.214l3.19-7.35h14.243zm16.83 0V12.07l21.226 24.28h4.717V.79h-6.8v23.49L42.316 0h-4.671v35.65h6.8zM87.911 6.7h7.861V.79H73.3V6.7h7.815v28.95h6.8V6.7zM98.73.79v34.86h6.8V.79h-6.8zm9.387 25.48h11.745v-5.28h-11.745v5.28zM141.78.79H122.5v34.86h19.283v-5.87H129.3V20.3h12.025v-5.87H129.3V6.7h12.485V.79zM153.8 6.7h1.81c4.39 0 7.58.88 9.8 3.2a11.714 11.714 0 013.33 8.32 12.036 12.036 0 01-2.87 7.86c-2.22 2.64-5.64 3.7-10.26 3.7h-1.81V6.7zM147 35.65h9.9c11.65 0 18.82-7.9 18.82-17.48 0-9.75-7.17-17.38-18.73-17.38H147v34.86zm40.65-12.85l5.09-12.53 4.9 12.53h-9.99zm15.08 12.85h7.3L195.33.05h-5.09l-15.12 35.6h7.21l3.19-7.35h14.25zM219.56 6.7h1.8c4.39 0 7.58.88 9.8 3.2a11.714 11.714 0 013.33 8.32 12.081 12.081 0 01-2.86 7.86c-2.22 2.64-5.65 3.7-10.27 3.7h-1.8V6.7zm-6.8 28.95h9.89c11.66 0 18.83-7.9 18.83-17.48 0-9.75-7.17-17.38-18.73-17.38h-9.99v34.86z" fill-rule="evenodd"/></svg><svg width="106.1" height="20.96" viewBox="-1 -1 210.19 39.91" x="121.06" y="165.74" xmlns="http://www.w3.org/2000/svg"><path data-name="Con 10%" d="M28.54 4.34A17.67 17.67 0 0018.04.87 18.253 18.253 0 00.01 18.82a18.007 18.007 0 0018.03 18.12 18.2 18.2 0 0010.5-3.37v-4.81c-3.24 3.05-6.75 4.58-10.5 4.58a14.388 14.388 0 010-28.77 15.2 15.2 0 0110.5 4.58V4.34zM32 18.72A18.131 18.131 0 1050.18.87C40.47.87 32 9.01 32 18.72zm3.94 0a14.2 14.2 0 1114.1 14.62 14.48 14.48 0 01-14.1-14.62zm42.03 17.62V9.48l27.14 28.44V1.48h-3.88v27L74.04 0v36.34h3.93zm56.46 0h3.93V1.48h-7.68l-2.03 3.6h5.78v31.26zm12.8-17.38c0 10.35 5.41 17.94 12.44 17.94s12.49-7.59 12.49-17.94S166.7.97 159.67.97s-12.44 7.63-12.44 17.99zm3.8 0c0-8.24 3.65-14.43 8.64-14.43s8.7 6.19 8.7 14.43-3.7 14.38-8.7 14.38-8.64-6.15-8.64-14.38zm29.08 16.87l2.04 1.16 20.3-35.05-2.04-1.16zm12.58-6.7a7.745 7.745 0 0015.49 0 7.745 7.745 0 10-15.49 0zm3.01 0a4.715 4.715 0 114.71 4.72 4.733 4.733 0 01-4.71-4.72zM174.28 8.69a7.75 7.75 0 107.73-7.77 7.682 7.682 0 00-7.73 7.77zm3.01 0a4.715 4.715 0 114.72 4.72 4.742 4.742 0 01-4.72-4.72z" fill-rule="evenodd"/></svg><svg width="171.49" height="20.27" viewBox="-1 -1 340.97 38.54" y="64.8" xmlns="http://www.w3.org/2000/svg"><path data-name="de vitamina C" d="M6.79 6.71H8.6c4.39 0 7.58.88 9.8 3.19a11.737 11.737 0 013.33 8.33 12.036 12.036 0 01-2.87 7.86c-2.22 2.63-5.64 3.7-10.26 3.7H6.79V6.71zm-6.8 28.95h9.9c11.65 0 18.82-7.91 18.82-17.48C28.71 8.42 21.54.79 9.98.79H-.01v34.87zM52.89.79H33.61v34.87h19.28v-5.87H40.41v-9.48h12.02v-5.88H40.41V6.71h12.48V.79zm14.15 0l14.85 35.75h3.6L100.61.79h-7.4l-9.43 23.45L74.49.79h-7.45zm36.25 0v34.87h6.8V.79h-6.8zm24.33 5.92h7.86V.79H113v5.92h7.82v28.95h6.8V6.71zm17.52 16.09l5.09-12.53 4.9 12.53h-9.99zm15.08 12.86h7.3L152.82.05h-5.09l-15.12 35.61h7.21l3.19-7.35h14.25zm14.98 0l3.56-21.46 9.25 21.87h1.85l9.61-21.87 3.1 21.46h6.85L203.64.14h-4.67l-9.95 22.85L179.54.14h-4.67l-6.47 35.52h6.8zM214.22.79v34.87h6.8V.79h-6.8zm20.21 34.87V12.07l21.23 24.28h4.71V.79h-6.8v23.49L232.3.01h-4.67v35.65h6.8zm41.34-12.86l5.09-12.53 4.9 12.53h-9.99zm15.07 12.86h7.31L283.44.05h-5.08l-15.12 35.61h7.21l3.19-7.35h14.24zm48.14-33.53a18.721 18.721 0 00-8.51-2.12 18.312 18.312 0 00-18.45 18.4 18.023 18.023 0 0018.4 18.03 20.64 20.64 0 008.56-2.03v-8a11.749 11.749 0 01-8.42 3.84C324 30.25 319 25.16 319 18.36c0-6.89 5-12.16 11.42-12.16 3.06 0 5.92 1.34 8.56 3.98V2.13z" fill-rule="evenodd"/></svg><svg width="213.8" height="20.25" viewBox="-1 -1 425.6 38.5" y="23.5" xmlns="http://www.w3.org/2000/svg"><path data-name="Rellena arrugas" d="M6.79 6.29h2.08c4.4 0 6.57 1.76 6.57 5.22 0 3.56-2.22 5.32-6.66 5.32H6.79V6.29zm7.72 14.66c5.32-1.07 7.96-4.35 7.96-9.85C22.47 5.04 18.49.79 10.12.79H-.01v34.86h6.8V21.64h.88l9.43 14.01h8.37zM47.99.79H28.71v34.86h19.28v-5.87H35.51V20.3h12.02v-5.87H35.51V6.7h12.48V.79zm5.23 0v34.86h17.52v-5.87H60.01V.79h-6.79zm20.85 0v34.86H91.6v-5.87H80.87V.79h-6.8zm40.14 0H94.92v34.86h19.29v-5.87h-12.49V20.3h12.02v-5.87h-12.02V6.7h12.49V.79zm12.02 34.86V12.07l21.22 24.28h4.72V.79h-6.8v23.49L124.1 0h-4.67v35.65h6.8zm41.34-12.85l5.08-12.53 4.91 12.53h-9.99zm15.07 12.85h7.31L175.24.05h-5.08l-15.13 35.6h7.22l3.19-7.35h14.24zm31.49-12.85l5.09-12.53 4.9 12.53h-9.99zm15.08 12.85h7.3L221.81.05h-5.09l-15.12 35.6h7.21L212 28.3h14.25zm16.83-29.36h2.08c4.39 0 6.56 1.76 6.56 5.22 0 3.56-2.22 5.32-6.66 5.32h-1.98V6.29zm7.72 14.66c5.32-1.07 7.95-4.35 7.95-9.85 0-6.06-3.98-10.31-12.35-10.31h-10.12v34.86h6.8V21.64h.87l9.44 14.01h8.37zm20.99-14.66h2.08c4.39 0 6.57 1.76 6.57 5.22 0 3.56-2.22 5.32-6.66 5.32h-1.99V6.29zm7.72 14.66c5.32-1.07 7.96-4.35 7.96-9.85 0-6.06-3.98-10.31-12.35-10.31h-10.13v34.86h6.8V21.64h.88l9.43 14.01h8.37zM296.3.79V22.1c0 9.76 5.82 14.34 14.01 14.34s14.01-4.58 14.01-14.34V.79h-6.8v19.97c0 2.36-.09 4.53-1.06 6.2a7.057 7.057 0 01-6.15 3.28 6.514 6.514 0 01-6.15-3.28c-.97-1.67-1.07-3.84-1.07-6.2V.79h-6.79zm52.3 22.05h8.18c-.51 4.63-4.39 7.4-9.11 7.4-6.57 0-11.47-5.13-11.47-11.88 0-6.85 4.9-12.16 11.47-12.16a10.114 10.114 0 019.11 5.17l5.92-3.19Q357.705.005 347.72 0c-10.78 0-18.5 7.77-18.5 18.36 0 10.45 7.77 18.08 18.31 18.08 9.85 0 17.02-6.48 17.02-18.45v-1.02H348.6v5.87zm28.06-.04l5.09-12.53 4.9 12.53h-9.99zm15.08 12.85h7.31L384.34.05h-5.09l-15.12 35.6h7.22l3.19-7.35h14.24zm30.61-31.58A15.021 15.021 0 00412.13.18c-6.34 0-10.87 4.44-10.87 10.18 0 4.53 2.04 7.03 8.6 9.39 5.83 2.12 6.76 3.19 6.76 5.64 0 2.86-2.36 4.9-5.42 4.9a7.863 7.863 0 01-7.35-4.67l-4.39 4.25c3.05 4.4 7.03 6.62 11.98 6.62 7.16 0 12.16-4.72 12.16-11.47 0-4.77-1.85-7.86-10.04-10.87-4.21-1.53-5.31-2.45-5.31-4.35 0-2.26 2.26-3.88 4.9-3.88a7.615 7.615 0 015.68 2.77z" fill-rule="evenodd"/></svg></svg>